<?xml version="1.0" standalone="no"?>
<!DOCTYPE svg PUBLIC "-//W3C//DTD SVG 1.1//EN" "http://www.w3.org/Graphics/SVG/1.1/DTD/svg11.dtd" >
<svg xmlns="http://www.w3.org/2000/svg" width="100%" height="100%">
<metadata>
Created by FontXChange 20110222 at Thu Jul 31 19:01:44 2014
 By Stedman Halliday
Copyright 1993, 2001, 2002 Adobe Systems Incorporated. All rights reserved. ITC and Officina are trademarks of International Typeface Corporation registered in the U.S. Patent and Trademark Office and may be registered in certain other jurisdictions.
</metadata>
<defs>
<font id="OfficinaSansStd-BoldItalic" horiz-adv-x="556" >
  <font-face 
    font-family="OfficinaSansStd"
    font-weight="700"
    font-style="italic"
    font-stretch="normal"
    units-per-em="1000"
    panose-1="2 11 8 6 5 2 3 9 2 4"
    ascent="724"
    descent="-276"
    x-height="494"
    cap-height="685"
    bbox="-145 -259 1113 942"
    underline-thickness="50"
    underline-position="-50"
    slope="-12"
    stemh="100"
    stemv="127"
    unicode-range="U+0020-FB02"
  />
<missing-glyph horiz-adv-x="590" 
d="M90 0v700h500v-700h-500zM340 395l170 255h-340zM370 350l170 -255v510zM170 50h340l-170 255zM140 605v-510l170 255z" />
    <glyph glyph-name="f_i" unicode="fi" horiz-adv-x="593" 
d="M261 404l-81 -411c-19 -94 -56 -195 -192 -195c-46 0 -89 6 -89 17c0 4 1 7 2 11l21 70c2 5 4 7 7 7s20 -5 41 -5c68 0 80 46 93 110l78 396h-71c-6 0 -14 1 -14 10c0 4 1 8 2 12l12 56c1 9 3 12 14 12h74l12 63c15 81 39 160 166 160c38 0 91 -13 91 -28
c0 -3 -1 -5 -2 -8l-24 -70c-3 -6 -6 -7 -8 -7c-8 0 -25 13 -50 13c-41 0 -47 -39 -56 -80l-9 -43h270c8 0 12 -3 12 -10c0 -4 0 -9 -1 -12l-98 -460c-2 -11 -4 -12 -14 -12h-93c-8 0 -13 2 -13 10c0 3 1 7 1 11l81 383h-162zM612 642c0 -47 -38 -83 -83 -83s-82 36 -82 83
c0 50 42 82 82 82c41 0 83 -33 83 -82z" />
    <glyph glyph-name="f_l" unicode="fl" horiz-adv-x="593" 
d="M536 91l10 -69c0 -3 1 -7 1 -10c0 -15 -62 -29 -101 -29c-58 0 -97 19 -97 84c0 36 4 71 12 106l111 513c2 10 3 14 18 17l88 18c4 1 11 3 14 3c4 0 5 -3 5 -11c0 -5 -2 -13 -3 -19l-113 -520c-5 -24 -12 -49 -12 -63s8 -20 23 -20c17 0 32 7 37 7c3 0 6 -1 7 -7z
M261 404l-81 -411c-19 -94 -56 -195 -192 -195c-46 0 -89 6 -89 17c0 4 1 7 2 11l21 70c2 5 4 7 7 7s20 -5 41 -5c68 0 80 46 93 110l78 396h-71c-6 0 -14 1 -14 10c0 4 1 8 2 12l12 56c1 9 3 12 14 12h74l12 63c15 81 41 160 176 160c38 0 91 -13 91 -28c0 -2 -1 -5 -2 -8
l-24 -70c-2 -6 -6 -7 -8 -7c-8 0 -25 13 -50 13c-48 0 -57 -39 -66 -80l-9 -43h114c9 0 12 -5 12 -9s-2 -8 -3 -12l-18 -58c-3 -9 -4 -11 -14 -11h-108z" />
    <glyph glyph-name=".notdef" horiz-adv-x="590" 
d="M90 0v700h500v-700h-500zM340 395l170 255h-340zM370 350l170 -255v510zM170 50h340l-170 255zM140 605v-510l170 255z" />
    <glyph glyph-name="space" unicode=" " horiz-adv-x="296" 
 />
    <glyph glyph-name="exclam" unicode="!" horiz-adv-x="352" 
d="M327 662l-109 -406c-4 -13 -6 -14 -18 -14h-60c-10 0 -17 2 -17 13c0 3 2 15 3 19l62 393c2 16 4 18 18 18h106c11 0 17 -2 17 -11c0 -4 -1 -8 -2 -12zM215 63c0 -44 -36 -80 -80 -80s-80 35 -80 80s36 80 80 80s80 -36 80 -80z" />
    <glyph glyph-name="quotedbl" unicode="&#x22;" horiz-adv-x="481" 
d="M255 678l-19 -213c-1 -17 -4 -20 -21 -20h-43c-17 0 -20 3 -21 20l-19 213c-1 4 -2 19 -2 26c0 13 10 13 20 13h87c10 0 20 0 20 -13c0 -7 -1 -22 -2 -26zM440 678l-19 -213c-1 -17 -4 -20 -21 -20h-43c-17 0 -20 3 -21 20l-19 213c-1 4 -2 19 -2 26c0 13 10 13 20 13h87
c10 0 20 0 20 -13c0 -7 -1 -22 -2 -26z" />
    <glyph glyph-name="numbersign" unicode="#" 
d="M368 146l-59 -185c-4 -12 -5 -13 -16 -13h-51c-11 0 -17 3 -17 11c0 6 2 11 4 16l54 171h-105l-59 -185c-4 -12 -5 -13 -16 -13h-50c-11 0 -18 3 -18 11c0 5 1 10 3 16l55 171h-43c-10 0 -17 1 -17 9c0 5 2 12 3 17l11 49c3 13 5 15 17 15h58l55 174h-44
c-10 0 -17 1 -17 8c0 5 2 13 3 18l10 49c2 13 5 15 18 15h59l54 172c4 12 6 13 19 13h50c10 0 16 -2 16 -11c0 -5 -2 -11 -4 -16l-50 -158h105l55 172c4 12 5 13 18 13h50c10 0 17 -1 17 -8c0 -4 -3 -13 -5 -19l-50 -158h51c10 0 17 -2 17 -11c0 -5 -1 -11 -2 -16l-11 -49
c-3 -13 -5 -14 -18 -14h-65l-56 -174h53c9 0 17 -2 17 -11c0 -5 -2 -10 -3 -15l-11 -50c-3 -13 -6 -14 -17 -14h-68zM312 236l56 174h-106l-55 -174h105z" />
    <glyph glyph-name="dollar" unicode="$" 
d="M254 2l-12 -56c-3 -13 -6 -14 -18 -14h-23c-10 0 -17 2 -17 11c0 5 0 10 2 15l10 42c-49 4 -159 36 -159 56c0 3 3 10 5 13l36 72c3 6 7 8 10 8c14 0 49 -40 132 -49l43 202c-40 20 -138 58 -138 172c0 156 143 190 213 198l10 45c2 12 5 14 18 14h22c11 0 17 -3 17 -11
c0 -5 -1 -10 -2 -15l-7 -33c40 -4 137 -29 137 -50c0 -4 -3 -8 -4 -11l-37 -71c-4 -6 -7 -8 -11 -8c-13 0 -36 35 -108 45l-39 -188c57 -29 133 -63 133 -167c0 -161 -138 -210 -213 -220zM288 412l34 165c-29 -9 -82 -31 -82 -94c0 -42 29 -61 48 -71zM308 281l-38 -179
c26 8 82 26 82 103c0 46 -23 62 -44 76z" />
    <glyph glyph-name="percent" unicode="%" horiz-adv-x="833" 
d="M587 58c48 0 88 68 88 158c0 29 -13 47 -41 47c-48 0 -88 -68 -88 -158c0 -29 13 -47 41 -47zM765 213c0 -129 -80 -230 -190 -230c-77 0 -119 51 -119 125c0 129 80 230 190 230c77 0 119 -51 119 -125zM663 656l-369 -663c-5 -10 -7 -10 -18 -10h-62c-11 0 -17 2 -17 9
c0 6 3 12 6 17l369 665c5 9 7 11 18 11h62c11 0 17 -3 17 -9c0 -7 -3 -15 -6 -20zM405 543c0 -129 -80 -230 -190 -230c-77 0 -119 51 -119 125c0 129 80 230 190 230c77 0 119 -51 119 -125zM227 388c48 0 88 68 88 158c0 29 -13 47 -41 47c-48 0 -88 -68 -88 -158
c0 -29 13 -47 41 -47z" />
    <glyph glyph-name="ampersand" unicode="&#x26;" horiz-adv-x="630" 
d="M464 -5l-40 62c-35 -28 -93 -74 -206 -74c-106 0 -188 46 -188 161c0 146 136 208 185 234c-13 21 -59 81 -59 149c0 111 90 175 214 175c106 0 161 -54 161 -133c0 -112 -117 -177 -168 -207l79 -124c43 66 44 136 62 136c4 0 7 -1 11 -2l72 -18c9 -3 12 -6 12 -12
c0 -48 -60 -159 -93 -203l54 -79c2 -4 4 -8 4 -11c0 -6 -4 -9 -9 -13l-65 -48c-5 -3 -7 -5 -12 -5s-9 4 -14 12zM315 435c35 18 96 55 96 117c0 34 -14 57 -54 57c-48 0 -86 -32 -86 -81c0 -36 35 -79 44 -93zM367 145l-103 159c-30 -16 -104 -51 -104 -125
c0 -52 29 -88 83 -88c64 0 106 37 124 54z" />
    <glyph glyph-name="quoteright" unicode="&#x2019;" horiz-adv-x="222" 
d="M301 690l-170 -234c-3 -4 -6 -9 -11 -9c-6 0 -11 5 -15 7l-36 22c-7 5 -10 7 -10 11c0 6 3 10 6 16l101 203c5 10 7 11 18 11h107c13 0 17 -4 17 -11c0 -6 -4 -12 -7 -16z" />
    <glyph glyph-name="parenleft" unicode="(" horiz-adv-x="463" 
d="M306 -229l-51 -27c-4 -2 -7 -3 -11 -3c-21 0 -133 206 -133 381c0 363 335 629 342 629c3 0 7 -2 10 -4l44 -37c2 -2 6 -6 6 -10c0 -36 -275 -237 -275 -596c0 -192 79 -297 79 -316c0 -9 -4 -13 -11 -17z" />
    <glyph glyph-name="parenright" unicode=")" horiz-adv-x="463" 
d="M157 721l51 27c4 2 7 3 11 3c21 0 133 -206 133 -381c0 -363 -335 -629 -342 -629c-3 0 -7 2 -10 4l-44 37c-2 2 -6 6 -6 10c0 36 275 237 275 596c0 192 -79 297 -79 316c0 9 4 13 11 17z" />
    <glyph glyph-name="asterisk" unicode="*" 
d="M470 367l-52 -37c-5 -4 -10 -8 -15 -8c-6 0 -9 3 -14 14l-57 112l-56 -112c-5 -11 -8 -14 -14 -14c-5 0 -10 4 -15 8l-52 37c-5 3 -11 9 -11 15c0 5 5 11 9 15l90 86l-123 19c-10 1 -19 3 -19 12c0 4 2 9 3 13l20 61c3 9 6 16 13 16c5 0 10 -3 14 -5l111 -59l-21 123
c-1 5 -1 7 -1 11c0 11 11 11 20 11h65c9 0 20 0 20 -11c0 -4 0 -6 -1 -11l-21 -123l111 59c4 2 9 5 14 5c7 0 10 -7 13 -16l20 -61c1 -4 3 -9 3 -13c0 -9 -9 -11 -19 -12l-123 -19l90 -86c4 -4 9 -10 9 -15c0 -6 -6 -12 -11 -15z" />
    <glyph glyph-name="plus" unicode="+" 
d="M328 207v-160c0 -14 -3 -17 -17 -17h-66c-14 0 -17 3 -17 17v160h-160c-14 0 -17 3 -17 17v66c0 14 4 17 17 17h160v160c0 14 3 17 17 17h66c14 0 17 -3 17 -17v-160h160c14 0 17 -3 17 -17v-66c0 -14 -3 -17 -17 -17h-160z" />
    <glyph glyph-name="comma" unicode="," horiz-adv-x="296" 
d="M211 98l-170 -234c-3 -4 -6 -9 -11 -9c-6 0 -11 5 -15 7l-36 22c-7 5 -10 7 -10 11c0 6 3 10 6 16l101 203c5 10 7 11 18 11h107c13 0 17 -4 17 -11c0 -6 -4 -12 -7 -16z" />
    <glyph glyph-name="hyphen" unicode="-" horiz-adv-x="333" 
d="M290 278l-15 -67c-4 -14 -6 -15 -18 -15h-207c-10 0 -17 4 -17 11c0 6 2 16 3 22l15 67c4 14 6 15 18 15h207c11 0 17 -3 17 -11c0 -6 -2 -16 -3 -22z" />
    <glyph glyph-name="period" unicode="." horiz-adv-x="296" 
d="M212 74c0 -50 -42 -91 -91 -91c-50 0 -91 41 -91 91c0 49 41 91 91 91c49 0 91 -42 91 -91z" />
    <glyph glyph-name="slash" unicode="/" horiz-adv-x="481" 
d="M519 691l-513 -880c-6 -10 -10 -13 -23 -13h-65c-12 0 -17 4 -17 11c0 5 3 10 6 15l513 880c6 10 11 13 24 13h64c12 0 17 -5 17 -11s-3 -10 -6 -15z" />
    <glyph glyph-name="zero" unicode="0" 
d="M39 170c0 118 55 329 117 407c51 64 119 108 213 108c110 0 180 -64 180 -187c0 -129 -58 -328 -117 -407c-50 -67 -132 -108 -213 -108c-111 0 -180 64 -180 187zM422 485c0 54 -18 92 -71 92c-127 0 -185 -277 -185 -394c0 -54 18 -92 71 -92c127 0 185 276 185 394z
" />
    <glyph glyph-name="one" unicode="1" 
d="M421 68l-11 -56c-3 -11 -5 -12 -15 -12h-294c-8 0 -13 3 -13 10c0 4 2 8 2 12l11 56c3 11 5 12 15 12h105l94 444l-100 -54c-6 -3 -11 -6 -18 -6c-4 0 -7 3 -11 12l-15 37c-2 5 -5 11 -5 17c0 5 5 8 10 11l180 111c8 5 12 6 22 6h59c10 0 17 -2 17 -11
c0 -5 -2 -10 -3 -14l-117 -553h76c8 0 13 -3 13 -10c0 -4 -2 -8 -2 -12z" />
    <glyph glyph-name="two" unicode="2" 
d="M429 82l-14 -67c-3 -14 -6 -15 -18 -15h-361c-6 0 -11 0 -11 8c0 71 53 164 77 195c106 135 300 172 300 302c0 49 -18 75 -57 75c-90 0 -111 -108 -137 -108c-4 0 -6 1 -10 3l-56 28c-6 3 -9 5 -9 11c0 25 74 171 237 171c102 0 159 -59 159 -161
c0 -116 -57 -162 -161 -240c-103 -78 -169 -95 -192 -176h238c10 0 17 -2 17 -11c0 -5 -1 -10 -2 -15z" />
    <glyph glyph-name="three" unicode="3" 
d="M191 523l-48 46c-3 2 -5 5 -5 8c0 15 83 108 202 108c104 0 161 -59 161 -141c0 -98 -63 -159 -124 -185c32 -17 79 -44 79 -134c0 -145 -102 -242 -262 -242c-89 0 -177 37 -177 51c0 4 1 8 3 11l33 72c3 7 7 9 11 9c11 0 55 -38 137 -38c85 0 135 56 135 130
c0 66 -53 78 -109 78h-31c-11 0 -17 3 -17 11c0 5 0 10 2 15l14 67c2 13 6 15 18 15h38c88 0 130 53 130 116c0 45 -25 65 -61 65c-67 0 -106 -66 -120 -66c-4 0 -7 2 -9 4z" />
    <glyph glyph-name="four" unicode="4" 
d="M412 151l-29 -137c-3 -13 -6 -14 -18 -14h-78c-10 0 -17 2 -17 9c0 4 2 12 3 17l26 125h-244c-11 0 -17 2 -17 10c0 4 2 13 3 16l20 95c2 10 2 9 8 17l326 410c3 3 7 7 12 7s8 -2 13 -4l63 -31c6 -3 11 -6 11 -14c0 -4 -3 -7 -5 -10l-320 -403h152l58 174
c4 11 5 13 18 13h55c10 0 17 -3 17 -10c0 -4 -2 -11 -3 -16l-34 -161h59c10 0 17 -3 17 -11c0 -5 -2 -12 -3 -16l-12 -51c-3 -14 -6 -15 -18 -15h-63z" />
    <glyph glyph-name="five" unicode="5" 
d="M282 563l-51 -157c19 10 47 24 97 24c93 0 163 -62 163 -159c0 -150 -116 -288 -299 -288c-78 0 -170 25 -170 42c0 4 1 8 3 12l28 74c2 7 5 10 12 10c11 0 61 -33 133 -33c111 0 173 83 173 166c0 55 -29 81 -78 81c-82 0 -107 -58 -125 -58c-3 0 -7 1 -9 2l-52 18
c-12 4 -16 6 -16 13c0 5 3 10 4 15l101 330c4 12 6 13 18 13h296c10 0 16 -2 16 -11c0 -5 -1 -10 -2 -15l-13 -64c-3 -14 -7 -15 -18 -15h-211z" />
    <glyph glyph-name="six" unicode="6" 
d="M546 641l-32 -64c-5 -9 -7 -10 -11 -10c-11 0 -34 13 -76 13c-119 0 -185 -135 -203 -173l2 -2c17 19 61 63 131 63c79 0 138 -55 138 -166c0 -190 -111 -319 -261 -319c-100 0 -167 56 -167 189c0 224 138 513 370 513c56 0 112 -13 112 -32c0 -4 -1 -8 -3 -12zM249 88
c77 0 126 99 126 198c0 49 -25 77 -66 77c-74 0 -122 -98 -122 -200c0 -47 25 -75 62 -75z" />
    <glyph glyph-name="seven" unicode="7" 
d="M551 600l-352 -607c-4 -6 -6 -10 -12 -10c-5 0 -11 1 -15 2l-77 18c-9 2 -15 6 -15 11c0 6 4 10 7 15l326 531h-245c-11 0 -17 2 -17 11c0 5 0 10 2 15l15 68c2 13 5 14 18 14h363c10 0 17 -2 17 -11c0 -5 -1 -10 -2 -15l-5 -22c-4 -15 -3 -10 -8 -20z" />
    <glyph glyph-name="eight" unicode="8" 
d="M489 204c0 -126 -107 -221 -262 -221c-120 0 -197 49 -197 153c0 140 131 196 175 216c-20 13 -80 47 -80 137c0 124 99 196 226 196c112 0 184 -64 184 -148c0 -115 -109 -168 -141 -183c30 -17 95 -53 95 -150zM312 399c29 12 103 41 103 119c0 40 -26 67 -74 67
c-53 0 -96 -36 -96 -93c0 -59 42 -79 67 -93zM249 88c66 0 120 36 120 107c0 75 -61 96 -87 109c-35 -15 -132 -53 -132 -138c0 -55 42 -78 99 -78z" />
    <glyph glyph-name="nine" unicode="9" 
d="M59 22l22 69c3 9 7 10 11 10c10 0 30 -13 67 -13c119 0 185 135 203 173l-2 2c-17 -19 -61 -63 -131 -63c-79 0 -138 55 -138 166c0 190 111 319 261 319c100 0 167 -56 167 -189c0 -224 -138 -513 -370 -513c-47 0 -93 13 -93 27c0 4 2 8 3 12zM277 305
c74 0 122 98 122 200c0 47 -25 75 -62 75c-77 0 -126 -99 -126 -198c0 -49 25 -77 66 -77z" />
    <glyph glyph-name="colon" unicode=":" horiz-adv-x="296" 
d="M201 74c0 -50 -42 -91 -91 -91c-50 0 -91 41 -91 91c0 49 41 91 91 91c49 0 91 -42 91 -91zM271 403c0 -50 -42 -91 -91 -91c-50 0 -91 41 -91 91c0 49 41 91 91 91c49 0 91 -42 91 -91z" />
    <glyph glyph-name="semicolon" unicode=";" horiz-adv-x="296" 
d="M211 98l-170 -234c-3 -4 -6 -9 -11 -9c-6 0 -11 5 -15 7l-36 22c-7 5 -10 7 -10 11c0 6 3 10 6 16l101 203c5 10 7 11 18 11h107c13 0 17 -4 17 -11c0 -6 -4 -12 -7 -16zM292 403c0 -50 -42 -91 -91 -91c-50 0 -91 41 -91 91c0 49 41 91 91 91c49 0 91 -42 91 -91z" />
    <glyph glyph-name="less" unicode="&#x3c;" 
d="M502 143l-17 -60c-3 -11 -7 -11 -9 -11s-7 2 -8 3l-407 135c-8 2 -11 4 -11 15v62c0 13 2 15 11 18l407 136c1 0 6 2 8 2c5 0 6 0 9 -10l17 -60s1 -5 1 -8c0 -4 0 -10 -8 -12l-296 -94v-2l296 -94c8 -3 8 -7 8 -12c0 -3 -1 -6 -1 -8z" />
    <glyph glyph-name="equal" unicode="=" 
d="M505 210v-66c0 -14 -3 -17 -17 -17h-420c-14 0 -17 3 -17 17v66c0 14 4 17 17 17h420c14 0 17 -3 17 -17zM505 369v-66c0 -14 -3 -17 -17 -17h-420c-14 0 -17 3 -17 17v66c0 14 4 17 17 17h420c14 0 17 -3 17 -17z" />
    <glyph glyph-name="greater" unicode="&#x3e;" 
d="M493 210l-407 -135c-1 -1 -6 -3 -8 -3s-6 0 -9 11l-17 60c0 2 -1 5 -1 8c0 5 0 9 8 12l296 94v2l-296 94c-8 2 -8 8 -8 12c0 3 1 8 1 8l17 60c3 10 4 10 9 10c2 0 7 -2 8 -2l407 -136c9 -3 11 -5 11 -18v-62c0 -11 -3 -13 -11 -15z" />
    <glyph glyph-name="question" unicode="?" horiz-adv-x="463" 
d="M279 332l-16 -74c-3 -13 -5 -14 -17 -14h-81c-9 0 -15 4 -15 11c0 5 2 10 3 14l25 120c1 7 9 18 21 20c42 7 149 30 149 116c0 34 -16 62 -69 62c-59 0 -106 -32 -122 -32c-5 0 -8 3 -9 8l-28 71c-2 4 -4 8 -4 12c0 20 119 56 195 56c107 0 172 -64 172 -153
c0 -147 -130 -202 -204 -217zM250 63c0 -44 -36 -80 -80 -80s-80 35 -80 80s36 80 80 80s80 -36 80 -80z" />
    <glyph glyph-name="at" unicode="@" horiz-adv-x="1000" 
d="M818 -30l16 -41c1 -4 3 -7 3 -12c0 -21 -150 -87 -334 -87c-258 0 -400 135 -400 365c0 272 213 473 478 473c223 0 351 -125 351 -305c0 -198 -144 -308 -278 -308c-73 0 -86 42 -92 69c-17 -23 -52 -69 -117 -69c-58 0 -93 41 -93 122c0 137 82 260 182 260
c47 0 70 -26 78 -34l5 11c3 8 9 10 16 10h66c8 0 12 -5 12 -10c0 -4 -1 -7 -1 -10l-45 -213c-2 -9 -3 -18 -3 -26c0 -23 17 -28 35 -28c65 0 145 76 145 221c0 135 -91 235 -266 235c-225 0 -383 -171 -383 -401c0 -183 112 -287 307 -287c193 0 289 73 308 73
c5 0 7 -2 10 -8zM566 228l24 112c-11 11 -23 22 -48 22c-55 0 -82 -116 -82 -188c0 -23 7 -37 27 -37c47 0 70 52 79 91z" />
    <glyph glyph-name="A" unicode="A" horiz-adv-x="574" 
d="M449 668l58 -644c0 -3 1 -7 1 -10c0 -12 -6 -14 -17 -14h-105c-7 0 -13 5 -13 11l-7 171h-170l-77 -168c-6 -9 -7 -14 -20 -14h-103c-10 0 -13 7 -13 11s3 8 5 13l329 652c4 9 7 9 18 9h96c11 0 16 0 18 -17zM363 272l-9 174c-2 34 -4 64 -4 103h-2
c-7 -28 -26 -64 -43 -104l-76 -173h134z" />
    <glyph glyph-name="B" unicode="B" 
d="M240 400h40c77 0 131 36 131 123c0 52 -35 62 -81 62h-50zM177 100h43c82 0 144 21 144 129c0 64 -41 71 -99 71h-46zM190 685h156c99 0 195 -29 195 -149c0 -115 -96 -160 -135 -177c35 -16 93 -51 93 -145c0 -166 -130 -214 -289 -214h-162c-13 0 -15 5 -15 11
c0 3 1 11 2 15l137 645c3 13 6 14 18 14z" />
    <glyph glyph-name="C" unicode="C" horiz-adv-x="481" 
d="M392 121l25 -64c1 -4 3 -5 3 -12c0 -22 -107 -62 -170 -62c-125 0 -201 67 -201 235c0 249 110 484 340 484c77 0 152 -45 152 -69c0 -5 -3 -6 -5 -10l-46 -69c-4 -5 -7 -6 -10 -6c-22 0 -46 46 -98 46c-130 0 -198 -212 -198 -376c0 -98 28 -127 91 -127
c57 0 93 37 110 37c3 0 4 -1 7 -7z" />
    <glyph glyph-name="D" unicode="D" horiz-adv-x="593" 
d="M179 105h68c154 0 195 231 195 358c0 102 -50 117 -123 117h-40zM189 685h163c124 0 225 -48 225 -212c0 -81 -25 -473 -338 -473h-192c-13 0 -15 5 -15 11c0 3 1 11 2 15l137 645c3 13 6 14 18 14z" />
    <glyph glyph-name="E" unicode="E" horiz-adv-x="481" 
d="M224 306l-42 -201h215c11 0 17 -1 17 -8c0 -4 -2 -13 -3 -18l-14 -65c-3 -13 -6 -14 -18 -14h-332c-13 0 -15 5 -15 11c0 3 1 11 2 15l137 645c3 13 6 14 18 14h334c16 0 17 -3 17 -11c0 -3 -4 -10 -6 -15l-34 -66c-7 -12 -10 -13 -21 -13h-197l-36 -169h170
c10 0 14 -5 14 -11c0 -5 -1 -9 -2 -14l-14 -66c-3 -13 -5 -14 -18 -14h-172z" />
    <glyph glyph-name="F" unicode="F" horiz-adv-x="463" 
d="M224 306l-62 -292c-3 -13 -6 -14 -18 -14h-97c-13 0 -15 5 -15 11c0 3 1 11 2 15l137 645c3 13 6 14 18 14h334c16 0 17 -3 17 -11c0 -3 -4 -10 -6 -15l-34 -66c-7 -12 -10 -13 -21 -13h-197l-36 -169h170c10 0 14 -5 14 -11c0 -5 -1 -9 -2 -14l-14 -66
c-3 -13 -5 -14 -18 -14h-172z" />
    <glyph glyph-name="G" unicode="G" horiz-adv-x="574" 
d="M528 346l-61 -287c-8 -37 -124 -76 -211 -76c-129 0 -207 71 -207 232c0 223 109 487 361 487c82 0 175 -41 175 -63c0 -4 -2 -7 -4 -11l-45 -66c-7 -9 -10 -10 -14 -10c-12 0 -46 42 -122 42c-156 0 -216 -228 -216 -383c0 -85 27 -120 92 -120c44 0 68 13 79 18l32 153
h-72c-10 0 -13 5 -13 11c0 4 1 8 2 13l15 70c3 12 6 14 18 14h180c10 0 13 -5 13 -11c0 -4 -1 -8 -2 -13z" />
    <glyph glyph-name="H" unicode="H" horiz-adv-x="611" 
d="M613 659l-137 -645c-3 -13 -6 -14 -18 -14h-97c-13 0 -15 5 -15 11c0 3 1 11 2 15l58 275h-184l-60 -287c-3 -13 -6 -14 -18 -14h-97c-13 0 -15 5 -15 11c0 3 1 11 2 15l137 645c3 13 6 14 18 14h97c13 0 15 -5 15 -11c0 -3 -1 -11 -2 -15l-53 -250h183l56 262
c3 13 6 14 18 14h97c13 0 15 -5 15 -11c0 -3 -1 -11 -2 -15z" />
    <glyph glyph-name="I" unicode="I" horiz-adv-x="352" 
d="M273 69l-11 -55c-3 -12 -6 -14 -18 -14h-245c-10 0 -13 5 -13 11c0 4 1 8 2 13l11 55c3 12 6 14 18 14h60l106 499h-58c-10 0 -13 5 -13 11c0 4 1 8 2 13l11 55c3 12 6 14 18 14h245c10 0 13 -5 13 -11c0 -4 -1 -8 -2 -13l-11 -55c-3 -12 -6 -14 -18 -14h-60l-106 -499
h58c10 0 13 -5 13 -11c0 -4 -1 -8 -2 -13z" />
    <glyph glyph-name="J" unicode="J" horiz-adv-x="463" 
d="M463 661l-97 -455c-21 -99 -63 -223 -225 -223c-85 0 -144 47 -144 140c0 48 4 74 18 74h91c6 0 11 0 11 -6s-7 -30 -7 -53c0 -36 18 -50 47 -50c53 0 67 49 77 94l87 410h-142c-10 0 -13 5 -13 11c0 4 1 8 2 13l11 55c3 12 6 14 18 14h255c10 0 13 -5 13 -11
c0 -4 -1 -8 -2 -13z" />
    <glyph glyph-name="K" unicode="K" 
d="M341 355l169 -302c2 -4 6 -11 6 -16s-4 -9 -11 -12l-90 -37c-5 -2 -11 -5 -16 -5c-4 0 -9 4 -12 11l-160 324h-2l-63 -304c-3 -13 -6 -14 -18 -14h-97c-13 0 -15 5 -15 11c0 3 1 11 2 15l137 645c3 13 6 14 18 14h97c13 0 15 -5 15 -11c0 -3 -1 -11 -2 -15l-57 -262l2 -2
l278 296c6 7 12 11 16 11c6 0 8 -3 12 -5l67 -35c5 -3 11 -7 11 -12c0 -6 -3 -9 -7 -13z" />
    <glyph glyph-name="L" unicode="L" horiz-adv-x="463" 
d="M299 659l-116 -544h240c11 0 17 -3 17 -10c0 -5 -1 -10 -4 -16l-34 -75c-5 -12 -7 -14 -18 -14h-337c-13 0 -15 5 -15 11c0 3 1 11 2 15l137 645c3 13 5 14 18 14h97c13 0 15 -5 15 -11c0 -3 -1 -11 -2 -15z" />
    <glyph glyph-name="M" unicode="M" horiz-adv-x="685" 
d="M666 661l-106 -647c-3 -12 -6 -14 -18 -14h-82c-10 0 -13 5 -13 11c0 4 1 8 2 13l63 356c10 50 24 103 34 137l-2 2c-12 -32 -36 -86 -66 -140l-120 -217c-6 -10 -6 -11 -18 -11h-45c-12 0 -16 0 -18 17l-20 202c-4 42 -9 116 -9 149h-2c-7 -47 -21 -118 -28 -152
l-83 -353c-3 -12 -6 -14 -18 -14h-82c-10 0 -13 5 -13 11c0 4 1 8 2 13l170 647c3 12 6 14 18 14h98c10 0 13 -3 15 -16l22 -248c2 -23 3 -46 3 -69c0 -20 -2 -39 -2 -58h2c9 31 28 80 53 124l142 257c5 9 11 10 19 10h91c10 0 13 -5 13 -11c0 -4 -1 -8 -2 -13z" />
    <glyph glyph-name="N" unicode="N" horiz-adv-x="611" 
d="M615 659l-138 -645c-3 -13 -4 -14 -16 -14h-65c-12 0 -15 1 -18 13l-115 362c-11 33 -15 56 -22 88h-2c-3 -27 -11 -66 -18 -101l-74 -348c-3 -13 -6 -14 -18 -14h-84c-13 0 -15 5 -15 11c0 3 1 11 2 15l137 645c3 12 6 14 18 14h72c13 0 14 -1 18 -13l107 -331
c15 -41 22 -79 28 -108h2c1 28 9 79 17 114l69 324c3 13 6 14 18 14h84c13 0 15 -5 15 -11c0 -3 -1 -11 -2 -15z" />
    <glyph glyph-name="O" unicode="O" horiz-adv-x="574" 
d="M563 494c0 -233 -102 -511 -331 -511c-118 0 -185 72 -185 207c0 234 103 512 333 512c116 0 183 -73 183 -208zM246 88c119 0 182 240 182 403c0 72 -15 106 -63 106c-119 0 -183 -241 -183 -404c0 -71 15 -105 64 -105z" />
    <glyph glyph-name="P" unicode="P" horiz-adv-x="519" 
d="M217 274l-55 -260c-3 -13 -6 -14 -18 -14h-97c-13 0 -15 5 -15 11c0 3 1 11 2 15l137 645c3 13 6 14 18 14h148c106 0 208 -20 208 -154c0 -180 -128 -257 -276 -257h-52zM240 382h30c90 0 145 38 145 126c0 58 -40 69 -92 69h-42z" />
    <glyph glyph-name="Q" unicode="Q" horiz-adv-x="574" 
d="M503 -31l-81 -50c-4 -2 -8 -3 -12 -3c-23 0 -71 63 -87 83c-13 -6 -28 -10 -43 -13c-15 -2 -31 -3 -48 -3c-118 0 -185 72 -185 207c0 234 103 512 333 512c116 0 183 -73 183 -208c0 -160 -60 -351 -142 -429c19 -23 88 -79 88 -86c0 -4 -2 -7 -6 -10zM246 88
c119 0 182 240 182 403c0 72 -15 106 -63 106c-119 0 -183 -241 -183 -404c0 -71 15 -105 64 -105z" />
    <glyph glyph-name="R" unicode="R" horiz-adv-x="537" 
d="M207 274l-55 -260c-3 -13 -6 -14 -18 -14h-97c-13 0 -15 5 -15 11c0 3 1 11 2 15l137 645c3 13 6 14 18 14h148c106 0 208 -20 208 -154c0 -108 -64 -203 -162 -235l93 -258c1 -4 6 -14 6 -18c0 -5 -4 -8 -11 -10l-94 -24c-5 -1 -11 -3 -16 -3s-9 4 -11 11l-83 280h-50z
M230 382h30c90 0 145 38 145 126c0 58 -40 69 -92 69h-42z" />
    <glyph glyph-name="S" unicode="S" horiz-adv-x="481" 
d="M505 634l-38 -73c-4 -7 -4 -9 -11 -9c-11 0 -66 42 -133 42c-64 0 -111 -32 -111 -93c0 -75 93 -93 172 -158c35 -28 58 -67 58 -125c0 -134 -98 -235 -268 -235c-75 0 -186 36 -186 54c0 3 4 8 7 14l38 73c4 7 4 9 11 9c11 0 74 -42 148 -42c61 0 115 27 115 100
c0 55 -44 82 -93 111c-61 36 -132 75 -132 179c0 144 104 221 257 221c70 0 173 -35 173 -54c0 -3 -4 -8 -7 -14z" />
    <glyph glyph-name="T" unicode="T" horiz-adv-x="463" 
d="M362 570l-119 -556c-3 -13 -6 -14 -18 -14h-97c-13 0 -15 5 -15 11c0 3 1 11 2 15l117 544h-128c-11 0 -17 2 -17 11c0 5 1 10 3 15l17 75c2 13 5 14 18 14h409c16 0 17 -3 17 -11c0 -3 -4 -10 -6 -15l-38 -76c-7 -12 -10 -13 -21 -13h-124z" />
    <glyph glyph-name="U" unicode="U" horiz-adv-x="611" 
d="M622 659l-90 -427c-24 -113 -60 -249 -270 -249c-124 0 -202 52 -202 164c0 29 4 57 10 85l92 439c3 13 6 14 18 14h97c13 0 15 -5 15 -11c0 -3 -1 -11 -2 -15l-94 -428c-6 -21 -9 -43 -9 -65c0 -55 37 -75 89 -75c87 0 114 70 129 139l92 441c3 13 6 14 18 14h94
c13 0 15 -5 15 -11c0 -3 -1 -11 -2 -15z" />
    <glyph glyph-name="V" unicode="V" horiz-adv-x="537" 
d="M611 655l-322 -653c-5 -10 -6 -11 -18 -11h-114c-12 0 -18 2 -18 16l-39 646c0 5 -1 10 -1 14s6 6 16 8l103 18c3 0 8 1 12 1c5 0 10 -3 10 -18l-6 -419c-1 -57 -4 -120 -4 -161h2c16 45 42 109 64 161l183 426c3 9 10 11 13 11s10 -2 15 -2l94 -13c11 -2 14 -8 14 -11
c0 -4 -2 -8 -4 -13z" />
    <glyph glyph-name="W" unicode="W" horiz-adv-x="778" 
d="M830 650l-292 -648c-5 -11 -6 -11 -18 -11h-80c-16 0 -18 5 -17 17l6 357c1 31 10 118 14 156l-2 2c-13 -45 -35 -110 -57 -159l-164 -362c-5 -10 -5 -11 -18 -11h-80c-15 0 -17 4 -17 17l10 655c0 7 6 10 15 12l88 18c3 0 8 1 11 1c5 0 11 -3 11 -18l-24 -364
c-2 -36 -9 -110 -15 -149l2 -2c13 38 37 105 58 152l159 361c4 10 6 11 18 11h76c14 0 16 -3 16 -17v-347c0 -51 -6 -108 -11 -158l2 -2c12 49 27 102 50 160l141 362c3 9 10 11 13 11s10 -1 15 -2l80 -18c11 -3 14 -8 14 -11c0 -4 -2 -9 -4 -13z" />
    <glyph glyph-name="X" unicode="X" horiz-adv-x="519" 
d="M449 16l-92 -24c-3 0 -8 -1 -11 -1c-5 0 -8 3 -12 18l-44 146c-12 41 -20 72 -22 90h-2c-11 -21 -29 -45 -50 -73l-130 -170c-3 -4 -10 -11 -13 -11s-10 1 -15 2l-89 25c-11 3 -14 8 -14 11c0 4 2 10 4 13l264 323l-113 282c-2 5 -2 8 -2 11c0 6 7 8 17 11l92 24
c3 1 8 1 11 1c5 0 7 -4 11 -18l41 -146c10 -35 15 -60 17 -78h2c11 22 25 47 46 79l103 152c5 7 10 11 13 11s7 0 15 -2l89 -25c11 -3 14 -8 14 -11c0 -4 -1 -10 -4 -13l-231 -293l119 -312c1 -5 2 -8 2 -11c0 -6 -6 -9 -16 -11z" />
    <glyph glyph-name="Y" unicode="Y" horiz-adv-x="519" 
d="M331 281l-55 -267c-3 -13 -6 -14 -18 -14h-97c-13 0 -15 5 -15 11c0 3 1 11 2 15l55 255l-111 366c-1 2 -1 8 -1 11c0 6 6 8 16 11l92 24c3 1 7 1 11 1c5 0 9 -3 13 -18l39 -146c16 -58 20 -104 22 -131h2c21 39 44 80 79 132l103 152c3 4 8 11 13 11c4 0 10 -1 15 -2
l89 -25c11 -3 14 -8 14 -11c0 -4 -2 -11 -4 -13z" />
    <glyph glyph-name="Z" unicode="Z" horiz-adv-x="500" 
d="M447 89l-27 -75c-5 -14 -6 -14 -19 -14h-402c-11 0 -17 3 -17 11c0 5 1 10 2 15l16 75l369 469h-237c-16 0 -17 3 -17 11c0 3 3 10 6 15l35 76c5 12 10 13 21 13h345c9 0 17 -1 17 -11c0 -5 -2 -10 -3 -15l-18 -84l-363 -460h279c11 0 17 -3 17 -11c0 -5 -3 -13 -4 -15z
" />
    <glyph glyph-name="bracketleft" unicode="[" horiz-adv-x="444" 
d="M323 -123l-13 -65c-3 -12 -6 -14 -18 -14h-206c-8 0 -13 4 -13 12c0 5 1 9 2 14l188 878c2 13 5 15 17 15h202c10 0 17 -3 17 -12c0 -5 -2 -10 -2 -14l-13 -64c-3 -13 -6 -15 -18 -15h-103l-152 -709h98c10 0 17 -2 17 -11c0 -5 -2 -10 -3 -15z" />
    <glyph glyph-name="backslash" unicode="\" horiz-adv-x="537" 
d="M244 697l216 -875c0 -3 1 -5 1 -8c0 -9 -3 -16 -9 -16h-76c-8 0 -15 7 -18 19l-216 876c-1 4 -2 8 -2 13c0 11 13 11 22 11h63c10 0 17 -8 19 -20z" />
    <glyph glyph-name="bracketright" unicode="]" horiz-adv-x="444" 
d="M369 691l-188 -878c-2 -13 -5 -15 -17 -15h-202c-10 0 -17 3 -17 12c0 5 2 10 2 14l13 64c3 13 6 15 18 15h103l152 709h-98c-10 0 -17 2 -17 11c0 5 2 10 3 15l13 65c3 12 6 14 18 14h206c8 0 13 -4 13 -12c0 -5 -1 -9 -2 -14z" />
    <glyph glyph-name="asciicircum" unicode="^" 
d="M477 336l-60 -13c-3 -1 -5 -1 -8 -1c-4 0 -10 -1 -13 7l-94 237l-94 -237c-3 -8 -9 -7 -13 -7c-3 0 -5 0 -8 1l-60 13c-10 2 -10 6 -10 9c0 2 4 9 5 12l131 319c3 7 5 9 16 9h66c11 0 13 -2 16 -9l131 -319c1 -3 5 -10 5 -12c0 -3 0 -7 -10 -9z" />
    <glyph glyph-name="underscore" unicode="_" horiz-adv-x="500" 
d="M500 -75v-50h-500v50h500z" />
    <glyph glyph-name="quoteleft" unicode="&#x2018;" horiz-adv-x="222" 
d="M297 661l-101 -203c-5 -10 -7 -11 -18 -11h-107c-13 0 -17 4 -17 11c0 6 4 12 7 16l170 234c3 4 6 9 11 9c6 0 11 -5 15 -7l36 -22c7 -5 10 -7 10 -11c0 -6 -3 -10 -6 -16z" />
    <glyph glyph-name="a" unicode="a" horiz-adv-x="519" 
d="M322 222l35 163c-15 12 -38 36 -74 36c-85 0 -129 -174 -129 -278c0 -39 15 -60 42 -60c74 0 112 76 126 139zM417 17l-80 -31c-3 -1 -7 -3 -12 -3c-11 0 -19 40 -19 90c-22 -25 -74 -90 -161 -90c-73 0 -111 60 -111 165c0 198 110 363 237 363c65 0 95 -37 111 -54
l11 27c3 8 7 10 14 10h79c8 0 11 -5 11 -10c0 -4 -1 -8 -2 -12l-66 -313c-5 -22 -8 -56 -8 -71c1 -24 8 -48 8 -60c0 -7 -7 -9 -12 -11z" />
    <glyph glyph-name="b" unicode="b" horiz-adv-x="519" 
d="M188 272l-36 -172c11 -7 42 -27 82 -27c89 0 131 178 131 271c0 43 -16 67 -54 67c-78 0 -110 -75 -123 -139zM25 75l131 611c2 10 3 14 18 17l88 18c4 1 11 3 14 3c5 0 5 -3 5 -10s-2 -14 -3 -20l-56 -255l2 -2c13 21 62 74 141 74c89 0 120 -72 120 -155
c0 -168 -86 -373 -264 -373c-85 0 -198 56 -198 77c0 7 1 11 2 15z" />
    <glyph glyph-name="c" unicode="c" horiz-adv-x="407" 
d="M318 106l25 -67c1 -3 3 -6 3 -10c0 -18 -79 -46 -136 -46c-110 0 -186 65 -186 195c0 206 126 333 278 333c78 0 134 -35 134 -45c0 -3 -4 -9 -6 -12l-38 -62c-3 -5 -6 -6 -9 -6c-9 0 -25 25 -88 25c-90 0 -144 -115 -144 -243c0 -55 25 -80 74 -80c47 0 73 23 85 23
c3 0 7 -3 8 -5z" />
    <glyph glyph-name="d" unicode="d" horiz-adv-x="519" 
d="M319 233l35 165c-8 4 -30 18 -64 18c-102 0 -139 -160 -139 -264c0 -43 17 -69 48 -69c61 0 105 78 120 150zM411 17l-80 -31c-3 -1 -7 -3 -12 -3c-11 0 -19 40 -19 90c-25 -29 -71 -90 -160 -90c-71 0 -109 50 -109 150c0 160 81 378 254 378c49 0 71 -16 87 -25l43 200
c2 10 3 14 18 17l88 18c4 1 11 3 14 3c4 0 5 -3 5 -11c0 -5 -2 -13 -3 -19l-118 -554c-5 -22 -4 -40 -4 -52c1 -24 8 -48 8 -60c0 -7 -7 -9 -12 -11z" />
    <glyph glyph-name="e" unicode="e" horiz-adv-x="463" 
d="M367 116l25 -62c1 -3 3 -6 3 -9c0 -13 -93 -62 -195 -62c-120 0 -174 75 -174 186c0 200 129 342 283 342c94 0 148 -52 148 -132c0 -189 -254 -189 -311 -189c0 -30 -8 -107 86 -107c59 0 112 40 127 40c5 0 6 -3 8 -7zM291 421c-94 0 -122 -104 -131 -141
c43 0 177 0 177 92c0 26 -16 49 -46 49z" />
    <glyph glyph-name="f" unicode="f" horiz-adv-x="352" 
d="M261 404l-81 -411c-19 -94 -56 -195 -192 -195c-46 0 -89 6 -89 17c0 4 1 7 2 11l21 70c2 5 4 7 7 7s20 -5 41 -5c68 0 80 46 93 110l78 396h-71c-6 0 -14 1 -14 10c0 4 1 8 2 12l12 56c1 9 3 12 14 12h74l12 63c15 81 41 160 178 160c42 0 101 -13 101 -28
c0 -3 -1 -5 -2 -8l-24 -70c-3 -6 -6 -7 -8 -7c-10 0 -30 13 -60 13c-52 0 -59 -39 -68 -80l-9 -43h114c9 0 12 -5 12 -9s-2 -8 -3 -12l-18 -58c-3 -9 -4 -11 -14 -11h-108z" />
    <glyph glyph-name="g" unicode="g" horiz-adv-x="500" 
d="M454 330l-31 -148c-35 -166 -13 -394 -267 -394c-83 0 -181 31 -181 51c0 4 2 7 3 10l31 73c2 5 5 7 9 7c16 0 67 -41 147 -41c125 0 103 110 131 194l-2 2c-16 -21 -66 -84 -148 -84c-88 0 -126 70 -126 162c0 157 92 349 238 349c68 0 95 -35 118 -59c9 13 39 59 55 59
c4 0 10 -4 14 -6l61 -33c5 -3 7 -6 7 -10c0 -10 -45 -64 -59 -132zM311 222l35 163c-13 12 -38 36 -78 36c-82 0 -128 -160 -128 -262c0 -47 16 -69 51 -69c65 0 104 56 120 132z" />
    <glyph glyph-name="h" unicode="h" horiz-adv-x="519" 
d="M469 328l-72 -316c-2 -11 -4 -12 -14 -12h-93c-8 0 -13 2 -13 10c0 3 1 7 1 11l65 285c4 20 9 40 9 61c0 23 -15 39 -45 39c-72 0 -113 -124 -128 -196l-43 -198c-2 -11 -4 -12 -14 -12h-93c-8 0 -13 2 -13 10c0 3 1 7 1 11l142 665c2 10 3 14 18 17l89 18c4 1 11 3 14 3
c4 0 5 -3 5 -11c0 -6 -2 -13 -3 -19l-58 -263l2 -2c21 25 71 82 149 82c68 0 104 -36 104 -105c0 -26 -5 -53 -10 -78z" />
    <glyph glyph-name="i" unicode="i" horiz-adv-x="296" 
d="M266 472l-98 -460c-2 -11 -4 -12 -14 -12h-93c-8 0 -13 2 -13 10c0 3 0 7 1 11l81 383h-76c-9 0 -13 3 -13 10c0 4 1 8 2 12l11 56c2 11 5 12 15 12h186c8 0 12 -3 12 -9c0 -4 0 -10 -1 -13zM319 642c0 -47 -38 -83 -83 -83s-82 36 -82 83c0 50 42 82 82 82
c41 0 83 -33 83 -82z" />
    <glyph glyph-name="j" unicode="j" horiz-adv-x="296" 
d="M273 471l-97 -461c-20 -94 -48 -243 -210 -243c-47 0 -98 17 -98 27c0 4 1 7 2 10l26 72c3 7 5 9 10 9c10 0 28 -18 59 -18c66 0 79 84 91 143l83 394h-76c-9 0 -13 3 -13 10c0 4 1 8 2 12l11 56c2 11 5 12 15 12h185c8 0 12 -3 12 -10c0 -5 -1 -9 -2 -13zM328 642
c0 -47 -38 -83 -83 -83s-82 36 -82 83c0 50 42 82 82 82c41 0 83 -33 83 -82z" />
    <glyph glyph-name="k" unicode="k" horiz-adv-x="481" 
d="M423 33l-80 -47c-2 -1 -6 -3 -10 -3s-11 15 -17 26l-132 229l-48 -226c-2 -11 -4 -12 -14 -12h-93c-8 0 -13 2 -13 10c0 6 2 15 3 20l141 656c2 10 3 14 18 17l88 18c4 1 11 3 14 3c4 0 5 -3 5 -11c0 -5 -2 -13 -3 -19l-86 -399l2 -2l223 199c7 6 21 19 25 19s7 -3 11 -7
l46 -54c2 -3 4 -6 6 -11c0 -4 -4 -8 -11 -13l-193 -162l102 -174c7 -12 24 -37 24 -42c0 -7 -2 -11 -8 -15z" />
    <glyph glyph-name="l" unicode="l" horiz-adv-x="278" 
d="M220 91l10 -69c0 -3 1 -7 1 -10c0 -15 -62 -29 -101 -29c-58 0 -97 19 -97 84c0 36 4 71 12 106l111 513c2 10 3 14 18 17l88 18c4 1 11 3 14 3c4 0 5 -3 5 -10c0 -6 -2 -14 -3 -20l-113 -520c-5 -24 -12 -49 -12 -63s8 -20 23 -20c17 0 32 7 37 7c3 0 6 -1 7 -7z" />
    <glyph glyph-name="m" unicode="m" horiz-adv-x="759" 
d="M710 328l-73 -316c-2 -11 -4 -12 -14 -12h-93c-8 0 -13 2 -13 10c0 3 1 7 1 11l66 285c5 20 9 40 9 61c0 23 -9 39 -30 39c-76 0 -116 -124 -132 -196l-43 -198c-2 -11 -4 -12 -14 -12h-93c-8 0 -13 2 -13 10c0 3 1 7 1 11l65 285c5 20 10 40 10 61c0 23 -12 39 -35 39
c-73 0 -113 -124 -129 -196l-43 -198c-2 -11 -4 -12 -14 -12h-93c-8 0 -13 2 -13 10c0 3 1 7 1 11l68 301c6 25 12 50 12 82c0 30 -9 44 -9 62c0 7 7 9 12 11l80 31c3 1 5 3 10 3c11 0 20 -45 20 -101c27 32 84 101 166 101c56 0 85 -35 85 -102h2c22 33 78 102 167 102
c60 0 89 -36 89 -105c0 -26 -4 -53 -10 -78z" />
    <glyph glyph-name="n" unicode="n" horiz-adv-x="519" 
d="M469 328l-73 -316c-2 -11 -4 -12 -14 -12h-93c-8 0 -13 2 -13 10c0 3 1 7 1 11l66 285c5 20 9 40 9 61c0 23 -9 39 -30 39c-92 0 -125 -124 -141 -196l-43 -198c-2 -11 -4 -12 -14 -12h-93c-8 0 -13 2 -13 10c0 3 1 7 1 11l68 301c6 25 12 50 12 82c0 30 -9 44 -9 62
c0 7 7 9 12 11l80 31c3 1 5 3 10 3c11 0 20 -45 20 -101c27 32 84 101 166 101c65 0 101 -50 101 -105c0 -26 -4 -53 -10 -78z" />
    <glyph glyph-name="o" unicode="o" horiz-adv-x="500" 
d="M470 329c0 -185 -116 -346 -278 -346c-105 0 -170 54 -170 182c0 185 118 346 284 346c101 0 164 -54 164 -182zM210 83c93 0 133 158 133 255c0 47 -18 73 -61 73c-93 0 -133 -158 -133 -255c0 -47 18 -73 61 -73z" />
    <glyph glyph-name="p" unicode="p" horiz-adv-x="519" 
d="M195 261l-35 -165c8 -4 30 -20 64 -20c102 0 139 162 139 266c0 43 -17 69 -48 69c-61 0 -104 -78 -120 -150zM142 8l-39 -182c-2 -10 -3 -14 -18 -17l-88 -18c-4 -1 -12 -3 -15 -3c-5 0 -5 4 -5 9c0 6 3 15 4 21l114 536c5 22 4 40 4 52c-1 24 -8 48 -8 60
c0 7 7 9 12 11l80 31c3 1 7 3 12 3c11 0 19 -40 19 -90c25 29 71 90 160 90c71 0 109 -50 109 -150c0 -160 -81 -378 -254 -378c-49 0 -71 16 -87 25z" />
    <glyph glyph-name="q" unicode="q" horiz-adv-x="519" 
d="M326 222l35 163c-16 13 -37 36 -76 36c-85 0 -130 -164 -130 -281c0 -38 14 -57 43 -57c70 0 113 70 128 139zM241 -182l32 156c6 30 15 60 23 90l-2 2c-17 -23 -66 -83 -149 -83c-66 0 -110 55 -110 162c0 184 102 366 239 366c71 0 103 -45 116 -59c9 13 40 59 55 59
c5 0 11 -4 15 -6l61 -33c4 -2 7 -6 7 -10c0 -10 -48 -64 -62 -132l-103 -504c-2 -10 -3 -14 -18 -17l-88 -18c-4 -1 -11 -3 -15 -3s-5 3 -5 9s3 15 4 21z" />
    <glyph glyph-name="r" unicode="r" horiz-adv-x="352" 
d="M179 210l-43 -198c-3 -11 -4 -12 -14 -12h-93c-8 0 -13 2 -13 10c-1 3 0 7 1 11l68 301c5 25 12 50 12 82c0 30 -9 44 -9 62c0 7 7 9 12 11l80 31c3 1 5 3 10 3c11 0 20 -45 20 -101c27 30 78 101 155 101c15 0 34 -4 34 -13c0 -3 -1 -5 -2 -8l-42 -101
c-1 -2 -4 -5 -6 -5c-7 0 -18 7 -34 7c-77 0 -122 -114 -136 -181z" />
    <glyph glyph-name="s" unicode="s" horiz-adv-x="389" 
d="M366 457l-21 -58c-3 -6 -6 -7 -8 -7c-19 0 -52 29 -98 29c-54 0 -78 -28 -78 -62c0 -50 66 -59 110 -84c49 -28 73 -50 73 -115c0 -105 -71 -177 -198 -177c-76 0 -163 33 -163 46c0 4 1 7 2 11l21 62c2 5 4 7 7 7c13 0 62 -36 127 -36c59 0 89 24 89 67
c0 44 -45 48 -97 77c-53 29 -86 48 -86 117c0 106 77 177 191 177c52 0 131 -20 131 -46c0 -3 -1 -5 -2 -8z" />
    <glyph glyph-name="t" unicode="t" horiz-adv-x="389" 
d="M331 99l15 -63c0 -3 1 -6 1 -9c0 -16 -96 -44 -160 -44c-72 0 -120 27 -120 101c0 22 3 43 8 64l54 256h-66c-9 0 -13 3 -13 10c0 5 1 9 2 13l12 55c1 9 6 12 14 12h70l26 124c2 9 7 10 13 11l91 13c4 0 8 1 13 1c4 0 7 -4 7 -9c0 -4 -1 -9 -2 -14l-28 -126h134
c9 0 14 -4 14 -10c0 -5 -3 -9 -4 -14l-20 -56c-4 -9 -5 -10 -14 -10h-129l-48 -237c-4 -16 -7 -32 -7 -48c0 -24 13 -36 39 -36c45 0 84 23 90 23c5 0 6 -2 8 -7z" />
    <glyph glyph-name="u" unicode="u" horiz-adv-x="519" 
d="M410 17l-80 -31c-3 -1 -5 -3 -10 -3c-11 0 -20 45 -20 101c-27 -32 -84 -101 -166 -101c-65 0 -101 50 -101 105c0 26 5 53 11 78l73 313c1 8 3 9 14 12l82 17c5 1 10 3 15 3c10 0 14 -3 14 -10c0 -4 -1 -11 -2 -15l-71 -298c-4 -20 -9 -40 -9 -61c0 -23 9 -39 30 -39
c93 0 127 124 142 196l43 195c1 8 3 9 14 12l82 17c5 1 10 3 15 3c10 0 14 -3 14 -10c0 -4 -1 -8 -2 -12l-73 -317c-5 -25 -12 -50 -12 -82c0 -30 9 -44 9 -62c0 -7 -7 -9 -12 -11z" />
    <glyph glyph-name="v" unicode="v" horiz-adv-x="463" 
d="M483 468l-259 -469c-4 -7 -6 -9 -14 -9h-83c-7 0 -13 0 -14 13l-57 466c-1 5 -1 10 -1 13c0 4 4 9 15 10l74 10c8 1 17 2 21 2c8 0 10 -4 10 -20l15 -231c3 -48 4 -124 4 -134h2c10 29 34 85 58 134l119 243c2 4 6 8 11 8c4 0 8 -1 17 -2l74 -10c11 -1 15 -4 15 -10
c0 -3 -4 -8 -7 -14z" />
    <glyph glyph-name="w" unicode="w" horiz-adv-x="667" 
d="M694 467l-236 -467c-4 -7 -6 -9 -14 -9h-88c-7 0 -15 0 -14 13l6 272c1 24 6 68 8 88l-2 2c-7 -26 -19 -59 -33 -90l-122 -276c-4 -7 -6 -9 -14 -9h-80c-7 0 -13 0 -14 13l-24 464c-1 5 0 10 1 13c0 4 4 9 12 10l72 10c8 1 17 2 21 2c5 0 10 -4 10 -20l-4 -230
c0 -16 -5 -124 -5 -134h2c8 29 29 85 50 134l99 231c3 8 5 10 14 10h88c11 0 14 -3 14 -14v-244c0 -39 -6 -82 -8 -117h2c8 29 27 85 48 134l103 242c2 4 6 8 11 8c4 0 8 -1 17 -2l72 -10c8 -1 12 -4 12 -10c0 -4 -2 -10 -4 -14z" />
    <glyph glyph-name="x" unicode="x" horiz-adv-x="463" 
d="M401 18l-90 -24c-4 -1 -8 -3 -10 -3c-4 0 -7 4 -8 7l-49 112c-11 26 -19 44 -26 63c-13 -18 -27 -37 -51 -64l-100 -111c-3 -3 -5 -7 -9 -7s-7 2 -9 3l-82 32c-2 1 -8 5 -8 9s3 8 6 11l202 207l-98 202c-2 4 -5 9 -5 13s5 6 10 8l81 24c3 1 11 3 14 3c4 0 8 -2 10 -6
l39 -100c12 -31 21 -52 24 -62c10 12 28 34 50 60l89 102c3 3 6 6 10 6c3 0 6 -2 9 -3l77 -34c5 -2 10 -6 10 -11c0 -4 -3 -7 -6 -10l-187 -190l111 -217c1 -3 4 -7 4 -11c0 -6 -5 -8 -8 -9z" />
    <glyph glyph-name="y" unicode="y" horiz-adv-x="481" 
d="M272 240l116 255c2 4 5 8 10 8c4 0 9 -1 18 -2l74 -10c11 -1 15 -3 15 -7s-4 -11 -7 -17l-198 -409c-52 -107 -110 -270 -255 -270c-56 0 -118 29 -118 41c0 3 2 6 3 9l36 63c4 6 5 8 9 8c12 0 37 -21 75 -21c43 0 66 15 85 50l33 62h-41c-7 0 -13 0 -14 13l-53 455
c-1 5 -1 10 -1 13c0 4 4 9 15 10l74 10c8 1 17 2 21 2c8 0 8 -4 10 -20l18 -230c5 -64 9 -169 9 -180h2c12 37 36 106 64 167z" />
    <glyph glyph-name="z" unicode="z" horiz-adv-x="444" 
d="M387 79l-45 -70c-5 -8 -6 -9 -16 -9h-330c-9 0 -14 2 -14 9c0 4 1 7 2 12l13 64l299 309h-198c-9 0 -13 3 -13 10c0 4 1 8 2 13l14 65c2 9 4 12 14 12h323c8 0 13 -3 13 -10c0 -4 -1 -8 -2 -12l-14 -68l-293 -304h239c8 0 11 -6 11 -11c0 -4 -3 -7 -5 -10z" />
    <glyph glyph-name="braceleft" unicode="{" horiz-adv-x="407" 
d="M280 -131l-12 -56c-3 -12 -5 -15 -24 -15c-75 0 -162 22 -162 126c0 20 3 40 7 59l33 159c2 8 3 17 3 25c0 42 -31 46 -65 46h-11c-11 0 -17 2 -17 12c0 5 0 10 2 15l15 67c2 13 6 14 18 14h23c55 0 76 25 85 72l30 139c31 144 125 185 235 185c10 0 17 -3 17 -11
c0 -6 -1 -11 -2 -16l-14 -63c-3 -13 -5 -15 -17 -15c-27 0 -81 5 -96 -71l-33 -153c-16 -75 -47 -98 -94 -120c20 -13 48 -31 48 -76c0 -15 -2 -31 -5 -46l-38 -172c-2 -9 -4 -18 -4 -28c0 -46 53 -43 68 -43c9 0 14 -5 14 -12c0 -6 -3 -16 -4 -22z" />
    <glyph glyph-name="bar" unicode="|" horiz-adv-x="400" 
d="M250 733v-966c0 -14 -3 -17 -17 -17h-66c-14 0 -17 3 -17 17v966c0 14 3 17 17 17h66c14 0 17 -3 17 -17z" />
    <glyph glyph-name="braceright" unicode="}" horiz-adv-x="407" 
d="M232 122l-30 -139c-31 -144 -125 -185 -235 -185c-10 0 -17 3 -17 11c0 6 1 11 2 16l14 63c3 13 5 15 17 15c27 0 81 -5 96 71l33 153c16 75 47 98 94 120c-20 13 -48 31 -48 76c0 15 2 31 5 46l38 172c2 9 4 18 4 28c0 46 -53 43 -68 43c-9 0 -14 5 -14 12
c0 6 3 16 4 22l12 56c3 12 5 15 24 15c75 0 162 -22 162 -126c0 -20 -3 -40 -7 -59l-33 -159c-2 -8 -3 -17 -3 -25c0 -42 31 -46 65 -46h11c11 0 17 -2 17 -12c0 -5 0 -10 -2 -15l-15 -67c-2 -13 -6 -14 -18 -14h-23c-55 0 -76 -25 -85 -72z" />
    <glyph glyph-name="asciitilde" unicode="~" 
d="M477 342h60c0 -59 -15 -187 -126 -187c-42 0 -83 19 -120 41l-38 22c-36 22 -77 46 -108 46c-48 0 -51 -57 -55 -94h-60c0 59 15 187 126 187c42 0 83 -19 120 -41l38 -22c36 -22 77 -46 108 -46c48 0 51 57 55 94z" />
    <glyph glyph-name="exclamdown" unicode="&#xa1;" horiz-adv-x="352" 
d="M220 209l-62 -393c-2 -16 -4 -18 -18 -18h-106c-11 0 -17 2 -17 11c0 4 1 8 2 12l109 406c4 13 6 14 18 14h60c10 0 17 -2 17 -13c0 -3 -2 -15 -3 -19zM291 431c0 -45 -36 -80 -80 -80s-80 36 -80 80s36 80 80 80s80 -35 80 -80z" />
    <glyph glyph-name="cent" unicode="&#xa2;" 
d="M320 73l-12 -59c-3 -14 -5 -14 -25 -14h-16c-10 0 -17 2 -17 12c0 5 2 9 3 14l10 47c-64 13 -148 50 -148 193c0 248 164 333 260 333l12 59c2 13 6 14 18 14h23c10 0 17 -2 17 -11c0 -5 -2 -10 -3 -15l-10 -49c16 0 95 -27 95 -43c0 -3 -2 -6 -3 -8l-40 -65
c-3 -4 -6 -6 -10 -6c-9 0 -19 20 -62 29l-70 -331c26 7 53 26 60 26c3 0 5 -3 7 -6l26 -66c1 -3 2 -6 2 -9c0 -23 -96 -43 -117 -45zM287 173l70 333c-51 -1 -127 -113 -127 -250c0 -64 35 -76 57 -83z" />
    <glyph glyph-name="sterling" unicode="&#xa3;" 
d="M517 77l-31 -65c-5 -10 -6 -12 -17 -12h-441c-14 0 -18 5 -18 11c0 5 2 10 3 15l14 65c2 13 7 14 18 14h76c28 55 46 87 46 192h-88c-10 0 -17 2 -17 11c0 5 2 10 3 15l12 53c2 12 5 14 18 14h67c-2 14 -3 28 -3 42c0 167 125 253 264 253c86 0 168 -35 168 -56
c0 -5 -3 -10 -5 -14l-32 -60c-6 -11 -13 -12 -18 -12c-18 0 -49 37 -120 37c-94 0 -142 -67 -142 -160c0 -10 3 -20 3 -30h145c10 0 17 -2 17 -11c0 -5 -2 -10 -3 -15l-12 -53c-3 -12 -5 -14 -18 -14h-124c0 -11 2 -22 2 -33c0 -79 -32 -136 -43 -159h267c10 0 15 -1 15 -8
s-3 -13 -6 -20z" />
    <glyph glyph-name="fraction" unicode="&#x2044;" horiz-adv-x="278" 
d="M370 656l-369 -663c-5 -10 -7 -10 -18 -10h-62c-11 0 -17 2 -17 9c0 6 3 12 6 17l369 665c5 9 7 11 18 11h62c11 0 17 -3 17 -9c0 -7 -3 -15 -6 -20z" />
    <glyph glyph-name="yen" unicode="&#xa5;" horiz-adv-x="519" 
d="M313 266l-52 -252c-3 -13 -6 -14 -18 -14h-97c-13 0 -15 5 -15 11c0 3 1 11 2 15l53 240h-145c-10 0 -17 3 -17 10c0 5 1 9 2 13l2 8c4 14 6 15 18 15h132l-15 48h-102c-10 0 -17 3 -17 10c0 5 1 9 2 13l2 8c4 14 6 15 18 15h83l-72 242c-1 5 -1 8 -1 11c0 6 6 9 16 11
l92 24c3 0 8 1 11 1c5 0 9 -3 13 -18l39 -147c16 -58 20 -104 22 -131h2c21 39 44 80 79 132l103 153c3 4 10 11 13 11s10 -2 15 -2l89 -25c11 -2 14 -8 14 -11c0 -4 -2 -11 -4 -13l-174 -238h94c10 0 17 -2 17 -10c0 -5 -1 -9 -2 -13l-2 -8c-4 -14 -6 -15 -18 -15h-123
l-35 -48h143c10 0 17 -2 17 -10c0 -5 -1 -9 -2 -13l-2 -8c-4 -14 -6 -15 -18 -15h-162z" />
    <glyph glyph-name="florin" unicode="&#x192;" 
d="M351 404l-103 -411c-23 -91 -62 -195 -210 -195c-29 0 -82 4 -82 16c0 4 2 8 3 12l24 66c3 7 5 9 9 9c3 0 12 -3 37 -3c72 0 83 44 100 110l102 396h-65c-10 0 -17 3 -17 12c0 5 2 10 4 15l13 49c3 12 5 14 18 14h71l17 63c23 86 51 160 184 160c45 -1 99 -13 99 -26
c0 -3 -2 -7 -3 -10l-27 -69c-2 -4 -3 -7 -8 -7c-11 0 -30 17 -60 17c-51 0 -60 -45 -71 -85l-11 -43h105c11 0 17 -2 17 -12c0 -6 -3 -11 -4 -16l-18 -49c-5 -12 -7 -13 -18 -13h-106z" />
    <glyph glyph-name="section" unicode="&#xa7;" 
d="M498 629l-30 -53c-4 -6 -8 -8 -12 -8c-17 0 -48 41 -116 41c-40 0 -72 -17 -72 -52c0 -42 78 -62 137 -105c46 -33 79 -66 79 -132c0 -100 -86 -136 -130 -152c17 -12 67 -45 67 -119c0 -92 -74 -171 -197 -171c-92 0 -195 51 -195 69c0 6 3 11 6 16l30 55
c4 8 8 10 13 10c17 0 62 -57 146 -57c44 0 67 22 67 61c0 55 -70 69 -141 115c-37 24 -74 61 -74 128c0 105 93 140 135 155c-24 16 -63 43 -63 108c0 94 76 164 193 164c85 0 162 -41 162 -60c0 -4 -3 -9 -5 -13zM272 215c34 14 92 37 92 90c0 41 -45 64 -69 78
c-32 -12 -99 -36 -99 -91c0 -44 50 -64 76 -77z" />
    <glyph glyph-name="currency" unicode="&#xa4;" 
d="M83 118l-30 30l67 67c-33 36 -47 88 -47 136c0 49 17 100 48 138l-70 70l32 31l69 -68c39 28 88 46 137 46c48 0 97 -18 136 -46l69 68l32 -31l-70 -70c35 -36 48 -89 48 -138c0 -48 -15 -100 -47 -136l67 -67l-30 -30l-66 66c-44 -33 -90 -47 -139 -47
c-50 0 -103 18 -140 47zM289 527c-97 0 -175 -80 -175 -176s79 -173 175 -173c95 0 174 78 174 173c0 96 -78 176 -174 176z" />
    <glyph glyph-name="quotesingle" unicode="'" horiz-adv-x="185" 
d="M200 678l-19 -213c-1 -17 -4 -20 -21 -20h-43c-17 0 -20 3 -21 20l-19 213c-1 4 -2 19 -2 26c0 13 10 13 20 13h87c10 0 20 0 20 -13c0 -7 -1 -22 -2 -26z" />
    <glyph glyph-name="quotedblleft" unicode="&#x201c;" horiz-adv-x="481" 
d="M530 661l-101 -203c-5 -10 -7 -11 -18 -11h-107c-13 0 -17 4 -17 11c0 6 4 12 7 16l170 234c3 4 6 9 11 9c6 0 11 -5 15 -7l36 -22c7 -5 10 -7 10 -11c0 -6 -3 -10 -6 -16zM326 661l-101 -203c-5 -10 -7 -11 -18 -11h-107c-13 0 -17 4 -17 11c0 6 4 12 7 16l170 234
c3 4 6 9 11 9c6 0 11 -5 15 -7l36 -22c7 -5 10 -7 10 -11c0 -6 -3 -10 -6 -16z" />
    <glyph glyph-name="guillemotleft" unicode="&#xab;" horiz-adv-x="593" 
d="M176 239l81 -183c1 -4 4 -8 4 -13s-2 -8 -8 -11l-58 -27c-7 -3 -9 -5 -14 -5s-8 2 -12 10l-125 230c-2 3 -3 7 -3 10c0 4 1 8 5 11l231 226c3 3 8 7 12 7c5 0 8 -3 12 -6l42 -36c3 -3 9 -7 9 -12s-5 -9 -7 -12zM416 239l81 -183c1 -4 4 -8 4 -13s-2 -8 -8 -11l-58 -27
c-7 -3 -9 -5 -14 -5s-8 2 -12 10l-125 230c-2 3 -3 7 -3 10c0 4 1 8 5 11l231 226c3 3 8 7 12 7c5 0 8 -3 12 -6l42 -36c3 -3 9 -7 9 -12s-5 -9 -7 -12z" />
    <glyph glyph-name="guilsinglleft" unicode="&#x2039;" horiz-adv-x="352" 
d="M176 239l81 -183c1 -4 4 -8 4 -13s-2 -8 -8 -11l-58 -27c-7 -3 -9 -5 -14 -5s-8 2 -12 10l-125 230c-2 3 -3 7 -3 10c0 4 1 8 5 11l231 226c3 3 8 7 12 7c5 0 8 -3 12 -6l42 -36c3 -3 9 -7 9 -12s-5 -9 -7 -12z" />
    <glyph glyph-name="guilsinglright" unicode="&#x203a;" horiz-adv-x="352" 
d="M306 233l-231 -226c-3 -3 -8 -7 -12 -7c-5 0 -8 3 -12 6l-42 36c-3 3 -9 7 -9 12s5 9 7 12l169 189l-81 183c-1 4 -4 8 -4 13s2 8 8 11l58 27c7 3 9 5 14 5s8 -2 12 -10l125 -230c2 -3 3 -7 3 -10c0 -4 -1 -8 -5 -11z" />
    <glyph glyph-name="fi" unicode="&#xfb01;" horiz-adv-x="593" 
d="M261 404l-81 -411c-19 -94 -56 -195 -192 -195c-46 0 -89 6 -89 17c0 4 1 7 2 11l21 70c2 5 4 7 7 7s20 -5 41 -5c68 0 80 46 93 110l78 396h-71c-6 0 -14 1 -14 10c0 4 1 8 2 12l12 56c1 9 3 12 14 12h74l12 63c15 81 39 160 166 160c38 0 91 -13 91 -28
c0 -3 -1 -5 -2 -8l-24 -70c-3 -6 -6 -7 -8 -7c-8 0 -25 13 -50 13c-41 0 -47 -39 -56 -80l-9 -43h270c8 0 12 -3 12 -10c0 -4 0 -9 -1 -12l-98 -460c-2 -11 -4 -12 -14 -12h-93c-8 0 -13 2 -13 10c0 3 1 7 1 11l81 383h-162zM612 642c0 -47 -38 -83 -83 -83s-82 36 -82 83
c0 50 42 82 82 82c41 0 83 -33 83 -82z" />
    <glyph glyph-name="fl" unicode="&#xfb02;" horiz-adv-x="593" 
d="M536 91l10 -69c0 -3 1 -7 1 -10c0 -15 -62 -29 -101 -29c-58 0 -97 19 -97 84c0 36 4 71 12 106l111 513c2 10 3 14 18 17l88 18c4 1 11 3 14 3c4 0 5 -3 5 -11c0 -5 -2 -13 -3 -19l-113 -520c-5 -24 -12 -49 -12 -63s8 -20 23 -20c17 0 32 7 37 7c3 0 6 -1 7 -7z
M261 404l-81 -411c-19 -94 -56 -195 -192 -195c-46 0 -89 6 -89 17c0 4 1 7 2 11l21 70c2 5 4 7 7 7s20 -5 41 -5c68 0 80 46 93 110l78 396h-71c-6 0 -14 1 -14 10c0 4 1 8 2 12l12 56c1 9 3 12 14 12h74l12 63c15 81 41 160 176 160c38 0 91 -13 91 -28c0 -2 -1 -5 -2 -8
l-24 -70c-2 -6 -6 -7 -8 -7c-8 0 -25 13 -50 13c-48 0 -57 -39 -66 -80l-9 -43h114c9 0 12 -5 12 -9s-2 -8 -3 -12l-18 -58c-3 -9 -4 -11 -14 -11h-108z" />
    <glyph glyph-name="endash" unicode="&#x2013;" 
d="M538 278l-15 -67c-4 -14 -6 -15 -18 -15h-454c-10 0 -17 4 -17 11c0 6 2 16 3 22l15 67c4 14 6 15 18 15h454c11 0 17 -3 17 -11c0 -6 -2 -16 -3 -22z" />
    <glyph glyph-name="dagger" unicode="&#x2020;" 
d="M364 379l-121 -567c-3 -12 -5 -14 -18 -14h-86c-11 0 -16 2 -16 11c0 5 1 10 2 15l119 555h-112c-10 0 -17 2 -17 11c0 5 1 10 3 15l12 59c2 13 5 15 18 15h117l41 192c2 13 5 14 18 14h85c10 0 17 -2 17 -11c0 -5 -2 -10 -3 -15l-38 -180h111c10 0 17 -2 17 -11
c0 -6 -2 -11 -3 -16l-12 -59c-3 -13 -5 -14 -17 -14h-117z" />
    <glyph glyph-name="daggerdbl" unicode="&#x2021;" 
d="M286 16l-43 -204c-3 -12 -5 -14 -18 -14h-86c-11 0 -16 2 -16 11c0 5 1 10 2 15l41 192h-112c-10 0 -17 2 -17 11c0 5 1 10 3 15l12 59c2 13 5 15 18 15h117l57 263h-112c-10 0 -17 2 -17 11c0 5 1 10 3 15l12 59c2 13 5 15 18 15h117l41 192c2 13 5 14 18 14h85
c10 0 17 -2 17 -11c0 -5 -2 -10 -3 -15l-38 -180h111c10 0 17 -2 17 -11c0 -6 -2 -11 -3 -16l-12 -59c-3 -13 -5 -14 -17 -14h-117l-57 -263h111c10 0 17 -2 17 -11c0 -6 -2 -11 -3 -16l-9 -58c-3 -14 -5 -15 -20 -15h-117z" />
    <glyph glyph-name="periodcentered" unicode="&#xb7;" 
d="M354 256c0 -42 -35 -76 -77 -76c-41 0 -76 34 -76 76c0 43 34 77 76 77c43 0 77 -35 77 -77z" />
    <glyph glyph-name="paragraph" unicode="&#xb6;" horiz-adv-x="704" 
d="M631 595v-761c0 -17 -3 -20 -20 -20h-60c-17 0 -20 3 -20 20v761h-68v-761c0 -17 -3 -20 -20 -20h-60c-17 0 -20 3 -20 20v327c-20 -5 -41 -8 -61 -8c-141 0 -218 100 -218 264c0 251 140 268 272 268h332c18 0 21 -3 21 -20v-50c0 -17 -4 -20 -21 -20h-57zM363 251v344
c-80 0 -152 -8 -152 -166c0 -125 28 -183 114 -183c13 0 25 2 38 5z" />
    <glyph glyph-name="bullet" unicode="&#x2022;" horiz-adv-x="500" 
d="M451 360c0 -99 -82 -180 -181 -180c-100 0 -181 81 -181 180c0 100 81 182 181 182c99 0 181 -82 181 -182z" />
    <glyph glyph-name="quotesinglbase" unicode="&#x201a;" horiz-adv-x="222" 
d="M188 98l-170 -234c-3 -4 -6 -9 -11 -9c-6 0 -11 5 -15 7l-36 22c-7 5 -10 7 -10 11c0 6 3 10 6 16l101 203c5 10 7 11 18 11h107c13 0 17 -4 17 -11c0 -6 -4 -12 -7 -16z" />
    <glyph glyph-name="quotedblbase" unicode="&#x201e;" horiz-adv-x="481" 
d="M204 98l-170 -234c-3 -4 -6 -9 -11 -9c-6 0 -11 5 -15 7l-36 22c-7 5 -10 7 -10 11c0 6 3 10 6 16l101 203c5 10 7 11 18 11h107c13 0 17 -4 17 -11c0 -6 -4 -12 -7 -16zM408 98l-170 -234c-3 -4 -6 -9 -11 -9c-6 0 -11 5 -15 7l-36 22c-7 5 -10 7 -10 11c0 6 3 10 6 16
l101 203c5 10 7 11 18 11h107c13 0 17 -4 17 -11c0 -6 -4 -12 -7 -16z" />
    <glyph glyph-name="quotedblright" unicode="&#x201d;" horiz-adv-x="481" 
d="M325 690l-170 -234c-3 -4 -6 -9 -11 -9c-6 0 -11 5 -15 7l-36 22c-7 5 -10 7 -10 11c0 6 3 10 6 16l101 203c5 10 7 11 18 11h107c13 0 17 -4 17 -11c0 -6 -4 -12 -7 -16zM529 690l-170 -234c-3 -4 -6 -9 -11 -9c-6 0 -11 5 -15 7l-36 22c-7 5 -10 7 -10 11
c0 6 3 10 6 16l101 203c5 10 7 11 18 11h107c13 0 17 -4 17 -11c0 -6 -4 -12 -7 -16z" />
    <glyph glyph-name="guillemotright" unicode="&#xbb;" horiz-adv-x="593" 
d="M546 233l-231 -226c-3 -3 -8 -7 -12 -7c-5 0 -8 3 -12 6l-42 36c-3 3 -9 7 -9 12s5 9 7 12l169 189l-81 183c-1 4 -4 8 -4 13s2 8 8 11l58 27c7 3 9 5 14 5s8 -2 12 -10l125 -230c2 -3 3 -7 3 -10c0 -4 -1 -8 -5 -11zM306 233l-231 -226c-3 -3 -8 -7 -12 -7
c-5 0 -8 3 -12 6l-42 36c-3 3 -9 7 -9 12s5 9 7 12l169 189l-81 183c-1 4 -4 8 -4 13s2 8 8 11l58 27c7 3 9 5 14 5s8 -2 12 -10l125 -230c2 -3 3 -7 3 -10c0 -4 -1 -8 -5 -11z" />
    <glyph glyph-name="ellipsis" unicode="&#x2026;" horiz-adv-x="1000" 
d="M219 90c0 -50 -41 -90 -90 -90c-50 0 -90 40 -90 90c0 49 40 90 90 90c49 0 90 -40 90 -90zM885 90c0 -50 -41 -90 -90 -90c-50 0 -90 40 -90 90c0 49 40 90 90 90c49 0 90 -40 90 -90zM552 90c0 -50 -41 -90 -90 -90c-50 0 -90 40 -90 90c0 49 40 90 90 90
c49 0 90 -40 90 -90z" />
    <glyph glyph-name="perthousand" unicode="&#x2030;" horiz-adv-x="1185" 
d="M587 58c48 0 88 68 88 158c0 29 -13 47 -41 47c-48 0 -88 -68 -88 -158c0 -29 13 -47 41 -47zM765 213c0 -129 -80 -230 -190 -230c-77 0 -119 51 -119 125c0 129 80 230 190 230c77 0 119 -51 119 -125zM663 656l-369 -663c-5 -10 -7 -10 -18 -10h-62c-11 0 -17 2 -17 9
c0 6 3 12 6 17l369 665c5 9 7 11 18 11h62c11 0 17 -3 17 -9c0 -7 -3 -15 -6 -20zM405 543c0 -129 -80 -230 -190 -230c-77 0 -119 51 -119 125c0 129 80 230 190 230c77 0 119 -51 119 -125zM227 388c48 0 88 68 88 158c0 29 -13 47 -41 47c-48 0 -88 -68 -88 -158
c0 -29 13 -47 41 -47zM1113 213c0 -129 -80 -230 -190 -230c-77 0 -119 51 -119 125c0 129 80 230 190 230c77 0 119 -51 119 -125zM935 58c48 0 88 68 88 158c0 29 -13 47 -41 47c-48 0 -88 -68 -88 -158c0 -29 13 -47 41 -47z" />
    <glyph glyph-name="questiondown" unicode="&#xbf;" horiz-adv-x="463" 
d="M308 -73l28 -71c2 -4 4 -8 4 -12c0 -20 -119 -56 -195 -56c-107 0 -172 64 -172 153c0 147 130 202 204 217l16 74c3 13 5 14 17 14h81c9 0 15 -4 15 -11c0 -5 -2 -10 -3 -14l-25 -120c-1 -7 -9 -18 -21 -20c-42 -7 -149 -30 -149 -116c0 -34 16 -62 69 -62
c59 0 106 32 122 32c5 0 8 -3 9 -8zM366 431c0 -45 -36 -80 -80 -80s-80 36 -80 80s36 80 80 80s80 -35 80 -80z" />
    <glyph glyph-name="grave" unicode="`" horiz-adv-x="360" 
d="M297 585l-14 -20c-5 -7 -9 -11 -14 -11c-6 0 -11 3 -17 6l-154 74c-5 2 -9 8 -9 13c0 4 2 10 7 16l39 56c4 7 8 11 16 11c6 0 11 -5 15 -8l137 -110c2 -2 5 -5 5 -8c0 -5 -7 -12 -11 -19z" />
    <glyph glyph-name="acute" unicode="&#xb4;" horiz-adv-x="360" 
d="M359 626l-188 -68c-6 -2 -10 -4 -16 -4c-4 0 -7 2 -11 12l-13 29c-3 5 -5 10 -5 15s3 8 11 12l178 96c3 2 10 6 16 6c4 0 7 -2 12 -12l24 -58c2 -5 5 -10 5 -15c0 -6 -2 -9 -13 -13z" />
    <glyph glyph-name="circumflex" unicode="&#x2c6;" horiz-adv-x="360" 
d="M378 593l-26 -29c-5 -5 -8 -10 -13 -10s-8 3 -12 6l-71 52l-95 -52c-6 -3 -10 -6 -16 -6c-4 0 -8 2 -12 10l-16 30c-3 5 -7 10 -7 16c0 5 3 8 9 12l138 92c4 3 10 8 16 8c5 0 9 -4 12 -7l89 -94c4 -5 11 -10 11 -16c0 -4 -4 -8 -7 -12z" />
    <glyph glyph-name="tilde" unicode="&#x2dc;" horiz-adv-x="360" 
d="M366 691l32 -26c3 -3 7 -7 7 -11c0 -11 -50 -84 -114 -84c-53 0 -61 36 -89 36c-29 0 -43 -35 -53 -35c-4 0 -7 3 -10 6l-34 28c-2 1 -5 5 -5 8c0 6 44 83 112 83c50 0 70 -36 94 -36c28 0 41 35 51 35c3 0 6 -2 9 -4z" />
    <glyph glyph-name="macron" unicode="&#xaf;" horiz-adv-x="360" 
d="M387 652l-10 -49c-2 -13 -7 -15 -22 -15h-206c-11 0 -17 2 -17 11c0 5 0 10 2 15l10 49c2 13 6 15 18 15h210c11 0 17 -2 17 -11c0 -5 0 -10 -2 -15z" />
    <glyph glyph-name="breve" unicode="&#x2d8;" horiz-adv-x="360" 
d="M341 703l60 -8c6 -1 10 -4 10 -8c0 -20 -32 -125 -160 -125c-91 0 -120 60 -120 114c0 13 3 18 16 20l56 7c4 0 9 1 11 1c4 0 7 -5 7 -10c0 -12 -3 -52 39 -52c58 0 56 62 72 62c3 0 6 -1 9 -1z" />
    <glyph glyph-name="dotaccent" unicode="&#x2d9;" horiz-adv-x="360" 
d="M319 630c0 -42 -34 -76 -76 -76s-76 34 -76 76s35 76 76 76s76 -34 76 -76z" />
    <glyph glyph-name="dieresis" unicode="&#xa8;" horiz-adv-x="360" 
d="M245 633c0 -39 -31 -69 -69 -69s-70 30 -70 69s31 70 70 70c37 0 69 -31 69 -70zM437 633c0 -39 -31 -69 -69 -69s-70 30 -70 69s31 70 70 70c37 0 69 -31 69 -70z" />
    <glyph glyph-name="ring" unicode="&#x2da;" horiz-adv-x="360" 
d="M349 646c0 -58 -47 -104 -105 -104c-57 0 -104 46 -104 104c0 59 47 105 104 105c58 0 105 -47 105 -105zM244 605c23 0 42 19 42 41c0 23 -18 42 -42 42c-22 0 -41 -18 -41 -42s20 -41 41 -41z" />
    <glyph glyph-name="cedilla" unicode="&#xb8;" horiz-adv-x="360" 
d="M233 0l-17 -56c24 -3 60 -15 60 -63c0 -61 -42 -101 -116 -101c-41 0 -77 8 -77 19c0 4 1 7 2 11l12 38c1 3 3 7 6 7c6 0 23 -10 43 -10c22 0 35 12 35 28c0 19 -18 22 -37 22c-6 0 -18 0 -18 7c0 4 1 7 2 11l25 87h80z" />
    <glyph glyph-name="hungarumlaut" unicode="&#x2dd;" horiz-adv-x="360" 
d="M290 682l-138 -121c-4 -3 -8 -7 -12 -7c-5 0 -9 4 -12 7l-18 18c-3 3 -7 7 -7 12s4 10 8 14l117 136c3 4 7 8 12 8s8 -3 12 -6l38 -36c4 -4 8 -8 8 -13s-5 -9 -8 -12zM449 682l-138 -121c-4 -3 -8 -7 -12 -7c-5 0 -9 4 -12 7l-18 18c-3 3 -7 7 -7 12s4 10 8 14l117 136
c3 4 7 8 12 8s8 -3 12 -6l38 -36c4 -4 8 -8 8 -13s-5 -9 -8 -12z" />
    <glyph glyph-name="ogonek" unicode="&#x2db;" horiz-adv-x="360" 
d="M263 -114l11 -38c1 -4 2 -8 2 -12c0 -15 -60 -38 -105 -38c-49 0 -82 23 -82 71c0 76 79 125 145 160l50 -17c-19 -14 -105 -76 -105 -115c0 -14 8 -19 23 -19c29 0 48 15 55 15c3 0 5 -4 6 -7z" />
    <glyph glyph-name="caron" unicode="&#x2c7;" horiz-adv-x="360" 
d="M375 654l-138 -92c-4 -3 -10 -8 -16 -8c-5 0 -9 4 -12 7l-89 94c-4 5 -11 10 -11 16c0 4 4 8 7 12l26 29c5 5 8 10 13 10s8 -3 12 -6l71 -52l95 52c6 3 10 6 16 6c4 0 8 -2 12 -10l16 -30c3 -5 7 -10 7 -16c0 -5 -3 -8 -9 -12z" />
    <glyph glyph-name="emdash" unicode="&#x2014;" horiz-adv-x="1000" 
d="M983 278l-15 -67c-4 -14 -6 -15 -18 -15h-900c-10 0 -17 4 -17 11c0 6 2 16 3 22l15 67c4 14 6 15 18 15h900c11 0 17 -3 17 -11c0 -6 -2 -16 -3 -22z" />
    <glyph glyph-name="AE" unicode="&#xc6;" horiz-adv-x="796" 
d="M400 271l73 345l-2 2c-13 -34 -31 -74 -57 -118l-138 -229h124zM539 306l-42 -201h215c11 0 17 -1 17 -9c0 -4 -2 -12 -3 -17l-14 -65c-3 -13 -6 -14 -18 -14h-332c-13 0 -15 5 -15 11c0 3 1 11 2 15l32 155h-160l-100 -167c-6 -9 -7 -14 -16 -14h-109
c-10 0 -13 7 -13 11s3 8 5 13l421 652c6 8 7 9 18 9h411c16 0 17 -3 17 -11c0 -3 -4 -10 -6 -15l-34 -66c-6 -12 -10 -13 -21 -13h-197l-36 -169h170c10 0 14 -5 14 -11c0 -5 -1 -9 -2 -14l-14 -66c-3 -13 -5 -14 -18 -14h-172z" />
    <glyph glyph-name="ordfeminine" unicode="&#xaa;" horiz-adv-x="444" 
d="M429 647l-42 -195c-3 -13 -6 -29 -6 -42c0 -23 7 -37 7 -44c0 -6 -4 -9 -11 -11l-59 -19c-4 -1 -9 -3 -13 -3c-12 0 -13 50 -14 57c-13 -15 -48 -57 -108 -57c-52 0 -83 39 -83 113c0 129 76 239 166 239c48 0 65 -32 71 -43l10 22c3 7 7 9 13 9h61c8 0 11 -5 11 -9
c0 -6 -2 -13 -3 -17zM301 492l22 105c-9 6 -22 18 -46 18c-52 0 -77 -108 -77 -174c0 -18 5 -33 22 -33c38 0 68 33 79 84z" />
    <glyph glyph-name="Lslash" unicode="&#x141;" horiz-adv-x="463" 
d="M234 356l-51 -241h240c11 0 17 -3 17 -10c0 -5 -1 -10 -4 -16l-34 -75c-5 -12 -7 -14 -18 -14h-337c-13 0 -15 5 -15 11c0 3 1 11 2 15l57 271l-62 -29c-3 -2 -8 -4 -12 -4s-8 2 -8 9c0 3 1 6 2 11l10 47c2 9 7 13 13 16l75 35l62 289c3 13 5 14 18 14h97
c13 0 15 -5 15 -11c0 -3 -1 -11 -2 -15l-47 -217l119 53c4 2 8 4 13 4s8 -5 8 -10c0 -3 -2 -11 -2 -11l-9 -44c-3 -15 -10 -15 -16 -18z" />
    <glyph glyph-name="Oslash" unicode="&#xd8;" horiz-adv-x="574" 
d="M570 694l-40 -63c12 -19 37 -51 37 -139c0 -221 -100 -509 -334 -509c-56 0 -85 15 -99 23l-31 -51c-4 -6 -7 -9 -12 -9c-4 0 -8 2 -12 4l-33 21c-7 5 -10 8 -10 12s2 9 4 12l39 61c-10 17 -36 51 -36 138c0 226 105 508 333 508c57 0 87 -15 99 -21l33 53c4 6 8 8 12 8
s8 -3 11 -4l34 -21c5 -4 10 -7 10 -11c0 -5 -3 -9 -5 -12zM165 175l258 411c-6 7 -19 21 -55 21c-155 0 -205 -333 -205 -432h2zM445 511l-258 -411c8 -9 21 -22 56 -22c164 0 204 337 204 433h-2z" />
    <glyph glyph-name="OE" unicode="&#x152;" horiz-adv-x="759" 
d="M503 306l-42 -201h215c11 0 17 -2 17 -9c0 -4 -2 -12 -3 -17l-14 -65c-3 -13 -6 -14 -18 -14h-335c-10 -3 -24 -8 -39 -11c-16 -3 -33 -6 -53 -6c-118 0 -185 72 -185 207c0 234 103 512 333 512c48 0 65 -10 79 -17h344c16 0 17 -3 17 -11c0 -3 -4 -10 -6 -15l-34 -66
c-7 -12 -10 -13 -21 -13h-197l-36 -169h170c10 0 14 -5 14 -11c0 -5 -1 -9 -2 -14l-14 -66c-3 -13 -5 -14 -18 -14h-172zM333 120l93 445c-16 22 -45 32 -62 32c-119 0 -183 -241 -183 -404c0 -71 15 -105 64 -105c28 0 74 18 88 32z" />
    <glyph glyph-name="ordmasculine" unicode="&#xba;" horiz-adv-x="444" 
d="M427 561c0 -127 -82 -228 -195 -228c-71 0 -121 34 -121 124c0 126 84 228 199 228c69 0 117 -35 117 -124zM246 408c56 0 81 96 81 156c0 32 -11 46 -35 46c-57 0 -81 -95 -81 -156c0 -32 11 -46 35 -46z" />
    <glyph glyph-name="ae" unicode="&#xe6;" horiz-adv-x="722" 
d="M303 296l11 47c2 10 4 20 4 31c0 36 -28 47 -61 47c-61 0 -114 -35 -126 -35c-4 0 -8 1 -11 10l-16 51c-1 4 -3 9 -3 12c0 20 109 52 169 52c91 0 109 -38 127 -72c23 23 79 72 172 72c94 0 148 -52 148 -132c0 -173 -220 -173 -303 -173c-4 -19 -5 -33 -5 -48
c0 -50 27 -75 83 -75c59 0 112 40 127 40c5 0 6 -3 8 -7l25 -62c1 -3 3 -6 3 -9c0 -13 -93 -62 -195 -62c-56 0 -121 23 -149 82c-23 -27 -72 -82 -168 -82c-82 0 -132 52 -132 132c0 176 223 181 292 181zM276 164l8 42c-30 0 -153 11 -153 -82c0 -30 16 -51 46 -51
c45 0 87 27 99 91zM430 296c41 0 167 0 167 76c0 26 -16 49 -46 49c-88 0 -114 -93 -121 -125z" />
    <glyph glyph-name="dotlessi" unicode="&#x131;" horiz-adv-x="296" 
d="M266 472l-98 -460c-2 -11 -4 -12 -14 -12h-93c-8 0 -13 2 -13 10c0 3 0 7 1 11l81 383h-76c-9 0 -13 3 -13 10c0 4 1 8 2 12l11 56c2 11 5 12 15 12h186c8 0 12 -3 12 -9c0 -4 0 -10 -1 -13z" />
    <glyph glyph-name="lslash" unicode="&#x142;" horiz-adv-x="333" 
d="M248 91l10 -69c0 -3 1 -7 1 -10c0 -15 -62 -29 -101 -29c-58 0 -97 19 -97 84c0 36 4 72 11 106l13 61l-96 -61c-3 -2 -6 -4 -12 -4c-5 0 -7 1 -7 6c0 3 0 5 1 8l12 60c2 6 2 10 11 16l112 70l78 357c2 10 3 14 18 17l88 18c4 1 11 3 14 3c4 0 5 -3 5 -11
c0 -6 -2 -13 -3 -19l-62 -281l121 74c3 1 6 4 9 4s5 -3 5 -6v-5l-14 -64c-2 -7 -1 -11 -12 -17l-129 -79l-32 -146c-5 -24 -11 -49 -11 -63s8 -20 23 -20c17 0 32 7 37 7c3 0 6 -1 7 -7z" />
    <glyph glyph-name="oslash" unicode="&#xf8;" horiz-adv-x="500" 
d="M485 501l-44 -55c9 -16 27 -51 27 -116c0 -190 -119 -347 -275 -347c-57 0 -90 18 -99 24l-37 -48c-3 -3 -6 -7 -10 -7s-8 3 -11 6l-25 20c-3 2 -7 5 -7 9s2 7 5 10l41 51c-7 13 -25 46 -25 117c0 189 122 346 277 346c52 0 76 -14 94 -24l41 51c2 3 6 7 10 7
c3 0 6 -2 9 -4l26 -21c2 -2 7 -6 7 -10c0 -3 -2 -6 -4 -9zM142 151l192 252c-9 7 -20 18 -41 18c-84 0 -153 -179 -153 -270h2zM351 347l-193 -254c9 -8 20 -20 49 -20c136 0 146 240 146 274h-2z" />
    <glyph glyph-name="oe" unicode="&#x153;" horiz-adv-x="759" 
d="M661 116l25 -62c1 -3 3 -6 3 -9c0 -13 -93 -62 -195 -62c-55 0 -102 4 -145 65c-17 -19 -66 -65 -157 -65c-105 0 -170 54 -170 182c0 185 118 346 284 346c63 0 109 -36 125 -72c23 23 67 72 172 72c94 0 148 -52 148 -132c0 -189 -220 -189 -303 -189
c-5 -19 -5 -33 -5 -48c0 -40 27 -59 83 -59c59 0 112 40 127 40c5 0 6 -3 8 -7zM463 280c41 0 168 0 168 92c0 26 -16 49 -46 49c-89 0 -115 -103 -122 -141zM210 83c93 0 133 158 133 255c0 47 -18 73 -61 73c-93 0 -133 -158 -133 -255c0 -47 18 -73 61 -73z" />
    <glyph glyph-name="germandbls" unicode="&#xdf;" horiz-adv-x="593" 
d="M240 505l-109 -509c-17 -80 -44 -198 -193 -198c-43 0 -83 6 -83 17c0 4 2 7 3 11l20 71c2 5 4 7 8 7s16 -6 37 -6c71 0 78 49 93 120l103 480c22 107 66 226 248 226c103 0 173 -42 173 -134c0 -64 -33 -100 -65 -128c-33 -27 -66 -46 -66 -77c0 -28 34 -50 68 -81
c34 -32 68 -73 68 -142c0 -112 -87 -179 -209 -179c-56 0 -128 16 -128 32c0 5 2 12 4 16l19 60c2 7 8 8 11 8c13 0 49 -26 106 -26c56 0 87 28 87 69c0 43 -36 72 -73 103c-36 31 -73 65 -73 117c0 58 34 89 68 117c34 29 68 53 68 96c0 30 -26 49 -67 49
c-88 0 -106 -60 -118 -119z" />
    <glyph glyph-name="onesuperior" unicode="&#xb9;" horiz-adv-x="352" 
d="M294 311l-6 -30c-2 -12 -6 -14 -18 -14h-184c-8 0 -14 3 -14 11c0 3 1 7 2 10l6 30c2 12 6 14 18 14h58l52 243l-54 -27c-4 -2 -9 -5 -14 -5c-7 0 -9 5 -11 10l-10 21c-2 4 -4 8 -4 12c0 7 4 10 10 13l114 65c5 3 10 4 17 4h38c10 0 15 -2 15 -10c0 -4 0 -7 -1 -10
l-67 -316h41c7 0 14 -2 14 -11c0 -3 -1 -7 -2 -10z" />
    <glyph glyph-name="logicalnot" unicode="&#xac;" 
d="M505 369v-225c0 -14 -3 -17 -17 -17h-66c-14 0 -17 3 -17 17v142h-338c-14 0 -17 3 -17 17v66c0 14 4 17 17 17h421c14 0 17 -3 17 -17z" />
    <glyph glyph-name="mu" unicode="&#xb5;" horiz-adv-x="519" 
d="M138 -3l-36 -177c-1 -8 -3 -9 -14 -12l-82 -17c-5 -1 -10 -3 -15 -3c-10 0 -14 3 -14 10c0 4 1 11 2 15l138 666c1 8 3 9 14 12l82 17c5 1 10 3 15 3c10 0 14 -3 14 -10c0 -4 -2 -11 -2 -15l-62 -298c-5 -20 -10 -40 -10 -61c0 -23 8 -39 28 -39c87 0 121 124 136 196
l43 195c1 8 3 9 14 12l82 17c5 1 10 3 15 3c10 0 14 -3 14 -10c0 -4 -1 -8 -2 -12l-73 -317c-5 -25 -12 -50 -12 -82c0 -30 9 -44 9 -62c0 -7 -7 -9 -12 -11l-80 -31c-3 -1 -5 -3 -10 -3c-11 0 -20 45 -20 101h-2c-21 -29 -60 -101 -125 -101c-13 0 -29 5 -35 14z" />
    <glyph glyph-name="trademark" unicode="&#x2122;" horiz-adv-x="704" 
d="M253 643v-248h-43v248h-73v42h190v-42h-74zM639 685v-290h-43v262h-2l-68 -262h-53l-68 262h-2v-262h-43v290h78l60 -228h2l59 228h80z" />
    <glyph glyph-name="Eth" unicode="&#xd0;" horiz-adv-x="593" 
d="M189 685h163c124 0 225 -48 225 -212c0 -81 -25 -473 -338 -473h-192c-13 0 -15 5 -15 11c0 3 1 11 2 15l61 288h-50c-10 0 -16 3 -16 11c0 4 0 8 1 12l11 52c3 13 5 15 17 15h56l55 267c3 13 7 14 20 14zM179 105h68c154 0 195 231 195 358c0 102 -52 117 -123 117h-40
l-38 -176h97c11 0 17 -3 17 -12c0 -4 -2 -9 -2 -13l-10 -51c-3 -13 -6 -14 -18 -14h-103z" />
    <glyph glyph-name="onehalf" unicode="&#xbd;" horiz-adv-x="833" 
d="M640 656l-369 -663c-5 -10 -7 -10 -18 -10h-62c-11 0 -17 2 -17 9c0 6 3 12 6 17l369 665c5 9 7 11 18 11h62c11 0 17 -3 17 -9c0 -7 -3 -15 -6 -20zM278 311l-6 -30c-2 -12 -6 -14 -18 -14h-184c-8 0 -14 3 -14 11c0 3 1 7 2 10l6 30c2 12 6 14 18 14h58l52 243l-54 -27
c-4 -2 -9 -5 -14 -5c-7 0 -9 5 -11 10l-10 21c-2 4 -4 8 -4 12c0 7 4 10 10 13l114 65c5 3 10 4 17 4h38c10 0 15 -2 15 -10c0 -4 0 -7 -1 -10l-67 -316h41c7 0 14 -2 14 -11c0 -3 -1 -7 -2 -10zM737 53l-8 -39c-3 -12 -7 -14 -18 -14h-231c-6 0 -12 2 -12 8
c0 48 29 93 50 119c68 82 187 102 187 176c0 20 -12 33 -35 33c-53 0 -62 -60 -85 -60c-3 0 -5 0 -9 2l-36 16c-5 2 -9 5 -9 11c0 20 52 106 157 106c65 0 107 -34 107 -101c0 -68 -37 -96 -103 -142c-60 -41 -103 -54 -118 -93h149c10 0 16 -2 16 -12c0 -3 -2 -7 -2 -10z
" />
    <glyph glyph-name="plusminus" unicode="&#xb1;" 
d="M505 23v-66c0 -14 -3 -17 -17 -17h-420c-14 0 -17 3 -17 17v66c0 14 4 17 17 17h420c14 0 17 -3 17 -17zM328 207v-114c0 -14 -3 -17 -17 -17h-66c-14 0 -17 3 -17 17v114h-160c-14 0 -17 3 -17 17v66c0 14 4 17 17 17h160v160c0 14 3 17 17 17h66c14 0 17 -3 17 -17
v-160h160c14 0 17 -3 17 -17v-66c0 -14 -3 -17 -17 -17h-160z" />
    <glyph glyph-name="Thorn" unicode="&#xde;" horiz-adv-x="519" 
d="M218 282h31c83 0 138 38 138 126c0 58 -40 69 -85 69h-42zM195 174l-33 -160c-3 -13 -6 -14 -18 -14h-97c-13 0 -15 5 -15 11c0 3 1 11 2 15l137 645c3 13 6 14 18 14h97c13 0 15 -5 15 -11c0 -3 -1 -11 -2 -15l-16 -74h33c101 0 201 -20 201 -154
c0 -180 -128 -257 -269 -257h-53z" />
    <glyph glyph-name="onequarter" unicode="&#xbc;" horiz-adv-x="833" 
d="M719 87l-16 -73c-2 -11 -6 -14 -18 -14h-51c-10 0 -16 1 -16 11c0 3 1 7 2 10l14 67h-151c-9 0 -15 1 -15 10c0 4 0 7 1 10l12 54c2 10 2 9 9 17l202 237c3 4 7 7 12 7c4 0 8 -2 11 -3l40 -18c4 -2 10 -6 10 -11c0 -4 -2 -8 -5 -11l-194 -227h82l38 97c4 9 5 12 18 12h33
c9 0 15 -1 15 -8c0 -3 -1 -9 -2 -12l-17 -86h30c11 0 16 -2 16 -9c0 -3 -1 -9 -2 -12l-7 -34c-2 -11 -5 -14 -18 -14h-33zM670 656l-369 -663c-5 -10 -7 -10 -18 -10h-62c-11 0 -17 2 -17 9c0 6 3 12 6 17l369 665c5 9 7 11 18 11h62c11 0 17 -3 17 -9c0 -7 -3 -15 -6 -20z
M146 332l52 243l-54 -27c-4 -2 -9 -5 -14 -5c-7 0 -9 5 -11 10l-10 21c-2 4 -4 8 -4 12c0 7 4 10 10 13l114 65c5 3 10 4 17 4h38c10 0 15 -2 15 -10c0 -4 0 -7 -1 -10l-67 -316h41c8 0 14 -2 14 -8c0 -3 -1 -10 -2 -13l-6 -30c-2 -12 -6 -14 -18 -14h-184
c-8 0 -14 3 -14 11c0 3 1 7 2 10l6 30c2 12 6 14 18 14h58z" />
    <glyph glyph-name="divide" unicode="&#xf7;" 
d="M349 85c0 -40 -32 -71 -71 -71s-71 31 -71 71s31 71 71 71c39 0 71 -31 71 -71zM505 290v-66c0 -14 -3 -17 -17 -17h-420c-14 0 -17 3 -17 17v66c0 14 4 17 17 17h420c14 0 17 -3 17 -17zM349 429c0 -41 -32 -71 -71 -71s-71 31 -71 71s31 71 71 71c39 0 71 -32 71 -71z
" />
    <glyph glyph-name="brokenbar" unicode="&#xa6;" horiz-adv-x="400" 
d="M250 658v-316c0 -14 -3 -17 -17 -17h-66c-13 0 -17 3 -17 17v316c0 14 4 17 17 17h66c13 0 17 -3 17 -17zM250 158v-316c0 -14 -3 -17 -17 -17h-66c-13 0 -17 3 -17 17v316c0 15 4 17 17 17h66c13 0 17 -2 17 -17z" />
    <glyph glyph-name="degree" unicode="&#xb0;" 
d="M485 544c0 -87 -71 -157 -158 -157c-86 0 -157 70 -157 157c0 89 72 158 157 158c87 0 158 -69 158 -158zM327 469c43 0 76 34 76 75c0 42 -34 76 -76 76c-41 0 -75 -33 -75 -76c0 -42 33 -75 75 -75z" />
    <glyph glyph-name="thorn" unicode="&#xfe;" horiz-adv-x="519" 
d="M184 261l-35 -165c9 -4 35 -20 75 -20c102 0 139 162 139 266c0 43 -17 69 -48 69c-67 0 -116 -78 -131 -150zM131 8l-39 -182c-2 -10 -3 -14 -18 -17l-88 -18c-4 -1 -12 -3 -15 -3c-4 0 -5 3 -5 9c0 5 3 15 4 21l184 868c2 10 3 14 18 17l88 18c4 1 11 3 15 3
s6 -3 6 -10c0 -5 -2 -14 -3 -20l-53 -243l2 -2c30 30 62 62 147 62c71 0 109 -50 109 -150c0 -160 -81 -378 -254 -378c-56 0 -80 16 -98 25z" />
    <glyph glyph-name="threequarters" unicode="&#xbe;" horiz-adv-x="833" 
d="M738 87l-16 -73c-2 -11 -6 -14 -18 -14h-51c-10 0 -16 1 -16 11c0 3 1 7 2 10l14 67h-151c-9 0 -15 1 -15 10c0 4 0 7 1 10l12 54c2 10 2 9 9 17l202 237c3 4 7 7 12 7c4 0 8 -2 11 -3l40 -18c4 -2 10 -6 10 -11c0 -4 -2 -8 -5 -11l-194 -227h82l38 97c4 9 5 12 18 12h33
c9 0 15 -1 15 -8c0 -3 -1 -9 -2 -12l-17 -86h30c11 0 16 -2 16 -9c0 -3 -1 -9 -2 -12l-7 -34c-2 -11 -5 -14 -18 -14h-33zM680 656l-369 -663c-5 -10 -7 -10 -18 -10h-62c-11 0 -17 2 -17 9c0 6 3 12 6 17l369 665c5 9 7 11 18 11h62c11 0 17 -3 17 -9c0 -7 -3 -15 -6 -20z
M139 574l-31 26c-3 2 -5 5 -5 8c0 15 58 70 134 70c69 0 111 -34 111 -89c0 -56 -27 -79 -73 -107c22 -14 48 -24 48 -80c0 -88 -70 -145 -172 -145c-53 0 -119 21 -119 35c0 3 1 6 3 9l20 42c2 6 8 9 13 9c9 0 36 -20 89 -20c47 0 76 26 76 66c0 38 -34 41 -65 41h-20
c-10 0 -16 3 -16 10c0 4 1 7 2 11l8 41c1 9 6 13 18 13h25c47 0 73 24 73 60c0 21 -15 29 -32 29c-45 0 -65 -33 -78 -33c-3 0 -7 2 -9 4z" />
    <glyph glyph-name="twosuperior" unicode="&#xb2;" horiz-adv-x="352" 
d="M313 320l-8 -39c-3 -12 -7 -14 -18 -14h-231c-6 0 -12 2 -12 8c0 48 29 93 50 119c68 82 187 102 187 176c0 20 -12 33 -35 33c-53 0 -62 -60 -85 -60c-3 0 -5 0 -9 2l-36 16c-5 2 -9 5 -9 11c0 20 52 106 157 106c65 0 107 -34 107 -101c0 -68 -37 -96 -103 -142
c-60 -41 -103 -54 -118 -93h149c10 0 16 -2 16 -12c0 -3 -2 -7 -2 -10z" />
    <glyph glyph-name="registered" unicode="&#xae;" 
d="M545 467c0 -130 -106 -235 -235 -235s-235 105 -235 235c0 129 106 235 235 235s235 -106 235 -235zM310 267c110 0 200 90 200 200s-90 200 -200 200s-200 -90 -200 -200s90 -200 200 -200zM362 456l46 -107h-50l-39 100h-53v-100h-45v248h83c47 0 101 -8 101 -80
c0 -44 -27 -53 -43 -61zM266 489h54c21 0 38 10 38 32s-15 33 -42 33h-50v-65z" />
    <glyph glyph-name="minus" unicode="&#x2212;" 
d="M505 290v-66c0 -14 -3 -17 -17 -17h-420c-14 0 -17 3 -17 17v66c0 14 4 17 17 17h420c14 0 17 -3 17 -17z" />
    <glyph glyph-name="eth" unicode="&#xf0;" horiz-adv-x="500" 
d="M504 638l-94 -28c9 -23 61 -161 61 -279c0 -199 -120 -348 -278 -348c-103 0 -168 54 -168 181c0 179 121 330 244 330c34 0 49 -8 70 -18c-6 31 -16 79 -23 104l-94 -28c-3 -1 -7 -3 -10 -3c-2 0 -7 1 -9 9l-9 30c-2 4 -2 8 -2 11c0 5 3 7 8 9l96 29
c-28 68 -46 83 -46 93c0 6 10 7 20 7h57c38 0 47 -40 63 -71l93 26c3 1 7 2 11 2c2 0 6 -1 8 -8l8 -29c1 -3 3 -7 3 -10c0 -5 -4 -8 -9 -9zM211 83c95 0 133 156 133 254c0 48 -22 72 -60 72c-90 0 -132 -149 -132 -252c0 -48 18 -74 59 -74z" />
    <glyph glyph-name="multiply" unicode="&#xd7;" 
d="M462 119l-47 -47c-3 -3 -7 -8 -12 -8s-9 4 -12 8l-113 115l-113 -115c-4 -5 -8 -8 -12 -8c-5 0 -9 5 -12 8l-48 47c-3 2 -7 7 -7 12s4 9 7 12l115 113l-115 113c-3 2 -7 7 -7 12s4 9 7 12l48 48c3 3 7 7 11 7c5 0 9 -3 13 -7l113 -115l113 115c3 3 7 7 12 7
c4 0 8 -3 12 -7l47 -47c4 -4 8 -8 8 -12c0 -5 -4 -10 -8 -13l-114 -113l114 -113c3 -3 8 -7 8 -11c0 -5 -4 -9 -8 -13z" />
    <glyph glyph-name="threesuperior" unicode="&#xb3;" horiz-adv-x="352" 
d="M145 574l-31 26c-3 2 -5 5 -5 8c0 15 58 70 134 70c69 0 111 -34 111 -89c0 -56 -27 -79 -73 -107c22 -14 48 -24 48 -80c0 -88 -70 -145 -172 -145c-53 0 -119 21 -119 35c0 3 1 6 3 9l20 42c2 6 8 9 13 9c9 0 36 -20 89 -20c47 0 76 26 76 66c0 38 -34 41 -65 41h-20
c-10 0 -16 3 -16 10c0 4 1 7 2 11l8 41c1 9 6 13 18 13h25c47 0 73 24 73 60c0 21 -15 29 -32 29c-45 0 -65 -33 -78 -33c-3 0 -7 2 -9 4z" />
    <glyph glyph-name="copyright" unicode="&#xa9;" 
d="M546 467c0 -130 -106 -235 -235 -235c-130 0 -235 105 -235 235c0 129 105 235 235 235c129 0 235 -106 235 -235zM311 267c110 0 200 90 200 200s-90 200 -200 200s-200 -90 -200 -200s90 -200 200 -200zM391 408l26 -32c-11 -10 -38 -39 -95 -39
c-71 0 -136 57 -136 134s66 134 136 134c55 0 84 -29 95 -39l-26 -33c-12 11 -34 31 -69 31c-43 0 -93 -34 -93 -93c0 -62 51 -93 90 -93c42 0 60 19 72 30z" />
    <glyph glyph-name="Aacute" unicode="&#xc1;" horiz-adv-x="574" 
d="M449 668l58 -644c0 -3 1 -7 1 -10c0 -12 -6 -14 -17 -14h-105c-7 0 -13 5 -13 11l-7 171h-170l-77 -168c-6 -9 -7 -14 -20 -14h-103c-10 0 -13 7 -13 11s3 8 5 13l329 652c4 9 7 9 18 9h96c11 0 16 0 18 -17zM363 272l-9 174c-2 34 -4 64 -4 103h-2
c-7 -28 -26 -64 -43 -104l-76 -173h134zM536 817l-188 -68c-6 -2 -10 -4 -16 -4c-4 0 -7 2 -11 12l-13 29c-3 5 -5 10 -5 15s3 8 11 12l178 96c3 2 10 6 16 6c4 0 7 -2 12 -12l24 -58c2 -5 5 -10 5 -15c0 -6 -2 -9 -13 -13z" />
    <glyph glyph-name="Acircumflex" unicode="&#xc2;" horiz-adv-x="574" 
d="M449 668l58 -644c0 -3 1 -7 1 -10c0 -12 -6 -14 -17 -14h-105c-7 0 -13 5 -13 11l-7 171h-170l-77 -168c-6 -9 -7 -14 -20 -14h-103c-10 0 -13 7 -13 11s3 8 5 13l329 652c4 9 7 9 18 9h96c11 0 16 0 18 -17zM363 272l-9 174c-2 34 -4 64 -4 103h-2
c-7 -28 -26 -64 -43 -104l-76 -173h134zM515 784l-26 -29c-5 -5 -8 -10 -13 -10s-8 3 -12 6l-71 52l-95 -52c-6 -3 -10 -6 -16 -6c-4 0 -8 2 -12 10l-16 30c-3 5 -7 10 -7 16c0 5 3 8 9 12l138 92c4 3 10 8 16 8c5 0 9 -4 12 -7l89 -94c4 -5 11 -10 11 -16
c0 -4 -4 -8 -7 -12z" />
    <glyph glyph-name="Adieresis" unicode="&#xc4;" horiz-adv-x="574" 
d="M449 668l58 -644c0 -3 1 -7 1 -10c0 -12 -6 -14 -17 -14h-105c-7 0 -13 5 -13 11l-7 171h-170l-77 -168c-6 -9 -7 -14 -20 -14h-103c-10 0 -13 7 -13 11s3 8 5 13l329 652c4 9 7 9 18 9h96c11 0 16 0 18 -17zM363 272l-9 174c-2 34 -4 64 -4 103h-2
c-7 -28 -26 -64 -43 -104l-76 -173h134zM367 824c0 -39 -31 -69 -69 -69s-70 30 -70 69s31 70 70 70c37 0 69 -31 69 -70zM559 824c0 -39 -31 -69 -69 -69s-70 30 -70 69s31 70 70 70c37 0 69 -31 69 -70z" />
    <glyph glyph-name="Agrave" unicode="&#xc0;" horiz-adv-x="574" 
d="M449 668l58 -644c0 -3 1 -7 1 -10c0 -12 -6 -14 -17 -14h-105c-7 0 -13 5 -13 11l-7 171h-170l-77 -168c-6 -9 -7 -14 -20 -14h-103c-10 0 -13 7 -13 11s3 8 5 13l329 652c4 9 7 9 18 9h96c11 0 16 0 18 -17zM363 272l-9 174c-2 34 -4 64 -4 103h-2
c-7 -28 -26 -64 -43 -104l-76 -173h134zM434 776l-14 -20c-5 -7 -9 -11 -14 -11c-6 0 -11 3 -17 6l-154 74c-5 2 -9 8 -9 13c0 4 2 10 7 16l39 56c4 7 8 11 16 11c6 0 11 -5 15 -8l137 -110c2 -2 5 -5 5 -8c0 -5 -7 -12 -11 -19z" />
    <glyph glyph-name="Aring" unicode="&#xc5;" horiz-adv-x="574" 
d="M449 668l58 -644c0 -3 1 -7 1 -10c0 -12 -6 -14 -17 -14h-105c-7 0 -13 5 -13 11l-7 171h-170l-77 -168c-6 -9 -7 -14 -20 -14h-103c-10 0 -13 7 -13 11s3 8 5 13l329 652c4 9 7 9 18 9h96c11 0 16 0 18 -17zM363 272l-9 174c-2 34 -4 64 -4 103h-2
c-7 -28 -26 -64 -43 -104l-76 -173h134zM496 837c0 -58 -47 -104 -105 -104c-57 0 -104 46 -104 104c0 59 47 105 104 105c58 0 105 -47 105 -105zM391 796c23 0 42 19 42 41c0 23 -18 42 -42 42c-22 0 -41 -18 -41 -42s20 -41 41 -41z" />
    <glyph glyph-name="Atilde" unicode="&#xc3;" horiz-adv-x="574" 
d="M449 668l58 -644c0 -3 1 -7 1 -10c0 -12 -6 -14 -17 -14h-105c-7 0 -13 5 -13 11l-7 171h-170l-77 -168c-6 -9 -7 -14 -20 -14h-103c-10 0 -13 7 -13 11s3 8 5 13l329 652c4 9 7 9 18 9h96c11 0 16 0 18 -17zM363 272l-9 174c-2 34 -4 64 -4 103h-2
c-7 -28 -26 -64 -43 -104l-76 -173h134zM493 882l32 -26c3 -3 7 -7 7 -11c0 -11 -50 -84 -114 -84c-53 0 -61 36 -89 36c-29 0 -43 -35 -53 -35c-4 0 -7 3 -10 6l-34 28c-2 1 -5 5 -5 8c0 6 44 83 112 83c50 0 70 -36 94 -36c28 0 41 35 51 35c3 0 6 -2 9 -4z" />
    <glyph glyph-name="Ccedilla" unicode="&#xc7;" horiz-adv-x="481" 
d="M253 -17l-11 -39c24 -3 60 -15 60 -63c0 -61 -42 -101 -116 -101c-41 0 -77 8 -77 19c0 4 1 7 2 11l12 38c1 3 3 7 6 7c6 0 23 -10 43 -10c22 0 35 12 35 28c0 19 -18 22 -37 22c-6 0 -18 0 -18 7c0 4 1 7 2 11l22 79c-75 25 -127 82 -127 226c0 249 110 484 340 484
c77 0 152 -45 152 -69c0 -5 -3 -6 -5 -10l-46 -69c-4 -5 -7 -6 -10 -6c-22 0 -46 46 -98 46c-130 0 -198 -212 -198 -376c0 -98 28 -127 91 -127c57 0 93 37 110 37c3 0 4 -1 7 -7l25 -64c1 -4 3 -5 3 -12c0 -22 -114 -62 -167 -62z" />
    <glyph glyph-name="Eacute" unicode="&#xc9;" horiz-adv-x="481" 
d="M224 306l-42 -201h215c11 0 17 -1 17 -8c0 -4 -2 -13 -3 -18l-14 -65c-3 -13 -6 -14 -18 -14h-332c-13 0 -15 5 -15 11c0 3 1 11 2 15l137 645c3 13 6 14 18 14h334c16 0 17 -3 17 -11c0 -3 -4 -10 -6 -15l-34 -66c-7 -12 -10 -13 -21 -13h-197l-36 -169h170
c10 0 14 -5 14 -11c0 -5 -1 -9 -2 -14l-14 -66c-3 -13 -5 -14 -18 -14h-172zM475 817l-188 -68c-6 -2 -10 -4 -16 -4c-4 0 -7 2 -11 12l-13 29c-3 5 -5 10 -5 15s3 8 11 12l178 96c3 2 10 6 16 6c4 0 7 -2 12 -12l24 -58c2 -5 5 -10 5 -15c0 -6 -2 -9 -13 -13z" />
    <glyph glyph-name="Ecircumflex" unicode="&#xca;" horiz-adv-x="481" 
d="M224 306l-42 -201h215c11 0 17 -1 17 -8c0 -4 -2 -13 -3 -18l-14 -65c-3 -13 -6 -14 -18 -14h-332c-13 0 -15 5 -15 11c0 3 1 11 2 15l137 645c3 13 6 14 18 14h334c16 0 17 -3 17 -11c0 -3 -4 -10 -6 -15l-34 -66c-7 -12 -10 -13 -21 -13h-197l-36 -169h170
c10 0 14 -5 14 -11c0 -5 -1 -9 -2 -14l-14 -66c-3 -13 -5 -14 -18 -14h-172zM489 784l-26 -29c-5 -5 -8 -10 -13 -10s-8 3 -12 6l-71 52l-95 -52c-6 -3 -10 -6 -16 -6c-4 0 -8 2 -12 10l-16 30c-3 5 -7 10 -7 16c0 5 3 8 9 12l138 92c4 3 10 8 16 8c5 0 9 -4 12 -7l89 -94
c4 -5 11 -10 11 -16c0 -4 -4 -8 -7 -12z" />
    <glyph glyph-name="Edieresis" unicode="&#xcb;" horiz-adv-x="481" 
d="M224 306l-42 -201h215c11 0 17 -1 17 -8c0 -4 -2 -13 -3 -18l-14 -65c-3 -13 -6 -14 -18 -14h-332c-13 0 -15 5 -15 11c0 3 1 11 2 15l137 645c3 13 6 14 18 14h334c16 0 17 -3 17 -11c0 -3 -4 -10 -6 -15l-34 -66c-7 -12 -10 -13 -21 -13h-197l-36 -169h170
c10 0 14 -5 14 -11c0 -5 -1 -9 -2 -14l-14 -66c-3 -13 -5 -14 -18 -14h-172zM321 824c0 -39 -31 -69 -69 -69s-70 30 -70 69s31 70 70 70c37 0 69 -31 69 -70zM513 824c0 -39 -31 -69 -69 -69s-70 30 -70 69s31 70 70 70c37 0 69 -31 69 -70z" />
    <glyph glyph-name="Egrave" unicode="&#xc8;" horiz-adv-x="481" 
d="M224 306l-42 -201h215c11 0 17 -1 17 -8c0 -4 -2 -13 -3 -18l-14 -65c-3 -13 -6 -14 -18 -14h-332c-13 0 -15 5 -15 11c0 3 1 11 2 15l137 645c3 13 6 14 18 14h334c16 0 17 -3 17 -11c0 -3 -4 -10 -6 -15l-34 -66c-7 -12 -10 -13 -21 -13h-197l-36 -169h170
c10 0 14 -5 14 -11c0 -5 -1 -9 -2 -14l-14 -66c-3 -13 -5 -14 -18 -14h-172zM388 776l-14 -20c-5 -7 -9 -11 -14 -11c-6 0 -11 3 -17 6l-154 74c-5 2 -9 8 -9 13c0 4 2 10 7 16l39 56c4 7 8 11 16 11c6 0 11 -5 15 -8l137 -110c2 -2 5 -5 5 -8c0 -5 -7 -12 -11 -19z" />
    <glyph glyph-name="Iacute" unicode="&#xcd;" horiz-adv-x="352" 
d="M273 69l-11 -55c-3 -12 -6 -14 -18 -14h-245c-10 0 -13 5 -13 11c0 4 1 8 2 13l11 55c3 12 6 14 18 14h60l106 499h-58c-10 0 -13 5 -13 11c0 4 1 8 2 13l11 55c3 12 6 14 18 14h245c10 0 13 -5 13 -11c0 -4 -1 -8 -2 -13l-11 -55c-3 -12 -6 -14 -18 -14h-60l-106 -499
h58c10 0 13 -5 13 -11c0 -4 -1 -8 -2 -13zM395 817l-188 -68c-6 -2 -10 -4 -16 -4c-4 0 -7 2 -11 12l-13 29c-3 5 -5 10 -5 15s3 8 11 12l178 96c3 2 10 6 16 6c4 0 7 -2 12 -12l24 -58c2 -5 5 -10 5 -15c0 -6 -2 -9 -13 -13z" />
    <glyph glyph-name="Icircumflex" unicode="&#xce;" horiz-adv-x="352" 
d="M273 69l-11 -55c-3 -12 -6 -14 -18 -14h-245c-10 0 -13 5 -13 11c0 4 1 8 2 13l11 55c3 12 6 14 18 14h60l106 499h-58c-10 0 -13 5 -13 11c0 4 1 8 2 13l11 55c3 12 6 14 18 14h245c10 0 13 -5 13 -11c0 -4 -1 -8 -2 -13l-11 -55c-3 -12 -6 -14 -18 -14h-60l-106 -499
h58c10 0 13 -5 13 -11c0 -4 -1 -8 -2 -13zM424 784l-26 -29c-5 -5 -8 -10 -13 -10s-8 3 -12 6l-71 52l-95 -52c-6 -3 -10 -6 -16 -6c-4 0 -8 2 -12 10l-16 30c-3 5 -7 10 -7 16c0 5 3 8 9 12l138 92c4 3 10 8 16 8c5 0 9 -4 12 -7l89 -94c4 -5 11 -10 11 -16
c0 -4 -4 -8 -7 -12z" />
    <glyph glyph-name="Idieresis" unicode="&#xcf;" horiz-adv-x="352" 
d="M273 69l-11 -55c-3 -12 -6 -14 -18 -14h-245c-10 0 -13 5 -13 11c0 4 1 8 2 13l11 55c3 12 6 14 18 14h60l106 499h-58c-10 0 -13 5 -13 11c0 4 1 8 2 13l11 55c3 12 6 14 18 14h245c10 0 13 -5 13 -11c0 -4 -1 -8 -2 -13l-11 -55c-3 -12 -6 -14 -18 -14h-60l-106 -499
h58c10 0 13 -5 13 -11c0 -4 -1 -8 -2 -13zM251 824c0 -39 -31 -69 -69 -69s-70 30 -70 69s31 70 70 70c37 0 69 -31 69 -70zM443 824c0 -39 -31 -69 -69 -69s-70 30 -70 69s31 70 70 70c37 0 69 -31 69 -70z" />
    <glyph glyph-name="Igrave" unicode="&#xcc;" horiz-adv-x="352" 
d="M273 69l-11 -55c-3 -12 -6 -14 -18 -14h-245c-10 0 -13 5 -13 11c0 4 1 8 2 13l11 55c3 12 6 14 18 14h60l106 499h-58c-10 0 -13 5 -13 11c0 4 1 8 2 13l11 55c3 12 6 14 18 14h245c10 0 13 -5 13 -11c0 -4 -1 -8 -2 -13l-11 -55c-3 -12 -6 -14 -18 -14h-60l-106 -499
h58c10 0 13 -5 13 -11c0 -4 -1 -8 -2 -13zM323 776l-14 -20c-5 -7 -9 -11 -14 -11c-6 0 -11 3 -17 6l-154 74c-5 2 -9 8 -9 13c0 4 2 10 7 16l39 56c4 7 8 11 16 11c6 0 11 -5 15 -8l137 -110c2 -2 5 -5 5 -8c0 -5 -7 -12 -11 -19z" />
    <glyph glyph-name="Ntilde" unicode="&#xd1;" horiz-adv-x="611" 
d="M615 659l-138 -645c-3 -13 -4 -14 -16 -14h-65c-12 0 -15 1 -18 13l-115 362c-11 33 -15 56 -22 88h-2c-3 -27 -11 -66 -18 -101l-74 -348c-3 -13 -6 -14 -18 -14h-84c-13 0 -15 5 -15 11c0 3 1 11 2 15l137 645c3 12 6 14 18 14h72c13 0 14 -1 18 -13l107 -331
c15 -41 22 -79 28 -108h2c1 28 9 79 17 114l69 324c3 13 6 14 18 14h84c13 0 15 -5 15 -11c0 -3 -1 -11 -2 -15zM512 882l32 -26c3 -3 7 -7 7 -11c0 -11 -50 -84 -114 -84c-53 0 -61 36 -89 36c-29 0 -43 -35 -53 -35c-4 0 -7 3 -10 6l-34 28c-2 1 -5 5 -5 8
c0 6 44 83 112 83c50 0 70 -36 94 -36c28 0 41 35 51 35c3 0 6 -2 9 -4z" />
    <glyph glyph-name="Oacute" unicode="&#xd3;" horiz-adv-x="574" 
d="M563 494c0 -233 -102 -511 -331 -511c-118 0 -185 72 -185 207c0 234 103 512 333 512c116 0 183 -73 183 -208zM246 88c119 0 182 240 182 403c0 72 -15 106 -63 106c-119 0 -183 -241 -183 -404c0 -71 15 -105 64 -105zM506 817l-188 -68c-6 -2 -10 -4 -16 -4
c-4 0 -7 2 -11 12l-13 29c-3 5 -5 10 -5 15s3 8 11 12l178 96c3 2 10 6 16 6c4 0 7 -2 12 -12l24 -58c2 -5 5 -10 5 -15c0 -6 -2 -9 -13 -13z" />
    <glyph glyph-name="Ocircumflex" unicode="&#xd4;" horiz-adv-x="574" 
d="M563 494c0 -233 -102 -511 -331 -511c-118 0 -185 72 -185 207c0 234 103 512 333 512c116 0 183 -73 183 -208zM246 88c119 0 182 240 182 403c0 72 -15 106 -63 106c-119 0 -183 -241 -183 -404c0 -71 15 -105 64 -105zM525 784l-26 -29c-5 -5 -8 -10 -13 -10
s-8 3 -12 6l-71 52l-95 -52c-6 -3 -10 -6 -16 -6c-4 0 -8 2 -12 10l-16 30c-3 5 -7 10 -7 16c0 5 3 8 9 12l138 92c4 3 10 8 16 8c5 0 9 -4 12 -7l89 -94c4 -5 11 -10 11 -16c0 -4 -4 -8 -7 -12z" />
    <glyph glyph-name="Odieresis" unicode="&#xd6;" horiz-adv-x="574" 
d="M563 494c0 -233 -102 -511 -331 -511c-118 0 -185 72 -185 207c0 234 103 512 333 512c116 0 183 -73 183 -208zM246 88c119 0 182 240 182 403c0 72 -15 106 -63 106c-119 0 -183 -241 -183 -404c0 -71 15 -105 64 -105zM367 824c0 -39 -31 -69 -69 -69s-70 30 -70 69
s31 70 70 70c37 0 69 -31 69 -70zM559 824c0 -39 -31 -69 -69 -69s-70 30 -70 69s31 70 70 70c37 0 69 -31 69 -70z" />
    <glyph glyph-name="Ograve" unicode="&#xd2;" horiz-adv-x="574" 
d="M563 494c0 -233 -102 -511 -331 -511c-118 0 -185 72 -185 207c0 234 103 512 333 512c116 0 183 -73 183 -208zM246 88c119 0 182 240 182 403c0 72 -15 106 -63 106c-119 0 -183 -241 -183 -404c0 -71 15 -105 64 -105zM434 776l-14 -20c-5 -7 -9 -11 -14 -11
c-6 0 -11 3 -17 6l-154 74c-5 2 -9 8 -9 13c0 4 2 10 7 16l39 56c4 7 8 11 16 11c6 0 11 -5 15 -8l137 -110c2 -2 5 -5 5 -8c0 -5 -7 -12 -11 -19z" />
    <glyph glyph-name="Otilde" unicode="&#xd5;" horiz-adv-x="574" 
d="M563 494c0 -233 -102 -511 -331 -511c-118 0 -185 72 -185 207c0 234 103 512 333 512c116 0 183 -73 183 -208zM246 88c119 0 182 240 182 403c0 72 -15 106 -63 106c-119 0 -183 -241 -183 -404c0 -71 15 -105 64 -105zM493 882l32 -26c3 -3 7 -7 7 -11
c0 -11 -50 -84 -114 -84c-53 0 -61 36 -89 36c-29 0 -43 -35 -53 -35c-4 0 -7 3 -10 6l-34 28c-2 1 -5 5 -5 8c0 6 44 83 112 83c50 0 70 -36 94 -36c28 0 41 35 51 35c3 0 6 -2 9 -4z" />
    <glyph glyph-name="Scaron" unicode="&#x160;" horiz-adv-x="481" 
d="M505 634l-38 -73c-4 -7 -4 -9 -11 -9c-11 0 -66 42 -133 42c-64 0 -111 -32 -111 -93c0 -75 93 -93 172 -158c35 -28 58 -67 58 -125c0 -134 -98 -235 -268 -235c-75 0 -186 36 -186 54c0 3 4 8 7 14l38 73c4 7 4 9 11 9c11 0 74 -42 148 -42c61 0 115 27 115 100
c0 55 -44 82 -93 111c-61 36 -132 75 -132 179c0 144 104 221 257 221c70 0 173 -35 173 -54c0 -3 -4 -8 -7 -14zM476 845l-138 -92c-4 -3 -10 -8 -16 -8c-5 0 -9 4 -12 7l-89 94c-4 5 -11 10 -11 16c0 4 4 8 7 12l26 29c5 5 8 10 13 10s8 -3 12 -6l71 -52l95 52
c6 3 10 6 16 6c4 0 8 -2 12 -10l16 -30c3 -5 7 -10 7 -16c0 -5 -3 -8 -9 -12z" />
    <glyph glyph-name="Uacute" unicode="&#xda;" horiz-adv-x="611" 
d="M622 659l-90 -427c-24 -113 -60 -249 -270 -249c-124 0 -202 52 -202 164c0 29 4 57 10 85l92 439c3 13 6 14 18 14h97c13 0 15 -5 15 -11c0 -3 -1 -11 -2 -15l-94 -428c-6 -21 -9 -43 -9 -65c0 -55 37 -75 89 -75c87 0 114 70 129 139l92 441c3 13 6 14 18 14h94
c13 0 15 -5 15 -11c0 -3 -1 -11 -2 -15zM525 817l-188 -68c-6 -2 -10 -4 -16 -4c-4 0 -7 2 -11 12l-13 29c-3 5 -5 10 -5 15s3 8 11 12l178 96c3 2 10 6 16 6c4 0 7 -2 12 -12l24 -58c2 -5 5 -10 5 -15c0 -6 -2 -9 -13 -13z" />
    <glyph glyph-name="Ucircumflex" unicode="&#xdb;" horiz-adv-x="611" 
d="M622 659l-90 -427c-24 -113 -60 -249 -270 -249c-124 0 -202 52 -202 164c0 29 4 57 10 85l92 439c3 13 6 14 18 14h97c13 0 15 -5 15 -11c0 -3 -1 -11 -2 -15l-94 -428c-6 -21 -9 -43 -9 -65c0 -55 37 -75 89 -75c87 0 114 70 129 139l92 441c3 13 6 14 18 14h94
c13 0 15 -5 15 -11c0 -3 -1 -11 -2 -15zM544 784l-26 -29c-5 -5 -8 -10 -13 -10s-8 3 -12 6l-71 52l-95 -52c-6 -3 -10 -6 -16 -6c-4 0 -8 2 -12 10l-16 30c-3 5 -7 10 -7 16c0 5 3 8 9 12l138 92c4 3 10 8 16 8c5 0 9 -4 12 -7l89 -94c4 -5 11 -10 11 -16
c0 -4 -4 -8 -7 -12z" />
    <glyph glyph-name="Udieresis" unicode="&#xdc;" horiz-adv-x="611" 
d="M622 659l-90 -427c-24 -113 -60 -249 -270 -249c-124 0 -202 52 -202 164c0 29 4 57 10 85l92 439c3 13 6 14 18 14h97c13 0 15 -5 15 -11c0 -3 -1 -11 -2 -15l-94 -428c-6 -21 -9 -43 -9 -65c0 -55 37 -75 89 -75c87 0 114 70 129 139l92 441c3 13 6 14 18 14h94
c13 0 15 -5 15 -11c0 -3 -1 -11 -2 -15zM386 824c0 -39 -31 -69 -69 -69s-70 30 -70 69s31 70 70 70c37 0 69 -31 69 -70zM578 824c0 -39 -31 -69 -69 -69s-70 30 -70 69s31 70 70 70c37 0 69 -31 69 -70z" />
    <glyph glyph-name="Ugrave" unicode="&#xd9;" horiz-adv-x="611" 
d="M622 659l-90 -427c-24 -113 -60 -249 -270 -249c-124 0 -202 52 -202 164c0 29 4 57 10 85l92 439c3 13 6 14 18 14h97c13 0 15 -5 15 -11c0 -3 -1 -11 -2 -15l-94 -428c-6 -21 -9 -43 -9 -65c0 -55 37 -75 89 -75c87 0 114 70 129 139l92 441c3 13 6 14 18 14h94
c13 0 15 -5 15 -11c0 -3 -1 -11 -2 -15zM453 776l-14 -20c-5 -7 -9 -11 -14 -11c-6 0 -11 3 -17 6l-154 74c-5 2 -9 8 -9 13c0 4 2 10 7 16l39 56c4 7 8 11 16 11c6 0 11 -5 15 -8l137 -110c2 -2 5 -5 5 -8c0 -5 -7 -12 -11 -19z" />
    <glyph glyph-name="Yacute" unicode="&#xdd;" horiz-adv-x="519" 
d="M331 281l-55 -267c-3 -13 -6 -14 -18 -14h-97c-13 0 -15 5 -15 11c0 3 1 11 2 15l55 255l-111 366c-1 2 -1 8 -1 11c0 6 6 8 16 11l92 24c3 1 7 1 11 1c5 0 9 -3 13 -18l39 -146c16 -58 20 -104 22 -131h2c21 39 44 80 79 132l103 152c3 4 8 11 13 11c4 0 10 -1 15 -2
l89 -25c11 -3 14 -8 14 -11c0 -4 -2 -11 -4 -13zM479 817l-188 -68c-6 -2 -10 -4 -16 -4c-4 0 -7 2 -11 12l-13 29c-3 5 -5 10 -5 15s3 8 11 12l178 96c3 2 10 6 16 6c4 0 7 -2 12 -12l24 -58c2 -5 5 -10 5 -15c0 -6 -2 -9 -13 -13z" />
    <glyph glyph-name="Ydieresis" unicode="&#x178;" horiz-adv-x="519" 
d="M331 281l-55 -267c-3 -13 -6 -14 -18 -14h-97c-13 0 -15 5 -15 11c0 3 1 11 2 15l55 255l-111 366c-1 2 -1 8 -1 11c0 6 6 8 16 11l92 24c3 1 7 1 11 1c5 0 9 -3 13 -18l39 -146c16 -58 20 -104 22 -131h2c21 39 44 80 79 132l103 152c3 4 8 11 13 11c4 0 10 -1 15 -2
l89 -25c11 -3 14 -8 14 -11c0 -4 -2 -11 -4 -13zM335 824c0 -39 -31 -69 -69 -69s-70 30 -70 69s31 70 70 70c37 0 69 -31 69 -70zM527 824c0 -39 -31 -69 -69 -69s-70 30 -70 69s31 70 70 70c37 0 69 -31 69 -70z" />
    <glyph glyph-name="Zcaron" unicode="&#x17d;" horiz-adv-x="500" 
d="M447 89l-27 -75c-5 -14 -6 -14 -19 -14h-402c-11 0 -17 3 -17 11c0 5 1 10 2 15l16 75l369 469h-237c-16 0 -17 3 -17 11c0 3 3 10 6 15l35 76c5 12 10 13 21 13h345c9 0 17 -1 17 -11c0 -5 -2 -10 -3 -15l-18 -84l-363 -460h279c11 0 17 -3 17 -11c0 -5 -3 -13 -4 -15z
M485 845l-138 -92c-4 -3 -10 -8 -16 -8c-5 0 -9 4 -12 7l-89 94c-4 5 -11 10 -11 16c0 4 4 8 7 12l26 29c5 5 8 10 13 10s8 -3 12 -6l71 -52l95 52c6 3 10 6 16 6c4 0 8 -2 12 -10l16 -30c3 -5 7 -10 7 -16c0 -5 -3 -8 -9 -12z" />
    <glyph glyph-name="aacute" unicode="&#xe1;" horiz-adv-x="519" 
d="M322 222l35 163c-15 12 -38 36 -74 36c-85 0 -129 -174 -129 -278c0 -39 15 -60 42 -60c74 0 112 76 126 139zM417 17l-80 -31c-3 -1 -7 -3 -12 -3c-11 0 -19 40 -19 90c-22 -25 -74 -90 -161 -90c-73 0 -111 60 -111 165c0 198 110 363 237 363c65 0 95 -37 111 -54
l11 27c3 8 7 10 14 10h79c8 0 11 -5 11 -10c0 -4 -1 -8 -2 -12l-66 -313c-5 -22 -8 -56 -8 -71c1 -24 8 -48 8 -60c0 -7 -7 -9 -12 -11zM469 626l-188 -68c-6 -2 -10 -4 -16 -4c-4 0 -7 2 -11 12l-13 29c-3 5 -5 10 -5 15s3 8 11 12l178 96c3 2 10 6 16 6c4 0 7 -2 12 -12
l24 -58c2 -5 5 -10 5 -15c0 -6 -2 -9 -13 -13z" />
    <glyph glyph-name="acircumflex" unicode="&#xe2;" horiz-adv-x="519" 
d="M322 222l35 163c-15 12 -38 36 -74 36c-85 0 -129 -174 -129 -278c0 -39 15 -60 42 -60c74 0 112 76 126 139zM417 17l-80 -31c-3 -1 -7 -3 -12 -3c-11 0 -19 40 -19 90c-22 -25 -74 -90 -161 -90c-73 0 -111 60 -111 165c0 198 110 363 237 363c65 0 95 -37 111 -54
l11 27c3 8 7 10 14 10h79c8 0 11 -5 11 -10c0 -4 -1 -8 -2 -12l-66 -313c-5 -22 -8 -56 -8 -71c1 -24 8 -48 8 -60c0 -7 -7 -9 -12 -11zM458 593l-26 -29c-5 -5 -8 -10 -13 -10s-8 3 -12 6l-71 52l-95 -52c-6 -3 -10 -6 -16 -6c-4 0 -8 2 -12 10l-16 30c-3 5 -7 10 -7 16
c0 5 3 8 9 12l138 92c4 3 10 8 16 8c5 0 9 -4 12 -7l89 -94c4 -5 11 -10 11 -16c0 -4 -4 -8 -7 -12z" />
    <glyph glyph-name="adieresis" unicode="&#xe4;" horiz-adv-x="519" 
d="M322 222l35 163c-15 12 -38 36 -74 36c-85 0 -129 -174 -129 -278c0 -39 15 -60 42 -60c74 0 112 76 126 139zM417 17l-80 -31c-3 -1 -7 -3 -12 -3c-11 0 -19 40 -19 90c-22 -25 -74 -90 -161 -90c-73 0 -111 60 -111 165c0 198 110 363 237 363c65 0 95 -37 111 -54
l11 27c3 8 7 10 14 10h79c8 0 11 -5 11 -10c0 -4 -1 -8 -2 -12l-66 -313c-5 -22 -8 -56 -8 -71c1 -24 8 -48 8 -60c0 -7 -7 -9 -12 -11zM325 633c0 -39 -31 -69 -69 -69s-70 30 -70 69s31 70 70 70c37 0 69 -31 69 -70zM517 633c0 -39 -31 -69 -69 -69s-70 30 -70 69
s31 70 70 70c37 0 69 -31 69 -70z" />
    <glyph glyph-name="agrave" unicode="&#xe0;" horiz-adv-x="519" 
d="M322 222l35 163c-15 12 -38 36 -74 36c-85 0 -129 -174 -129 -278c0 -39 15 -60 42 -60c74 0 112 76 126 139zM417 17l-80 -31c-3 -1 -7 -3 -12 -3c-11 0 -19 40 -19 90c-22 -25 -74 -90 -161 -90c-73 0 -111 60 -111 165c0 198 110 363 237 363c65 0 95 -37 111 -54
l11 27c3 8 7 10 14 10h79c8 0 11 -5 11 -10c0 -4 -1 -8 -2 -12l-66 -313c-5 -22 -8 -56 -8 -71c1 -24 8 -48 8 -60c0 -7 -7 -9 -12 -11zM387 585l-14 -20c-5 -7 -9 -11 -14 -11c-6 0 -11 3 -17 6l-154 74c-5 2 -9 8 -9 13c0 4 2 10 7 16l39 56c4 7 8 11 16 11
c6 0 11 -5 15 -8l137 -110c2 -2 5 -5 5 -8c0 -5 -7 -12 -11 -19z" />
    <glyph glyph-name="aring" unicode="&#xe5;" horiz-adv-x="519" 
d="M322 222l35 163c-15 12 -38 36 -74 36c-85 0 -129 -174 -129 -278c0 -39 15 -60 42 -60c74 0 112 76 126 139zM417 17l-80 -31c-3 -1 -7 -3 -12 -3c-11 0 -19 40 -19 90c-22 -25 -74 -90 -161 -90c-73 0 -111 60 -111 165c0 198 110 363 237 363c65 0 95 -37 111 -54
l11 27c3 8 7 10 14 10h79c8 0 11 -5 11 -10c0 -4 -1 -8 -2 -12l-66 -313c-5 -22 -8 -56 -8 -71c1 -24 8 -48 8 -60c0 -7 -7 -9 -12 -11zM449 646c0 -58 -47 -104 -105 -104c-57 0 -104 46 -104 104c0 59 47 105 104 105c58 0 105 -47 105 -105zM344 605c23 0 42 19 42 41
c0 23 -18 42 -42 42c-22 0 -41 -18 -41 -42s20 -41 41 -41z" />
    <glyph glyph-name="atilde" unicode="&#xe3;" horiz-adv-x="519" 
d="M322 222l35 163c-15 12 -38 36 -74 36c-85 0 -129 -174 -129 -278c0 -39 15 -60 42 -60c74 0 112 76 126 139zM417 17l-80 -31c-3 -1 -7 -3 -12 -3c-11 0 -19 40 -19 90c-22 -25 -74 -90 -161 -90c-73 0 -111 60 -111 165c0 198 110 363 237 363c65 0 95 -37 111 -54
l11 27c3 8 7 10 14 10h79c8 0 11 -5 11 -10c0 -4 -1 -8 -2 -12l-66 -313c-5 -22 -8 -56 -8 -71c1 -24 8 -48 8 -60c0 -7 -7 -9 -12 -11zM446 691l32 -26c3 -3 7 -7 7 -11c0 -11 -50 -84 -114 -84c-53 0 -61 36 -89 36c-29 0 -43 -35 -53 -35c-4 0 -7 3 -10 6l-34 28
c-2 1 -5 5 -5 8c0 6 44 83 112 83c50 0 70 -36 94 -36c28 0 41 35 51 35c3 0 6 -2 9 -4z" />
    <glyph glyph-name="ccedilla" unicode="&#xe7;" horiz-adv-x="407" 
d="M228 -17l-12 -39c24 -3 60 -15 60 -63c0 -61 -42 -101 -116 -101c-41 0 -77 8 -77 19c0 4 1 7 2 11l12 38c1 3 3 7 6 7c6 0 23 -10 43 -10c22 0 35 12 35 28c0 19 -18 22 -37 22c-6 0 -18 0 -18 7c0 4 1 7 2 11l23 78c-67 16 -127 76 -127 187c0 206 126 333 278 333
c78 0 134 -35 134 -45c0 -3 -4 -9 -6 -12l-38 -62c-3 -5 -6 -6 -9 -6c-9 0 -25 25 -88 25c-90 0 -144 -115 -144 -243c0 -55 25 -80 74 -80c47 0 73 23 85 23c3 0 7 -3 8 -5l25 -67c1 -3 3 -6 3 -10c0 -18 -70 -46 -118 -46z" />
    <glyph glyph-name="eacute" unicode="&#xe9;" horiz-adv-x="463" 
d="M367 116l25 -62c1 -3 3 -6 3 -9c0 -13 -93 -62 -195 -62c-120 0 -174 75 -174 186c0 200 129 342 283 342c94 0 148 -52 148 -132c0 -189 -254 -189 -311 -189c0 -30 -8 -107 86 -107c59 0 112 40 127 40c5 0 6 -3 8 -7zM291 421c-94 0 -122 -104 -131 -141
c43 0 177 0 177 92c0 26 -16 49 -46 49zM441 626l-188 -68c-6 -2 -10 -4 -16 -4c-4 0 -7 2 -11 12l-13 29c-3 5 -5 10 -5 15s3 8 11 12l178 96c3 2 10 6 16 6c4 0 7 -2 12 -12l24 -58c2 -5 5 -10 5 -15c0 -6 -2 -9 -13 -13z" />
    <glyph glyph-name="ecircumflex" unicode="&#xea;" horiz-adv-x="463" 
d="M367 116l25 -62c1 -3 3 -6 3 -9c0 -13 -93 -62 -195 -62c-120 0 -174 75 -174 186c0 200 129 342 283 342c94 0 148 -52 148 -132c0 -189 -254 -189 -311 -189c0 -30 -8 -107 86 -107c59 0 112 40 127 40c5 0 6 -3 8 -7zM291 421c-94 0 -122 -104 -131 -141
c43 0 177 0 177 92c0 26 -16 49 -46 49zM430 593l-26 -29c-5 -5 -8 -10 -13 -10s-8 3 -12 6l-71 52l-95 -52c-6 -3 -10 -6 -16 -6c-4 0 -8 2 -12 10l-16 30c-3 5 -7 10 -7 16c0 5 3 8 9 12l138 92c4 3 10 8 16 8c5 0 9 -4 12 -7l89 -94c4 -5 11 -10 11 -16
c0 -4 -4 -8 -7 -12z" />
    <glyph glyph-name="edieresis" unicode="&#xeb;" horiz-adv-x="463" 
d="M367 116l25 -62c1 -3 3 -6 3 -9c0 -13 -93 -62 -195 -62c-120 0 -174 75 -174 186c0 200 129 342 283 342c94 0 148 -52 148 -132c0 -189 -254 -189 -311 -189c0 -30 -8 -107 86 -107c59 0 112 40 127 40c5 0 6 -3 8 -7zM291 421c-94 0 -122 -104 -131 -141
c43 0 177 0 177 92c0 26 -16 49 -46 49zM297 633c0 -39 -31 -69 -69 -69s-70 30 -70 69s31 70 70 70c37 0 69 -31 69 -70zM489 633c0 -39 -31 -69 -69 -69s-70 30 -70 69s31 70 70 70c37 0 69 -31 69 -70z" />
    <glyph glyph-name="egrave" unicode="&#xe8;" horiz-adv-x="463" 
d="M367 116l25 -62c1 -3 3 -6 3 -9c0 -13 -93 -62 -195 -62c-120 0 -174 75 -174 186c0 200 129 342 283 342c94 0 148 -52 148 -132c0 -189 -254 -189 -311 -189c0 -30 -8 -107 86 -107c59 0 112 40 127 40c5 0 6 -3 8 -7zM291 421c-94 0 -122 -104 -131 -141
c43 0 177 0 177 92c0 26 -16 49 -46 49zM359 585l-14 -20c-5 -7 -9 -11 -14 -11c-6 0 -11 3 -17 6l-154 74c-5 2 -9 8 -9 13c0 4 2 10 7 16l39 56c4 7 8 11 16 11c6 0 11 -5 15 -8l137 -110c2 -2 5 -5 5 -8c0 -5 -7 -12 -11 -19z" />
    <glyph glyph-name="iacute" unicode="&#xed;" horiz-adv-x="296" 
d="M266 472l-98 -460c-2 -11 -4 -12 -14 -12h-93c-8 0 -13 2 -13 10c0 3 0 7 1 11l81 383h-76c-9 0 -13 3 -13 10c0 4 1 8 2 12l11 56c2 11 5 12 15 12h186c8 0 12 -3 12 -9c0 -4 0 -10 -1 -13zM357 626l-188 -68c-6 -2 -10 -4 -16 -4c-4 0 -7 2 -11 12l-13 29
c-3 5 -5 10 -5 15s3 8 11 12l178 96c3 2 10 6 16 6c4 0 7 -2 12 -12l24 -58c2 -5 5 -10 5 -15c0 -6 -2 -9 -13 -13z" />
    <glyph glyph-name="icircumflex" unicode="&#xee;" horiz-adv-x="296" 
d="M266 472l-98 -460c-2 -11 -4 -12 -14 -12h-93c-8 0 -13 2 -13 10c0 3 0 7 1 11l81 383h-76c-9 0 -13 3 -13 10c0 4 1 8 2 12l11 56c2 11 5 12 15 12h186c8 0 12 -3 12 -9c0 -4 0 -10 -1 -13zM346 593l-26 -29c-5 -5 -8 -10 -13 -10s-8 3 -12 6l-71 52l-95 -52
c-6 -3 -10 -6 -16 -6c-4 0 -8 2 -12 10l-16 30c-3 5 -7 10 -7 16c0 5 3 8 9 12l138 92c4 3 10 8 16 8c5 0 9 -4 12 -7l89 -94c4 -5 11 -10 11 -16c0 -4 -4 -8 -7 -12z" />
    <glyph glyph-name="idieresis" unicode="&#xef;" horiz-adv-x="296" 
d="M266 472l-98 -460c-2 -11 -4 -12 -14 -12h-93c-8 0 -13 2 -13 10c0 3 0 7 1 11l81 383h-76c-9 0 -13 3 -13 10c0 4 1 8 2 12l11 56c2 11 5 12 15 12h186c8 0 12 -3 12 -9c0 -4 0 -10 -1 -13zM183 633c0 -39 -31 -69 -69 -69s-70 30 -70 69s31 70 70 70
c37 0 69 -31 69 -70zM375 633c0 -39 -31 -69 -69 -69s-70 30 -70 69s31 70 70 70c37 0 69 -31 69 -70z" />
    <glyph glyph-name="igrave" unicode="&#xec;" horiz-adv-x="296" 
d="M266 472l-98 -460c-2 -11 -4 -12 -14 -12h-93c-8 0 -13 2 -13 10c0 3 0 7 1 11l81 383h-76c-9 0 -13 3 -13 10c0 4 1 8 2 12l11 56c2 11 5 12 15 12h186c8 0 12 -3 12 -9c0 -4 0 -10 -1 -13zM265 585l-14 -20c-5 -7 -9 -11 -14 -11c-6 0 -11 3 -17 6l-154 74
c-5 2 -9 8 -9 13c0 4 2 10 7 16l39 56c4 7 8 11 16 11c6 0 11 -5 15 -8l137 -110c2 -2 5 -5 5 -8c0 -5 -7 -12 -11 -19z" />
    <glyph glyph-name="ntilde" unicode="&#xf1;" horiz-adv-x="519" 
d="M469 328l-73 -316c-2 -11 -4 -12 -14 -12h-93c-8 0 -13 2 -13 10c0 3 1 7 1 11l66 285c5 20 9 40 9 61c0 23 -9 39 -30 39c-92 0 -125 -124 -141 -196l-43 -198c-2 -11 -4 -12 -14 -12h-93c-8 0 -13 2 -13 10c0 3 1 7 1 11l68 301c6 25 12 50 12 82c0 30 -9 44 -9 62
c0 7 7 9 12 11l80 31c3 1 5 3 10 3c11 0 20 -45 20 -101c27 32 84 101 166 101c65 0 101 -50 101 -105c0 -26 -4 -53 -10 -78zM446 691l32 -26c3 -3 7 -7 7 -11c0 -11 -50 -84 -114 -84c-53 0 -61 36 -89 36c-29 0 -43 -35 -53 -35c-4 0 -7 3 -10 6l-34 28c-2 1 -5 5 -5 8
c0 6 44 83 112 83c50 0 70 -36 94 -36c28 0 41 35 51 35c3 0 6 -2 9 -4z" />
    <glyph glyph-name="oacute" unicode="&#xf3;" horiz-adv-x="500" 
d="M470 329c0 -185 -116 -346 -278 -346c-105 0 -170 54 -170 182c0 185 118 346 284 346c101 0 164 -54 164 -182zM210 83c93 0 133 158 133 255c0 47 -18 73 -61 73c-93 0 -133 -158 -133 -255c0 -47 18 -73 61 -73zM459 626l-188 -68c-6 -2 -10 -4 -16 -4
c-4 0 -7 2 -11 12l-13 29c-3 5 -5 10 -5 15s3 8 11 12l178 96c3 2 10 6 16 6c4 0 7 -2 12 -12l24 -58c2 -5 5 -10 5 -15c0 -6 -2 -9 -13 -13z" />
    <glyph glyph-name="ocircumflex" unicode="&#xf4;" horiz-adv-x="500" 
d="M470 329c0 -185 -116 -346 -278 -346c-105 0 -170 54 -170 182c0 185 118 346 284 346c101 0 164 -54 164 -182zM210 83c93 0 133 158 133 255c0 47 -18 73 -61 73c-93 0 -133 -158 -133 -255c0 -47 18 -73 61 -73zM448 593l-26 -29c-5 -5 -8 -10 -13 -10s-8 3 -12 6
l-71 52l-95 -52c-6 -3 -10 -6 -16 -6c-4 0 -8 2 -12 10l-16 30c-3 5 -7 10 -7 16c0 5 3 8 9 12l138 92c4 3 10 8 16 8c5 0 9 -4 12 -7l89 -94c4 -5 11 -10 11 -16c0 -4 -4 -8 -7 -12z" />
    <glyph glyph-name="odieresis" unicode="&#xf6;" horiz-adv-x="500" 
d="M470 329c0 -185 -116 -346 -278 -346c-105 0 -170 54 -170 182c0 185 118 346 284 346c101 0 164 -54 164 -182zM210 83c93 0 133 158 133 255c0 47 -18 73 -61 73c-93 0 -133 -158 -133 -255c0 -47 18 -73 61 -73zM305 633c0 -39 -31 -69 -69 -69s-70 30 -70 69
s31 70 70 70c37 0 69 -31 69 -70zM497 633c0 -39 -31 -69 -69 -69s-70 30 -70 69s31 70 70 70c37 0 69 -31 69 -70z" />
    <glyph glyph-name="ograve" unicode="&#xf2;" horiz-adv-x="500" 
d="M470 329c0 -185 -116 -346 -278 -346c-105 0 -170 54 -170 182c0 185 118 346 284 346c101 0 164 -54 164 -182zM210 83c93 0 133 158 133 255c0 47 -18 73 -61 73c-93 0 -133 -158 -133 -255c0 -47 18 -73 61 -73zM377 585l-14 -20c-5 -7 -9 -11 -14 -11
c-6 0 -11 3 -17 6l-154 74c-5 2 -9 8 -9 13c0 4 2 10 7 16l39 56c4 7 8 11 16 11c6 0 11 -5 15 -8l137 -110c2 -2 5 -5 5 -8c0 -5 -7 -12 -11 -19z" />
    <glyph glyph-name="otilde" unicode="&#xf5;" horiz-adv-x="500" 
d="M470 329c0 -185 -116 -346 -278 -346c-105 0 -170 54 -170 182c0 185 118 346 284 346c101 0 164 -54 164 -182zM210 83c93 0 133 158 133 255c0 47 -18 73 -61 73c-93 0 -133 -158 -133 -255c0 -47 18 -73 61 -73zM436 691l32 -26c3 -3 7 -7 7 -11
c0 -11 -50 -84 -114 -84c-53 0 -61 36 -89 36c-29 0 -43 -35 -53 -35c-4 0 -7 3 -10 6l-34 28c-2 1 -5 5 -5 8c0 6 44 83 112 83c50 0 70 -36 94 -36c28 0 41 35 51 35c3 0 6 -2 9 -4z" />
    <glyph glyph-name="scaron" unicode="&#x161;" horiz-adv-x="389" 
d="M366 457l-21 -58c-3 -6 -6 -7 -8 -7c-19 0 -52 29 -98 29c-54 0 -78 -28 -78 -62c0 -50 66 -59 110 -84c49 -28 73 -50 73 -115c0 -105 -71 -177 -198 -177c-76 0 -163 33 -163 46c0 4 1 7 2 11l21 62c2 5 4 7 7 7c13 0 62 -36 127 -36c59 0 89 24 89 67
c0 44 -45 48 -97 77c-53 29 -86 48 -86 117c0 106 77 177 191 177c52 0 131 -20 131 -46c0 -3 -1 -5 -2 -8zM390 654l-138 -92c-4 -3 -10 -8 -16 -8c-5 0 -9 4 -12 7l-89 94c-4 5 -11 10 -11 16c0 4 4 8 7 12l26 29c5 5 8 10 13 10s8 -3 12 -6l71 -52l95 52c6 3 10 6 16 6
c4 0 8 -2 12 -10l16 -30c3 -5 7 -10 7 -16c0 -5 -3 -8 -9 -12z" />
    <glyph glyph-name="uacute" unicode="&#xfa;" horiz-adv-x="519" 
d="M410 17l-80 -31c-3 -1 -5 -3 -10 -3c-11 0 -20 45 -20 101c-27 -32 -84 -101 -166 -101c-65 0 -101 50 -101 105c0 26 5 53 11 78l73 313c1 8 3 9 14 12l82 17c5 1 10 3 15 3c10 0 14 -3 14 -10c0 -4 -1 -11 -2 -15l-71 -298c-4 -20 -9 -40 -9 -61c0 -23 9 -39 30 -39
c93 0 127 124 142 196l43 195c1 8 3 9 14 12l82 17c5 1 10 3 15 3c10 0 14 -3 14 -10c0 -4 -1 -8 -2 -12l-73 -317c-5 -25 -12 -50 -12 -82c0 -30 9 -44 9 -62c0 -7 -7 -9 -12 -11zM469 626l-188 -68c-6 -2 -10 -4 -16 -4c-4 0 -7 2 -11 12l-13 29c-3 5 -5 10 -5 15
s3 8 11 12l178 96c3 2 10 6 16 6c4 0 7 -2 12 -12l24 -58c2 -5 5 -10 5 -15c0 -6 -2 -9 -13 -13z" />
    <glyph glyph-name="ucircumflex" unicode="&#xfb;" horiz-adv-x="519" 
d="M410 17l-80 -31c-3 -1 -5 -3 -10 -3c-11 0 -20 45 -20 101c-27 -32 -84 -101 -166 -101c-65 0 -101 50 -101 105c0 26 5 53 11 78l73 313c1 8 3 9 14 12l82 17c5 1 10 3 15 3c10 0 14 -3 14 -10c0 -4 -1 -11 -2 -15l-71 -298c-4 -20 -9 -40 -9 -61c0 -23 9 -39 30 -39
c93 0 127 124 142 196l43 195c1 8 3 9 14 12l82 17c5 1 10 3 15 3c10 0 14 -3 14 -10c0 -4 -1 -8 -2 -12l-73 -317c-5 -25 -12 -50 -12 -82c0 -30 9 -44 9 -62c0 -7 -7 -9 -12 -11zM458 593l-26 -29c-5 -5 -8 -10 -13 -10s-8 3 -12 6l-71 52l-95 -52c-6 -3 -10 -6 -16 -6
c-4 0 -8 2 -12 10l-16 30c-3 5 -7 10 -7 16c0 5 3 8 9 12l138 92c4 3 10 8 16 8c5 0 9 -4 12 -7l89 -94c4 -5 11 -10 11 -16c0 -4 -4 -8 -7 -12z" />
    <glyph glyph-name="udieresis" unicode="&#xfc;" horiz-adv-x="519" 
d="M410 17l-80 -31c-3 -1 -5 -3 -10 -3c-11 0 -20 45 -20 101c-27 -32 -84 -101 -166 -101c-65 0 -101 50 -101 105c0 26 5 53 11 78l73 313c1 8 3 9 14 12l82 17c5 1 10 3 15 3c10 0 14 -3 14 -10c0 -4 -1 -11 -2 -15l-71 -298c-4 -20 -9 -40 -9 -61c0 -23 9 -39 30 -39
c93 0 127 124 142 196l43 195c1 8 3 9 14 12l82 17c5 1 10 3 15 3c10 0 14 -3 14 -10c0 -4 -1 -8 -2 -12l-73 -317c-5 -25 -12 -50 -12 -82c0 -30 9 -44 9 -62c0 -7 -7 -9 -12 -11zM305 633c0 -39 -31 -69 -69 -69s-70 30 -70 69s31 70 70 70c37 0 69 -31 69 -70zM497 633
c0 -39 -31 -69 -69 -69s-70 30 -70 69s31 70 70 70c37 0 69 -31 69 -70z" />
    <glyph glyph-name="ugrave" unicode="&#xf9;" horiz-adv-x="519" 
d="M410 17l-80 -31c-3 -1 -5 -3 -10 -3c-11 0 -20 45 -20 101c-27 -32 -84 -101 -166 -101c-65 0 -101 50 -101 105c0 26 5 53 11 78l73 313c1 8 3 9 14 12l82 17c5 1 10 3 15 3c10 0 14 -3 14 -10c0 -4 -1 -11 -2 -15l-71 -298c-4 -20 -9 -40 -9 -61c0 -23 9 -39 30 -39
c93 0 127 124 142 196l43 195c1 8 3 9 14 12l82 17c5 1 10 3 15 3c10 0 14 -3 14 -10c0 -4 -1 -8 -2 -12l-73 -317c-5 -25 -12 -50 -12 -82c0 -30 9 -44 9 -62c0 -7 -7 -9 -12 -11zM387 585l-14 -20c-5 -7 -9 -11 -14 -11c-6 0 -11 3 -17 6l-154 74c-5 2 -9 8 -9 13
c0 4 2 10 7 16l39 56c4 7 8 11 16 11c6 0 11 -5 15 -8l137 -110c2 -2 5 -5 5 -8c0 -5 -7 -12 -11 -19z" />
    <glyph glyph-name="yacute" unicode="&#xfd;" horiz-adv-x="481" 
d="M272 240l116 255c2 4 5 8 10 8c4 0 9 -1 18 -2l74 -10c11 -1 15 -3 15 -7s-4 -11 -7 -17l-198 -409c-52 -107 -110 -270 -255 -270c-56 0 -118 29 -118 41c0 3 2 6 3 9l36 63c4 6 5 8 9 8c12 0 37 -21 75 -21c43 0 66 15 85 50l33 62h-41c-7 0 -13 0 -14 13l-53 455
c-1 5 -1 10 -1 13c0 4 4 9 15 10l74 10c8 1 17 2 21 2c8 0 8 -4 10 -20l18 -230c5 -64 9 -169 9 -180h2c12 37 36 106 64 167zM450 626l-188 -68c-6 -2 -10 -4 -16 -4c-4 0 -7 2 -11 12l-13 29c-3 5 -5 10 -5 15s3 8 11 12l178 96c3 2 10 6 16 6c4 0 7 -2 12 -12l24 -58
c2 -5 5 -10 5 -15c0 -6 -2 -9 -13 -13z" />
    <glyph glyph-name="ydieresis" unicode="&#xff;" horiz-adv-x="481" 
d="M272 240l116 255c2 4 5 8 10 8c4 0 9 -1 18 -2l74 -10c11 -1 15 -3 15 -7s-4 -11 -7 -17l-198 -409c-52 -107 -110 -270 -255 -270c-56 0 -118 29 -118 41c0 3 2 6 3 9l36 63c4 6 5 8 9 8c12 0 37 -21 75 -21c43 0 66 15 85 50l33 62h-41c-7 0 -13 0 -14 13l-53 455
c-1 5 -1 10 -1 13c0 4 4 9 15 10l74 10c8 1 17 2 21 2c8 0 8 -4 10 -20l18 -230c5 -64 9 -169 9 -180h2c12 37 36 106 64 167zM286 633c0 -39 -31 -69 -69 -69s-70 30 -70 69s31 70 70 70c37 0 69 -31 69 -70zM478 633c0 -39 -31 -69 -69 -69s-70 30 -70 69s31 70 70 70
c37 0 69 -31 69 -70z" />
    <glyph glyph-name="zcaron" unicode="&#x17e;" horiz-adv-x="444" 
d="M387 79l-45 -70c-5 -8 -6 -9 -16 -9h-330c-9 0 -14 2 -14 9c0 4 1 7 2 12l13 64l299 309h-198c-9 0 -13 3 -13 10c0 4 1 8 2 13l14 65c2 9 4 12 14 12h323c8 0 13 -3 13 -10c0 -4 -1 -8 -2 -12l-14 -68l-293 -304h239c8 0 11 -6 11 -11c0 -4 -3 -7 -5 -10zM417 654
l-138 -92c-4 -3 -10 -8 -16 -8c-5 0 -9 4 -12 7l-89 94c-4 5 -11 10 -11 16c0 4 4 8 7 12l26 29c5 5 8 10 13 10s8 -3 12 -6l71 -52l95 52c6 3 10 6 16 6c4 0 8 -2 12 -10l16 -30c3 -5 7 -10 7 -16c0 -5 -3 -8 -9 -12z" />
    <glyph glyph-name="Omega" unicode="&#x2126;" horiz-adv-x="709" 
d="M143 92l1 3c-51 56 -93 151 -66 277c37 175 191 315 370 315c190 0 263 -159 231 -309c-28 -129 -111 -229 -187 -283v-3h140l-20 -92h-258l14 68c75 42 157 133 189 286c26 122 -12 239 -130 239c-112 0 -208 -104 -237 -243c-30 -141 10 -242 68 -282l-14 -68h-258
l19 92h138z" />
    <glyph glyph-name="pi" unicode="&#x3c0;" horiz-adv-x="591" 
d="M599 411h-72l-56 -265c-16 -74 -19 -117 -18 -146h-112c-7 19 -2 68 13 139l58 272h-147c-28 -110 -97 -314 -152 -411h-112c57 110 125 299 151 411c-51 0 -80 -4 -103 -11l2 76c29 18 81 31 165 31h413z" />
    <glyph glyph-name="Euro" unicode="&#x20ac;" 
d="M434 309c0 -5 -1 -9 -2 -13l-3 -11c-4 -14 -6 -15 -18 -15h-161c-1 -18 -2 -35 -2 -52c0 -105 47 -127 94 -127c70 0 101 36 117 36c3 0 5 -1 7 -7l26 -65c2 -4 3 -4 3 -11c0 -23 -87 -61 -171 -61c-121 0 -203 78 -203 238c0 17 1 33 2 49h-71c-10 0 -17 3 -17 10
c0 5 1 9 2 13l3 11c4 14 6 15 18 15h69c2 19 5 37 9 55h-62c-10 0 -17 3 -17 10c0 5 1 9 2 13l3 11c4 14 6 15 18 15h69c46 154 149 262 301 262c83 0 156 -41 156 -67c0 -5 -3 -6 -5 -10l-45 -68c-3 -5 -7 -6 -10 -6c-20 0 -49 43 -105 43c-80 0 -133 -67 -162 -154h160
c10 0 17 -2 17 -10c0 -5 -1 -9 -2 -13l-3 -11c-4 -14 -6 -15 -18 -15h-167c-4 -18 -8 -36 -11 -55h162c10 0 17 -2 17 -10z" />
    <glyph glyph-name="estimated" unicode="&#x212e;" horiz-adv-x="936" 
d="M903 324h-631c-3 0 -5 -1 -5 -4v-191c0 -8 3 -16 8 -22c61 -63 145 -104 239 -104c101 0 190 46 251 117h56c-69 -82 -182 -136 -308 -136c-215 0 -390 156 -390 350s175 351 390 351c216 0 390 -157 390 -351v-10zM760 349v192c0 9 -3 17 -9 23
c-62 60 -145 100 -237 100c-93 0 -177 -41 -238 -103c-6 -6 -9 -15 -9 -24v-188c0 -2 2 -6 5 -6h484c3 0 4 4 4 6z" />
    <glyph glyph-name="partialdiff" unicode="&#x2202;" horiz-adv-x="564" 
d="M178 618l-16 83c36 24 100 56 191 56c143 0 242 -125 191 -369c-50 -235 -186 -401 -361 -401c-138 0 -177 125 -154 229c32 154 149 252 267 252c84 0 124 -57 133 -83h1c3 9 7 26 9 35c28 133 -19 244 -120 244c-62 0 -111 -26 -141 -46zM214 81h1
c79 0 152 109 184 208c-4 33 -35 88 -100 88c-71 0 -139 -76 -158 -164c-15 -74 12 -132 73 -132z" />
    <glyph glyph-name="product" unicode="&#x220f;" horiz-adv-x="798" 
d="M774 574h-103v-667h-113v667h-229v-667h-113v667h-103v102h661v-102z" />
    <glyph glyph-name="summation" unicode="&#x2211;" horiz-adv-x="642" 
d="M623 -93h-512v72l245 312l-235 306v79h485v-97h-330v-3l210 -267l-232 -295v-3h369v-104z" />
    <glyph glyph-name="uni2219" unicode="&#x2219;" 
d="M354 256c0 -42 -35 -76 -77 -76c-41 0 -76 34 -76 76c0 43 34 77 76 77c43 0 77 -35 77 -77z" />
    <glyph glyph-name="radical" unicode="&#x221a;" horiz-adv-x="673" 
d="M681 809l-223 -947h-93l-150 429l-73 -28l-20 63l161 65l109 -322c7 -29 14 -59 19 -79l2 -1c3 20 8 53 15 84l172 736h81z" />
    <glyph glyph-name="infinity" unicode="&#x221e;" horiz-adv-x="802" 
d="M754 280v-1c0 -104 -76 -167 -156 -167c-57 0 -110 29 -177 113c-50 -62 -103 -113 -182 -113c-81 0 -153 67 -153 163c0 97 69 165 161 165c73 0 127 -47 178 -111c43 49 93 111 179 111c86 -1 150 -64 150 -160zM247 176h2c56 0 100 52 138 96c-42 54 -78 106 -144 106
c-57 0 -92 -45 -92 -104c1 -54 41 -98 96 -98zM598 378h-1c-61 0 -107 -65 -140 -100c61 -73 94 -102 144 -102c56 0 88 53 88 98c0 62 -37 104 -91 104z" />
    <glyph glyph-name="integral" unicode="&#x222b;" horiz-adv-x="470" 
d="M451 822l-13 -77c-9 5 -22 9 -35 9c-19 0 -37 -8 -50 -25c-22 -27 -28 -81 -28 -165c0 -156 14 -299 14 -469c0 -95 -16 -157 -37 -194c-26 -47 -74 -66 -120 -66c-30 0 -60 8 -74 16l15 80c9 -4 24 -10 43 -10c16 0 34 6 44 20c18 24 29 64 29 154
c0 172 -15 318 -15 480c0 112 17 173 58 216c28 30 70 43 110 43c24 0 48 -6 59 -12z" />
    <glyph glyph-name="approxequal" unicode="&#x2248;" horiz-adv-x="583" 
d="M503 435l41 -38c-30 -58 -76 -99 -132 -99c-41 0 -67 13 -112 40c-30 17 -55 33 -87 33c-45 0 -70 -35 -95 -71l-41 38c29 57 82 98 142 98c47 0 80 -22 106 -37c35 -20 56 -35 87 -35c39 0 64 27 91 71zM503 255l41 -38c-30 -56 -75 -98 -133 -98c-40 0 -67 14 -111 39
c-30 19 -55 34 -87 34c-45 0 -70 -36 -95 -72l-41 38c29 57 82 99 142 99c48 0 80 -23 105 -37c32 -17 55 -35 88 -35c40 0 63 26 91 70z" />
    <glyph glyph-name="notequal" unicode="&#x2260;" horiz-adv-x="603" 
d="M455 498l-40 -89h140v-67h-166l-60 -135h226v-66h-252l-51 -114l-52 23l41 91h-137v66h163l60 135h-223v67h248l50 111z" />
    <glyph glyph-name="lessequal" unicode="&#x2264;" horiz-adv-x="620" 
d="M570 96l-443 218v72l443 218v-78l-376 -174v-3l376 -176v-77zM573 -9h-451v67h451v-67z" />
    <glyph glyph-name="greaterequal" unicode="&#x2265;" horiz-adv-x="620" 
d="M128 604l443 -218v-72l-443 -218v77l375 176v2l-375 175v78zM572 -9h-449v67h449v-67z" />
    <glyph glyph-name="lozenge" unicode="&#x25ca;" horiz-adv-x="673" 
d="M623 337l-198 -384h-91l-193 384l197 386h91zM522 335l-120 241c-7 17 -15 40 -19 55h-3c-4 -16 -11 -37 -19 -55l-120 -236l121 -244c8 -19 15 -41 17 -53h4c4 13 12 40 18 51z" />
    <glyph glyph-name="uni02C9" unicode="&#x2c9;" horiz-adv-x="360" 
d="M387 652l-10 -49c-2 -13 -7 -15 -22 -15h-206c-11 0 -17 2 -17 11c0 5 0 10 2 15l10 49c2 13 6 15 18 15h210c11 0 17 -2 17 -11c0 -5 0 -10 -2 -15z" />
    <glyph glyph-name="uni00AD" unicode="&#xad;" horiz-adv-x="333" 
d="M290 278l-15 -67c-4 -14 -6 -15 -18 -15h-207c-10 0 -17 4 -17 11c0 6 2 16 3 22l15 67c4 14 6 15 18 15h207c11 0 17 -3 17 -11c0 -6 -2 -16 -3 -22z" />
    <glyph glyph-name="uni03A9" unicode="&#x3a9;" horiz-adv-x="709" 
d="M143 92l1 3c-51 56 -93 151 -66 277c37 175 191 315 370 315c190 0 263 -159 231 -309c-28 -129 -111 -229 -187 -283v-3h140l-20 -92h-258l14 68c75 42 157 133 189 286c26 122 -12 239 -130 239c-112 0 -208 -104 -237 -243c-30 -141 10 -242 68 -282l-14 -68h-258
l19 92h138z" />
    <glyph glyph-name="uni00A0" unicode="&#xa0;" horiz-adv-x="296" 
 />
    <glyph glyph-name="afii61289" unicode="&#x2113;" horiz-adv-x="505" 
d="M418 168l38 -48c-71 -96 -153 -133 -231 -133c-116 0 -150 74 -141 162c0 4 1 7 2 11c-19 -12 -40 -27 -61 -41l-17 62c34 23 65 43 95 66l52 247c38 175 132 245 224 245c95 0 121 -76 101 -169c-25 -117 -125 -227 -271 -341l-7 -37c-15 -77 18 -114 68 -114
c56 0 112 46 148 90zM267 500l-36 -167c89 80 159 165 175 240c11 52 3 85 -39 85c-31 0 -74 -36 -100 -158z" />
    <glyph glyph-name="uni03BC" unicode="&#x3bc;" horiz-adv-x="519" 
d="M138 -3l-36 -177c-1 -8 -3 -9 -14 -12l-82 -17c-5 -1 -10 -3 -15 -3c-10 0 -14 3 -14 10c0 4 1 11 2 15l138 666c1 8 3 9 14 12l82 17c5 1 10 3 15 3c10 0 14 -3 14 -10c0 -4 -2 -11 -2 -15l-62 -298c-5 -20 -10 -40 -10 -61c0 -23 8 -39 28 -39c87 0 121 124 136 196
l43 195c1 8 3 9 14 12l82 17c5 1 10 3 15 3c10 0 14 -3 14 -10c0 -4 -1 -8 -2 -12l-73 -317c-5 -25 -12 -50 -12 -82c0 -30 9 -44 9 -62c0 -7 -7 -9 -12 -11l-80 -31c-3 -1 -5 -3 -10 -3c-11 0 -20 45 -20 101h-2c-21 -29 -60 -101 -125 -101c-13 0 -29 5 -35 14z" />
    <glyph glyph-name="uni2215" unicode="&#x2215;" horiz-adv-x="278" 
d="M370 656l-369 -663c-5 -10 -7 -10 -18 -10h-62c-11 0 -17 2 -17 9c0 6 3 12 6 17l369 665c5 9 7 11 18 11h62c11 0 17 -3 17 -9c0 -7 -3 -15 -6 -20z" />
    <glyph glyph-name="a.superior" horiz-adv-x="444" 
d="M429 647l-42 -195c-3 -13 -6 -29 -6 -42c0 -23 7 -37 7 -44c0 -6 -4 -9 -11 -11l-59 -19c-4 -1 -9 -3 -13 -3c-12 0 -13 50 -14 57c-13 -15 -48 -57 -108 -57c-52 0 -83 39 -83 113c0 129 76 239 166 239c48 0 65 -32 71 -43l10 22c3 7 7 9 13 9h61c8 0 11 -5 11 -9
c0 -6 -2 -13 -3 -17zM301 492l22 105c-9 6 -22 18 -46 18c-52 0 -77 -108 -77 -174c0 -18 5 -33 22 -33c38 0 68 33 79 84z" />
    <glyph glyph-name="o.superior" horiz-adv-x="444" 
d="M427 561c0 -127 -82 -228 -195 -228c-71 0 -121 34 -121 124c0 126 84 228 199 228c69 0 117 -35 117 -124zM246 408c56 0 81 96 81 156c0 32 -11 46 -35 46c-57 0 -81 -95 -81 -156c0 -32 11 -46 35 -46z" />
    <glyph glyph-name="one.superior" horiz-adv-x="352" 
d="M294 311l-6 -30c-2 -12 -6 -14 -18 -14h-184c-8 0 -14 3 -14 11c0 3 1 7 2 10l6 30c2 12 6 14 18 14h58l52 243l-54 -27c-4 -2 -9 -5 -14 -5c-7 0 -9 5 -11 10l-10 21c-2 4 -4 8 -4 12c0 7 4 10 10 13l114 65c5 3 10 4 17 4h38c10 0 15 -2 15 -10c0 -4 0 -7 -1 -10
l-67 -316h41c7 0 14 -2 14 -11c0 -3 -1 -7 -2 -10z" />
    <glyph glyph-name="two.superior" horiz-adv-x="352" 
d="M313 320l-8 -39c-3 -12 -7 -14 -18 -14h-231c-6 0 -12 2 -12 8c0 48 29 93 50 119c68 82 187 102 187 176c0 20 -12 33 -35 33c-53 0 -62 -60 -85 -60c-3 0 -5 0 -9 2l-36 16c-5 2 -9 5 -9 11c0 20 52 106 157 106c65 0 107 -34 107 -101c0 -68 -37 -96 -103 -142
c-60 -41 -103 -54 -118 -93h149c10 0 16 -2 16 -12c0 -3 -2 -7 -2 -10z" />
    <glyph glyph-name="three.superior" horiz-adv-x="352" 
d="M145 574l-31 26c-3 2 -5 5 -5 8c0 15 58 70 134 70c69 0 111 -34 111 -89c0 -56 -27 -79 -73 -107c22 -14 48 -24 48 -80c0 -88 -70 -145 -172 -145c-53 0 -119 21 -119 35c0 3 1 6 3 9l20 42c2 6 8 9 13 9c9 0 36 -20 89 -20c47 0 76 26 76 66c0 38 -34 41 -65 41h-20
c-10 0 -16 3 -16 10c0 4 1 7 2 11l8 41c1 9 6 13 18 13h25c47 0 73 24 73 60c0 21 -15 29 -32 29c-45 0 -65 -33 -78 -33c-3 0 -7 2 -9 4z" />
    <glyph glyph-name="uni2206" unicode="&#x2206;" horiz-adv-x="651" 
d="M-27 0l14 68l365 624h136l95 -623l-15 -69h-595zM110 92h353l-51 304c-5 51 -19 132 -21 175h-3c-16 -34 -60 -108 -87 -160z" />
    <glyph glyph-name="uni2010" unicode="&#x2010;" horiz-adv-x="333" 
d="M290 278l-15 -67c-4 -14 -6 -15 -18 -15h-207c-10 0 -17 4 -17 11c0 6 2 16 3 22l15 67c4 14 6 15 18 15h207c11 0 17 -3 17 -11c0 -6 -2 -16 -3 -22z" />
    </font>
</defs>
</svg>
