<?xml version="1.0" standalone="no"?>
<!DOCTYPE svg PUBLIC "-//W3C//DTD SVG 1.1//EN" "http://www.w3.org/Graphics/SVG/1.1/DTD/svg11.dtd" >
<svg xmlns="http://www.w3.org/2000/svg" width="100%" height="100%">
<metadata>
Created by FontXChange 20110222 at Thu Jul 31 19:01:44 2014
 By Stedman Halliday
Copyright 1993, 2001, 2002 Adobe Systems Incorporated. All rights reserved. ITC and Officina are trademarks of International Typeface Corporation registered in the U.S. Patent and Trademark Office and may be registered in certain other jurisdictions.
</metadata>
<defs>
<font id="OfficinaSansStd-Book" horiz-adv-x="500" >
  <font-face 
    font-family="OfficinaSansStd"
    font-weight="400"
    font-stretch="normal"
    units-per-em="1000"
    panose-1="2 11 5 6 4 2 3 2 2 4"
    ascent="724"
    descent="-276"
    x-height="480"
    cap-height="685"
    bbox="-79 -250 1060 923"
    underline-thickness="50"
    underline-position="-50"
    stemh="66"
    stemv="80"
    unicode-range="U+0020-FB02"
  />
<missing-glyph 
d="M0 0v700h500v-700h-500zM250 395l170 255h-340zM280 350l170 -255v510zM80 50h340l-170 255zM50 605v-510l170 255z" />
    <glyph glyph-name="f_i" unicode="fi" horiz-adv-x="537" 
d="M462 656c0 -33 -27 -61 -61 -61s-61 27 -61 61s27 61 61 61s61 -28 61 -61zM445 465v-453c0 -8 -4 -12 -12 -12h-52c-8 0 -12 4 -12 12v406h-194v-406c0 -8 -4 -12 -12 -12h-52c-8 0 -12 4 -12 12v406h-70c-7 0 -7 7 -7 12v38c0 7 0 12 7 12h70v78c0 75 14 166 129 166
c20 0 85 -14 85 -25c0 -3 -3 -7 -5 -14l-14 -33c-2 -3 -4 -6 -7 -6c-11 0 -35 11 -62 11c-47 0 -50 -42 -50 -100v-77h257c11 0 13 -6 13 -15z" />
    <glyph glyph-name="f_l" unicode="fl" horiz-adv-x="556" 
d="M178 418v-406c0 -8 -4 -12 -12 -12h-52c-8 0 -12 4 -12 12v406h-70c-7 0 -7 7 -7 12v38c0 7 0 12 7 12h70v78c0 75 15 166 139 166c46 0 110 -20 110 -35c0 -3 -3 -7 -5 -14l-14 -33c-2 -3 -4 -6 -7 -6c-17 0 -45 21 -87 21c-56 0 -60 -42 -60 -100v-77h144
c6 0 11 -1 11 -7c0 -2 -1 -4 -1 -7l-13 -39c-2 -5 -7 -9 -13 -9h-128zM550 55l13 -37c1 -2 2 -5 2 -7c0 -11 -48 -25 -85 -25c-49 0 -82 20 -94 48c-14 33 -14 110 -14 145v519c0 7 3 11 7 12l50 12c8 2 5 1 12 2c7 0 7 -8 7 -13v-534c0 -31 1 -82 3 -94
c2 -11 11 -35 40 -35c26 0 45 13 52 13c6 0 6 -3 7 -6z" />
    <glyph glyph-name=".notdef" 
d="M0 0v700h500v-700h-500zM250 395l170 255h-340zM280 350l170 -255v510zM80 50h340l-170 255zM50 605v-510l170 255z" />
    <glyph glyph-name="space" unicode=" " horiz-adv-x="296" 
 />
    <glyph glyph-name="exclam" unicode="!" horiz-adv-x="333" 
d="M237 56c0 -39 -32 -70 -70 -70s-70 31 -70 70s32 70 70 70s70 -31 70 -70zM215 657l-21 -379c0 -12 -4 -13 -14 -13h-28c-9 0 -13 1 -14 13l-22 380c0 8 -1 14 -1 19c0 8 6 8 13 8h75c5 0 13 0 13 -8c0 -5 0 -15 -1 -20z" />
    <glyph glyph-name="quotedbl" unicode="&#x22;" horiz-adv-x="407" 
d="M170 699l-14 -226c-1 -12 -5 -13 -14 -13h-22c-12 0 -15 3 -15 13l-15 226c-1 6 -1 11 -1 16c0 9 8 9 13 9h56c5 0 13 0 13 -9c0 -5 -1 -12 -1 -16zM318 699l-14 -226c-1 -12 -5 -13 -14 -13h-22c-12 0 -15 3 -15 13l-15 226c-1 6 -1 11 -1 16c0 9 8 9 13 9h56
c5 0 13 0 13 -9c0 -5 -1 -12 -1 -16z" />
    <glyph glyph-name="numbersign" unicode="#" 
d="M305 177l20 200h-126l-21 -200h127zM172 112l-18 -180c-1 -10 -2 -12 -14 -12h-36c-13 0 -14 2 -13 14l18 178h-55c-13 0 -13 4 -13 13v39c0 9 2 13 14 13h61l20 200h-65c-5 0 -8 3 -8 8v49c0 4 3 8 8 8h72l21 201c2 13 3 14 15 14h36c12 0 13 -2 12 -14l-21 -201h126
l21 201c2 13 3 14 15 14h36c12 0 14 -2 13 -14l-21 -201h55c13 0 13 -4 13 -13v-39c0 -9 -2 -13 -14 -13h-61l-21 -200h66c5 0 8 -3 8 -8v-49c0 -4 -3 -8 -8 -8h-72l-18 -177c-2 -14 -3 -15 -15 -15h-36c-13 0 -14 4 -13 14l18 178h-126z" />
    <glyph glyph-name="dollar" unicode="$" 
d="M285 590v-227c54 -31 154 -75 154 -193c0 -132 -105 -172 -154 -180v-65c0 -11 -3 -13 -14 -13h-26c-12 0 -14 2 -14 13v61c-53 0 -170 32 -170 54c0 3 2 7 4 13l16 42c1 2 3 5 6 5c7 0 38 -21 81 -34c20 -6 42 -12 63 -13v251c-47 28 -154 71 -154 186
c0 117 108 165 154 165v57c0 11 2 14 14 14h26c12 0 14 -3 14 -14v-55c34 0 138 -26 138 -49c0 -3 -3 -7 -4 -10l-16 -40c-1 -3 -4 -5 -7 -5c-10 0 -19 10 -53 23c-19 7 -38 11 -58 14zM231 384v204c-29 -5 -72 -24 -72 -91c0 -70 47 -96 72 -113zM285 283v-226
c33 8 72 36 72 105c0 75 -50 105 -72 121z" />
    <glyph glyph-name="percent" unicode="%" horiz-adv-x="759" 
d="M169 370c51 0 70 52 70 119c0 58 -13 114 -64 114s-70 -53 -70 -120c0 -56 13 -113 64 -113zM506 640l-200 -644c-3 -8 -7 -10 -18 -10h-38c-8 0 -13 1 -13 7c0 3 2 6 2 9l199 645c1 6 8 10 15 10h42c7 0 13 -1 13 -8c0 -3 -2 -6 -2 -9zM585 40c51 0 70 52 70 119
c0 58 -13 114 -64 114s-70 -53 -70 -120c0 -56 13 -113 64 -113zM305 495c0 -119 -56 -179 -136 -179c-85 0 -130 62 -130 164c0 116 56 177 137 177c83 0 129 -62 129 -162zM721 165c0 -119 -56 -179 -136 -179c-85 0 -130 62 -130 164c0 116 56 177 137 177
c83 0 129 -62 129 -162z" />
    <glyph glyph-name="ampersand" unicode="&#x26;" horiz-adv-x="611" 
d="M505 114l65 -76c2 -2 5 -5 5 -8s-2 -5 -5 -7l-40 -33c-3 -2 -8 -4 -13 -4s-10 4 -13 7l-55 65c-28 -23 -84 -72 -186 -72c-130 0 -206 78 -206 180c0 121 103 174 132 194c-14 17 -86 97 -86 178c0 111 95 161 177 161c77 0 151 -45 151 -147c0 -111 -99 -170 -136 -195
l165 -191c11 17 30 57 30 116v13c0 9 4 12 12 12h49c10 0 12 -5 12 -16c0 -89 -40 -152 -58 -177zM179 546c0 -63 64 -132 76 -146c29 21 100 68 100 146c0 60 -40 91 -85 91s-91 -32 -91 -91zM408 107l-179 211c-22 -17 -90 -61 -90 -146c0 -74 52 -119 132 -119
c71 0 116 36 137 54z" />
    <glyph glyph-name="quoteright" unicode="&#x2019;" horiz-adv-x="185" 
d="M176 700l-115 -211c-3 -5 -5 -9 -9 -9c-3 0 -6 2 -9 2l-22 7c-7 3 -11 4 -11 9c0 3 1 6 2 9l59 199c2 8 7 11 15 11h80c6 0 14 0 14 -7c0 -4 -3 -7 -4 -10z" />
    <glyph glyph-name="parenleft" unicode="(" horiz-adv-x="370" 
d="M286 720l25 -15c3 -2 7 -5 7 -9c0 -15 -16 -15 -57 -90c-69 -126 -96 -206 -96 -361c0 -302 153 -422 153 -450c0 -11 -35 -28 -43 -28c-21 0 -192 207 -192 478c0 279 171 479 192 479c4 0 7 -2 11 -4z" />
    <glyph glyph-name="parenright" unicode=")" horiz-adv-x="370" 
d="M84 -229l-25 15c-3 2 -7 5 -7 9c0 15 16 15 57 90c69 126 96 206 96 361c0 302 -153 422 -153 450c0 11 35 28 43 28c21 0 192 -207 192 -478c0 -279 -171 -479 -192 -479c-4 0 -7 2 -11 4z" />
    <glyph glyph-name="asterisk" unicode="*" 
d="M362 400l-32 -23c-3 -2 -7 -4 -10 -4c-4 0 -6 3 -9 8l-61 100l-61 -100c-3 -5 -5 -8 -9 -8c-3 0 -7 2 -10 4l-32 23c-4 3 -8 6 -8 10c0 3 4 7 5 9l76 90l-114 27c-6 2 -11 4 -11 9c1 5 2 8 3 11l11 35c2 6 4 11 9 11c3 0 6 -2 9 -3l108 -45l-8 101c0 5 -1 14 -1 19
c0 10 3 11 10 11h46c7 0 10 -1 10 -11c0 -5 -1 -14 -1 -19l-8 -101l108 45c3 1 6 3 9 3c5 0 7 -5 9 -11l11 -35c1 -3 2 -6 3 -11c0 -5 -5 -7 -11 -9l-114 -27l76 -90c1 -2 5 -6 5 -9c0 -4 -4 -7 -8 -10z" />
    <glyph glyph-name="plus" unicode="+" 
d="M285 290h178c12 0 14 -2 14 -14v-44c0 -12 -2 -14 -14 -14h-178v-178c0 -8 -1 -14 -13 -14h-46c-12 0 -13 7 -13 14v178h-178c-12 0 -13 2 -13 14v44c0 12 1 14 13 14h178v176c0 13 6 14 13 14h46c7 0 13 -1 13 -14v-176z" />
    <glyph glyph-name="comma" unicode="," horiz-adv-x="296" 
d="M219 97l-115 -211c-3 -5 -5 -9 -9 -9c-3 0 -6 2 -9 2l-22 7c-7 3 -11 4 -11 9c0 3 1 6 2 9l59 199c2 8 7 11 15 11h80c6 0 14 0 14 -7c0 -4 -3 -7 -4 -10z" />
    <glyph glyph-name="hyphen" unicode="-" horiz-adv-x="352" 
d="M301 279v-51c0 -8 -3 -10 -14 -10h-222c-10 0 -14 3 -14 13v46c0 11 2 16 13 16h223c10 0 14 -4 14 -14z" />
    <glyph glyph-name="period" unicode="." horiz-adv-x="296" 
d="M218 56c0 -39 -31 -70 -70 -70c-38 0 -70 31 -70 70s32 70 70 70c39 0 70 -31 70 -70z" />
    <glyph glyph-name="slash" unicode="/" horiz-adv-x="444" 
d="M0 -185l384 898c3 8 11 11 17 11h40c6 0 12 0 12 -6c0 -3 -2 -8 -4 -12l-384 -898c-3 -7 -9 -10 -16 -10h-39c-7 0 -13 1 -13 8c0 3 2 6 3 9z" />
    <glyph glyph-name="zero" unicode="0" 
d="M45 317c0 194 70 340 211 340c151 0 199 -154 199 -328c0 -192 -55 -343 -207 -343c-140 0 -203 142 -203 331zM254 587c-92 0 -127 -122 -127 -264c0 -154 32 -267 123 -267c98 0 123 118 123 273c0 128 -24 258 -119 258z" />
    <glyph glyph-name="one" unicode="1" 
d="M425 53v-41c0 -8 -4 -12 -12 -12h-268c-8 0 -12 4 -12 12v41c0 8 4 12 12 12h102v489l-138 -80c-4 -3 -7 -4 -10 -4s-6 2 -9 9l-11 21c-2 3 -4 7 -4 10s3 5 8 9l177 124h50c11 0 13 -2 13 -14v-564h90c8 0 12 -4 12 -12z" />
    <glyph glyph-name="two" unicode="2" 
d="M430 56v-42c0 -12 -2 -14 -13 -14h-335c-11 0 -13 3 -13 13c0 168 73 244 141 297c70 55 139 74 139 170c0 58 -31 107 -97 107c-101 0 -103 -109 -122 -109c-2 0 -5 1 -7 2l-44 13c-4 1 -8 4 -8 9c0 30 49 155 186 155c108 0 174 -72 174 -181
c0 -132 -98 -161 -178 -230c-77 -67 -88 -124 -96 -176h260c11 0 13 -3 13 -14z" />
    <glyph glyph-name="three" unicode="3" 
d="M105 529l-33 28c-4 3 -6 6 -6 9c0 11 66 91 170 91c94 0 170 -61 170 -162c0 -96 -62 -130 -103 -148c38 -12 125 -43 125 -168c0 -114 -82 -193 -214 -193c-55 0 -162 22 -162 44c0 3 1 5 2 8l20 45c1 3 3 6 8 6c8 0 56 -33 133 -33c85 0 131 49 131 126
c0 108 -87 123 -145 123h-34c-12 0 -14 2 -14 13v40c0 11 3 14 14 14h34c55 0 129 27 129 121c0 58 -41 94 -98 94c-72 0 -106 -61 -120 -61c-2 0 -5 1 -7 3z" />
    <glyph glyph-name="four" unicode="4" 
d="M375 142v-142c0 -11 -2 -14 -13 -14h-49c-11 0 -14 3 -14 14v142h-254c-12 0 -14 2 -14 13v57l262 436c3 5 5 9 11 9c3 0 7 -1 13 -2l42 -7c6 -1 13 -3 13 -7c0 -3 -3 -9 -5 -11l-257 -423h189l13 161c0 10 1 13 14 13h36c11 0 13 -3 13 -14v-160h80c11 0 14 -2 14 -14
v-38c0 -12 -3 -13 -14 -13h-80z" />
    <glyph glyph-name="five" unicode="5" 
d="M169 573l-22 -203c24 17 59 43 120 43c101 0 170 -79 170 -195c0 -130 -79 -232 -231 -232c-61 0 -135 13 -135 29c0 3 0 5 1 8l11 45c0 3 4 7 8 7c9 0 47 -19 108 -19c113 0 156 64 156 160c0 78 -36 127 -103 127c-84 0 -111 -62 -126 -62c-3 0 -6 0 -8 1l-35 12
c-7 2 -11 3 -11 9c0 3 2 12 2 16l30 311c1 11 3 13 14 13h260c12 0 14 -2 14 -14v-43c0 -11 -3 -13 -14 -13h-209z" />
    <glyph glyph-name="six" unicode="6" 
d="M62 261c0 161 56 396 261 396c42 0 81 -11 90 -16c4 -2 7 -5 7 -9c0 -2 -1 -5 -2 -8l-14 -37c-2 -4 -5 -8 -10 -8c-9 0 -28 11 -67 11c-154 0 -174 -164 -185 -225l2 -2c12 21 46 77 129 77c98 0 168 -85 168 -222c0 -133 -76 -232 -194 -232c-134 0 -185 109 -185 275z
M248 56c61 0 111 50 111 158c0 87 -34 156 -105 156c-80 0 -110 -70 -110 -161c0 -99 38 -153 104 -153z" />
    <glyph glyph-name="seven" unicode="7" 
d="M434 606l-231 -605c-2 -5 -4 -10 -9 -10c-4 0 -10 1 -14 2l-47 7c-6 1 -12 2 -12 6c0 3 2 8 3 11l216 556h-258c-12 0 -14 2 -14 14v42c0 12 2 14 14 14h338c11 0 14 -2 14 -14v-23z" />
    <glyph glyph-name="eight" unicode="8" 
d="M186 340c-44 20 -118 58 -118 156c0 88 69 161 182 161c121 0 181 -74 181 -152c0 -103 -73 -142 -113 -163c51 -21 142 -68 142 -175c0 -88 -70 -181 -209 -181c-132 0 -211 74 -211 180c0 112 89 156 146 174zM146 499c0 -76 79 -112 107 -126c30 14 100 44 100 124
c0 57 -43 93 -104 93c-56 0 -103 -33 -103 -91zM378 162c0 90 -98 127 -130 140c-29 -13 -126 -45 -126 -140c0 -74 63 -109 130 -109s126 40 126 109z" />
    <glyph glyph-name="nine" unicode="9" 
d="M87 16l4 40c0 5 4 8 10 8c9 0 28 -8 67 -8c154 0 174 161 185 222l-2 2c-12 -21 -46 -77 -129 -77c-98 0 -168 85 -168 222c0 133 76 232 194 232c134 0 185 -109 185 -275c0 -161 -49 -396 -251 -396c-40 0 -79 10 -89 14c-6 2 -7 10 -6 16zM247 587
c-61 0 -111 -50 -111 -158c0 -88 34 -157 105 -157c80 0 110 70 110 162c0 99 -38 153 -104 153z" />
    <glyph glyph-name="colon" unicode=":" horiz-adv-x="296" 
d="M218 56c0 -39 -31 -70 -70 -70c-38 0 -70 31 -70 70s32 70 70 70c39 0 70 -31 70 -70zM218 410c0 -39 -31 -70 -70 -70s-70 31 -70 70s32 70 70 70c39 0 70 -32 70 -70z" />
    <glyph glyph-name="semicolon" unicode=";" horiz-adv-x="296" 
d="M218 97l-115 -211c-3 -5 -5 -9 -9 -9c-3 0 -6 2 -9 2l-22 7c-7 3 -11 4 -11 9c0 3 1 6 2 9l59 199c2 8 7 11 15 11h80c6 0 14 0 14 -7c0 -4 -3 -7 -4 -10zM233 410c0 -38 -30 -70 -70 -70c-39 0 -70 31 -70 70c0 38 31 70 70 70s70 -32 70 -70z" />
    <glyph glyph-name="less" unicode="&#x3c;" 
d="M476 121l-16 -46c-2 -7 -5 -10 -10 -10c-3 0 -6 1 -11 3l-404 146c-8 2 -11 3 -11 16v48c0 12 3 12 11 15l404 146c5 1 8 3 11 3c5 0 8 -3 10 -10l16 -46c1 -1 2 -5 2 -7c0 -3 -2 -7 -9 -10l-322 -114v-2l322 -115c7 -3 9 -7 9 -10c0 -2 -1 -6 -2 -7z" />
    <glyph glyph-name="equal" unicode="=" 
d="M477 207v-44c0 -12 -2 -14 -14 -14h-428c-12 0 -13 2 -13 14v44c0 12 1 14 13 14h428c12 0 14 -2 14 -14zM477 344v-44c0 -12 -2 -14 -14 -14h-428c-12 0 -13 2 -13 14v44c0 12 1 14 13 14h428c12 0 14 -2 14 -14z" />
    <glyph glyph-name="greater" unicode="&#x3e;" 
d="M478 277v-48c0 -12 -3 -12 -11 -15l-404 -146c-5 -1 -8 -3 -11 -3c-5 0 -8 3 -10 10l-16 46c-1 1 -2 5 -2 7c0 3 2 7 9 10l322 114v2l-322 115c-7 3 -9 7 -9 10c0 2 1 6 2 7l16 46c2 7 5 10 10 10c3 0 6 -1 11 -3l404 -146c8 -2 11 -3 11 -16z" />
    <glyph glyph-name="question" unicode="?" horiz-adv-x="426" 
d="M223 369v-91c0 -11 -2 -13 -14 -13h-40c-12 0 -14 2 -14 13v111c0 17 0 26 9 30c19 8 130 21 130 117c0 63 -36 96 -101 96c-58 0 -106 -30 -117 -30c-5 0 -9 4 -11 10l-14 35c-1 2 -1 5 -1 7c0 21 96 45 151 45c88 0 175 -39 175 -161c0 -126 -107 -157 -153 -169z
M261 56c0 -39 -32 -70 -70 -70s-70 31 -70 70s32 70 70 70s70 -31 70 -70z" />
    <glyph glyph-name="at" unicode="@" horiz-adv-x="944" 
d="M770 -48l12 -29s2 -5 2 -8c0 -33 -204 -91 -348 -91c-236 0 -369 144 -369 356c0 270 212 479 473 479c203 0 335 -111 335 -295c0 -202 -144 -315 -247 -315c-71 0 -83 56 -84 90h-2c-22 -32 -65 -89 -137 -89c-55 0 -86 45 -86 114c0 92 53 266 179 266
c50 0 66 -23 81 -40l10 24c2 4 2 6 10 6h45c3 0 6 -2 6 -5s-2 -7 -2 -11l-48 -224c-2 -9 -3 -17 -3 -26c0 -35 14 -50 41 -50c75 0 172 96 172 258c0 144 -94 239 -269 239c-224 0 -405 -178 -405 -418c0 -184 101 -301 312 -301c187 0 297 78 312 78c6 0 7 0 10 -8z
M548 256l17 82c-7 6 -34 34 -71 34c-72 0 -103 -146 -103 -205c0 -28 6 -55 36 -55c34 0 67 32 88 59c15 20 31 72 33 85z" />
    <glyph glyph-name="A" unicode="A" horiz-adv-x="556" 
d="M359 274l-60 221c-8 31 -18 67 -23 95h-2c-4 -24 -14 -68 -21 -95l-61 -221h167zM322 674l201 -651c2 -7 4 -12 5 -17c0 -5 -4 -6 -14 -6h-62c-12 0 -16 4 -18 11l-56 193h-205l-51 -193c-2 -7 -6 -11 -18 -11h-62c-10 0 -14 1 -14 6c1 5 2 10 5 17l200 651
c3 10 4 11 15 11h59c8 0 11 0 15 -11z" />
    <glyph glyph-name="B" unicode="B" horiz-adv-x="556" 
d="M108 685h164c75 0 199 -8 199 -163c0 -105 -66 -146 -99 -163c51 -15 123 -48 123 -170c0 -83 -42 -130 -66 -151c-39 -33 -95 -38 -175 -38h-146c-8 0 -12 4 -12 12v661c0 8 4 12 12 12zM178 383h71c58 0 132 13 132 130c0 89 -52 102 -111 102h-92v-232zM178 70h97
c65 0 130 23 130 122c0 97 -66 124 -135 124h-92v-246z" />
    <glyph glyph-name="C" unicode="C" horiz-adv-x="463" 
d="M415 104l21 -27c4 -5 6 -9 6 -14c0 -16 -72 -77 -160 -77c-170 0 -230 156 -230 363c0 190 49 350 223 350c88 0 160 -61 160 -77c0 -5 -2 -9 -6 -14l-21 -27c-3 -4 -6 -8 -10 -8c-7 0 -63 59 -121 59c-108 0 -135 -103 -135 -273c0 -185 40 -306 142 -306
c58 0 114 59 121 59c3 0 7 -5 10 -8z" />
    <glyph glyph-name="D" unicode="D" horiz-adv-x="556" 
d="M179 70h62c143 0 173 112 173 283c0 219 -63 262 -180 262h-55v-545zM109 685h126c139 0 269 -33 269 -336c0 -238 -76 -349 -280 -349h-115c-8 0 -12 4 -12 12v661c0 8 4 12 12 12z" />
    <glyph glyph-name="E" unicode="E" horiz-adv-x="463" 
d="M429 59v-45c0 -12 -3 -14 -14 -14h-308c-8 0 -12 4 -12 12v661c0 8 4 12 12 12h311c11 0 13 -3 13 -6s-2 -9 -3 -13l-14 -42c-3 -9 -6 -9 -15 -9h-222v-222h196c11 0 13 -2 13 -13v-44c0 -11 -2 -13 -13 -13h-196v-253h240c8 0 12 -4 12 -11z" />
    <glyph glyph-name="F" unicode="F" horiz-adv-x="426" 
d="M177 323v-309c0 -12 -3 -14 -14 -14h-56c-8 0 -12 4 -12 12v661c0 8 4 12 12 12h311c11 0 13 -3 13 -7l-3 -12l-14 -42c-1 -2 -1 -4 -5 -7c-3 -2 -5 -2 -10 -2h-222v-222h196c11 0 13 -2 13 -13v-44c0 -11 -2 -13 -13 -13h-196z" />
    <glyph glyph-name="G" unicode="G" horiz-adv-x="537" 
d="M468 335v-270c0 -26 0 -34 -14 -42c-37 -21 -101 -37 -162 -37c-177 0 -240 156 -240 363c0 190 66 350 242 350c92 0 166 -47 166 -61c0 -4 -2 -7 -5 -13l-15 -28c-3 -7 -8 -14 -13 -14c-10 0 -51 49 -131 49c-110 0 -154 -104 -154 -273c0 -185 43 -306 152 -306
c46 0 73 10 92 19v210h-80c-8 0 -12 4 -12 12v41c0 8 4 12 12 12h150c8 0 12 -4 12 -12z" />
    <glyph glyph-name="H" unicode="H" horiz-adv-x="611" 
d="M434 321h-257v-309c0 -8 -4 -12 -12 -12h-58c-8 0 -12 4 -12 12v661c0 8 4 12 12 12h58c8 0 12 -4 12 -12v-282h257v282c0 8 4 12 12 12h58c8 0 12 -4 12 -12v-661c0 -8 -4 -12 -12 -12h-58c-8 0 -12 4 -12 12v309z" />
    <glyph glyph-name="I" unicode="I" horiz-adv-x="370" 
d="M329 53v-41c0 -8 -4 -12 -12 -12h-264c-8 0 -12 4 -12 12v41c0 8 4 12 12 12h91v555h-91c-8 0 -12 4 -12 12v41c0 8 4 12 12 12h264c8 0 12 -4 12 -12v-41c0 -8 -4 -12 -12 -12h-91v-555h91c8 0 12 -4 12 -12z" />
    <glyph glyph-name="J" unicode="J" horiz-adv-x="444" 
d="M360 672v-503c0 -118 -69 -183 -184 -183c-138 0 -176 99 -176 192c0 12 0 18 9 18h59c5 0 8 -2 8 -10v-8c0 -66 23 -125 101 -125c68 0 101 38 101 116v446h-175c-8 0 -12 4 -12 12v46c0 8 4 12 12 12h243c12 0 14 -2 14 -13z" />
    <glyph glyph-name="K" unicode="K" horiz-adv-x="519" 
d="M497 21l-40 -28c-6 -4 -10 -7 -14 -7s-9 4 -13 9l-251 331h-2v-314c0 -8 -4 -12 -12 -12h-58c-8 0 -12 4 -12 12v661c0 8 4 12 12 12h58c8 0 12 -4 12 -12v-328h2l255 346c2 2 6 8 12 8c4 0 6 -3 12 -7l32 -22c5 -4 9 -6 9 -10c0 -3 -4 -8 -6 -11l-233 -309l239 -300
c2 -3 5 -6 5 -8c0 -4 -2 -8 -7 -11z" />
    <glyph glyph-name="L" unicode="L" horiz-adv-x="444" 
d="M175 70h254c7 0 12 -2 12 -8c0 -4 -3 -8 -4 -13l-14 -38c-3 -8 -9 -11 -16 -11h-302c-8 0 -12 4 -12 12v661c0 8 4 12 12 12h58c8 0 12 -4 12 -12v-603z" />
    <glyph glyph-name="M" unicode="M" horiz-adv-x="667" 
d="M553 673l39 -661c0 -8 -4 -12 -12 -12h-58c-8 0 -12 4 -12 12l-16 514c-1 20 0 45 1 62l-2 2c-1 -22 -4 -47 -12 -71l-121 -348c-4 -9 -6 -11 -15 -11h-30c-9 0 -12 2 -15 11l-116 348c-8 24 -11 49 -12 71l-2 -2c1 -17 2 -42 1 -62l-15 -514c0 -8 -4 -12 -12 -12h-58
c-8 0 -12 4 -12 12l38 661c0 8 4 12 12 12h65c8 0 8 -2 11 -10l118 -345c5 -15 9 -40 13 -62h2c5 21 9 47 14 62l118 345c3 8 3 10 11 10h65c8 0 12 -4 12 -12z" />
    <glyph glyph-name="N" unicode="N" horiz-adv-x="574" 
d="M492 673v-661c0 -7 -4 -12 -12 -12h-56c-8 0 -12 3 -16 10l-230 494c-12 26 -22 59 -27 87l-2 -2c8 -38 10 -67 10 -89v-488c0 -8 -4 -12 -12 -12h-52c-8 0 -12 4 -12 12v661c0 7 4 12 12 12h68c8 0 12 -3 15 -9l221 -466c12 -25 15 -47 24 -77l2 2c-3 21 -9 43 -9 61
v477c0 8 4 12 12 12h52c8 0 12 -4 12 -12z" />
    <glyph glyph-name="O" unicode="O" horiz-adv-x="556" 
d="M504 343c0 -213 -66 -357 -226 -357c-161 0 -226 144 -226 357c0 214 66 356 226 356c159 0 226 -143 226 -356zM278 53c113 0 136 115 136 290c0 174 -24 289 -136 289c-111 0 -136 -115 -136 -289c0 -175 23 -290 136 -290z" />
    <glyph glyph-name="P" unicode="P" 
d="M178 359h65c74 0 141 19 141 142c0 111 -72 114 -129 114h-77v-256zM178 289v-277c0 -8 -4 -12 -12 -12h-58c-8 0 -12 4 -12 12v661c0 8 4 12 12 12h155c77 0 203 -5 203 -182c0 -169 -111 -214 -216 -214h-72z" />
    <glyph glyph-name="Q" unicode="Q" horiz-adv-x="556" 
d="M543 -31l-53 -36c-3 -2 -6 -3 -9 -3c-22 0 -91 67 -104 82c-32 -16 -69 -26 -105 -26c-153 0 -220 135 -220 355c0 214 67 358 231 358c154 0 220 -134 220 -356c0 -186 -51 -254 -68 -279c13 -14 56 -47 82 -63c22 -14 30 -17 30 -23c0 -5 -2 -7 -4 -9zM277 53
c111 0 136 122 136 287c0 174 -29 292 -134 292c-113 0 -137 -122 -137 -287c0 -174 29 -292 135 -292z" />
    <glyph glyph-name="R" unicode="R" horiz-adv-x="519" 
d="M169 377h65c74 0 141 17 141 124c0 111 -72 114 -129 114h-77v-238zM325 319l166 -303c2 -4 4 -8 4 -11s-4 -6 -11 -7l-63 -12c-7 -1 -12 1 -15 8l-165 318h-72v-300c0 -8 -4 -12 -12 -12h-58c-8 0 -12 4 -12 12v661c0 8 4 12 12 12h155c77 0 203 -5 203 -182
c0 -110 -77 -166 -132 -184z" />
    <glyph glyph-name="S" unicode="S" horiz-adv-x="463" 
d="M405 633l-13 -33c-4 -8 -4 -13 -11 -13c-4 0 -9 2 -14 5c-19 10 -70 35 -127 35c-60 0 -106 -31 -106 -98c0 -105 131 -124 211 -190c54 -44 81 -91 81 -157c0 -122 -90 -196 -212 -196c-93 0 -167 43 -182 50c-5 2 -8 6 -8 11c0 3 3 8 4 12l13 33c3 8 5 13 11 13
c4 0 9 -2 14 -5c20 -9 81 -42 151 -42c75 0 119 47 119 114c0 166 -292 141 -292 348c0 115 95 179 199 179c80 0 144 -36 158 -43c5 -3 8 -8 8 -11s-3 -8 -4 -12z" />
    <glyph glyph-name="T" unicode="T" horiz-adv-x="444" 
d="M407 615h-141v-603c0 -8 -4 -12 -12 -12h-58c-8 0 -12 4 -12 12v603h-149c-8 0 -12 4 -12 12v45c0 7 3 13 14 13h392c7 0 12 -2 12 -8c0 -4 -3 -8 -4 -13l-14 -38c-3 -8 -9 -11 -16 -11z" />
    <glyph glyph-name="U" unicode="U" horiz-adv-x="593" 
d="M510 673v-489c0 -120 -67 -198 -220 -198c-151 0 -207 77 -207 198v489c0 8 4 12 12 12h58c8 0 12 -4 12 -12v-487c0 -82 32 -133 126 -133c92 0 137 42 137 133v487c0 8 4 12 12 12h58c8 0 12 -4 12 -12z" />
    <glyph glyph-name="V" unicode="V" 
d="M474 657l-175 -653c-3 -10 -5 -11 -15 -11h-70c-11 0 -13 2 -15 11l-173 653c-1 4 -3 9 -3 12c0 6 9 7 12 8l55 14c3 1 6 1 9 1c5 0 7 -6 9 -16l126 -522c5 -19 11 -54 14 -80h2c3 25 11 63 15 78l127 524c3 10 4 16 9 16c3 0 6 0 9 -1l55 -14c3 -1 12 -3 12 -9
c0 -2 -2 -7 -3 -11z" />
    <glyph glyph-name="W" unicode="W" horiz-adv-x="704" 
d="M352 558l-104 -553c-1 -5 -3 -12 -9 -12h-72c-9 0 -10 6 -10 12l-123 652c-1 4 -2 9 -2 12c0 6 8 7 11 8l49 12c4 1 10 3 13 3c5 0 7 -9 8 -18l85 -487c3 -18 6 -79 8 -106h2c3 39 5 75 12 112l96 480c1 6 2 12 9 12h63c7 0 9 -6 10 -12l83 -494c4 -25 10 -63 10 -98h2
c2 33 2 72 7 99l91 494c2 9 3 18 8 18c3 0 9 -2 14 -3l48 -12c7 -2 11 -3 11 -8c0 -3 -1 -8 -2 -12l-137 -652c-1 -5 -2 -12 -10 -12h-75c-7 0 -9 4 -10 12l-84 553h-2z" />
    <glyph glyph-name="X" unicode="X" horiz-adv-x="481" 
d="M459 16l-45 -19c-4 -1 -7 -4 -11 -4s-9 6 -14 16l-122 225c-7 13 -19 34 -26 56c-9 -18 -18 -40 -23 -50l-125 -235c-3 -7 -6 -12 -10 -12s-7 1 -9 2l-50 17c-5 2 -11 5 -11 11c0 2 3 9 5 12l174 322l-161 293c-2 3 -5 10 -5 12c0 6 6 9 11 11l50 17c2 0 5 2 7 2
c5 0 8 -6 12 -12l110 -203c6 -11 17 -35 25 -52c9 22 17 40 26 56l105 195c5 10 10 16 14 16s7 -3 11 -4l45 -19c7 -3 10 -5 11 -9c0 -4 -3 -8 -5 -13l-164 -287l181 -322c2 -5 5 -9 5 -13c-1 -4 -4 -6 -11 -9z" />
    <glyph glyph-name="Y" unicode="Y" horiz-adv-x="481" 
d="M281 291v-279c0 -8 -4 -12 -12 -12h-58c-8 0 -12 4 -12 12v277l-194 368c-2 4 -3 7 -3 10c0 7 6 8 12 10l58 14c3 1 6 1 9 1c6 0 8 -6 11 -13l126 -261c5 -11 18 -35 26 -52c10 25 18 43 28 62l121 251c3 7 5 13 11 13c3 0 6 -1 9 -1l58 -14c3 -1 12 -2 12 -10
c0 -3 -1 -6 -3 -10z" />
    <glyph glyph-name="Z" unicode="Z" horiz-adv-x="444" 
d="M427 52v-40c0 -9 -8 -12 -16 -12h-371c-11 0 -14 2 -14 14v52l294 549h-269c-7 0 -12 2 -12 8c0 4 3 8 4 13l14 38c3 8 9 11 16 11h330c11 0 13 -2 13 -13v-49l-296 -553h289c18 0 18 -7 18 -18z" />
    <glyph glyph-name="bracketleft" unicode="[" horiz-adv-x="370" 
d="M315 -152v-38c0 -8 -4 -12 -12 -12h-174c-12 0 -14 2 -14 14v891c0 12 2 14 14 14h174c8 0 12 -4 12 -12v-38c0 -8 -4 -12 -12 -12h-112v-795h112c8 0 12 -4 12 -12z" />
    <glyph glyph-name="backslash" unicode="\" horiz-adv-x="444" 
d="M128 713l384 -898c1 -3 3 -6 3 -9c0 -7 -6 -8 -13 -8h-39c-7 0 -13 3 -16 10l-384 898c-2 4 -4 9 -4 12c0 6 6 6 12 6h40c6 0 14 -3 17 -11z" />
    <glyph glyph-name="bracketright" unicode="]" horiz-adv-x="370" 
d="M255 703v-891c0 -12 -2 -14 -14 -14h-174c-8 0 -12 4 -12 12v38c0 8 4 12 12 12h112v795h-112c-8 0 -12 4 -12 12v38c0 8 4 12 12 12h174c12 0 14 -2 14 -14z" />
    <glyph glyph-name="asciicircum" unicode="^" 
d="M291 677l143 -319c3 -5 4 -9 5 -13c0 -5 -4 -7 -10 -8l-44 -13c-3 -1 -7 -2 -9 -2c-3 0 -7 1 -10 7l-116 258l-115 -258c-3 -6 -7 -7 -10 -7c-2 0 -6 1 -9 2l-44 13c-6 1 -10 3 -10 8c1 4 2 8 5 13l143 319c3 5 4 8 16 8h49c12 0 13 -3 16 -8z" />
    <glyph glyph-name="underscore" unicode="_" 
d="M0 -125v50h500v-50h-500z" />
    <glyph glyph-name="quoteleft" unicode="&#x2018;" horiz-adv-x="185" 
d="M173 690l-59 -199c-2 -8 -7 -11 -15 -11h-80c-6 0 -14 0 -14 7c0 4 3 7 4 10l115 211c3 5 5 9 9 9c3 0 6 -2 9 -2l22 -7c7 -3 11 -4 11 -9c0 -3 -1 -6 -2 -9z" />
    <glyph glyph-name="a" unicode="a" horiz-adv-x="463" 
d="M384 354v-196c0 -63 3 -72 12 -100c4 -12 18 -31 18 -37c0 -4 -5 -6 -9 -8l-39 -24c-4 -2 -6 -3 -8 -3c-15 0 -33 53 -38 67c-12 -11 -61 -67 -144 -67c-79 0 -130 52 -130 141c0 169 200 172 262 174v36c0 58 -18 90 -89 90c-67 0 -113 -32 -122 -32c-3 0 -6 2 -7 5
l-13 35c-2 5 -3 8 -3 13c0 17 92 46 156 46c115 0 154 -56 154 -140zM308 110v129c-44 -1 -187 -1 -187 -106c0 -40 22 -85 73 -85c52 0 98 48 114 62z" />
    <glyph glyph-name="b" unicode="b" 
d="M160 377v-286c23 -16 60 -38 104 -38c94 0 103 115 103 219c0 77 -8 155 -89 155c-58 0 -77 -22 -118 -50zM160 711v-268c27 28 81 51 127 51c121 0 162 -101 162 -224c0 -144 -38 -284 -171 -284c-70 0 -107 18 -139 49c-5 -14 -21 -49 -32 -49c-4 0 -10 4 -14 7l-25 16
c-8 5 -15 8 -15 13s8 12 15 29c9 16 16 39 16 71v576c0 7 3 11 7 12l50 12c8 2 5 1 12 2c7 0 7 -8 7 -13z" />
    <glyph glyph-name="c" unicode="c" horiz-adv-x="426" 
d="M381 88l17 -42c1 -3 3 -5 3 -8c0 -11 -84 -52 -158 -52c-119 0 -188 93 -188 239c0 167 80 269 203 269c67 0 144 -47 144 -62c0 -3 -2 -5 -3 -8l-23 -42c-2 -3 -3 -6 -6 -6c-4 0 -47 51 -106 51c-98 0 -127 -73 -127 -187c0 -91 18 -187 115 -187c65 0 117 41 123 41
c3 0 4 -3 6 -6z" />
    <glyph glyph-name="d" unicode="d" 
d="M341 112v282c-32 17 -64 33 -114 33c-86 0 -94 -98 -94 -195c0 -84 7 -179 88 -179c52 0 96 44 120 59zM417 711v-553c0 -45 0 -75 11 -100c5 -12 18 -31 18 -37c0 -4 -5 -6 -9 -8l-39 -24c-4 -2 -6 -3 -8 -3c-14 0 -32 43 -36 59c-24 -17 -73 -59 -147 -59
c-107 0 -156 120 -156 244c0 144 51 264 167 264c62 0 96 -17 123 -34v238c0 7 3 11 7 12l49 12c8 2 5 1 12 2c8 0 8 -8 8 -13z" />
    <glyph glyph-name="e" unicode="e" horiz-adv-x="463" 
d="M124 286h216c0 52 -17 146 -104 146c-92 0 -112 -96 -112 -146zM391 88l17 -42c1 -3 3 -5 3 -8c0 -11 -84 -52 -158 -52c-133 1 -211 102 -211 254c0 147 74 254 198 254c167 0 182 -162 182 -248c0 -14 0 -22 -11 -22h-287c0 -61 24 -171 138 -171c65 0 117 41 123 41
c3 0 4 -3 6 -6z" />
    <glyph glyph-name="f" unicode="f" horiz-adv-x="315" 
d="M178 418v-406c0 -8 -4 -12 -12 -12h-52c-8 0 -12 4 -12 12v406h-70c-7 0 -7 7 -7 12v38c0 7 0 12 7 12h70v78c0 75 15 166 139 166c46 0 110 -20 110 -35c0 -3 -3 -7 -5 -14l-14 -33c-2 -3 -4 -6 -7 -6c-17 0 -45 21 -87 21c-56 0 -60 -42 -60 -100v-77h144
c6 0 11 -1 11 -7c0 -2 -1 -4 -1 -7l-13 -39c-2 -5 -7 -9 -13 -9h-128z" />
    <glyph glyph-name="g" unicode="g" 
d="M413 347v-154c0 -56 7 -173 7 -227c0 -91 -41 -176 -176 -176c-75 0 -168 34 -168 53c0 5 1 7 4 13l16 34c1 3 3 6 7 6c8 0 68 -39 137 -39c93 0 104 54 104 108c0 50 -3 91 -3 103c-23 -19 -69 -55 -136 -55c-91 0 -154 80 -154 221c0 157 61 260 188 260
c66 0 105 -33 118 -43c9 25 20 43 29 43c4 0 7 -1 9 -2l45 -28c4 -3 4 -4 4 -6c0 -8 -9 -13 -18 -37c-9 -25 -13 -38 -13 -74zM337 130v270c-17 8 -52 27 -92 27c-76 0 -112 -67 -112 -174c0 -106 19 -173 87 -173c52 0 94 34 117 50z" />
    <glyph glyph-name="h" unicode="h" horiz-adv-x="519" 
d="M84 12v686c0 7 3 11 7 12l50 12c8 2 5 1 12 2c7 0 7 -8 7 -13v-285c32 26 84 68 157 68c111 0 119 -78 119 -150v-332c0 -8 -4 -12 -12 -12h-52c-8 0 -12 4 -12 12v334c0 43 -11 81 -65 81c-65 0 -110 -39 -135 -61v-354c0 -8 -4 -12 -12 -12h-52c-8 0 -12 4 -12 12z" />
    <glyph glyph-name="i" unicode="i" horiz-adv-x="278" 
d="M190 465v-453c0 -8 -4 -12 -12 -12h-52c-8 0 -12 4 -12 12v406h-78c-8 0 -12 4 -12 12v38c0 8 4 12 12 12h141c11 0 13 -6 13 -15zM208 656c0 -33 -27 -61 -61 -61s-61 27 -61 61s27 61 61 61s61 -28 61 -61z" />
    <glyph glyph-name="j" unicode="j" horiz-adv-x="278" 
d="M196 465v-518c0 -81 -30 -157 -152 -157c-57 0 -117 27 -117 39c0 3 1 6 2 8l18 40c2 3 3 7 8 7c8 0 47 -27 98 -27c66 0 67 51 67 108v453h-79c-8 0 -12 4 -12 12v38c0 8 4 12 12 12h142c11 0 13 -6 13 -15zM213 656c0 -33 -27 -61 -61 -61s-61 27 -61 61s27 61 61 61
s61 -28 61 -61z" />
    <glyph glyph-name="k" unicode="k" horiz-adv-x="444" 
d="M242 258l176 -223c2 -3 7 -7 7 -12c0 -4 -4 -5 -6 -7l-35 -24c-4 -2 -8 -6 -12 -6c-5 0 -9 5 -11 8l-204 252h-2v-234c0 -8 -4 -12 -12 -12h-52c-8 0 -12 4 -12 12v686c0 7 3 11 7 12l50 12c8 2 5 1 12 2c7 0 7 -8 7 -13v-451l199 226c3 3 6 8 11 8c4 0 8 -4 12 -6
l35 -24c2 -2 6 -3 6 -7c0 -5 -4 -9 -7 -12z" />
    <glyph glyph-name="l" unicode="l" horiz-adv-x="259" 
d="M253 55l13 -37c1 -2 2 -5 2 -7c0 -11 -48 -25 -85 -25c-49 0 -82 20 -94 48c-14 33 -14 110 -14 145v519c0 7 3 11 7 12l50 12c8 2 5 1 12 2c7 0 7 -8 7 -13v-534c0 -31 1 -82 3 -94c2 -11 11 -35 40 -35c26 0 45 13 52 13c6 0 6 -3 7 -6z" />
    <glyph glyph-name="m" unicode="m" horiz-adv-x="722" 
d="M86 12v343c0 23 -1 47 -6 70s-13 29 -13 34c0 2 1 4 5 7l43 24c2 1 6 4 9 4c15 0 26 -52 27 -59c26 24 88 59 130 59c65 0 93 -20 106 -60c30 22 84 60 132 60c111 0 119 -78 119 -150v-332c0 -8 -4 -12 -12 -12h-52c-8 0 -12 4 -12 12v334c0 43 -11 81 -64 81
c-48 0 -78 -27 -98 -41v-374c0 -8 -4 -12 -12 -12h-52c-8 0 -12 4 -12 12v334c0 43 -11 81 -65 81c-45 0 -80 -28 -97 -42v-373c0 -8 -4 -12 -12 -12h-52c-8 0 -12 4 -12 12z" />
    <glyph glyph-name="n" unicode="n" horiz-adv-x="519" 
d="M436 344v-332c0 -8 -4 -12 -12 -12h-52c-8 0 -12 4 -12 12v334c0 43 -11 81 -65 81c-65 0 -107 -39 -132 -61v-354c0 -8 -4 -12 -12 -12h-52c-8 0 -12 4 -12 12v345c0 33 0 44 -4 59c-8 30 -16 37 -16 42c0 2 1 4 5 7l45 25c2 1 5 4 8 4c18 0 30 -60 31 -68
c33 26 85 68 161 68c111 0 119 -78 119 -150z" />
    <glyph glyph-name="o" unicode="o" 
d="M449 243c0 -140 -59 -257 -205 -257c-135 0 -193 109 -193 252c0 138 58 256 203 256c137 0 195 -110 195 -251zM251 48c89 0 116 81 116 196c0 98 -27 188 -117 188s-117 -86 -117 -185c0 -114 26 -199 118 -199z" />
    <glyph glyph-name="p" unicode="p" 
d="M166 378v-292c32 -17 63 -33 113 -33c86 0 94 98 94 195c0 84 -7 179 -88 179c-52 0 -94 -29 -119 -49zM90 -197v519c0 38 0 64 -12 100c-4 12 -18 31 -18 37c0 4 5 6 9 8l39 24c4 2 6 3 8 3c14 0 32 -43 36 -59c24 17 73 59 147 59c107 0 156 -120 156 -244
c0 -144 -51 -264 -167 -264c-61 0 -95 17 -122 34v-204c0 -7 -3 -11 -7 -12l-50 -12c-8 -2 -5 -1 -12 -2c-7 0 -7 8 -7 13z" />
    <glyph glyph-name="q" unicode="q" horiz-adv-x="481" 
d="M336 111v277c-20 12 -54 39 -98 39c-87 0 -106 -95 -106 -179c0 -97 15 -195 96 -195c46 0 79 33 108 58zM412 355v-539c0 -7 -3 -11 -7 -12l-50 -12c-8 -2 -5 -1 -12 -2c-7 0 -7 8 -7 13v242c-25 -21 -65 -59 -122 -59c-118 0 -164 120 -164 264c0 124 58 244 184 244
c61 0 104 -34 122 -48c9 15 20 48 30 48c3 0 6 -2 10 -4l35 -20c5 -3 8 -5 8 -9c0 -7 -12 -26 -18 -45c-6 -20 -9 -35 -9 -61z" />
    <glyph glyph-name="r" unicode="r" horiz-adv-x="315" 
d="M161 342v-330c0 -8 -4 -12 -12 -12h-52c-8 0 -12 4 -12 12v343c0 18 -3 51 -17 76c-8 14 -11 22 -11 25c1 6 5 9 7 10l37 23c4 3 8 5 10 5c18 0 35 -62 39 -84c26 28 62 84 120 84c23 0 49 -8 49 -17c0 -2 -2 -5 -3 -8l-22 -51c-1 -2 -2 -7 -6 -7c-5 0 -14 9 -33 9
c-35 0 -70 -52 -94 -78z" />
    <glyph glyph-name="s" unicode="s" horiz-adv-x="389" 
d="M325 441l-13 -27c-4 -8 -6 -12 -12 -12c-7 0 -49 27 -101 27c-40 0 -74 -20 -74 -66c0 -110 222 -79 222 -235c0 -94 -74 -142 -160 -142c-48 0 -152 28 -152 48c0 5 2 8 4 12l14 31c3 7 6 9 9 9c9 0 61 -35 129 -35c43 0 80 24 80 72c0 104 -222 81 -222 232
c0 81 63 139 151 139c34 0 92 -16 118 -30c8 -4 11 -8 11 -13c0 -3 -3 -6 -4 -10z" />
    <glyph glyph-name="t" unicode="t" horiz-adv-x="352" 
d="M338 74l11 -37c1 -4 2 -7 2 -10c0 -13 -75 -41 -129 -41c-43 0 -79 16 -94 35c-29 31 -29 76 -29 113v284h-75c-7 0 -7 7 -7 12v38c0 7 0 12 7 12h75v137c0 6 4 10 11 12l53 15c3 0 5 1 7 1c5 0 5 -5 5 -11v-154h148c6 0 11 -1 11 -7c0 -2 -1 -4 -1 -7l-13 -39
c-2 -5 -7 -9 -13 -9h-132v-284c0 -40 0 -81 60 -81c47 0 87 27 96 27c4 0 7 -3 7 -6z" />
    <glyph glyph-name="u" unicode="u" 
d="M345 104v364c0 7 3 11 7 12l50 12c8 2 5 1 12 2c7 0 7 -8 7 -13v-356c0 -23 1 -45 11 -66c6 -12 19 -32 19 -38c0 -4 -5 -6 -9 -8l-39 -24c-4 -2 -6 -3 -8 -3c-15 0 -26 36 -37 59c-28 -23 -82 -59 -139 -59c-135 0 -146 78 -146 150v332c0 7 3 11 7 12l50 12
c8 2 5 1 12 2c7 0 7 -8 7 -13v-347c0 -43 17 -81 82 -81c31 0 95 33 114 51z" />
    <glyph glyph-name="v" unicode="v" horiz-adv-x="444" 
d="M435 458l-181 -456c-3 -7 -4 -9 -13 -9h-39c-9 0 -10 4 -12 9l-168 456c0 2 -2 4 -2 7c0 4 2 5 9 7l49 13c3 0 6 2 10 2s4 -4 7 -8l111 -325c7 -21 13 -44 18 -63h2c5 24 9 38 18 62l118 326c3 4 3 8 7 8s7 -2 10 -2l49 -13c7 -2 9 -3 9 -7c0 -3 -2 -5 -2 -7z" />
    <glyph glyph-name="w" unicode="w" horiz-adv-x="630" 
d="M607 456l-130 -453c-2 -4 -3 -10 -12 -10h-39c-10 0 -12 6 -13 10l-79 303c-5 20 -9 53 -11 76h-2c-3 -29 -7 -50 -15 -75l-94 -305c-1 -4 -3 -9 -11 -9h-40c-8 0 -10 6 -11 10l-113 453c-2 4 -2 7 -2 10c0 4 4 5 9 7l44 12c3 0 4 2 8 2c5 0 6 -3 8 -10l72 -328
c4 -17 8 -39 10 -55h2c4 24 7 43 11 55l95 322c2 7 8 9 14 9h38c9 0 10 -5 12 -10l82 -334c3 -13 5 -26 7 -39h2c1 12 4 30 6 39l85 341c1 7 5 10 8 10c4 0 5 -2 8 -2l44 -12c5 -2 9 -3 9 -7c0 -3 -1 -6 -2 -10z" />
    <glyph glyph-name="x" unicode="x" horiz-adv-x="444" 
d="M414 14l-42 -17c-5 -2 -8 -4 -12 -4c-8 0 -10 3 -13 8l-99 150c-9 14 -20 31 -26 42c-9 -15 -16 -25 -27 -41l-107 -151c-4 -5 -5 -8 -13 -8c-4 0 -7 2 -12 4l-42 17c-4 2 -8 3 -8 8c0 3 2 6 4 8l166 215l-145 205c-2 2 -4 5 -4 8c0 5 4 6 8 8l42 17c5 2 8 4 12 4
c8 0 9 -3 13 -8l83 -129c11 -17 22 -35 30 -48c11 16 22 33 32 48l87 129c3 5 5 8 13 8c4 0 7 -2 12 -4l42 -17c4 -2 8 -3 8 -8c0 -3 -3 -6 -4 -8l-150 -197l156 -223c1 -2 4 -5 4 -8c0 -5 -4 -6 -8 -8z" />
    <glyph glyph-name="y" unicode="y" horiz-adv-x="444" 
d="M427 444l-114 -382c-16 -55 -39 -136 -69 -199c-20 -42 -63 -73 -118 -73c-57 0 -126 35 -126 50c0 2 1 4 2 6l20 40c1 3 4 5 7 5c11 0 47 -39 96 -39c37 0 60 37 76 85l21 63h-36c-9 0 -11 2 -13 9l-155 435c-1 5 -3 8 -2 14c0 5 4 6 8 8l42 17c5 2 10 4 14 4
c7 0 9 -3 11 -8l126 -378c10 -29 15 -51 20 -72h2c4 24 9 46 15 70l100 380c1 5 5 8 11 8c4 0 9 -2 14 -4l42 -17c4 -2 8 -3 8 -8c0 -6 -1 -9 -2 -14z" />
    <glyph glyph-name="z" unicode="z" horiz-adv-x="407" 
d="M379 427l-249 -362h247c9 0 14 -1 14 -4s-2 -6 -4 -11l-18 -41c-3 -8 -7 -9 -13 -9h-312c-10 0 -11 1 -11 12v40l251 363h-219c-8 0 -12 4 -12 12v41c0 10 2 12 12 12h302c10 0 12 -2 12 -12v-41z" />
    <glyph glyph-name="braceleft" unicode="{" horiz-adv-x="426" 
d="M384 -154v-34c0 -12 -3 -14 -14 -14h-20c-103 0 -166 37 -166 152v195c0 60 -22 89 -88 89h-20c-12 0 -14 3 -14 14v34c0 11 2 14 14 14h19c65 0 89 27 89 89v178c0 119 66 154 166 154h20c11 0 14 -2 14 -14v-34c0 -12 -3 -14 -14 -14h-17c-69 0 -93 -24 -93 -91v-178
c0 -74 -26 -98 -69 -120c43 -24 69 -46 69 -122v-195c0 -61 23 -89 87 -89h23c11 0 14 -2 14 -14z" />
    <glyph glyph-name="bar" unicode="|" horiz-adv-x="304" 
d="M188 736v-972c0 -12 -1 -14 -13 -14h-46c-12 0 -13 2 -13 14v972c0 10 2 14 13 14h46c12 0 13 -5 13 -14z" />
    <glyph glyph-name="braceright" unicode="}" horiz-adv-x="426" 
d="M42 669v34c0 12 3 14 14 14h20c103 0 166 -37 166 -152v-195c0 -60 22 -89 88 -89h20c12 0 14 -3 14 -14v-34c0 -11 -2 -14 -14 -14h-19c-65 0 -89 -27 -89 -89v-178c0 -119 -66 -154 -166 -154h-20c-11 0 -14 2 -14 14v34c0 12 3 14 14 14h17c69 0 93 24 93 91v178
c0 74 26 98 69 120c-43 24 -69 46 -69 122v195c0 61 -23 89 -87 89h-23c-11 0 -14 2 -14 14z" />
    <glyph glyph-name="asciitilde" unicode="~" 
d="M461 328h46c0 -69 -37 -163 -129 -163c-42 0 -83 20 -118 42l-57 34c-28 16 -67 32 -89 32c-64 0 -73 -63 -75 -90h-46c0 49 26 164 129 164c41 0 82 -22 118 -43l57 -34c26 -15 71 -31 89 -31c64 0 72 61 75 89z" />
    <glyph glyph-name="exclamdown" unicode="&#xa1;" horiz-adv-x="333" 
d="M237 424c0 -39 -32 -70 -70 -70s-70 31 -70 70s32 70 70 70s70 -31 70 -70zM194 202l21 -376c0 -5 1 -15 1 -20c0 -8 -8 -8 -13 -8h-75c-7 0 -13 0 -13 8c0 5 1 11 1 19l22 377c0 12 5 13 14 13h28c10 0 14 -1 14 -13z" />
    <glyph glyph-name="cent" unicode="&#xa2;" 
d="M313 67v-59c0 -11 -3 -13 -14 -13h-26c-11 0 -14 2 -14 13v55c-82 8 -175 60 -175 243c0 191 98 252 175 262v53c0 12 3 14 14 14h26c11 0 14 -3 14 -14v-53c43 0 118 -31 118 -48c0 -3 -2 -6 -3 -8l-22 -38c-2 -3 -4 -6 -7 -6c-7 0 -24 11 -44 21c-10 5 -29 11 -42 12
v-366c14 2 37 8 49 14c18 9 34 21 41 21c3 0 6 -3 7 -6l17 -42c1 -2 2 -5 2 -7c0 -14 -82 -46 -116 -48zM259 133v366c-54 -14 -99 -50 -99 -181c0 -114 28 -170 99 -185z" />
    <glyph glyph-name="sterling" unicode="&#xa3;" 
d="M490 44l-15 -34c-3 -7 -5 -10 -15 -10h-412c-11 0 -13 2 -13 14v38c0 11 2 13 13 13h86c6 28 15 63 15 120c0 59 -9 90 -17 122h-90c-12 0 -14 2 -14 14v38c0 10 2 13 14 13h76c-10 34 -17 68 -17 102c0 114 87 183 210 183c62 0 146 -26 146 -45c0 -3 -2 -6 -3 -9
l-19 -38c-2 -3 -5 -6 -8 -6c-10 0 -54 31 -121 31c-77 0 -129 -44 -129 -113c0 -35 8 -70 14 -105h135c12 0 14 -3 14 -13v-38c0 -12 -3 -14 -14 -14h-119c6 -25 18 -67 18 -124c0 -54 -10 -92 -15 -118h270c6 0 13 -1 13 -8c0 -5 -1 -8 -3 -13z" />
    <glyph glyph-name="fraction" unicode="&#x2044;" horiz-adv-x="230" 
d="M289 640l-270 -644c-3 -8 -7 -10 -18 -10h-38c-8 0 -13 1 -13 7c0 3 1 6 2 9l269 645c3 6 8 10 15 10h42c7 0 13 -1 13 -8c0 -3 -1 -6 -2 -9z" />
    <glyph glyph-name="yen" unicode="&#xa5;" 
d="M293 247v-235c0 -8 -4 -12 -12 -12h-58c-8 0 -12 4 -12 12v235h-182c-10 0 -12 3 -12 11v16c0 12 0 17 15 17h179l-32 66h-150c-10 0 -12 3 -12 11v16c0 12 0 17 15 17h126l-122 255c-2 4 -6 10 -6 14s4 7 8 8l50 15c3 1 6 1 9 1c6 0 8 -6 11 -13l122 -263
c5 -11 18 -35 26 -52c10 25 20 43 28 62l106 253c3 7 5 13 10 13c3 0 7 0 10 -1l50 -15c4 -1 8 -3 8 -8c0 -4 -3 -10 -5 -14l-118 -255h123c15 0 15 -5 15 -17v-16c0 -8 -2 -11 -12 -11h-147l-31 -66h175c15 0 15 -5 15 -17v-16c0 -8 -2 -11 -12 -11h-178z" />
    <glyph glyph-name="florin" unicode="&#x192;" 
d="M282 422l-99 -448c-13 -59 -36 -176 -186 -176c-33 0 -76 7 -76 19c0 2 0 5 1 7l14 41c1 3 4 6 7 6c4 0 33 -8 62 -8c82 0 97 78 105 115l99 444h-69c-5 0 -8 2 -8 6c0 2 0 2 3 16l5 24c2 9 4 12 13 12h70l20 96c12 56 29 148 161 148c50 0 107 -19 107 -31
c0 -1 -1 -2 -1 -3l-18 -43c-1 -2 -4 -5 -7 -5c-9 0 -45 24 -89 24c-70 0 -75 -62 -83 -99l-18 -87h141c5 0 8 -2 8 -6c0 -2 -1 -7 -5 -16l-9 -24c-3 -9 -6 -12 -13 -12h-135z" />
    <glyph glyph-name="section" unicode="&#xa7;" 
d="M387 641l-18 -38c-2 -4 -5 -8 -8 -8c-12 0 -44 37 -105 37c-38 0 -78 -20 -78 -62c0 -59 91 -78 164 -125c48 -31 80 -65 80 -122c0 -89 -86 -135 -119 -154c35 -19 99 -50 99 -127c0 -83 -76 -144 -166 -144c-67 0 -158 43 -158 61c0 4 1 8 4 12l18 35c2 4 5 8 9 8
c11 0 65 -49 132 -49c45 0 79 28 79 70c0 72 -88 92 -152 130c-50 30 -90 59 -90 128c0 96 83 137 118 155c-31 14 -94 43 -94 118c0 74 65 133 160 133c61 0 129 -32 129 -48c0 -3 -2 -7 -4 -10zM250 202c29 15 96 49 96 112c0 60 -77 93 -102 105
c-24 -14 -90 -48 -90 -116c0 -63 62 -84 96 -101z" />
    <glyph glyph-name="currency" unicode="&#xa4;" 
d="M44 118l-30 30l67 67c-33 36 -47 88 -47 136c0 49 17 100 48 138l-70 70l32 31l69 -68c39 28 88 46 137 46c48 0 97 -18 136 -46l69 68l32 -31l-70 -70c35 -36 48 -89 48 -138c0 -48 -15 -100 -47 -136l67 -67l-30 -30l-66 66c-44 -33 -90 -47 -139 -47
c-50 0 -103 18 -140 47zM250 527c-97 0 -175 -80 -175 -176s79 -173 175 -173c95 0 174 78 174 173c0 96 -78 176 -174 176z" />
    <glyph glyph-name="quotesingle" unicode="'" horiz-adv-x="167" 
d="M123 699l-14 -226c-1 -12 -5 -13 -14 -13h-22c-12 0 -15 3 -15 13l-15 226c-1 6 -1 11 -1 16c0 9 8 9 13 9h56c5 0 13 0 13 -9c0 -5 -1 -12 -1 -16z" />
    <glyph glyph-name="quotedblleft" unicode="&#x201c;" horiz-adv-x="407" 
d="M210 497l115 211c3 5 5 9 9 9c3 0 6 -2 9 -2l22 -7c7 -3 11 -4 11 -9c0 -3 -1 -6 -2 -9l-59 -199c-2 -8 -7 -11 -15 -11h-80c-6 0 -14 0 -14 7c0 4 3 7 4 10zM34 497l115 211c3 5 5 9 9 9c3 0 6 -2 9 -2l22 -7c7 -3 11 -4 11 -9c0 -3 -1 -6 -2 -9l-59 -199
c-2 -8 -7 -11 -15 -11h-80c-6 0 -14 0 -14 7c0 4 3 7 4 10z" />
    <glyph glyph-name="guillemotleft" unicode="&#xab;" horiz-adv-x="481" 
d="M117 239l129 -190c2 -3 5 -6 5 -9c0 -4 -6 -8 -10 -10l-27 -15c-3 -2 -6 -3 -9 -3c-4 0 -7 2 -10 7l-168 211c-3 3 -5 6 -5 9s2 7 5 10l168 211c2 3 5 7 10 7c3 0 6 -2 9 -3l27 -15c5 -3 9 -5 9 -10s-3 -7 -4 -9zM302 239l129 -190c2 -3 5 -6 5 -9c0 -4 -6 -8 -10 -10
l-27 -15c-3 -2 -6 -3 -9 -3c-4 0 -7 2 -10 7l-168 211c-3 3 -5 6 -5 9s2 7 5 10l168 211c2 3 5 7 10 7c3 0 6 -2 9 -3l27 -15c5 -3 9 -5 9 -10s-3 -7 -4 -9z" />
    <glyph glyph-name="guilsinglleft" unicode="&#x2039;" horiz-adv-x="296" 
d="M117 239l129 -190c2 -3 5 -6 5 -9c0 -4 -6 -8 -10 -10l-27 -15c-3 -2 -6 -3 -9 -3c-4 0 -7 2 -10 7l-168 211c-3 3 -5 6 -5 9s2 7 5 10l168 211c2 3 5 7 10 7c3 0 6 -2 9 -3l27 -15c5 -3 9 -5 9 -10s-3 -7 -4 -9z" />
    <glyph glyph-name="guilsinglright" unicode="&#x203a;" horiz-adv-x="296" 
d="M269 230l-168 -211c-2 -3 -5 -7 -10 -7c-3 0 -6 2 -9 3l-27 15c-5 3 -9 5 -9 10s3 7 4 9l129 191l-129 190c-2 3 -5 6 -5 9c0 4 6 8 10 10l27 15c3 2 6 3 9 3c4 0 7 -2 10 -7l168 -211c3 -3 5 -6 5 -9s-2 -7 -5 -10z" />
    <glyph glyph-name="fi" unicode="&#xfb01;" horiz-adv-x="537" 
d="M462 656c0 -33 -27 -61 -61 -61s-61 27 -61 61s27 61 61 61s61 -28 61 -61zM445 465v-453c0 -8 -4 -12 -12 -12h-52c-8 0 -12 4 -12 12v406h-194v-406c0 -8 -4 -12 -12 -12h-52c-8 0 -12 4 -12 12v406h-70c-7 0 -7 7 -7 12v38c0 7 0 12 7 12h70v78c0 75 14 166 129 166
c20 0 85 -14 85 -25c0 -3 -3 -7 -5 -14l-14 -33c-2 -3 -4 -6 -7 -6c-11 0 -35 11 -62 11c-47 0 -50 -42 -50 -100v-77h257c11 0 13 -6 13 -15z" />
    <glyph glyph-name="fl" unicode="&#xfb02;" horiz-adv-x="556" 
d="M178 418v-406c0 -8 -4 -12 -12 -12h-52c-8 0 -12 4 -12 12v406h-70c-7 0 -7 7 -7 12v38c0 7 0 12 7 12h70v78c0 75 15 166 139 166c46 0 110 -20 110 -35c0 -3 -3 -7 -5 -14l-14 -33c-2 -3 -4 -6 -7 -6c-17 0 -45 21 -87 21c-56 0 -60 -42 -60 -100v-77h144
c6 0 11 -1 11 -7c0 -2 -1 -4 -1 -7l-13 -39c-2 -5 -7 -9 -13 -9h-128zM550 55l13 -37c1 -2 2 -5 2 -7c0 -11 -48 -25 -85 -25c-49 0 -82 20 -94 48c-14 33 -14 110 -14 145v519c0 7 3 11 7 12l50 12c8 2 5 1 12 2c7 0 7 -8 7 -13v-534c0 -31 1 -82 3 -94
c2 -11 11 -35 40 -35c26 0 45 13 52 13c6 0 6 -3 7 -6z" />
    <glyph glyph-name="endash" unicode="&#x2013;" 
d="M455 275v-43c0 -8 -3 -10 -14 -10h-382c-10 0 -14 3 -14 13v38c0 11 2 16 13 16h383c10 0 14 -4 14 -14z" />
    <glyph glyph-name="dagger" unicode="&#x2020;" 
d="M288 387v-585c0 -10 -3 -12 -13 -12h-50c-11 0 -13 2 -13 12v585h-117c-12 0 -14 3 -14 14v44c0 12 2 14 14 14h117v213c0 11 3 13 13 13h50c10 0 13 -1 13 -13v-213h117c11 0 14 -2 14 -14v-44c0 -11 -2 -14 -14 -14h-117z" />
    <glyph glyph-name="daggerdbl" unicode="&#x2021;" 
d="M288 17v-215c0 -10 -3 -12 -13 -12h-50c-11 0 -13 2 -13 12v215h-117c-12 0 -14 3 -14 14v44c0 12 2 14 14 14h117v298h-117c-12 0 -14 3 -14 14v44c0 12 2 14 14 14h117v213c0 11 3 13 13 13h50c10 0 13 -1 13 -13v-213h117c11 0 14 -2 14 -14v-44c0 -11 -2 -14 -14 -14
h-117v-298h117c11 0 14 -2 14 -14v-44c0 -11 -2 -14 -14 -14h-117z" />
    <glyph glyph-name="periodcentered" unicode="&#xb7;" 
d="M312 254c0 -35 -28 -62 -62 -62c-35 0 -62 28 -62 62s27 62 62 62c34 0 62 -28 62 -62z" />
    <glyph glyph-name="paragraph" unicode="&#xb6;" horiz-adv-x="611" 
d="M501 620v-793c0 -11 -2 -13 -14 -13h-41c-11 0 -14 2 -14 13v793h-64v-793c0 -11 -2 -13 -14 -13h-41c-12 0 -14 2 -14 13v347c-25 -3 -49 -7 -74 -7c-120 0 -186 85 -186 263c0 114 32 165 66 202c51 55 139 52 194 53h269c12 0 14 -2 14 -13v-39c0 -11 -3 -13 -14 -13
h-67zM299 238v382c-127 0 -173 -14 -173 -191c0 -124 28 -197 127 -197c15 0 31 2 46 6z" />
    <glyph glyph-name="bullet" unicode="&#x2022;" 
d="M250 180c-100 0 -181 81 -181 180c0 100 81 182 181 182c99 0 181 -82 181 -182c0 -99 -82 -180 -181 -180z" />
    <glyph glyph-name="quotesinglbase" unicode="&#x201a;" horiz-adv-x="185" 
d="M163 97l-115 -211c-3 -5 -5 -9 -9 -9c-3 0 -6 2 -9 2l-22 7c-7 3 -11 4 -11 9c0 3 1 6 2 9l59 199c2 8 7 11 15 11h80c6 0 14 0 14 -7c0 -4 -3 -7 -4 -10z" />
    <glyph glyph-name="quotedblbase" unicode="&#x201e;" horiz-adv-x="407" 
d="M201 97l-115 -211c-3 -5 -5 -9 -9 -9c-3 0 -6 2 -9 2l-22 7c-7 3 -11 4 -11 9c0 3 1 6 2 9l59 199c2 8 7 11 15 11h80c6 0 14 0 14 -7c0 -4 -3 -7 -4 -10zM377 97l-115 -211c-3 -5 -5 -9 -9 -9c-3 0 -6 2 -9 2l-22 7c-7 3 -11 4 -11 9c0 3 1 6 2 9l59 199c2 8 7 11 15 11
h80c6 0 14 0 14 -7c0 -4 -3 -7 -4 -10z" />
    <glyph glyph-name="quotedblright" unicode="&#x201d;" horiz-adv-x="407" 
d="M197 700l-115 -211c-3 -5 -5 -9 -9 -9c-3 0 -6 2 -9 2l-22 7c-7 3 -11 4 -11 9c0 3 1 6 2 9l59 199c2 8 7 11 15 11h80c6 0 14 0 14 -7c0 -4 -3 -7 -4 -10zM373 700l-115 -211c-3 -5 -5 -9 -9 -9c-3 0 -6 2 -9 2l-22 7c-7 3 -11 4 -11 9c0 3 1 6 2 9l59 199
c2 8 7 11 15 11h80c6 0 14 0 14 -7c0 -4 -3 -7 -4 -10z" />
    <glyph glyph-name="guillemotright" unicode="&#xbb;" horiz-adv-x="481" 
d="M454 230l-168 -211c-2 -3 -5 -7 -10 -7c-3 0 -6 2 -9 3l-27 15c-5 3 -9 5 -9 10s3 7 4 9l129 191l-129 190c-2 3 -5 6 -5 9c0 4 6 8 10 10l27 15c3 2 6 3 9 3c4 0 7 -2 10 -7l168 -211c3 -3 5 -6 5 -9s-2 -7 -5 -10zM269 230l-168 -211c-2 -3 -5 -7 -10 -7
c-3 0 -6 2 -9 3l-27 15c-5 3 -9 5 -9 10s3 7 4 9l129 191l-129 190c-2 3 -5 6 -5 9c0 4 6 8 10 10l27 15c3 2 6 3 9 3c4 0 7 -2 10 -7l168 -211c3 -3 5 -6 5 -9s-2 -7 -5 -10z" />
    <glyph glyph-name="ellipsis" unicode="&#x2026;" horiz-adv-x="1000" 
d="M234 67c0 -39 -28 -67 -67 -67s-67 29 -67 67s28 67 67 67s67 -29 67 -67zM567 67c0 -39 -28 -67 -67 -67s-67 29 -67 67s28 67 67 67s67 -29 67 -67zM900 67c0 -39 -28 -67 -67 -67s-67 29 -67 67s28 67 67 67s67 -29 67 -67z" />
    <glyph glyph-name="perthousand" unicode="&#x2030;" horiz-adv-x="1111" 
d="M181 370c51 0 70 52 70 119c0 58 -13 114 -64 114s-70 -53 -70 -120c0 -56 13 -113 64 -113zM518 640l-200 -644c-3 -8 -7 -10 -18 -10h-38c-8 0 -13 1 -13 7c0 3 2 6 2 9l199 645c1 6 8 10 15 10h42c7 0 13 -1 13 -8c0 -3 -2 -6 -2 -9zM597 40c51 0 70 52 70 119
c0 58 -13 114 -64 114s-70 -53 -70 -120c0 -56 13 -113 64 -113zM317 495c0 -119 -56 -179 -136 -179c-85 0 -130 62 -130 164c0 116 56 177 137 177c83 0 129 -62 129 -162zM733 165c0 -119 -56 -179 -136 -179c-85 0 -130 62 -130 164c0 116 56 177 137 177
c83 0 129 -62 129 -162zM1060 165c0 -119 -56 -179 -136 -179c-85 0 -130 62 -130 164c0 116 56 177 137 177c83 0 129 -62 129 -162zM924 40c51 0 70 52 70 119c0 58 -13 114 -64 114s-70 -53 -70 -120c0 -56 13 -113 64 -113z" />
    <glyph glyph-name="questiondown" unicode="&#xbf;" horiz-adv-x="426" 
d="M203 120v91c0 11 2 13 14 13h40c12 0 14 -2 14 -13v-111c0 -17 0 -26 -9 -30c-19 -8 -130 -21 -130 -117c0 -63 36 -96 101 -96c58 0 106 30 117 30c4 0 9 -4 11 -10l14 -35c1 -2 1 -5 1 -7c0 -21 -96 -45 -151 -45c-88 0 -175 39 -175 161c0 126 107 157 153 169z
M165 424c0 39 32 70 70 70s70 -31 70 -70s-32 -70 -70 -70s-70 31 -70 70z" />
    <glyph glyph-name="grave" unicode="`" horiz-adv-x="308" 
d="M104 703l145 -112c4 -4 8 -6 8 -9s-3 -7 -5 -10l-9 -14c-3 -5 -6 -8 -9 -8c-4 0 -7 1 -10 3l-164 85c-5 2 -9 5 -9 9s2 7 4 10l29 43c3 3 6 8 10 8s8 -4 10 -5z" />
    <glyph glyph-name="acute" unicode="&#xb4;" horiz-adv-x="308" 
d="M248 638l-164 -85c-3 -2 -6 -3 -10 -3c-3 0 -6 3 -9 8l-9 14c-2 3 -5 7 -5 10s4 5 8 9l145 112c2 1 6 5 10 5s7 -5 10 -8l29 -43c2 -3 4 -6 4 -10s-4 -7 -9 -9z" />
    <glyph glyph-name="circumflex" unicode="&#x2c6;" horiz-adv-x="308" 
d="M154 625l-91 -60c-2 -1 -6 -4 -9 -4c-4 0 -7 4 -10 8l-12 16c-2 3 -5 6 -5 9c0 4 4 6 8 10l110 88c3 2 6 5 9 5c4 0 7 -3 10 -5l110 -88c3 -3 7 -5 7 -9s-2 -7 -4 -10l-14 -18c-2 -3 -5 -5 -8 -5s-6 1 -9 3z" />
    <glyph glyph-name="tilde" unicode="&#x2dc;" horiz-adv-x="308" 
d="M268 677l27 -12c3 -2 7 -4 7 -8c0 -7 -28 -79 -92 -79c-23 0 -42 10 -60 21c-17 10 -34 20 -52 20c-31 0 -42 -39 -52 -39c-2 0 -4 1 -6 2l-27 11c-4 2 -8 5 -8 9s27 79 91 79c23 0 43 -10 61 -20c18 -11 34 -21 50 -21c40 0 43 39 54 39c2 0 4 -1 7 -2z" />
    <glyph glyph-name="macron" unicode="&#xaf;" horiz-adv-x="308" 
d="M276 646v-35c0 -10 -1 -13 -13 -13h-218c-12 0 -14 3 -14 13v35c0 11 3 14 14 14h218c10 0 13 -3 13 -14z" />
    <glyph glyph-name="breve" unicode="&#x2d8;" horiz-adv-x="308" 
d="M234 681l39 -6c6 -1 11 -5 11 -13c0 -10 -10 -51 -39 -79c-20 -19 -46 -33 -90 -33c-43 0 -71 15 -91 33c-29 28 -39 69 -39 79c0 8 5 12 11 13l39 6c2 0 4 1 6 1c3 0 6 -1 7 -5c6 -32 16 -74 67 -74s58 43 66 74c1 4 4 5 7 5c2 0 4 -1 6 -1z" />
    <glyph glyph-name="dotaccent" unicode="&#x2d9;" horiz-adv-x="308" 
d="M213 627c0 -32 -26 -59 -59 -59s-59 26 -59 59s26 59 59 59s59 -26 59 -59z" />
    <glyph glyph-name="dieresis" unicode="&#xa8;" horiz-adv-x="308" 
d="M104 629c0 -29 -23 -53 -53 -53c-29 0 -53 24 -53 53s24 53 53 53c30 0 53 -24 53 -53zM195 629c0 29 24 53 53 53s53 -24 53 -53s-24 -53 -53 -53s-53 24 -53 53z" />
    <glyph glyph-name="ring" unicode="&#x2da;" horiz-adv-x="308" 
d="M243 629c0 -50 -40 -89 -89 -89s-88 40 -88 89c0 48 39 89 88 89c50 0 89 -40 89 -89zM154 586c23 0 41 20 41 43c0 22 -18 43 -41 43c-22 0 -40 -20 -40 -43c0 -24 18 -43 40 -43z" />
    <glyph glyph-name="cedilla" unicode="&#xb8;" horiz-adv-x="308" 
d="M164 1l-5 -55c30 -4 77 -10 77 -65c0 -54 -56 -79 -103 -79c-25 0 -60 7 -60 19c0 3 0 5 1 8l4 30c0 3 3 5 5 5c4 0 19 -8 52 -8c24 0 40 7 40 23c0 37 -77 9 -77 37c0 5 0 9 1 18l7 67h58z" />
    <glyph glyph-name="hungarumlaut" unicode="&#x2dd;" horiz-adv-x="308" 
d="M164 663l-126 -112c-4 -3 -7 -5 -10 -5c-4 0 -6 2 -9 5l-11 10c-4 3 -7 6 -7 10s2 6 5 9l105 131c2 3 5 8 10 8c3 0 6 -4 9 -6l34 -31c2 -3 7 -5 7 -9c0 -5 -5 -8 -7 -10zM300 663l-126 -112c-4 -3 -7 -5 -10 -5c-4 0 -6 2 -9 5l-11 10c-4 3 -7 6 -7 10s2 6 5 9l105 131
c2 3 5 8 10 8c3 0 6 -4 9 -6l34 -31c2 -3 7 -5 7 -9c0 -5 -5 -8 -7 -10z" />
    <glyph glyph-name="ogonek" unicode="&#x2db;" horiz-adv-x="308" 
d="M125 15l85 21c-23 -29 -82 -88 -82 -129c0 -20 12 -34 34 -34c29 0 56 22 61 22c3 0 3 -3 5 -6l10 -28c0 -2 2 -5 2 -7c-1 -14 -45 -32 -82 -32c-53 0 -89 28 -89 81c0 47 40 86 56 112z" />
    <glyph glyph-name="caron" unicode="&#x2c7;" horiz-adv-x="308" 
d="M31 673l14 18c3 3 4 5 7 5c4 0 7 -1 10 -3l92 -60l91 60c2 1 6 4 9 4c5 0 7 -4 10 -8l12 -16c2 -3 5 -6 5 -9c0 -4 -4 -6 -8 -10l-110 -88c-3 -2 -6 -5 -9 -5c-4 0 -7 3 -10 5l-110 88c-3 3 -7 5 -7 9s2 7 4 10z" />
    <glyph glyph-name="emdash" unicode="&#x2014;" horiz-adv-x="1000" 
d="M949 275v-43c0 -8 -3 -10 -14 -10h-871c-10 0 -14 3 -14 13v38c0 11 2 16 13 16h872c10 0 14 -4 14 -14z" />
    <glyph glyph-name="AE" unicode="&#xc6;" horiz-adv-x="741" 
d="M372 274v352h-2c-10 -36 -30 -82 -46 -117l-106 -235h154zM348 685h350c11 0 13 -3 13 -7c0 -3 -2 -8 -3 -12l-14 -42c-3 -8 -5 -9 -15 -9h-225v-222h197c11 0 13 -2 13 -13v-44c0 -11 -2 -13 -13 -13h-197v-253h241c8 0 12 -4 12 -11v-45c0 -12 -3 -14 -14 -14h-309
c-8 0 -12 4 -12 12v195h-183l-86 -196c-3 -7 -6 -11 -18 -11h-62c-10 0 -13 1 -13 6s5 11 8 18l305 639c5 11 10 22 25 22z" />
    <glyph glyph-name="ordfeminine" unicode="&#xaa;" horiz-adv-x="426" 
d="M335 340l-30 -18c-7 -2 -3 -2 -10 -2c-13 0 -28 33 -29 41c-9 -8 -42 -43 -100 -43c-54 0 -90 35 -90 93c0 117 139 120 182 121v18c0 35 -15 50 -62 50c-48 0 -77 -21 -86 -21c-4 0 -5 4 -5 7l-8 29c-1 2 -3 8 -3 10c0 13 62 32 116 32c87 0 111 -35 111 -95v-118
c0 -28 0 -49 5 -63c4 -12 15 -27 15 -31s-2 -7 -6 -10zM258 403v80c-28 0 -115 -1 -115 -69c0 -21 12 -44 37 -44c32 0 67 24 78 33z" />
    <glyph glyph-name="Lslash" unicode="&#x141;" horiz-adv-x="444" 
d="M437 49l-14 -38c-3 -8 -9 -11 -16 -11h-302c-8 0 -12 4 -12 12v268l-66 -43c-2 -1 -4 -2 -6 -2s-4 3 -4 6v48c0 9 2 12 9 16l67 44v324c0 8 4 12 12 12h58c8 0 12 -4 12 -12v-283l142 93c2 1 4 3 6 3c4 0 4 -4 4 -8v-46c0 -10 -2 -13 -8 -18l-144 -94v-250h254
c7 0 12 -2 12 -8c0 -4 -3 -8 -4 -13z" />
    <glyph glyph-name="Oslash" unicode="&#xd8;" horiz-adv-x="556" 
d="M489 701l-45 -87c9 -15 59 -85 59 -269c0 -215 -67 -359 -230 -359c-82 0 -122 40 -129 46l-33 -64c-3 -5 -5 -9 -9 -9s-7 1 -10 3l-29 14c-6 3 -9 5 -9 9c-1 4 2 7 3 10l45 89c-27 52 -50 122 -50 256c0 215 67 359 231 359c53 0 75 -8 117 -37l35 66c3 6 4 9 9 9
c4 0 7 -2 10 -3l29 -14c6 -3 10 -5 10 -9c0 -3 -3 -7 -4 -10zM405 539l-227 -441c10 -13 33 -45 98 -45c121 0 145 119 145 291c0 123 -10 175 -16 195zM148 175l220 424c-8 8 -30 33 -88 33c-120 0 -146 -118 -146 -293c0 -57 0 -119 14 -164z" />
    <glyph glyph-name="OE" unicode="&#x152;" horiz-adv-x="759" 
d="M393 114v455c-15 17 -52 63 -117 63c-99 0 -134 -116 -134 -289c0 -161 32 -290 131 -290c62 0 105 45 120 61zM727 59v-45c0 -12 -3 -14 -14 -14h-309c-7 0 -11 4 -11 12v30c-13 -12 -51 -56 -127 -56c-142 0 -214 142 -214 351c0 246 82 362 221 362
c73 0 106 -34 120 -47v20c0 11 2 13 14 13h311c11 0 13 -3 13 -7c0 -3 -2 -8 -3 -12l-14 -42c-3 -8 -5 -9 -15 -9h-224v-222h196c11 0 13 -2 13 -13v-44c0 -11 -2 -13 -13 -13h-196v-253h240c8 0 12 -4 12 -11z" />
    <glyph glyph-name="ordmasculine" unicode="&#xba;" horiz-adv-x="407" 
d="M338 489c0 -93 -40 -171 -138 -171c-91 0 -131 73 -131 167c0 93 40 172 137 172c93 0 132 -73 132 -168zM204 370c53 0 67 52 67 120c0 57 -14 115 -67 115s-68 -55 -68 -113c0 -66 14 -122 68 -122z" />
    <glyph glyph-name="ae" unicode="&#xe6;" horiz-adv-x="704" 
d="M638 88l17 -42c1 -3 3 -5 3 -8c0 -11 -84 -52 -158 -52c-78 0 -139 42 -167 69c-14 -11 -69 -69 -162 -69c-81 0 -136 52 -136 141c0 161 204 164 268 166v44c0 58 -18 90 -89 90c-68 0 -118 -32 -128 -32c-3 0 -6 2 -7 5l-13 35c-2 5 -3 8 -3 13c0 17 94 46 162 46
c44 0 111 -21 126 -61c33 45 90 61 136 61c157 0 182 -156 182 -242c0 -14 0 -22 -11 -22h-287c0 -61 24 -177 138 -177c65 0 117 41 123 41c3 0 4 -3 6 -6zM371 292h216c-4 63 -33 140 -104 140c-92 0 -112 -90 -112 -140zM303 110v121c-46 -1 -192 -1 -192 -98
c0 -40 25 -85 78 -85c52 0 98 48 114 62z" />
    <glyph glyph-name="dotlessi" unicode="&#x131;" horiz-adv-x="278" 
d="M190 465v-453c0 -8 -4 -12 -12 -12h-52c-8 0 -12 4 -12 12v406h-79c-8 0 -12 4 -12 12v38c0 8 4 12 12 12h142c11 0 13 -6 13 -15z" />
    <glyph glyph-name="lslash" unicode="&#x142;" horiz-adv-x="278" 
d="M275 55l13 -37c1 -2 2 -5 2 -7c0 -11 -48 -25 -85 -25c-49 0 -82 20 -94 48c-14 33 -14 110 -14 145v72l-74 -67c-2 -2 -4 -4 -7 -4c-5 0 -5 4 -5 7v54c0 4 2 6 5 9l81 74v374c0 7 3 11 7 12l50 12c8 2 5 1 12 2c7 0 7 -8 7 -13v-318l90 83c2 2 4 4 7 4c5 0 5 -4 5 -7
v-54c0 -4 -2 -6 -5 -9l-97 -89v-144c0 -31 0 -82 3 -94c3 -11 11 -35 40 -35c26 0 45 13 52 13c6 0 6 -3 7 -6z" />
    <glyph glyph-name="oslash" unicode="&#xf8;" 
d="M424 497l-34 -61c17 -19 59 -78 59 -193c0 -140 -59 -257 -205 -257c-55 0 -87 20 -92 22l-31 -56c-2 -3 -4 -7 -7 -7s-6 1 -8 3l-32 16c-3 2 -7 4 -7 8c0 3 2 6 3 8l36 66c-14 18 -55 75 -55 191c0 139 59 257 203 257c54 0 84 -18 90 -21l29 51c2 4 5 7 8 7s5 -1 8 -2
l31 -17c4 -2 8 -4 8 -8c0 -3 -3 -5 -4 -7zM356 376l-172 -310c8 -4 29 -18 68 -18c91 0 121 79 121 202c0 36 -2 92 -17 126zM143 111l169 304c-4 3 -23 17 -62 17c-96 0 -125 -83 -125 -189c0 -44 2 -106 18 -132z" />
    <glyph glyph-name="oe" unicode="&#x153;" horiz-adv-x="778" 
d="M711 88l17 -42c1 -3 3 -5 3 -8c0 -11 -84 -52 -158 -52c-107 0 -144 53 -168 91c-14 -24 -54 -91 -163 -91c-136 0 -195 109 -195 252c0 139 60 256 202 256c96 0 136 -59 157 -89c37 65 102 89 154 89c157 0 182 -156 182 -242c0 -14 0 -22 -11 -22h-287
c0 -61 24 -177 138 -177c65 0 117 41 123 41c3 0 4 -3 6 -6zM248 48c91 0 118 79 118 197c0 98 -27 187 -120 187c-90 0 -117 -86 -117 -184c0 -117 27 -200 119 -200zM444 292h216c-4 63 -33 140 -104 140c-92 0 -112 -90 -112 -140z" />
    <glyph glyph-name="germandbls" unicode="&#xdf;" horiz-adv-x="556" 
d="M69 12v530c0 108 45 182 190 182c97 0 166 -44 166 -129c0 -112 -110 -134 -110 -192c0 -44 89 -84 135 -128c41 -39 63 -69 63 -126c0 -107 -60 -163 -162 -163c-48 0 -119 15 -119 29c0 6 2 11 4 16l10 36c1 5 4 7 7 7c9 0 51 -26 104 -26c59 0 83 35 83 89
c0 117 -201 129 -201 254c0 105 110 104 110 191c0 51 -38 80 -96 80c-79 0 -108 -37 -108 -122v-528c0 -10 -2 -12 -13 -12h-51c-8 0 -12 4 -12 12z" />
    <glyph glyph-name="onesuperior" unicode="&#xb9;" horiz-adv-x="352" 
d="M294 294v-24c0 -12 -3 -15 -15 -15h-175c-12 0 -15 3 -15 15v24c0 12 3 15 15 15h61v265l-83 -42c-3 -2 -6 -3 -9 -3c-6 0 -8 4 -11 9l-8 12c-2 3 -3 6 -3 9c0 6 5 9 8 11l119 73h34c12 0 16 -3 16 -15v-319h51c11 0 15 -3 15 -15z" />
    <glyph glyph-name="logicalnot" unicode="&#xac;" 
d="M477 344v-181c0 -8 -1 -14 -13 -14h-46c-12 0 -13 7 -13 14v123h-370c-12 0 -13 2 -13 14v44c0 12 1 14 13 14h428c12 0 14 -2 14 -14z" />
    <glyph glyph-name="mu" unicode="&#xb5;" horiz-adv-x="556" 
d="M421 467v-342c0 -23 1 -45 11 -66c6 -12 19 -32 19 -38c0 -4 -5 -6 -9 -8l-39 -24c-4 -2 -6 -3 -8 -3c-15 0 -26 36 -37 59c-32 -20 -76 -59 -129 -59c-30 0 -52 7 -80 28v-198c0 -7 -3 -11 -7 -12l-50 -12c-8 -2 -5 -1 -12 -2c-7 0 -7 8 -7 13v651c0 7 3 11 7 12l50 12
c8 2 5 1 12 2c7 0 7 -8 7 -13v-333c0 -43 17 -81 82 -81c31 0 95 33 114 51v350c0 7 3 11 7 12l50 12c8 2 5 1 12 2c7 0 7 -8 7 -13z" />
    <glyph glyph-name="trademark" unicode="&#x2122;" horiz-adv-x="704" 
d="M146 395v248h-73v42h190v-42h-74v-248h-43zM296 395v290h78l60 -228h2l59 228h80v-290h-43v262h-2l-68 -262h-53l-68 262h-2v-262h-43z" />
    <glyph glyph-name="Eth" unicode="&#xd0;" horiz-adv-x="556" 
d="M108 685h126c139 0 269 -33 269 -336c0 -238 -76 -349 -280 -349h-115c-8 0 -12 4 -12 12v312h-62c-11 0 -13 3 -13 14v38c0 10 1 13 13 13h62v284c0 8 4 12 12 12zM178 70h62c143 0 173 112 173 283c0 219 -63 262 -180 262h-55v-226h120c12 0 14 -1 14 -13v-38
c0 -12 -2 -14 -14 -14h-120v-254z" />
    <glyph glyph-name="onehalf" unicode="&#xbd;" horiz-adv-x="833" 
d="M549 640l-200 -644c-3 -8 -7 -10 -18 -10h-38c-8 0 -13 1 -13 7c0 3 2 6 2 9l199 645c1 6 8 10 15 10h42c7 0 13 -1 13 -8c0 -3 -2 -6 -2 -9zM303 294v-24c0 -12 -3 -15 -15 -15h-175c-12 0 -15 3 -15 15v24c0 12 3 15 15 15h61v265l-83 -42c-3 -2 -6 -3 -9 -3
c-6 0 -8 4 -11 9l-8 12c-2 3 -3 6 -3 9c0 6 5 9 8 11l119 73h34c12 0 16 -3 16 -15v-319h51c11 0 15 -3 15 -15zM761 44v-26c0 -14 -6 -18 -19 -18h-207c-10 0 -18 5 -18 16v5c0 142 93 173 145 214c21 16 31 30 31 54c0 32 -17 53 -52 53c-43 0 -57 -43 -61 -57
c-2 -5 -5 -11 -12 -11c-4 0 -7 1 -10 2l-27 7c-11 2 -13 8 -13 14c0 14 16 49 37 67c19 17 40 32 89 32c67 0 117 -37 117 -104c0 -85 -80 -115 -121 -146c-40 -31 -47 -56 -52 -84h154c13 0 19 -4 19 -18z" />
    <glyph glyph-name="plusminus" unicode="&#xb1;" 
d="M285 218v-144c0 -12 -1 -14 -13 -14h-46c-12 0 -13 2 -13 14v144h-178c-12 0 -13 2 -13 14v44c0 12 1 14 13 14h178v176c0 13 2 14 13 14h46c12 0 13 -1 13 -14v-176h178c12 0 14 -2 14 -14v-44c0 -12 -2 -14 -14 -14h-178zM477 8v-44c0 -12 -2 -14 -14 -14h-428
c-12 0 -13 2 -13 14v44c0 12 1 14 13 14h428c12 0 14 -2 14 -14z" />
    <glyph glyph-name="Thorn" unicode="&#xde;" 
d="M177 181v-169c0 -8 -4 -12 -12 -12h-58c-8 0 -12 4 -12 12v662c0 8 4 11 12 11h58c8 0 12 -3 12 -11v-103h84c77 0 203 -9 203 -179c0 -166 -111 -211 -216 -211h-71zM177 251h64c74 0 141 19 141 139c0 108 -72 111 -129 111h-76v-250z" />
    <glyph glyph-name="onequarter" unicode="&#xbc;" horiz-adv-x="833" 
d="M707 76v-75c0 -12 -3 -15 -15 -15h-31c-14 0 -17 3 -17 15v75h-161c-12 0 -15 3 -15 15v35l172 250c3 4 7 9 10 9c4 0 9 -1 14 -2l26 -4c6 -1 14 -3 14 -9c0 -4 -2 -8 -5 -12l-160 -230h105l7 87c1 10 5 14 17 14h24c12 0 15 -3 15 -15v-86h47c12 0 15 -3 15 -15v-22
c0 -12 -3 -15 -15 -15h-47zM545 640l-200 -644c-3 -8 -7 -10 -18 -10h-38c-8 0 -13 1 -13 7c0 3 2 6 2 9l199 645c1 6 8 10 15 10h42c7 0 13 -1 13 -8c0 -3 -2 -6 -2 -9zM299 294v-24c0 -12 -3 -15 -15 -15h-175c-12 0 -15 3 -15 15v24c0 12 3 15 15 15h61v265l-83 -42
c-3 -2 -6 -3 -9 -3c-6 0 -8 4 -11 9l-8 12c-2 3 -3 6 -3 9c0 6 5 9 8 11l119 73h34c12 0 16 -3 16 -15v-319h51c11 0 15 -3 15 -15z" />
    <glyph glyph-name="divide" unicode="&#xf7;" 
d="M305 427c0 -31 -26 -56 -56 -56c-31 0 -56 25 -56 56s25 56 56 56s56 -25 56 -56zM476 276v-44c0 -12 -2 -14 -14 -14h-427c-12 0 -13 2 -13 14v44c0 12 1 14 13 14h427c12 0 14 -2 14 -14zM305 81c0 -31 -26 -56 -56 -56c-31 0 -56 25 -56 56s25 56 56 56s56 -25 56 -56
z" />
    <glyph glyph-name="brokenbar" unicode="&#xa6;" horiz-adv-x="304" 
d="M188 661v-336h-72v336c0 10 2 14 13 14h46c12 0 13 -5 13 -14zM188 175v-336c0 -12 -1 -14 -13 -14h-46c-12 0 -13 2 -13 14v336h72z" />
    <glyph glyph-name="degree" unicode="&#xb0;" 
d="M404 531c0 -85 -70 -154 -154 -154c-85 0 -155 69 -155 154c0 86 70 154 155 154c84 0 154 -68 154 -154zM249 440c50 0 92 41 92 91s-42 91 -92 91c-49 0 -91 -40 -91 -91c0 -50 42 -91 91 -91z" />
    <glyph glyph-name="thorn" unicode="&#xfe;" horiz-adv-x="481" 
d="M156 378v-282c29 -20 64 -43 110 -43c86 0 94 98 94 195c0 84 -7 179 -88 179c-48 0 -94 -34 -116 -49zM156 30v-214c0 -7 -3 -11 -7 -12l-50 -12c-8 -2 -5 -1 -12 -2c-7 0 -7 8 -7 13v895c0 7 3 11 7 12l50 12c8 2 5 1 12 2c7 0 7 -8 7 -13v-263c20 11 62 46 130 46
c127 0 156 -120 156 -244c0 -144 -51 -264 -167 -264c-57 0 -94 27 -119 44z" />
    <glyph glyph-name="threequarters" unicode="&#xbe;" horiz-adv-x="833" 
d="M723 76v-75c0 -12 -3 -15 -15 -15h-31c-14 0 -17 3 -17 15v75h-161c-12 0 -15 3 -15 15v35l172 250c3 4 7 9 10 9c4 0 9 -1 14 -2l26 -4c6 -1 14 -3 14 -9c0 -4 -2 -8 -5 -12l-160 -230h105l7 87c1 10 5 14 17 14h24c12 0 15 -3 15 -15v-86h47c12 0 15 -3 15 -15v-22
c0 -12 -3 -15 -15 -15h-47zM561 640l-200 -644c-3 -8 -7 -10 -18 -10h-38c-8 0 -13 1 -13 7c0 3 2 6 2 9l199 645c1 6 8 10 15 10h42c7 0 13 -1 13 -8c0 -3 -2 -6 -2 -9zM90 565l-24 18c-2 2 -4 4 -4 8c0 16 52 60 118 60c63 0 119 -36 119 -101c0 -53 -38 -74 -54 -84
c23 -11 68 -35 68 -100c0 -73 -60 -119 -147 -119c-40 0 -114 14 -114 30c0 3 1 6 3 10l13 26c2 4 5 8 9 8c8 0 37 -20 91 -20c49 0 77 25 77 67c0 61 -57 65 -88 65h-22c-6 0 -15 0 -15 11v27c0 12 3 15 15 15h22c29 0 79 12 79 63c0 31 -27 48 -59 48
c-45 0 -67 -36 -79 -36c-3 0 -6 2 -8 4z" />
    <glyph glyph-name="twosuperior" unicode="&#xb2;" horiz-adv-x="352" 
d="M298 299v-26c0 -14 -6 -18 -19 -18h-207c-10 0 -18 5 -18 16v5c0 142 93 173 145 214c21 16 31 30 31 54c0 32 -17 53 -52 53c-43 0 -57 -43 -61 -57c-2 -5 -5 -11 -12 -11c-4 0 -7 1 -10 2l-27 7c-11 2 -13 8 -13 14c0 14 16 49 37 67c19 17 40 32 89 32
c67 0 117 -37 117 -104c0 -85 -80 -115 -121 -146c-40 -31 -47 -56 -52 -84h154c13 0 19 -4 19 -18z" />
    <glyph glyph-name="registered" unicode="&#xae;" horiz-adv-x="556" 
d="M278 229c-129 0 -235 105 -235 235c0 129 106 235 235 235s235 -106 235 -235c0 -130 -106 -235 -235 -235zM78 464c0 -110 90 -200 200 -200s200 90 200 200s-90 200 -200 200s-200 -90 -200 -200zM189 346v248h83c47 0 101 -8 101 -80c0 -44 -27 -53 -43 -61l46 -107
h-50l-39 100h-53v-100h-45zM234 551v-65h54c21 0 38 10 38 32s-15 33 -42 33h-50z" />
    <glyph glyph-name="minus" unicode="&#x2212;" 
d="M477 276v-44c0 -12 -2 -14 -14 -14h-428c-12 0 -13 2 -13 14v44c0 12 1 14 13 14h428c12 0 14 -2 14 -14z" />
    <glyph glyph-name="eth" unicode="&#xf0;" 
d="M412 669l-75 -36c23 -39 112 -193 112 -365c0 -144 -54 -282 -206 -282c-133 0 -192 109 -192 252c0 139 63 256 194 256c35 0 71 -15 95 -37l2 2c-18 45 -42 99 -67 142l-86 -42c-2 -1 -5 -3 -7 -3c-4 0 -6 3 -8 7l-12 23c-1 1 -2 5 -2 7c0 3 3 5 8 8l84 41
c-14 26 -39 61 -39 67c0 5 6 6 12 8l29 5c4 0 9 2 13 2c6 0 8 -2 12 -6c19 -20 30 -39 33 -44l79 38c2 0 5 3 8 3s5 -3 7 -7l11 -22c1 -2 2 -6 2 -8c0 -4 -3 -8 -7 -9zM251 48c89 0 116 81 116 196c0 98 -27 188 -117 188s-117 -86 -117 -185c0 -114 26 -199 118 -199z" />
    <glyph glyph-name="multiply" unicode="&#xd7;" 
d="M425 109l-32 -32c-3 -3 -6 -7 -10 -7s-7 3 -10 7l-124 127l-125 -127c-3 -4 -6 -7 -10 -7s-7 4 -10 7l-32 32c-2 2 -6 5 -6 9s3 7 6 10l127 126l-127 125c-4 3 -6 6 -6 10s2 7 6 10l32 31c3 3 6 7 10 7s7 -4 10 -7l125 -126l124 126c3 3 6 7 10 7s7 -4 10 -7l32 -31
c4 -3 6 -6 6 -10s-2 -7 -6 -10l-120 -125l120 -126c3 -3 6 -6 6 -10s-4 -7 -6 -9z" />
    <glyph glyph-name="threesuperior" unicode="&#xb3;" horiz-adv-x="352" 
d="M73 565l-24 18c-2 2 -4 4 -4 8c0 16 52 60 118 60c63 0 119 -36 119 -101c0 -53 -38 -74 -54 -84c23 -11 68 -35 68 -100c0 -73 -60 -119 -147 -119c-40 0 -114 14 -114 30c0 3 1 6 3 10l13 26c2 4 5 8 9 8c8 0 37 -20 91 -20c49 0 77 25 77 67c0 61 -57 65 -88 65h-22
c-6 0 -15 0 -15 11v27c0 12 3 15 15 15h22c29 0 79 12 79 63c0 31 -27 48 -59 48c-45 0 -67 -36 -79 -36c-3 0 -6 2 -8 4z" />
    <glyph glyph-name="copyright" unicode="&#xa9;" horiz-adv-x="556" 
d="M278 229c-130 0 -235 105 -235 235c0 129 105 235 235 235c129 0 235 -106 235 -235c0 -130 -106 -235 -235 -235zM78 464c0 -110 90 -200 200 -200s200 90 200 200s-90 200 -200 200s-200 -90 -200 -200zM358 405l26 -32c-11 -10 -38 -39 -95 -39
c-71 0 -136 57 -136 134s66 134 136 134c55 0 84 -29 95 -39l-26 -33c-12 11 -34 31 -69 31c-43 0 -93 -34 -93 -93c0 -62 51 -93 90 -93c42 0 60 19 72 30z" />
    <glyph glyph-name="Aacute" unicode="&#xc1;" horiz-adv-x="556" 
d="M359 274l-60 221c-8 31 -18 67 -23 95h-2c-4 -24 -14 -68 -21 -95l-61 -221h167zM322 674l201 -651c2 -7 4 -12 5 -17c0 -5 -4 -6 -14 -6h-62c-12 0 -16 4 -18 11l-56 193h-205l-51 -193c-2 -7 -6 -11 -18 -11h-62c-10 0 -14 1 -14 6c1 5 2 10 5 17l200 651
c3 10 4 11 15 11h59c8 0 11 0 15 -11zM372 843l-164 -85c-3 -2 -6 -3 -10 -3c-3 0 -6 3 -9 8l-9 14c-2 3 -5 7 -5 10s4 5 8 9l145 112c2 1 6 5 10 5s7 -5 10 -8l29 -43c2 -3 4 -6 4 -10s-4 -7 -9 -9z" />
    <glyph glyph-name="Acircumflex" unicode="&#xc2;" horiz-adv-x="556" 
d="M359 274l-60 221c-8 31 -18 67 -23 95h-2c-4 -24 -14 -68 -21 -95l-61 -221h167zM322 674l201 -651c2 -7 4 -12 5 -17c0 -5 -4 -6 -14 -6h-62c-12 0 -16 4 -18 11l-56 193h-205l-51 -193c-2 -7 -6 -11 -18 -11h-62c-10 0 -14 1 -14 6c1 5 2 10 5 17l200 651
c3 10 4 11 15 11h59c8 0 11 0 15 -11zM278 830l-91 -60c-2 -1 -6 -4 -9 -4c-4 0 -7 4 -10 8l-12 16c-2 3 -5 6 -5 9c0 4 4 6 8 10l110 88c3 2 6 5 9 5c4 0 7 -3 10 -5l110 -88c3 -3 7 -5 7 -9s-2 -7 -4 -10l-14 -18c-2 -3 -5 -5 -8 -5s-6 1 -9 3z" />
    <glyph glyph-name="Adieresis" unicode="&#xc4;" horiz-adv-x="556" 
d="M359 274l-60 221c-8 31 -18 67 -23 95h-2c-4 -24 -14 -68 -21 -95l-61 -221h167zM322 674l201 -651c2 -7 4 -12 5 -17c0 -5 -4 -6 -14 -6h-62c-12 0 -16 4 -18 11l-56 193h-205l-51 -193c-2 -7 -6 -11 -18 -11h-62c-10 0 -14 1 -14 6c1 5 2 10 5 17l200 651
c3 10 4 11 15 11h59c8 0 11 0 15 -11zM228 834c0 -29 -23 -53 -53 -53c-29 0 -53 24 -53 53s24 53 53 53c30 0 53 -24 53 -53zM319 834c0 29 24 53 53 53s53 -24 53 -53s-24 -53 -53 -53s-53 24 -53 53z" />
    <glyph glyph-name="Agrave" unicode="&#xc0;" horiz-adv-x="556" 
d="M359 274l-60 221c-8 31 -18 67 -23 95h-2c-4 -24 -14 -68 -21 -95l-61 -221h167zM322 674l201 -651c2 -7 4 -12 5 -17c0 -5 -4 -6 -14 -6h-62c-12 0 -16 4 -18 11l-56 193h-205l-51 -193c-2 -7 -6 -11 -18 -11h-62c-10 0 -14 1 -14 6c1 5 2 10 5 17l200 651
c3 10 4 11 15 11h59c8 0 11 0 15 -11zM228 908l145 -112c4 -4 8 -6 8 -9s-3 -7 -5 -10l-9 -14c-3 -5 -6 -8 -9 -8c-4 0 -7 1 -10 3l-164 85c-5 2 -9 5 -9 9s2 7 4 10l29 43c3 3 6 8 10 8s8 -4 10 -5z" />
    <glyph glyph-name="Aring" unicode="&#xc5;" horiz-adv-x="556" 
d="M359 274l-60 221c-8 31 -18 67 -23 95h-2c-4 -24 -14 -68 -21 -95l-61 -221h167zM322 674l201 -651c2 -7 4 -12 5 -17c0 -5 -4 -6 -14 -6h-62c-12 0 -16 4 -18 11l-56 193h-205l-51 -193c-2 -7 -6 -11 -18 -11h-62c-10 0 -14 1 -14 6c1 5 2 10 5 17l200 651
c3 10 4 11 15 11h59c8 0 11 0 15 -11zM367 834c0 -50 -40 -89 -89 -89s-88 40 -88 89c0 48 39 89 88 89c50 0 89 -40 89 -89zM278 791c23 0 41 20 41 43c0 22 -18 43 -41 43c-22 0 -40 -20 -40 -43c0 -24 18 -43 40 -43z" />
    <glyph glyph-name="Atilde" unicode="&#xc3;" horiz-adv-x="556" 
d="M359 274l-60 221c-8 31 -18 67 -23 95h-2c-4 -24 -14 -68 -21 -95l-61 -221h167zM322 674l201 -651c2 -7 4 -12 5 -17c0 -5 -4 -6 -14 -6h-62c-12 0 -16 4 -18 11l-56 193h-205l-51 -193c-2 -7 -6 -11 -18 -11h-62c-10 0 -14 1 -14 6c1 5 2 10 5 17l200 651
c3 10 4 11 15 11h59c8 0 11 0 15 -11zM392 882l27 -12c3 -2 7 -4 7 -8c0 -7 -28 -79 -92 -79c-23 0 -42 10 -60 21c-17 10 -34 20 -52 20c-31 0 -42 -39 -52 -39c-2 0 -4 1 -6 2l-27 11c-4 2 -8 5 -8 9s27 79 91 79c23 0 43 -10 61 -20c18 -11 34 -21 50 -21
c40 0 43 39 54 39c2 0 4 -1 7 -2z" />
    <glyph glyph-name="Ccedilla" unicode="&#xc7;" horiz-adv-x="463" 
d="M415 104l21 -27c4 -5 6 -9 6 -14c0 -15 -65 -71 -147 -76l-4 -41c30 -4 77 -10 77 -69c0 -55 -56 -80 -103 -80c-25 0 -60 7 -60 19c0 3 0 5 1 8l4 30c0 3 3 5 5 5c4 0 19 -8 52 -8c24 0 40 7 40 23c0 37 -77 9 -77 37c0 5 0 9 1 18l6 62c-136 26 -185 171 -185 358
c0 190 49 350 223 350c88 0 160 -61 160 -77c0 -5 -2 -9 -6 -14l-21 -27c-3 -4 -6 -8 -10 -8c-7 0 -63 59 -121 59c-108 0 -135 -103 -135 -273c0 -185 40 -306 142 -306c58 0 114 59 121 59c3 0 7 -5 10 -8z" />
    <glyph glyph-name="Eacute" unicode="&#xc9;" horiz-adv-x="463" 
d="M429 59v-45c0 -12 -3 -14 -14 -14h-308c-8 0 -12 4 -12 12v661c0 8 4 12 12 12h311c11 0 13 -3 13 -6s-2 -9 -3 -13l-14 -42c-3 -9 -6 -9 -15 -9h-222v-222h196c11 0 13 -2 13 -13v-44c0 -11 -2 -13 -13 -13h-196v-253h240c8 0 12 -4 12 -11zM351 843l-164 -85
c-3 -2 -6 -3 -10 -3c-3 0 -6 3 -9 8l-9 14c-2 3 -5 7 -5 10s4 5 8 9l145 112c2 1 6 5 10 5s7 -5 10 -8l29 -43c2 -3 4 -6 4 -10s-4 -7 -9 -9z" />
    <glyph glyph-name="Ecircumflex" unicode="&#xca;" horiz-adv-x="463" 
d="M429 59v-45c0 -12 -3 -14 -14 -14h-308c-8 0 -12 4 -12 12v661c0 8 4 12 12 12h311c11 0 13 -3 13 -6s-2 -9 -3 -13l-14 -42c-3 -9 -6 -9 -15 -9h-222v-222h196c11 0 13 -2 13 -13v-44c0 -11 -2 -13 -13 -13h-196v-253h240c8 0 12 -4 12 -11zM257 830l-91 -60
c-2 -1 -6 -4 -9 -4c-4 0 -7 4 -10 8l-12 16c-2 3 -5 6 -5 9c0 4 4 6 8 10l110 88c3 2 6 5 9 5c4 0 7 -3 10 -5l110 -88c3 -3 7 -5 7 -9s-2 -7 -4 -10l-14 -18c-2 -3 -5 -5 -8 -5s-6 1 -9 3z" />
    <glyph glyph-name="Edieresis" unicode="&#xcb;" horiz-adv-x="463" 
d="M429 59v-45c0 -12 -3 -14 -14 -14h-308c-8 0 -12 4 -12 12v661c0 8 4 12 12 12h311c11 0 13 -3 13 -6s-2 -9 -3 -13l-14 -42c-3 -9 -6 -9 -15 -9h-222v-222h196c11 0 13 -2 13 -13v-44c0 -11 -2 -13 -13 -13h-196v-253h240c8 0 12 -4 12 -11zM202 834
c0 -29 -23 -53 -53 -53c-29 0 -53 24 -53 53s24 53 53 53c30 0 53 -24 53 -53zM293 834c0 29 24 53 53 53s53 -24 53 -53s-24 -53 -53 -53s-53 24 -53 53z" />
    <glyph glyph-name="Egrave" unicode="&#xc8;" horiz-adv-x="463" 
d="M429 59v-45c0 -12 -3 -14 -14 -14h-308c-8 0 -12 4 -12 12v661c0 8 4 12 12 12h311c11 0 13 -3 13 -6s-2 -9 -3 -13l-14 -42c-3 -9 -6 -9 -15 -9h-222v-222h196c11 0 13 -2 13 -13v-44c0 -11 -2 -13 -13 -13h-196v-253h240c8 0 12 -4 12 -11zM202 908l145 -112
c4 -4 8 -6 8 -9s-3 -7 -5 -10l-9 -14c-3 -5 -6 -8 -9 -8c-4 0 -7 1 -10 3l-164 85c-5 2 -9 5 -9 9s2 7 4 10l29 43c3 3 6 8 10 8s8 -4 10 -5z" />
    <glyph glyph-name="Iacute" unicode="&#xcd;" horiz-adv-x="370" 
d="M329 53v-41c0 -8 -4 -12 -12 -12h-264c-8 0 -12 4 -12 12v41c0 8 4 12 12 12h91v555h-91c-8 0 -12 4 -12 12v41c0 8 4 12 12 12h264c8 0 12 -4 12 -12v-41c0 -8 -4 -12 -12 -12h-91v-555h91c8 0 12 -4 12 -12zM279 843l-164 -85c-3 -2 -6 -3 -10 -3c-3 0 -6 3 -9 8l-9 14
c-2 3 -5 7 -5 10s4 5 8 9l145 112c2 1 6 5 10 5s7 -5 10 -8l29 -43c2 -3 4 -6 4 -10s-4 -7 -9 -9z" />
    <glyph glyph-name="Icircumflex" unicode="&#xce;" horiz-adv-x="370" 
d="M329 53v-41c0 -8 -4 -12 -12 -12h-264c-8 0 -12 4 -12 12v41c0 8 4 12 12 12h91v555h-91c-8 0 -12 4 -12 12v41c0 8 4 12 12 12h264c8 0 12 -4 12 -12v-41c0 -8 -4 -12 -12 -12h-91v-555h91c8 0 12 -4 12 -12zM185 830l-91 -60c-2 -1 -6 -4 -9 -4c-4 0 -7 4 -10 8l-12 16
c-2 3 -5 6 -5 9c0 4 4 6 8 10l110 88c3 2 6 5 9 5c4 0 7 -3 10 -5l110 -88c3 -3 7 -5 7 -9s-2 -7 -4 -10l-14 -18c-2 -3 -5 -5 -8 -5s-6 1 -9 3z" />
    <glyph glyph-name="Idieresis" unicode="&#xcf;" horiz-adv-x="370" 
d="M329 53v-41c0 -8 -4 -12 -12 -12h-264c-8 0 -12 4 -12 12v41c0 8 4 12 12 12h91v555h-91c-8 0 -12 4 -12 12v41c0 8 4 12 12 12h264c8 0 12 -4 12 -12v-41c0 -8 -4 -12 -12 -12h-91v-555h91c8 0 12 -4 12 -12zM135 834c0 -29 -23 -53 -53 -53c-29 0 -53 24 -53 53
s24 53 53 53c30 0 53 -24 53 -53zM226 834c0 29 24 53 53 53s53 -24 53 -53s-24 -53 -53 -53s-53 24 -53 53z" />
    <glyph glyph-name="Igrave" unicode="&#xcc;" horiz-adv-x="370" 
d="M329 53v-41c0 -8 -4 -12 -12 -12h-264c-8 0 -12 4 -12 12v41c0 8 4 12 12 12h91v555h-91c-8 0 -12 4 -12 12v41c0 8 4 12 12 12h264c8 0 12 -4 12 -12v-41c0 -8 -4 -12 -12 -12h-91v-555h91c8 0 12 -4 12 -12zM135 908l145 -112c4 -4 8 -6 8 -9s-3 -7 -5 -10l-9 -14
c-3 -5 -6 -8 -9 -8c-4 0 -7 1 -10 3l-164 85c-5 2 -9 5 -9 9s2 7 4 10l29 43c3 3 6 8 10 8s8 -4 10 -5z" />
    <glyph glyph-name="Ntilde" unicode="&#xd1;" horiz-adv-x="574" 
d="M492 673v-661c0 -7 -4 -12 -12 -12h-56c-8 0 -12 3 -16 10l-230 494c-12 26 -22 59 -27 87l-2 -2c8 -38 10 -67 10 -89v-488c0 -8 -4 -12 -12 -12h-52c-8 0 -12 4 -12 12v661c0 7 4 12 12 12h68c8 0 12 -3 15 -9l221 -466c12 -25 15 -47 24 -77l2 2c-3 21 -9 43 -9 61
v477c0 8 4 12 12 12h52c8 0 12 -4 12 -12zM401 882l27 -12c3 -2 7 -4 7 -8c0 -7 -28 -79 -92 -79c-23 0 -42 10 -60 21c-17 10 -34 20 -52 20c-31 0 -42 -39 -52 -39c-2 0 -4 1 -6 2l-27 11c-4 2 -8 5 -8 9s27 79 91 79c23 0 43 -10 61 -20c18 -11 34 -21 50 -21
c40 0 43 39 54 39c2 0 4 -1 7 -2z" />
    <glyph glyph-name="Oacute" unicode="&#xd3;" horiz-adv-x="556" 
d="M504 343c0 -213 -66 -357 -226 -357c-161 0 -226 144 -226 357c0 214 66 356 226 356c159 0 226 -143 226 -356zM278 53c113 0 136 115 136 290c0 174 -24 289 -136 289c-111 0 -136 -115 -136 -289c0 -175 23 -290 136 -290zM377 843l-164 -85c-3 -2 -6 -3 -10 -3
c-3 0 -6 3 -9 8l-9 14c-2 3 -5 7 -5 10s4 5 8 9l145 112c2 1 6 5 10 5s7 -5 10 -8l29 -43c2 -3 4 -6 4 -10s-4 -7 -9 -9z" />
    <glyph glyph-name="Ocircumflex" unicode="&#xd4;" horiz-adv-x="556" 
d="M504 343c0 -213 -66 -357 -226 -357c-161 0 -226 144 -226 357c0 214 66 356 226 356c159 0 226 -143 226 -356zM278 53c113 0 136 115 136 290c0 174 -24 289 -136 289c-111 0 -136 -115 -136 -289c0 -175 23 -290 136 -290zM278 830l-91 -60c-2 -1 -6 -4 -9 -4
c-4 0 -7 4 -10 8l-12 16c-2 3 -5 6 -5 9c0 4 4 6 8 10l110 88c3 2 6 5 9 5c4 0 7 -3 10 -5l110 -88c3 -3 7 -5 7 -9s-2 -7 -4 -10l-14 -18c-2 -3 -5 -5 -8 -5s-6 1 -9 3z" />
    <glyph glyph-name="Odieresis" unicode="&#xd6;" horiz-adv-x="556" 
d="M504 343c0 -213 -66 -357 -226 -357c-161 0 -226 144 -226 357c0 214 66 356 226 356c159 0 226 -143 226 -356zM278 53c113 0 136 115 136 290c0 174 -24 289 -136 289c-111 0 -136 -115 -136 -289c0 -175 23 -290 136 -290zM228 834c0 -29 -23 -53 -53 -53
c-29 0 -53 24 -53 53s24 53 53 53c30 0 53 -24 53 -53zM319 834c0 29 24 53 53 53s53 -24 53 -53s-24 -53 -53 -53s-53 24 -53 53z" />
    <glyph glyph-name="Ograve" unicode="&#xd2;" horiz-adv-x="556" 
d="M504 343c0 -213 -66 -357 -226 -357c-161 0 -226 144 -226 357c0 214 66 356 226 356c159 0 226 -143 226 -356zM278 53c113 0 136 115 136 290c0 174 -24 289 -136 289c-111 0 -136 -115 -136 -289c0 -175 23 -290 136 -290zM228 908l145 -112c4 -4 8 -6 8 -9
s-3 -7 -5 -10l-9 -14c-3 -5 -6 -8 -9 -8c-4 0 -7 1 -10 3l-164 85c-5 2 -9 5 -9 9s2 7 4 10l29 43c3 3 6 8 10 8s8 -4 10 -5z" />
    <glyph glyph-name="Otilde" unicode="&#xd5;" horiz-adv-x="556" 
d="M504 343c0 -213 -66 -357 -226 -357c-161 0 -226 144 -226 357c0 214 66 356 226 356c159 0 226 -143 226 -356zM278 53c113 0 136 115 136 290c0 174 -24 289 -136 289c-111 0 -136 -115 -136 -289c0 -175 23 -290 136 -290zM392 882l27 -12c3 -2 7 -4 7 -8
c0 -7 -28 -79 -92 -79c-23 0 -42 10 -60 21c-17 10 -34 20 -52 20c-31 0 -42 -39 -52 -39c-2 0 -4 1 -6 2l-27 11c-4 2 -8 5 -8 9s27 79 91 79c23 0 43 -10 61 -20c18 -11 34 -21 50 -21c40 0 43 39 54 39c2 0 4 -1 7 -2z" />
    <glyph glyph-name="Scaron" unicode="&#x160;" horiz-adv-x="463" 
d="M405 633l-13 -33c-4 -8 -4 -13 -11 -13c-4 0 -9 2 -14 5c-19 10 -70 35 -127 35c-60 0 -106 -31 -106 -98c0 -105 131 -124 211 -190c54 -44 81 -91 81 -157c0 -122 -90 -196 -212 -196c-93 0 -167 43 -182 50c-5 2 -8 6 -8 11c0 3 3 8 4 12l13 33c3 8 5 13 11 13
c4 0 9 -2 14 -5c20 -9 81 -42 151 -42c75 0 119 47 119 114c0 166 -292 141 -292 348c0 115 95 179 199 179c80 0 144 -36 158 -43c5 -3 8 -8 8 -11s-3 -8 -4 -12zM109 878l14 18c3 3 4 5 7 5c4 0 7 -1 10 -3l92 -60l91 60c2 1 6 4 9 4c5 0 7 -4 10 -8l12 -16
c2 -3 5 -6 5 -9c0 -4 -4 -6 -8 -10l-110 -88c-3 -2 -6 -5 -9 -5c-4 0 -7 3 -10 5l-110 88c-3 3 -7 5 -7 9s2 7 4 10z" />
    <glyph glyph-name="Uacute" unicode="&#xda;" horiz-adv-x="593" 
d="M510 673v-489c0 -120 -67 -198 -220 -198c-151 0 -207 77 -207 198v489c0 8 4 12 12 12h58c8 0 12 -4 12 -12v-487c0 -82 32 -133 126 -133c92 0 137 42 137 133v487c0 8 4 12 12 12h58c8 0 12 -4 12 -12zM401 843l-164 -85c-3 -2 -6 -3 -10 -3c-3 0 -6 3 -9 8l-9 14
c-2 3 -5 7 -5 10s4 5 8 9l145 112c2 1 6 5 10 5s7 -5 10 -8l29 -43c2 -3 4 -6 4 -10s-4 -7 -9 -9z" />
    <glyph glyph-name="Ucircumflex" unicode="&#xdb;" horiz-adv-x="593" 
d="M510 673v-489c0 -120 -67 -198 -220 -198c-151 0 -207 77 -207 198v489c0 8 4 12 12 12h58c8 0 12 -4 12 -12v-487c0 -82 32 -133 126 -133c92 0 137 42 137 133v487c0 8 4 12 12 12h58c8 0 12 -4 12 -12zM297 830l-91 -60c-2 -1 -6 -4 -9 -4c-4 0 -7 4 -10 8l-12 16
c-2 3 -5 6 -5 9c0 4 4 6 8 10l110 88c3 2 6 5 9 5c4 0 7 -3 10 -5l110 -88c3 -3 7 -5 7 -9s-2 -7 -4 -10l-14 -18c-2 -3 -5 -5 -8 -5s-6 1 -9 3z" />
    <glyph glyph-name="Udieresis" unicode="&#xdc;" horiz-adv-x="593" 
d="M510 673v-489c0 -120 -67 -198 -220 -198c-151 0 -207 77 -207 198v489c0 8 4 12 12 12h58c8 0 12 -4 12 -12v-487c0 -82 32 -133 126 -133c92 0 137 42 137 133v487c0 8 4 12 12 12h58c8 0 12 -4 12 -12zM247 834c0 -29 -23 -53 -53 -53c-29 0 -53 24 -53 53
s24 53 53 53c30 0 53 -24 53 -53zM338 834c0 29 24 53 53 53s53 -24 53 -53s-24 -53 -53 -53s-53 24 -53 53z" />
    <glyph glyph-name="Ugrave" unicode="&#xd9;" horiz-adv-x="593" 
d="M510 673v-489c0 -120 -67 -198 -220 -198c-151 0 -207 77 -207 198v489c0 8 4 12 12 12h58c8 0 12 -4 12 -12v-487c0 -82 32 -133 126 -133c92 0 137 42 137 133v487c0 8 4 12 12 12h58c8 0 12 -4 12 -12zM247 908l145 -112c4 -4 8 -6 8 -9s-3 -7 -5 -10l-9 -14
c-3 -5 -6 -8 -9 -8c-4 0 -7 1 -10 3l-164 85c-5 2 -9 5 -9 9s2 7 4 10l29 43c3 3 6 8 10 8s8 -4 10 -5z" />
    <glyph glyph-name="Yacute" unicode="&#xdd;" horiz-adv-x="481" 
d="M281 291v-279c0 -8 -4 -12 -12 -12h-58c-8 0 -12 4 -12 12v277l-194 368c-2 4 -3 7 -3 10c0 7 6 8 12 10l58 14c3 1 6 1 9 1c6 0 8 -6 11 -13l126 -261c5 -11 18 -35 26 -52c10 25 18 43 28 62l121 251c3 7 5 13 11 13c3 0 6 -1 9 -1l58 -14c3 -1 12 -2 12 -10
c0 -3 -1 -6 -3 -10zM355 843l-164 -85c-3 -2 -6 -3 -10 -3c-3 0 -6 3 -9 8l-9 14c-2 3 -5 7 -5 10s4 5 8 9l145 112c2 1 6 5 10 5s7 -5 10 -8l29 -43c2 -3 4 -6 4 -10s-4 -7 -9 -9z" />
    <glyph glyph-name="Ydieresis" unicode="&#x178;" horiz-adv-x="481" 
d="M281 291v-279c0 -8 -4 -12 -12 -12h-58c-8 0 -12 4 -12 12v277l-194 368c-2 4 -3 7 -3 10c0 7 6 8 12 10l58 14c3 1 6 1 9 1c6 0 8 -6 11 -13l126 -261c5 -11 18 -35 26 -52c10 25 18 43 28 62l121 251c3 7 5 13 11 13c3 0 6 -1 9 -1l58 -14c3 -1 12 -2 12 -10
c0 -3 -1 -6 -3 -10zM191 834c0 -29 -23 -53 -53 -53c-29 0 -53 24 -53 53s24 53 53 53c30 0 53 -24 53 -53zM282 834c0 29 24 53 53 53s53 -24 53 -53s-24 -53 -53 -53s-53 24 -53 53z" />
    <glyph glyph-name="Zcaron" unicode="&#x17d;" horiz-adv-x="444" 
d="M427 52v-40c0 -9 -8 -12 -16 -12h-371c-11 0 -14 2 -14 14v52l294 549h-269c-7 0 -12 2 -12 8c0 4 3 8 4 13l14 38c3 8 9 11 16 11h330c11 0 13 -2 13 -13v-49l-296 -553h289c18 0 18 -7 18 -18zM99 878l14 18c3 3 4 5 7 5c4 0 7 -1 10 -3l92 -60l91 60c2 1 6 4 9 4
c5 0 7 -4 10 -8l12 -16c2 -3 5 -6 5 -9c0 -4 -4 -6 -8 -10l-110 -88c-3 -2 -6 -5 -9 -5c-4 0 -7 3 -10 5l-110 88c-3 3 -7 5 -7 9s2 7 4 10z" />
    <glyph glyph-name="aacute" unicode="&#xe1;" horiz-adv-x="463" 
d="M384 354v-196c0 -63 3 -72 12 -100c4 -12 18 -31 18 -37c0 -4 -5 -6 -9 -8l-39 -24c-4 -2 -6 -3 -8 -3c-15 0 -33 53 -38 67c-12 -11 -61 -67 -144 -67c-79 0 -130 52 -130 141c0 169 200 172 262 174v36c0 58 -18 90 -89 90c-67 0 -113 -32 -122 -32c-3 0 -6 2 -7 5
l-13 35c-2 5 -3 8 -3 13c0 17 92 46 156 46c115 0 154 -56 154 -140zM308 110v129c-44 -1 -187 -1 -187 -106c0 -40 22 -85 73 -85c52 0 98 48 114 62zM326 638l-164 -85c-3 -2 -6 -3 -10 -3c-3 0 -6 3 -9 8l-9 14c-2 3 -5 7 -5 10s4 5 8 9l145 112c2 1 6 5 10 5s7 -5 10 -8
l29 -43c2 -3 4 -6 4 -10s-4 -7 -9 -9z" />
    <glyph glyph-name="acircumflex" unicode="&#xe2;" horiz-adv-x="463" 
d="M384 354v-196c0 -63 3 -72 12 -100c4 -12 18 -31 18 -37c0 -4 -5 -6 -9 -8l-39 -24c-4 -2 -6 -3 -8 -3c-15 0 -33 53 -38 67c-12 -11 -61 -67 -144 -67c-79 0 -130 52 -130 141c0 169 200 172 262 174v36c0 58 -18 90 -89 90c-67 0 -113 -32 -122 -32c-3 0 -6 2 -7 5
l-13 35c-2 5 -3 8 -3 13c0 17 92 46 156 46c115 0 154 -56 154 -140zM308 110v129c-44 -1 -187 -1 -187 -106c0 -40 22 -85 73 -85c52 0 98 48 114 62zM232 625l-91 -60c-2 -1 -6 -4 -9 -4c-4 0 -7 4 -10 8l-12 16c-2 3 -5 6 -5 9c0 4 4 6 8 10l110 88c3 2 6 5 9 5
c4 0 7 -3 10 -5l110 -88c3 -3 7 -5 7 -9s-2 -7 -4 -10l-14 -18c-2 -3 -5 -5 -8 -5s-6 1 -9 3z" />
    <glyph glyph-name="adieresis" unicode="&#xe4;" horiz-adv-x="463" 
d="M384 354v-196c0 -63 3 -72 12 -100c4 -12 18 -31 18 -37c0 -4 -5 -6 -9 -8l-39 -24c-4 -2 -6 -3 -8 -3c-15 0 -33 53 -38 67c-12 -11 -61 -67 -144 -67c-79 0 -130 52 -130 141c0 169 200 172 262 174v36c0 58 -18 90 -89 90c-67 0 -113 -32 -122 -32c-3 0 -6 2 -7 5
l-13 35c-2 5 -3 8 -3 13c0 17 92 46 156 46c115 0 154 -56 154 -140zM308 110v129c-44 -1 -187 -1 -187 -106c0 -40 22 -85 73 -85c52 0 98 48 114 62zM182 629c0 -29 -23 -53 -53 -53c-29 0 -53 24 -53 53s24 53 53 53c30 0 53 -24 53 -53zM273 629c0 29 24 53 53 53
s53 -24 53 -53s-24 -53 -53 -53s-53 24 -53 53z" />
    <glyph glyph-name="agrave" unicode="&#xe0;" horiz-adv-x="463" 
d="M384 354v-196c0 -63 3 -72 12 -100c4 -12 18 -31 18 -37c0 -4 -5 -6 -9 -8l-39 -24c-4 -2 -6 -3 -8 -3c-15 0 -33 53 -38 67c-12 -11 -61 -67 -144 -67c-79 0 -130 52 -130 141c0 169 200 172 262 174v36c0 58 -18 90 -89 90c-67 0 -113 -32 -122 -32c-3 0 -6 2 -7 5
l-13 35c-2 5 -3 8 -3 13c0 17 92 46 156 46c115 0 154 -56 154 -140zM308 110v129c-44 -1 -187 -1 -187 -106c0 -40 22 -85 73 -85c52 0 98 48 114 62zM182 703l145 -112c4 -4 8 -6 8 -9s-3 -7 -5 -10l-9 -14c-3 -5 -6 -8 -9 -8c-4 0 -7 1 -10 3l-164 85c-5 2 -9 5 -9 9
s2 7 4 10l29 43c3 3 6 8 10 8s8 -4 10 -5z" />
    <glyph glyph-name="aring" unicode="&#xe5;" horiz-adv-x="463" 
d="M384 354v-196c0 -63 3 -72 12 -100c4 -12 18 -31 18 -37c0 -4 -5 -6 -9 -8l-39 -24c-4 -2 -6 -3 -8 -3c-15 0 -33 53 -38 67c-12 -11 -61 -67 -144 -67c-79 0 -130 52 -130 141c0 169 200 172 262 174v36c0 58 -18 90 -89 90c-67 0 -113 -32 -122 -32c-3 0 -6 2 -7 5
l-13 35c-2 5 -3 8 -3 13c0 17 92 46 156 46c115 0 154 -56 154 -140zM308 110v129c-44 -1 -187 -1 -187 -106c0 -40 22 -85 73 -85c52 0 98 48 114 62zM321 629c0 -50 -40 -89 -89 -89s-88 40 -88 89c0 48 39 89 88 89c50 0 89 -40 89 -89zM232 586c23 0 41 20 41 43
c0 22 -18 43 -41 43c-22 0 -40 -20 -40 -43c0 -24 18 -43 40 -43z" />
    <glyph glyph-name="atilde" unicode="&#xe3;" horiz-adv-x="463" 
d="M384 354v-196c0 -63 3 -72 12 -100c4 -12 18 -31 18 -37c0 -4 -5 -6 -9 -8l-39 -24c-4 -2 -6 -3 -8 -3c-15 0 -33 53 -38 67c-12 -11 -61 -67 -144 -67c-79 0 -130 52 -130 141c0 169 200 172 262 174v36c0 58 -18 90 -89 90c-67 0 -113 -32 -122 -32c-3 0 -6 2 -7 5
l-13 35c-2 5 -3 8 -3 13c0 17 92 46 156 46c115 0 154 -56 154 -140zM308 110v129c-44 -1 -187 -1 -187 -106c0 -40 22 -85 73 -85c52 0 98 48 114 62zM346 677l27 -12c3 -2 7 -4 7 -8c0 -7 -28 -79 -92 -79c-23 0 -42 10 -60 21c-17 10 -34 20 -52 20
c-31 0 -42 -39 -52 -39c-2 0 -4 1 -6 2l-27 11c-4 2 -8 5 -8 9s27 79 91 79c23 0 43 -10 61 -20c18 -11 34 -21 50 -21c40 0 43 39 54 39c2 0 4 -1 7 -2z" />
    <glyph glyph-name="ccedilla" unicode="&#xe7;" horiz-adv-x="426" 
d="M399 424l-23 -42c-2 -3 -3 -6 -6 -6c-4 0 -47 51 -106 51c-99 0 -127 -72 -127 -187c0 -91 18 -187 115 -187c65 0 117 41 123 41c3 0 4 -3 6 -6l17 -42c1 -3 3 -5 3 -8c0 -8 -71 -47 -137 -52l-4 -40c29 -4 77 -9 77 -65c0 -54 -56 -79 -103 -79c-25 0 -60 7 -60 19
c0 3 0 5 1 8l4 30c0 3 3 5 5 5c4 0 19 -8 52 -8c24 0 40 7 40 23c0 37 -78 9 -78 37c0 3 0 8 1 13l7 59c-89 15 -151 96 -151 237c0 167 80 269 203 269c67 0 144 -47 144 -62c0 -3 -2 -5 -3 -8z" />
    <glyph glyph-name="eacute" unicode="&#xe9;" horiz-adv-x="463" 
d="M124 286h216c0 52 -17 146 -104 146c-92 0 -112 -96 -112 -146zM391 88l17 -42c1 -3 3 -5 3 -8c0 -11 -84 -52 -158 -52c-133 1 -211 102 -211 254c0 147 74 254 198 254c167 0 182 -162 182 -248c0 -14 0 -22 -11 -22h-287c0 -61 24 -171 138 -171c65 0 117 41 123 41
c3 0 4 -3 6 -6zM326 638l-164 -85c-3 -2 -6 -3 -10 -3c-3 0 -6 3 -9 8l-9 14c-2 3 -5 7 -5 10s4 5 8 9l145 112c2 1 6 5 10 5s7 -5 10 -8l29 -43c2 -3 4 -6 4 -10s-4 -7 -9 -9z" />
    <glyph glyph-name="ecircumflex" unicode="&#xea;" horiz-adv-x="463" 
d="M124 286h216c0 52 -17 146 -104 146c-92 0 -112 -96 -112 -146zM391 88l17 -42c1 -3 3 -5 3 -8c0 -11 -84 -52 -158 -52c-133 1 -211 102 -211 254c0 147 74 254 198 254c167 0 182 -162 182 -248c0 -14 0 -22 -11 -22h-287c0 -61 24 -171 138 -171c65 0 117 41 123 41
c3 0 4 -3 6 -6zM232 625l-91 -60c-2 -1 -6 -4 -9 -4c-4 0 -7 4 -10 8l-12 16c-2 3 -5 6 -5 9c0 4 4 6 8 10l110 88c3 2 6 5 9 5c4 0 7 -3 10 -5l110 -88c3 -3 7 -5 7 -9s-2 -7 -4 -10l-14 -18c-2 -3 -5 -5 -8 -5s-6 1 -9 3z" />
    <glyph glyph-name="edieresis" unicode="&#xeb;" horiz-adv-x="463" 
d="M124 286h216c0 52 -17 146 -104 146c-92 0 -112 -96 -112 -146zM391 88l17 -42c1 -3 3 -5 3 -8c0 -11 -84 -52 -158 -52c-133 1 -211 102 -211 254c0 147 74 254 198 254c167 0 182 -162 182 -248c0 -14 0 -22 -11 -22h-287c0 -61 24 -171 138 -171c65 0 117 41 123 41
c3 0 4 -3 6 -6zM182 629c0 -29 -23 -53 -53 -53c-29 0 -53 24 -53 53s24 53 53 53c30 0 53 -24 53 -53zM273 629c0 29 24 53 53 53s53 -24 53 -53s-24 -53 -53 -53s-53 24 -53 53z" />
    <glyph glyph-name="egrave" unicode="&#xe8;" horiz-adv-x="463" 
d="M124 286h216c0 52 -17 146 -104 146c-92 0 -112 -96 -112 -146zM391 88l17 -42c1 -3 3 -5 3 -8c0 -11 -84 -52 -158 -52c-133 1 -211 102 -211 254c0 147 74 254 198 254c167 0 182 -162 182 -248c0 -14 0 -22 -11 -22h-287c0 -61 24 -171 138 -171c65 0 117 41 123 41
c3 0 4 -3 6 -6zM182 703l145 -112c4 -4 8 -6 8 -9s-3 -7 -5 -10l-9 -14c-3 -5 -6 -8 -9 -8c-4 0 -7 1 -10 3l-164 85c-5 2 -9 5 -9 9s2 7 4 10l29 43c3 3 6 8 10 8s8 -4 10 -5z" />
    <glyph glyph-name="iacute" unicode="&#xed;" horiz-adv-x="278" 
d="M190 465v-453c0 -8 -4 -12 -12 -12h-52c-8 0 -12 4 -12 12v406h-79c-8 0 -12 4 -12 12v38c0 8 4 12 12 12h142c11 0 13 -6 13 -15zM233 638l-164 -85c-3 -2 -6 -3 -10 -3c-3 0 -6 3 -9 8l-9 14c-2 3 -5 7 -5 10s4 5 8 9l145 112c2 1 6 5 10 5s7 -5 10 -8l29 -43
c2 -3 4 -6 4 -10s-4 -7 -9 -9z" />
    <glyph glyph-name="icircumflex" unicode="&#xee;" horiz-adv-x="278" 
d="M190 465v-453c0 -8 -4 -12 -12 -12h-52c-8 0 -12 4 -12 12v406h-79c-8 0 -12 4 -12 12v38c0 8 4 12 12 12h142c11 0 13 -6 13 -15zM139 625l-91 -60c-2 -1 -6 -4 -9 -4c-4 0 -7 4 -10 8l-12 16c-2 3 -5 6 -5 9c0 4 4 6 8 10l110 88c3 2 6 5 9 5c4 0 7 -3 10 -5l110 -88
c3 -3 7 -5 7 -9s-2 -7 -4 -10l-14 -18c-2 -3 -5 -5 -8 -5s-6 1 -9 3z" />
    <glyph glyph-name="idieresis" unicode="&#xef;" horiz-adv-x="278" 
d="M190 465v-453c0 -8 -4 -12 -12 -12h-52c-8 0 -12 4 -12 12v406h-79c-8 0 -12 4 -12 12v38c0 8 4 12 12 12h142c11 0 13 -6 13 -15zM89 629c0 -29 -23 -53 -53 -53c-29 0 -53 24 -53 53s24 53 53 53c30 0 53 -24 53 -53zM180 629c0 29 24 53 53 53s53 -24 53 -53
s-24 -53 -53 -53s-53 24 -53 53z" />
    <glyph glyph-name="igrave" unicode="&#xec;" horiz-adv-x="278" 
d="M190 465v-453c0 -8 -4 -12 -12 -12h-52c-8 0 -12 4 -12 12v406h-79c-8 0 -12 4 -12 12v38c0 8 4 12 12 12h142c11 0 13 -6 13 -15zM89 703l145 -112c4 -4 8 -6 8 -9s-3 -7 -5 -10l-9 -14c-3 -5 -6 -8 -9 -8c-4 0 -7 1 -10 3l-164 85c-5 2 -9 5 -9 9s2 7 4 10l29 43
c3 3 6 8 10 8s8 -4 10 -5z" />
    <glyph glyph-name="ntilde" unicode="&#xf1;" horiz-adv-x="519" 
d="M436 344v-332c0 -8 -4 -12 -12 -12h-52c-8 0 -12 4 -12 12v334c0 43 -11 81 -65 81c-65 0 -107 -39 -132 -61v-354c0 -8 -4 -12 -12 -12h-52c-8 0 -12 4 -12 12v345c0 33 0 44 -4 59c-8 30 -16 37 -16 42c0 2 1 4 5 7l45 25c2 1 5 4 8 4c18 0 30 -60 31 -68
c33 26 85 68 161 68c111 0 119 -78 119 -150zM364 677l27 -12c3 -2 7 -4 7 -8c0 -7 -28 -79 -92 -79c-23 0 -42 10 -60 21c-17 10 -34 20 -52 20c-31 0 -42 -39 -52 -39c-2 0 -4 1 -6 2l-27 11c-4 2 -8 5 -8 9s27 79 91 79c23 0 43 -10 61 -20c18 -11 34 -21 50 -21
c40 0 43 39 54 39c2 0 4 -1 7 -2z" />
    <glyph glyph-name="oacute" unicode="&#xf3;" 
d="M449 243c0 -140 -59 -257 -205 -257c-135 0 -193 109 -193 252c0 138 58 256 203 256c137 0 195 -110 195 -251zM251 48c89 0 116 81 116 196c0 98 -27 188 -117 188s-117 -86 -117 -185c0 -114 26 -199 118 -199zM344 638l-164 -85c-3 -2 -6 -3 -10 -3c-3 0 -6 3 -9 8
l-9 14c-2 3 -5 7 -5 10s4 5 8 9l145 112c2 1 6 5 10 5s7 -5 10 -8l29 -43c2 -3 4 -6 4 -10s-4 -7 -9 -9z" />
    <glyph glyph-name="ocircumflex" unicode="&#xf4;" 
d="M449 243c0 -140 -59 -257 -205 -257c-135 0 -193 109 -193 252c0 138 58 256 203 256c137 0 195 -110 195 -251zM251 48c89 0 116 81 116 196c0 98 -27 188 -117 188s-117 -86 -117 -185c0 -114 26 -199 118 -199zM250 625l-91 -60c-2 -1 -6 -4 -9 -4c-4 0 -7 4 -10 8
l-12 16c-2 3 -5 6 -5 9c0 4 4 6 8 10l110 88c3 2 6 5 9 5c4 0 7 -3 10 -5l110 -88c3 -3 7 -5 7 -9s-2 -7 -4 -10l-14 -18c-2 -3 -5 -5 -8 -5s-6 1 -9 3z" />
    <glyph glyph-name="odieresis" unicode="&#xf6;" 
d="M449 243c0 -140 -59 -257 -205 -257c-135 0 -193 109 -193 252c0 138 58 256 203 256c137 0 195 -110 195 -251zM251 48c89 0 116 81 116 196c0 98 -27 188 -117 188s-117 -86 -117 -185c0 -114 26 -199 118 -199zM200 629c0 -29 -23 -53 -53 -53c-29 0 -53 24 -53 53
s24 53 53 53c30 0 53 -24 53 -53zM291 629c0 29 24 53 53 53s53 -24 53 -53s-24 -53 -53 -53s-53 24 -53 53z" />
    <glyph glyph-name="ograve" unicode="&#xf2;" 
d="M449 243c0 -140 -59 -257 -205 -257c-135 0 -193 109 -193 252c0 138 58 256 203 256c137 0 195 -110 195 -251zM251 48c89 0 116 81 116 196c0 98 -27 188 -117 188s-117 -86 -117 -185c0 -114 26 -199 118 -199zM200 703l145 -112c4 -4 8 -6 8 -9s-3 -7 -5 -10l-9 -14
c-3 -5 -6 -8 -9 -8c-4 0 -7 1 -10 3l-164 85c-5 2 -9 5 -9 9s2 7 4 10l29 43c3 3 6 8 10 8s8 -4 10 -5z" />
    <glyph glyph-name="otilde" unicode="&#xf5;" 
d="M449 243c0 -140 -59 -257 -205 -257c-135 0 -193 109 -193 252c0 138 58 256 203 256c137 0 195 -110 195 -251zM251 48c89 0 116 81 116 196c0 98 -27 188 -117 188s-117 -86 -117 -185c0 -114 26 -199 118 -199zM364 677l27 -12c3 -2 7 -4 7 -8c0 -7 -28 -79 -92 -79
c-23 0 -42 10 -60 21c-17 10 -34 20 -52 20c-31 0 -42 -39 -52 -39c-2 0 -4 1 -6 2l-27 11c-4 2 -8 5 -8 9s27 79 91 79c23 0 43 -10 61 -20c18 -11 34 -21 50 -21c40 0 43 39 54 39c2 0 4 -1 7 -2z" />
    <glyph glyph-name="scaron" unicode="&#x161;" horiz-adv-x="389" 
d="M325 441l-13 -27c-4 -8 -6 -12 -12 -12c-7 0 -49 27 -101 27c-40 0 -74 -20 -74 -66c0 -110 222 -79 222 -235c0 -94 -74 -142 -160 -142c-48 0 -152 28 -152 48c0 5 2 8 4 12l14 31c3 7 6 9 9 9c9 0 61 -35 129 -35c43 0 80 24 80 72c0 104 -222 81 -222 232
c0 81 63 139 151 139c34 0 92 -16 118 -30c8 -4 11 -8 11 -13c0 -3 -3 -6 -4 -10zM72 673l14 18c3 3 4 5 7 5c4 0 7 -1 10 -3l92 -60l91 60c2 1 6 4 9 4c5 0 7 -4 10 -8l12 -16c2 -3 5 -6 5 -9c0 -4 -4 -6 -8 -10l-110 -88c-3 -2 -6 -5 -9 -5c-4 0 -7 3 -10 5l-110 88
c-3 3 -7 5 -7 9s2 7 4 10z" />
    <glyph glyph-name="uacute" unicode="&#xfa;" 
d="M345 104v364c0 7 3 11 7 12l50 12c8 2 5 1 12 2c7 0 7 -8 7 -13v-356c0 -23 1 -45 11 -66c6 -12 19 -32 19 -38c0 -4 -5 -6 -9 -8l-39 -24c-4 -2 -6 -3 -8 -3c-15 0 -26 36 -37 59c-28 -23 -82 -59 -139 -59c-135 0 -146 78 -146 150v332c0 7 3 11 7 12l50 12
c8 2 5 1 12 2c7 0 7 -8 7 -13v-347c0 -43 17 -81 82 -81c31 0 95 33 114 51zM359 638l-164 -85c-3 -2 -6 -3 -10 -3c-3 0 -6 3 -9 8l-9 14c-2 3 -5 7 -5 10s4 5 8 9l145 112c2 1 6 5 10 5s7 -5 10 -8l29 -43c2 -3 4 -6 4 -10s-4 -7 -9 -9z" />
    <glyph glyph-name="ucircumflex" unicode="&#xfb;" 
d="M345 104v364c0 7 3 11 7 12l50 12c8 2 5 1 12 2c7 0 7 -8 7 -13v-356c0 -23 1 -45 11 -66c6 -12 19 -32 19 -38c0 -4 -5 -6 -9 -8l-39 -24c-4 -2 -6 -3 -8 -3c-15 0 -26 36 -37 59c-28 -23 -82 -59 -139 -59c-135 0 -146 78 -146 150v332c0 7 3 11 7 12l50 12
c8 2 5 1 12 2c7 0 7 -8 7 -13v-347c0 -43 17 -81 82 -81c31 0 95 33 114 51zM250 625l-91 -60c-2 -1 -6 -4 -9 -4c-4 0 -7 4 -10 8l-12 16c-2 3 -5 6 -5 9c0 4 4 6 8 10l110 88c3 2 6 5 9 5c4 0 7 -3 10 -5l110 -88c3 -3 7 -5 7 -9s-2 -7 -4 -10l-14 -18c-2 -3 -5 -5 -8 -5
s-6 1 -9 3z" />
    <glyph glyph-name="udieresis" unicode="&#xfc;" 
d="M345 104v364c0 7 3 11 7 12l50 12c8 2 5 1 12 2c7 0 7 -8 7 -13v-356c0 -23 1 -45 11 -66c6 -12 19 -32 19 -38c0 -4 -5 -6 -9 -8l-39 -24c-4 -2 -6 -3 -8 -3c-15 0 -26 36 -37 59c-28 -23 -82 -59 -139 -59c-135 0 -146 78 -146 150v332c0 7 3 11 7 12l50 12
c8 2 5 1 12 2c7 0 7 -8 7 -13v-347c0 -43 17 -81 82 -81c31 0 95 33 114 51zM200 629c0 -29 -23 -53 -53 -53c-29 0 -53 24 -53 53s24 53 53 53c30 0 53 -24 53 -53zM291 629c0 29 24 53 53 53s53 -24 53 -53s-24 -53 -53 -53s-53 24 -53 53z" />
    <glyph glyph-name="ugrave" unicode="&#xf9;" 
d="M345 104v364c0 7 3 11 7 12l50 12c8 2 5 1 12 2c7 0 7 -8 7 -13v-356c0 -23 1 -45 11 -66c6 -12 19 -32 19 -38c0 -4 -5 -6 -9 -8l-39 -24c-4 -2 -6 -3 -8 -3c-15 0 -26 36 -37 59c-28 -23 -82 -59 -139 -59c-135 0 -146 78 -146 150v332c0 7 3 11 7 12l50 12
c8 2 5 1 12 2c7 0 7 -8 7 -13v-347c0 -43 17 -81 82 -81c31 0 95 33 114 51zM200 703l145 -112c4 -4 8 -6 8 -9s-3 -7 -5 -10l-9 -14c-3 -5 -6 -8 -9 -8c-4 0 -7 1 -10 3l-164 85c-5 2 -9 5 -9 9s2 7 4 10l29 43c3 3 6 8 10 8s8 -4 10 -5z" />
    <glyph glyph-name="yacute" unicode="&#xfd;" horiz-adv-x="444" 
d="M427 444l-114 -382c-16 -55 -39 -136 -69 -199c-20 -42 -63 -73 -118 -73c-57 0 -126 35 -126 50c0 2 1 4 2 6l20 40c1 3 4 5 7 5c11 0 47 -39 96 -39c37 0 60 37 76 85l21 63h-36c-9 0 -11 2 -13 9l-155 435c-1 5 -3 8 -2 14c0 5 4 6 8 8l42 17c5 2 10 4 14 4
c7 0 9 -3 11 -8l126 -378c10 -29 15 -51 20 -72h2c4 24 9 46 15 70l100 380c1 5 5 8 11 8c4 0 9 -2 14 -4l42 -17c4 -2 8 -3 8 -8c0 -6 -1 -9 -2 -14zM326 638l-164 -85c-3 -2 -6 -3 -10 -3c-3 0 -6 3 -9 8l-9 14c-2 3 -5 7 -5 10s4 5 8 9l145 112c2 1 6 5 10 5s7 -5 10 -8
l29 -43c2 -3 4 -6 4 -10s-4 -7 -9 -9z" />
    <glyph glyph-name="ydieresis" unicode="&#xff;" horiz-adv-x="444" 
d="M427 444l-114 -382c-16 -55 -39 -136 -69 -199c-20 -42 -63 -73 -118 -73c-57 0 -126 35 -126 50c0 2 1 4 2 6l20 40c1 3 4 5 7 5c11 0 47 -39 96 -39c37 0 60 37 76 85l21 63h-36c-9 0 -11 2 -13 9l-155 435c-1 5 -3 8 -2 14c0 5 4 6 8 8l42 17c5 2 10 4 14 4
c7 0 9 -3 11 -8l126 -378c10 -29 15 -51 20 -72h2c4 24 9 46 15 70l100 380c1 5 5 8 11 8c4 0 9 -2 14 -4l42 -17c4 -2 8 -3 8 -8c0 -6 -1 -9 -2 -14zM172 629c0 -29 -23 -53 -53 -53c-29 0 -53 24 -53 53s24 53 53 53c30 0 53 -24 53 -53zM263 629c0 29 24 53 53 53
s53 -24 53 -53s-24 -53 -53 -53s-53 24 -53 53z" />
    <glyph glyph-name="zcaron" unicode="&#x17e;" horiz-adv-x="407" 
d="M379 427l-249 -362h247c9 0 14 -1 14 -4s-2 -6 -4 -11l-18 -41c-3 -8 -7 -9 -13 -9h-312c-10 0 -11 1 -11 12v40l251 363h-219c-8 0 -12 4 -12 12v41c0 10 2 12 12 12h302c10 0 12 -2 12 -12v-41zM81 673l14 18c3 3 4 5 7 5c4 0 7 -1 10 -3l92 -60l91 60c2 1 6 4 9 4
c5 0 7 -4 10 -8l12 -16c2 -3 5 -6 5 -9c0 -4 -4 -6 -8 -10l-110 -88c-3 -2 -6 -5 -9 -5c-4 0 -7 3 -10 5l-110 88c-3 3 -7 5 -7 9s2 7 4 10z" />
    <glyph glyph-name="Omega" unicode="&#x2126;" horiz-adv-x="645" 
d="M176 61v3c-63 58 -121 157 -121 285c0 180 116 308 270 308c163 0 263 -145 263 -303c0 -133 -61 -237 -122 -290v-3h135v-61h-219v45c67 46 132 147 132 294c0 121 -64 255 -190 255c-119 0 -194 -113 -194 -257c0 -137 65 -248 131 -292v-45h-218v61h133z" />
    <glyph glyph-name="pi" unicode="&#x3c0;" horiz-adv-x="517" 
d="M493 418h-71v-283c0 -75 6 -110 13 -135h-71c-9 16 -15 55 -15 130v288h-159c-5 -118 -31 -328 -65 -418h-72c34 101 61 296 65 418c-55 0 -80 -4 -99 -11l-11 49c23 15 62 26 132 26h360z" />
    <glyph glyph-name="Euro" unicode="&#x20ac;" 
d="M369 261c0 -8 -2 -11 -12 -11h-175c13 -124 56 -197 146 -197c66 0 102 52 118 52c9 0 10 -5 13 -8l21 -25c4 -5 6 -9 6 -14c0 -15 -72 -72 -160 -72c-146 0 -211 109 -226 264h-65c-10 0 -12 3 -12 11v19c0 12 0 17 15 17h59c0 10 -1 21 -1 31c0 12 1 23 1 35h-62
c-10 0 -12 3 -12 11v19c0 12 0 17 15 17h62c15 140 72 247 219 247c88 0 160 -57 160 -72c0 -5 -2 -9 -6 -14l-21 -25c-3 -4 -13 -8 -13 -8c-17 0 -60 52 -118 52c-93 0 -130 -65 -140 -180h173c15 0 15 -5 15 -17v-19c0 -8 -2 -11 -12 -11h-179v-26c0 -14 0 -27 1 -40h175
c15 0 15 -5 15 -17v-19z" />
    <glyph glyph-name="estimated" unicode="&#x212e;" horiz-adv-x="809" 
d="M777 312h-604c-3 0 -5 -1 -5 -4v-183c0 -7 3 -14 8 -20c59 -61 139 -100 228 -100c97 0 182 44 241 112h53c-66 -79 -174 -130 -295 -130c-205 0 -372 149 -372 334c0 186 167 336 372 336c207 0 374 -150 374 -336v-9zM640 336v184c0 7 -3 15 -9 21
c-59 58 -138 96 -227 96c-88 0 -168 -39 -227 -99c-6 -6 -9 -14 -9 -22v-180c0 -2 2 -6 5 -6h463c3 0 4 4 4 6z" />
    <glyph glyph-name="partialdiff" unicode="&#x2202;" horiz-adv-x="495" 
d="M92 617l-24 55c29 24 77 51 152 51c118 0 230 -111 230 -349c0 -222 -82 -384 -237 -384c-118 0 -175 108 -175 214c0 146 91 237 193 237c81 0 131 -57 146 -84c1 10 1 28 1 38c0 157 -74 267 -166 267c-56 0 -95 -24 -120 -45zM219 52h1c84 0 137 112 149 232
c-13 40 -59 97 -126 97c-73 0 -132 -81 -132 -177c0 -88 42 -152 108 -152z" />
    <glyph glyph-name="product" unicode="&#x220f;" horiz-adv-x="632" 
d="M608 579h-97v-668h-72v668h-246v-668h-72v668h-97v67h584v-67z" />
    <glyph glyph-name="summation" unicode="&#x2211;" horiz-adv-x="499" 
d="M479 -89h-458v49l240 318l-230 317v51h434v-63h-333v-3l212 -291l-231 -305v-3h366v-70z" />
    <glyph glyph-name="uni2219" unicode="&#x2219;" 
d="M312 254c0 -35 -28 -62 -62 -62c-35 0 -62 28 -62 62s27 62 62 62c34 0 62 -28 62 -62z" />
    <glyph glyph-name="radical" unicode="&#x221a;" horiz-adv-x="519" 
d="M519 770l-200 -907h-64l-143 427l-67 -26l-14 45l127 49l112 -337c6 -23 12 -50 16 -69h1c3 18 8 46 12 70l167 748h53z" />
    <glyph glyph-name="infinity" unicode="&#x221e;" horiz-adv-x="707" 
d="M660 269v-1c0 -90 -67 -146 -139 -146c-57 0 -103 34 -167 107c-48 -55 -97 -107 -172 -107c-73 0 -136 61 -136 143c0 84 61 145 143 145c69 0 120 -50 168 -108c46 52 93 108 170 108c79 0 133 -58 133 -141zM189 167h1c57 0 101 55 139 96c-40 50 -81 103 -145 103
c-58 0 -91 -47 -90 -103c0 -53 38 -96 95 -96zM522 366h-1c-60 0 -108 -66 -140 -99c60 -67 94 -100 143 -100c57 0 89 51 89 98c0 63 -39 101 -91 101z" />
    <glyph glyph-name="integral" unicode="&#x222b;" horiz-adv-x="330" 
d="M313 779l-12 -52c-7 5 -20 9 -33 9c-15 0 -33 -6 -45 -22c-23 -27 -30 -77 -30 -164c0 -146 12 -311 12 -464c0 -98 -17 -154 -38 -187c-21 -34 -57 -49 -93 -49c-25 0 -50 8 -60 15l12 54c8 -4 23 -11 40 -11c15 0 32 7 42 21c18 23 30 65 30 158c0 154 -12 322 -12 470
c0 102 13 159 49 197c23 25 56 37 88 37c19 0 40 -7 50 -12z" />
    <glyph glyph-name="approxequal" unicode="&#x2248;" horiz-adv-x="507" 
d="M436 399l30 -26c-25 -49 -62 -88 -117 -88c-37 0 -63 14 -106 38c-28 17 -53 31 -83 31c-42 0 -67 -32 -89 -67l-31 25c27 53 73 88 126 88c44 0 76 -24 100 -37c32 -18 53 -32 85 -32c37 0 60 24 85 68zM436 242l30 -26c-25 -48 -62 -87 -118 -87c-36 0 -62 14 -105 38
c-28 16 -53 31 -83 31c-43 0 -67 -33 -89 -68l-31 25c27 54 73 88 125 88c45 0 77 -23 101 -36c30 -17 53 -32 85 -32c37 0 60 24 85 67z" />
    <glyph glyph-name="notequal" unicode="&#x2260;" horiz-adv-x="507" 
d="M362 464l-41 -88h140v-47h-158l-60 -132h218v-47h-237l-48 -106l-37 16l41 90h-134v47h153l59 132h-212v47h231l47 104z" />
    <glyph glyph-name="lessequal" unicode="&#x2264;" horiz-adv-x="507" 
d="M458 91l-407 205v50l407 206v-57l-357 -172v-2l357 -174v-56zM461 5h-415v49h415v-49z" />
    <glyph glyph-name="greaterequal" unicode="&#x2265;" horiz-adv-x="507" 
d="M52 552l407 -206v-50l-407 -205v56l357 173v2l-357 173v57zM460 5h-413v49h413v-49z" />
    <glyph glyph-name="lozenge" unicode="&#x25ca;" horiz-adv-x="519" 
d="M470 323l-182 -364h-60l-179 364l182 365h60zM403 321l-125 254c-7 16 -14 36 -18 50h-2c-4 -15 -10 -33 -17 -50l-126 -250l127 -257c8 -18 13 -36 16 -48h3c3 12 11 36 16 48z" />
    <glyph glyph-name="uni02C9" unicode="&#x2c9;" horiz-adv-x="308" 
d="M276 646v-35c0 -10 -1 -13 -13 -13h-218c-12 0 -14 3 -14 13v35c0 11 3 14 14 14h218c10 0 13 -3 13 -14z" />
    <glyph glyph-name="uni00AD" unicode="&#xad;" horiz-adv-x="352" 
d="M301 279v-51c0 -8 -3 -10 -14 -10h-222c-10 0 -14 3 -14 13v46c0 11 2 16 13 16h223c10 0 14 -4 14 -14z" />
    <glyph glyph-name="uni03A9" unicode="&#x3a9;" horiz-adv-x="645" 
d="M176 61v3c-63 58 -121 157 -121 285c0 180 116 308 270 308c163 0 263 -145 263 -303c0 -133 -61 -237 -122 -290v-3h135v-61h-219v45c67 46 132 147 132 294c0 121 -64 255 -190 255c-119 0 -194 -113 -194 -257c0 -137 65 -248 131 -292v-45h-218v61h133z" />
    <glyph glyph-name="uni00A0" unicode="&#xa0;" horiz-adv-x="296" 
 />
    <glyph glyph-name="afii61289" unicode="&#x2113;" horiz-adv-x="440" 
d="M386 137l34 -31c-41 -78 -100 -116 -170 -116c-105 0 -147 79 -151 170v12c-16 -13 -34 -28 -52 -42l-21 42c26 22 50 42 72 64v251c0 167 71 223 142 223c77 0 113 -67 113 -151c0 -116 -74 -226 -185 -337v-33c1 -100 46 -140 97 -140c55 0 98 47 121 88zM168 491v-196
c76 85 135 175 135 264c0 57 -17 95 -63 95c-33 0 -72 -40 -72 -163z" />
    <glyph glyph-name="uni03BC" unicode="&#x3bc;" horiz-adv-x="556" 
d="M421 467v-342c0 -23 1 -45 11 -66c6 -12 19 -32 19 -38c0 -4 -5 -6 -9 -8l-39 -24c-4 -2 -6 -3 -8 -3c-15 0 -26 36 -37 59c-32 -20 -76 -59 -129 -59c-30 0 -52 7 -80 28v-198c0 -7 -3 -11 -7 -12l-50 -12c-8 -2 -5 -1 -12 -2c-7 0 -7 8 -7 13v651c0 7 3 11 7 12l50 12
c8 2 5 1 12 2c7 0 7 -8 7 -13v-333c0 -43 17 -81 82 -81c31 0 95 33 114 51v350c0 7 3 11 7 12l50 12c8 2 5 1 12 2c7 0 7 -8 7 -13z" />
    <glyph glyph-name="uni2215" unicode="&#x2215;" horiz-adv-x="230" 
d="M289 640l-270 -644c-3 -8 -7 -10 -18 -10h-38c-8 0 -13 1 -13 7c0 3 1 6 2 9l269 645c3 6 8 10 15 10h42c7 0 13 -1 13 -8c0 -3 -1 -6 -2 -9z" />
    <glyph glyph-name="a.superior" horiz-adv-x="426" 
d="M335 340l-30 -18c-7 -2 -3 -2 -10 -2c-13 0 -28 33 -29 41c-9 -8 -42 -43 -100 -43c-54 0 -90 35 -90 93c0 117 139 120 182 121v18c0 35 -15 50 -62 50c-48 0 -77 -21 -86 -21c-4 0 -5 4 -5 7l-8 29c-1 2 -3 8 -3 10c0 13 62 32 116 32c87 0 111 -35 111 -95v-118
c0 -28 0 -49 5 -63c4 -12 15 -27 15 -31s-2 -7 -6 -10zM258 403v80c-28 0 -115 -1 -115 -69c0 -21 12 -44 37 -44c32 0 67 24 78 33z" />
    <glyph glyph-name="o.superior" horiz-adv-x="407" 
d="M338 489c0 -93 -40 -171 -138 -171c-91 0 -131 73 -131 167c0 93 40 172 137 172c93 0 132 -73 132 -168zM204 370c53 0 67 52 67 120c0 57 -14 115 -67 115s-68 -55 -68 -113c0 -66 14 -122 68 -122z" />
    <glyph glyph-name="one.superior" horiz-adv-x="352" 
d="M294 294v-24c0 -12 -3 -15 -15 -15h-175c-12 0 -15 3 -15 15v24c0 12 3 15 15 15h61v265l-83 -42c-3 -2 -6 -3 -9 -3c-6 0 -8 4 -11 9l-8 12c-2 3 -3 6 -3 9c0 6 5 9 8 11l119 73h34c12 0 16 -3 16 -15v-319h51c11 0 15 -3 15 -15z" />
    <glyph glyph-name="two.superior" horiz-adv-x="352" 
d="M298 299v-26c0 -14 -6 -18 -19 -18h-207c-10 0 -18 5 -18 16v5c0 142 93 173 145 214c21 16 31 30 31 54c0 32 -17 53 -52 53c-43 0 -57 -43 -61 -57c-2 -5 -5 -11 -12 -11c-4 0 -7 1 -10 2l-27 7c-11 2 -13 8 -13 14c0 14 16 49 37 67c19 17 40 32 89 32
c67 0 117 -37 117 -104c0 -85 -80 -115 -121 -146c-40 -31 -47 -56 -52 -84h154c13 0 19 -4 19 -18z" />
    <glyph glyph-name="three.superior" horiz-adv-x="352" 
d="M73 565l-24 18c-2 2 -4 4 -4 8c0 16 52 60 118 60c63 0 119 -36 119 -101c0 -53 -38 -74 -54 -84c23 -11 68 -35 68 -100c0 -73 -60 -119 -147 -119c-40 0 -114 14 -114 30c0 3 1 6 3 10l13 26c2 4 5 8 9 8c8 0 37 -20 91 -20c49 0 77 25 77 67c0 61 -57 65 -88 65h-22
c-6 0 -15 0 -15 11v27c0 12 3 15 15 15h22c29 0 79 12 79 63c0 31 -27 48 -59 48c-45 0 -67 -36 -79 -36c-3 0 -6 2 -8 4z" />
    <glyph glyph-name="uni2206" unicode="&#x2206;" horiz-adv-x="584" 
d="M28 0v49l223 614h85l219 -613v-50h-527zM102 60h375l-126 345c-16 50 -48 129 -59 171h-3c-9 -35 -38 -107 -53 -157z" />
    <glyph glyph-name="uni2010" unicode="&#x2010;" horiz-adv-x="352" 
d="M301 279v-51c0 -8 -3 -10 -14 -10h-222c-10 0 -14 3 -14 13v46c0 11 2 16 13 16h223c10 0 14 -4 14 -14z" />
    </font>
</defs>
</svg>
