<?xml version="1.0" encoding="utf-8"?>
<!-- Generator: Adobe Illustrator 16.0.0, SVG Export Plug-In . SVG Version: 6.00 Build 0)  -->
<!DOCTYPE svg PUBLIC "-//W3C//DTD SVG 1.1//EN" "http://www.w3.org/Graphics/SVG/1.1/DTD/svg11.dtd">
<svg version="1.1" id="Layer_1" xmlns="http://www.w3.org/2000/svg" xmlns:xlink="http://www.w3.org/1999/xlink" x="0px" y="0px"
	 width="67px" height="48px" viewBox="146.5 156 67 48" enable-background="new 146.5 156 67 48" xml:space="preserve">
<g id="Layer_1_1_">
	<g>
		<polygon fill="#383838" points="213.5,189.248 182.019,189.247 181.18,190.842 181.181,190.842 180.479,192.177 211.954,192.174 
			212.658,190.84 212.661,190.84 		"/>
		<g>
			<path fill="#383838" d="M185.056,190.569L177.984,204h-3.732l7.073-13.431H185.056z"/>
		</g>
		<g>
			<path fill="#383838" d="M212.801,190.569l-5.534,10.501h-3.731l5.534-10.501H212.801L212.801,190.569z"/>
		</g>
		<polygon fill="#383838" points="146.5,203.999 177.981,204 178.82,202.405 178.819,202.405 179.521,201.07 148.046,201.073 
			147.343,202.406 147.339,202.406 		"/>
		<g>
			<path fill="#383838" d="M147.198,202.678l5.527-10.501h3.73l-5.525,10.501H147.198z"/>
		</g>
	</g>
</g>
<g id="Layer_2" display="none">
	<g display="inline">
		<path fill="#FF3700" d="M127.343,33.963v92.298h106.698V33.963h28.806v220.598h-28.806V151.133H127.343v103.428H98.867V33.963
			H127.343z"/>
	</g>
</g>
<g id="Layer_4">
	<g>
		<path fill="#FF3700" d="M185.562,193.989h4.326l0.124-13.831H169.93l-0.123,13.831h4.634v5.04h-15.942v-5.04h4.325l0.247-32.949
			h-4.572V156h15.942v5.04h-4.388l-0.123,13.709h20.081l0.123-13.709h-4.572V156h15.942v5.04h-4.388l-0.247,32.949h4.635v5.04
			h-15.942V193.989L185.562,193.989z"/>
	</g>
</g>
</svg>
