<?xml version="1.0" encoding="utf-8"?>
<!-- Generator: Adobe Illustrator 19.0.0, SVG Export Plug-In . SVG Version: 6.00 Build 0)  -->
<svg version="1.1" id="Layer_1" xmlns="http://www.w3.org/2000/svg" xmlns:xlink="http://www.w3.org/1999/xlink" x="0px" y="0px"
	 viewBox="0 0 400 225" style="enable-background:new 0 0 400 225;" xml:space="preserve">
<metadata><?xpacket begin="﻿" id="W5M0MpCehiHzreSzNTczkc9d"?>
<x:xmpmeta xmlns:x="adobe:ns:meta/" x:xmptk="Adobe XMP Core 5.6-c067 79.157747, 2015/03/30-23:40:42        ">
   <rdf:RDF xmlns:rdf="http://www.w3.org/1999/02/22-rdf-syntax-ns#">
      <rdf:Description rdf:about=""/>
   </rdf:RDF>
</x:xmpmeta>
                                                                                                    
                                                                                                    
                                                                                                    
                                                                                                    
                                                                                                    
                                                                                                    
                                                                                                    
                                                                                                    
                                                                                                    
                                                                                                    
                                                                                                    
                                                                                                    
                                                                                                    
                                                                                                    
                                                                                                    
                                                                                                    
                                                                                                    
                                                                                                    
                                                                                                    
                                                                                                    
                           
<?xpacket end="w"?></metadata>
<style type="text/css">
	.st0{fill:#222222;}
	.st1{fill:#333333;}
	.st2{fill:#444444;}
</style>
<rect id="XMLID_1_" class="st0" width="400" height="225"/>
<g id="XMLID_2_">
	<g id="Layer_1_1_">
		<g>
			<polygon id="XMLID_8_" class="st1" points="233.5,114.2 202,114.2 201.2,115.8 201.2,115.8 200.5,117.2 232,117.2 232.7,115.8 
				232.7,115.8 			"/>
			<g>
				<path id="XMLID_7_" class="st1" d="M205.1,115.6L198,129h-3.7l7.1-13.4H205.1z"/>
			</g>
			<g>
				<path id="XMLID_6_" class="st1" d="M232.8,115.6l-5.5,10.5h-3.7l5.5-10.5H232.8L232.8,115.6z"/>
			</g>
			<polygon id="XMLID_5_" class="st1" points="166.5,129 198,129 198.8,127.4 198.8,127.4 199.5,126.1 168,126.1 167.3,127.4 
				167.3,127.4 			"/>
			<g>
				<path id="XMLID_4_" class="st1" d="M167.2,127.7l5.5-10.5h3.7l-5.5,10.5H167.2z"/>
			</g>
		</g>
	</g>
	<g id="Layer_4">
		<g>
			<path id="XMLID_3_" class="st2" d="M205.6,119h4.3l0.1-13.8h-20.1l-0.1,13.8h4.6v5h-15.9v-5h4.3l0.2-32.9h-4.6v-5h15.9v5h-4.4
				l-0.1,13.7H210l0.1-13.7h-4.6v-5h15.9v5h-4.4l-0.2,32.9h4.6v5h-15.9L205.6,119L205.6,119z"/>
		</g>
	</g>
</g>
</svg>
