<?xml version="1.0" encoding="utf-8"?>
<!-- Generator: Adobe Illustrator 19.0.0, SVG Export Plug-In . SVG Version: 6.00 Build 0)  -->
<svg version="1.1" id="Layer_1" xmlns="http://www.w3.org/2000/svg" xmlns:xlink="http://www.w3.org/1999/xlink" x="0px" y="0px"
	 viewBox="0 0 100 100" style="enable-background:new 0 0 100 100;" xml:space="preserve">
<metadata><?xpacket begin="﻿" id="W5M0MpCehiHzreSzNTczkc9d"?>
<x:xmpmeta xmlns:x="adobe:ns:meta/" x:xmptk="Adobe XMP Core 5.6-c067 79.157747, 2015/03/30-23:40:42        ">
   <rdf:RDF xmlns:rdf="http://www.w3.org/1999/02/22-rdf-syntax-ns#">
      <rdf:Description rdf:about=""/>
   </rdf:RDF>
</x:xmpmeta>
                                                                                                    
                                                                                                    
                                                                                                    
                                                                                                    
                                                                                                    
                                                                                                    
                                                                                                    
                                                                                                    
                                                                                                    
                                                                                                    
                                                                                                    
                                                                                                    
                                                                                                    
                                                                                                    
                                                                                                    
                                                                                                    
                                                                                                    
                                                                                                    
                                                                                                    
                                                                                                    
                           
<?xpacket end="w"?></metadata>
<style type="text/css">
	.st0{fill:#E90026;}
	.st1{fill:#FFFFFF;}
</style>
<g id="XMLID_70_">
	<path id="XMLID_122_" class="st0" d="M83.2,83.4H16.8V16.6h66.5V83.4z M22.8,77.4h54.5V22.6H22.8V77.4z"/>
</g>
<g id="XMLID_80_">
	<path id="XMLID_92_" class="st0" d="M100,26L87.3,39.1l-26.8-26L73.2,0L100,26z M87.1,30.6l4.4-4.5L73.3,8.5L68.9,13L87.1,30.6z"/>
	<polygon id="XMLID_91_" class="st1" points="91.5,26.1 87.1,30.6 68.9,13 73.3,8.5 	"/>
</g>
<g id="XMLID_55_">
	<path id="XMLID_71_" class="st0" d="M73.2,100L60.5,86.9l26.8-26L100,74L73.2,100z M68.9,87l4.4,4.5l18.2-17.6l-4.4-4.5L68.9,87z"
		/>
	<polygon id="XMLID_56_" class="st1" points="91.5,73.9 87.1,69.3 68.9,87 73.3,91.5 	"/>
</g>
<g id="XMLID_79_">
	<path id="XMLID_82_" class="st0" d="M26.8,0l12.7,13.1l-26.8,26L0,26L26.8,0z M31.1,13l-4.4-4.5L8.5,26.1l4.4,4.5L31.1,13z"/>
	<polygon id="XMLID_81_" class="st1" points="8.5,26.1 12.9,30.6 31.1,13 26.7,8.5 	"/>
</g>
<g id="XMLID_74_">
	<path id="XMLID_76_" class="st0" d="M0,74l12.7-13.1l26.8,26L26.8,100L0,74z M12.9,69.3l-4.4,4.5l18.2,17.6l4.4-4.5L12.9,69.3z"/>
	<polygon id="XMLID_75_" class="st1" points="8.5,73.9 12.9,69.3 31.1,87 26.7,91.5 	"/>
</g>
</svg>
