<?xml version="1.0" encoding="utf-8"?>
<!-- Generator: Adobe Illustrator 19.0.0, SVG Export Plug-In . SVG Version: 6.00 Build 0)  -->
<svg version="1.1" id="Layer_1" xmlns="http://www.w3.org/2000/svg" xmlns:xlink="http://www.w3.org/1999/xlink" x="0px" y="0px"
	 viewBox="0 0 544.9 142.9" style="enable-background:new 0 0 544.9 142.9;" xml:space="preserve">
<metadata><?xpacket begin="﻿" id="W5M0MpCehiHzreSzNTczkc9d"?>
<x:xmpmeta xmlns:x="adobe:ns:meta/" x:xmptk="Adobe XMP Core 5.6-c067 79.157747, 2015/03/30-23:40:42        ">
   <rdf:RDF xmlns:rdf="http://www.w3.org/1999/02/22-rdf-syntax-ns#">
      <rdf:Description rdf:about=""/>
   </rdf:RDF>
</x:xmpmeta>
                                                                                                    
                                                                                                    
                                                                                                    
                                                                                                    
                                                                                                    
                                                                                                    
                                                                                                    
                                                                                                    
                                                                                                    
                                                                                                    
                                                                                                    
                                                                                                    
                                                                                                    
                                                                                                    
                                                                                                    
                                                                                                    
                                                                                                    
                                                                                                    
                                                                                                    
                                                                                                    
                           
<?xpacket end="w"?></metadata>
<style type="text/css">
	.st0{fill:#E90026;stroke:#FCFAFA;stroke-width:0.8426;stroke-miterlimit:10;}
	.st1{fill:#E90026;stroke:#FCFAFA;stroke-width:0.4213;stroke-miterlimit:10;}
	.st2{fill:none;stroke:#E90026;stroke-width:0.8426;stroke-miterlimit:10;}
	.st3{fill:#E90026;}
	.st4{fill:none;}
</style>
<path id="XMLID_2217_" class="st0" d="M144.1,67.9L144.1,67.9L144.1,67.9z"/>
<path id="XMLID_2215_" class="st1" d="M173.2,63.4c0.1-0.6,0.1-1.2,0.1-1.8l0,0c0.9,0.6,1.7,1.2,2.3,1.9c1.2,1.8,1.4,4,0.5,6.1
	c-1.5,3.4-5.4,5.8-10.6,6.6c-2.5,0.4-4.8,0.3-6.8-0.2c1.5-0.3,3-0.8,4.5-1.4C168.8,72,172.4,68,173.2,63.4z"/>
<path id="XMLID_2214_" class="st1" d="M147.3,69.9c-1.2-1.2-1.8-2.7-1.8-4.3c0.5-2.6,1.7-5.1,3.5-7c1.4-1.4,3.2-2.6,5-3.4
	c1.8-0.8,3.9-1.3,5.8-1.4c2.7,0,5.3,0.8,7.5,2.1c1.7,1.4,2.4,3.5,2,5.7c-0.6,3.6-3.7,7-8.5,9.2C155.4,73.1,150,72.7,147.3,69.9z"/>
<path id="XMLID_2166_" class="st1" d="M152.1,74c0.6,0.1,1.1,0.1,1.7,0.1c2.5,0,5.1-0.6,7.7-1.8c5.3-2.4,8.9-6.3,9.6-10.6
	c0.1-0.6,0.1-1.3,0.1-1.9c0.2,1,0.3,2,0.1,3.1c-0.7,3.9-4,7.6-8.9,9.7c-2.5,1.1-4.9,1.6-7.1,1.6C154.2,74.4,153.1,74.3,152.1,74z"/>
<path id="XMLID_2165_" class="st1" d="M177.6,71.5c-1.7,3.6-5.8,6.3-11.1,7.1c-3.9,0.6-7.5,0-10.2-1.5c1.8,0.7,3.8,1.1,6,1.1
	c1.1,0,2.2-0.1,3.4-0.3c5.8-0.9,10.3-3.8,12-7.7c0.3-0.6,0.4-1.2,0.6-1.8C178.3,69.5,178.1,70.5,177.6,71.5z"/>
<path id="XMLID_2145_" class="st0" d="M528.8,67.3l-54.8,27.4c-0.9,0.5-1.5,1.3-1.7,2.3l-2.5,1.3c-6.3,3.4-13.5,7.2-21.2,11.1
	c-4.9,2.5-48.2,24.3-47.7,30.9c0,0.4,0.2,1.4,1.5,1.8c10.4,3.6,52.7-13.6,79.5-27c0.5-0.3,1.1-0.5,1.6-0.8c0.1,0,0.1,0,0.2-0.1
	c0.1-0.1,0.3-0.2,0.4-0.3c0-0.1,0.1-0.1,0.1-0.2c0-0.1,0.1-0.1,0.1-0.2c0,0,0-0.1,0-0.1c0,0,0-0.1,0-0.1l0.4-4.5
	c3.1-1.3,17.4-7.2,27.2-11.6c8.7-3.9,19.8-12.3,23.3-15l1.8,4c0.1,0.3,0.3,0.5,0.6,0.6c0.3,0.1,0.6,0.1,0.9-0.1
	c5.3-2.7,7.5-9.2,4.7-14.7C540.7,66.8,534.2,64.6,528.8,67.3z M403.2,140.1c0.1-2.7,17.9-14.5,46.5-28.8c7.7-3.8,14.9-7.7,21.2-11.1
	l1.9-1l6.8,13.6c0,0,0.1,0.1,0.1,0.1c0.1,0.2,0.2,0.4,0.4,0.5c0,0,0.1,0.1,0.1,0.1C449.7,128.7,411.9,143,403.2,140.1z M538.6,84.2
	l-1.9-4.2c-0.1-0.3-0.4-0.5-0.7-0.6c-0.3-0.1-0.5,0-0.7,0.1c-0.1,0-0.1,0.1-0.2,0.1c-0.1,0.1-13.7,11-24,15.6
	c-10.9,4.9-27.6,11.8-27.7,11.8c-0.4,0.1-0.6,0.5-0.7,0.9l-0.4,4.3c0,0,0,0-0.1,0c-0.1,0-0.2-0.1-0.3-0.1c0,0,0,0,0,0
	c-0.1-0.1-0.2-0.2-0.3-0.3l-7-14c-0.2-0.4,0-1,0.4-1.2l54.8-27.4c4.2-2.1,9.4-0.4,11.6,4C543.4,77.1,542.1,81.8,538.6,84.2z"/>
<path id="XMLID_1937_" class="st1" d="M132.7,72.7L132.7,72.7c0-0.1,0-0.2-0.1-0.3c0,0,0,0,0,0l-17.1-28.5c-0.1-0.2-0.4-0.4-0.6-0.4
	H65c-0.6-0.7-1.3-1.3-2-1.8c-0.5-0.4-1-0.7-1.5-0.9C70,34.6,75.4,25.2,75.9,15h0.8c1.2,0,2.1-1,2.1-2.2c0-1.2-0.9-2.2-2.1-2.2h-1.5
	c-0.3-2.5-2.6-4.7-5.9-5.5c-0.1-0.2-0.2-0.4-0.4-0.7c-0.9-1.6-2.7-2.4-4.8-2.4c-1.6,0-3.2,0.5-4.7,1.3C58.1,4,57.1,4.9,56.3,6
	c-0.3,0-0.5,0-0.8,0C55,6,54.5,6.1,54,6.2C54,5.8,54,5.4,54,5c-0.1-1.9-0.9-3.3-2.2-4.2c-0.6-0.4-0.9-0.6-1.2-0.6
	c-0.2,0-0.5,0.1-0.6,0.3c-0.3,0.4-0.1,0.7,0,1.1c0.2,0.6,0.5,1.7-0.1,3.1c0-0.6,0.1-1.1,0.2-1.4c0.1-0.4,0.2-0.7-0.1-1.1
	c-0.1-0.2-0.4-0.3-0.6-0.3c-0.3,0-0.6,0.2-1.2,0.6c-0.8,0.6-1.3,1.4-1.7,2.3c-0.7-0.1-1.3-0.2-2.1-0.2c-0.2,0-0.4,0-0.7,0
	c-0.8-1-1.9-2-3.2-2.7c-1.4-0.7-2.9-1.1-4.4-1.1c-1.8,0-3.3,0.6-4.3,1.6c-0.3-0.2-0.5-0.2-0.7-0.2c-0.2,0-0.5,0.1-0.6,0.3
	c-0.2,0.4-0.1,0.7,0,1.1c0.1,0.2,0.1,0.4,0.2,0.7c-1.7,0.5-3,1.4-4,2.5c-0.6-0.1-1.1-0.2-1.7-0.2c-0.2,0-0.4,0-0.6,0l0,0
	c-0.8-1.1-1.9-2-3.2-2.7c-1.4-0.7-2.9-1.1-4.4-1.1c-2.3,0-4.2,1-5.1,2.7c-0.2,0.3-0.2,0.5-0.3,0.7C9.5,6.7,8,7.6,7,8.9
	C6.5,9.4,6.2,10,6,10.6H2.3c-1.2,0-2.1,1-2.1,2.2C0.2,14,1.2,15,2.3,15h0.8c0.7,13.7,10.2,26,24,30.7c1.6,0.5,3.2,0.8,4.9,0.8h1.2
	L17.8,72.3c0,0,0,0,0,0c0,0.1-0.1,0.2-0.1,0.3v4.2c0,0.4,0.3,0.7,0.7,0.7H132c0.4,0,0.7-0.3,0.7-0.7L132.7,72.7
	C132.7,72.7,132.7,72.7,132.7,72.7z M62.1,42.8c1.2,1,2.3,2.3,3.1,3.6c0.8,1.4,1.4,3,1.6,4.5v0c0.2,2.1-0.1,4.2-1,6.1
	c-0.9,1.3-2.4,2-4,2c-3,0-6.1-2.2-8.2-5.9c-0.2-0.5-0.5-0.9-0.7-1.3c-0.1-0.2-0.1-0.4-0.2-0.5c-0.1-0.3-0.2-0.6-0.3-0.8
	c0-0.1,0-0.1,0-0.2c-0.9-2.6-0.8-5.1,0.1-7c0.2-0.4,0.5-0.7,0.7-1.1c0.8-0.9,1.9-1.5,3.2-1.6c0.3,0,0.5,0.1,0.8,0.1
	c0.2,0,0.4,0.1,0.6,0.1c0.1,0,0.1,0,0.2,0c0.1,0,0.3,0.1,0.5,0.1C59.7,41.4,61,42,62.1,42.8z M50.8,50.7c0,0.1,0,0.1,0.1,0.2
	c0.1,0.4,0.3,0.7,0.4,1.1c0.1,0.1,0.1,0.3,0.2,0.4c0.2,0.5,0.5,1,0.8,1.5c2.4,4.2,5.9,6.7,9.5,6.7c0.6,0,1.1-0.1,1.7-0.2
	c-0.7,0.7-1.5,1.3-2.3,1.8c-1.8,1-3.8,1.6-5.8,1.6c-4.1,0-8-2.2-10-5.8c-1.5-2.7-1.9-5.8-1.1-8.8c0.8-3,2.7-5.5,5.4-7
	c0.9-0.5,1.8-0.9,2.8-1.2c-0.5,0.5-0.9,1.1-1.3,1.7C49.9,44.9,49.9,47.7,50.8,50.7z M68.5,6.3c2.8,0.6,4.9,2.3,5.2,4.3h-0.3
	C72.8,10,72,9.4,70.7,9.2C70.2,9.1,69.7,9,69,9c-1.2,0-2.6,0.2-3.8,0.4c-0.7,0.1-1.5,0.2-2.1,0.2c-0.2-0.5-0.5-0.9-0.9-1.3
	c0.6-0.6,1.2-1.2,1.8-1.7c0.8-0.3,1.7-0.5,2.8-0.5C67.3,6.2,67.9,6.2,68.5,6.3z M70.3,10.6h-2.9C68.5,10.5,69.5,10.5,70.3,10.6z
	 M60.2,4.5c1.2-0.7,2.6-1.1,3.9-1.1c1.3,0,2.4,0.4,3.1,1.1c-1-0.2-2.3,0-3.4,0.7c-0.9,0.5-1.8,1.4-2.7,2.3c0.1,0.1,0.3,0.2,0.4,0.3
	C60.5,7,59.4,6.4,58,6.2C58.6,5.6,59.3,5,60.2,4.5z M53.6,7.8c0.6-0.2,1.3-0.3,2-0.4c3-0.1,5.6,1.2,6.3,3.1h0
	c-0.7-0.5-1.8-1-3.3-0.9c-1.2,0.1-2.5,0.5-3.7,0.9h-2.6c0.1-0.1,0.1-0.2,0.2-0.3C53,9.5,53.4,8.7,53.6,7.8z M48.3,4.2
	c0,0.6,0,1.3,0.3,2c-0.3,0.4-0.7,0.7-1.1,1c0-0.2,0-0.3,0-0.5C47.5,5.8,47.8,4.9,48.3,4.2z M46.8,9.8c1.5-1.2,3.1-2.5,4-3.9
	c0.8-1.3,0.9-2.5,0.8-3.4c0.6,0.6,0.9,1.5,0.9,2.5c0.1,1.4-0.4,3-1.3,4.5c-0.2,0.4-0.5,0.7-0.8,1.1h-4.7C46.1,10.3,46.5,10,46.8,9.8
	z M46.1,6.3c0,0.2-0.1,0.4-0.1,0.5c0,0.5,0.1,1.1,0.2,1.6c-0.1,0.1-0.2,0.2-0.4,0.3c-0.2,0.2-0.4,0.3-0.6,0.5c-0.1,0-0.1,0-0.2-0.1
	c0.1-1,0-2-0.5-3C45.1,6.1,45.6,6.2,46.1,6.3z M39.8,3.3c3,1.6,4.6,4.6,3.5,6.7c-0.1,0.1-0.1,0.2-0.1,0.2c-0.5,0-1.8-1.4-2.7-2.4
	c-1.3-1.3-2.7-2.9-4.2-3.7c-0.8-0.4-1.6-0.6-2.4-0.6c-0.2,0-0.4,0-0.6,0.1c-0.1-0.1-0.1-0.1-0.2-0.2C34.5,2.1,37.4,2,39.8,3.3z
	 M40.6,10c0.2,0.2,0.5,0.4,0.7,0.6h-2C39.6,10.3,40,10.1,40.6,10z M38.3,9.5C38.4,9,38.7,8.6,39,8.3c0.1,0.2,0.3,0.3,0.4,0.5
	c0,0,0,0,0.1,0.1C39,9,38.6,9.2,38.3,9.5z M36.7,10.6h-2.8c0.1-0.3,0.2-0.5,0.3-0.8c0.2,0,0.5,0,0.7,0.1c0.7,0.1,1.3,0.1,1.9,0.1
	c0,0.1,0,0.2,0,0.3C36.7,10.4,36.7,10.5,36.7,10.6z M35,8.4c-0.2,0-0.3,0-0.5,0c0-0.3,0.1-0.6,0.1-0.9c0-0.8-0.1-1.5-0.3-2.1
	c0.7,0.1,1.3,0.2,1.8,0.4c0.6,0.4,1.3,1,1.9,1.6c-0.4,0.4-0.6,0.8-0.8,1.3C36.5,8.5,35.8,8.4,35,8.4z M31.3,7.9
	c0.8-1.3,0.9-2.5,0.8-3.4c1.2,1.3,1.3,3.8,0.2,6.1h-3.5C29.8,9.8,30.7,8.9,31.3,7.9z M30.7,5.8c-0.1,0.4-0.2,0.9-0.5,1.3
	c-0.3,0.5-0.8,1-1.3,1.5c-1.1,0.4-1.8,1.1-2.3,1.7C26.5,8.5,28.2,6.7,30.7,5.8z M25,8c0.2,0,0.4,0,0.6,0.1c-0.4,0.8-0.6,1.6-0.6,2.5
	H24c-0.6-0.1-1.3-0.2-1.9-0.2c-0.6,0-1.1,0.1-1.6,0.2h-1.2C20.2,9.1,22.4,8,25,8z M20.4,5.2c0.8,0.4,1.6,1,2.2,1.6l0,0
	c-1.1,0.3-2,0.7-2.8,1.2l0,0c-0.6-0.8-1.5-1.4-2.5-1.8c-0.1-0.1-0.3-0.2-0.4-0.3c-0.8-0.4-1.6-0.6-2.4-0.6c-0.4,0-0.7,0-1,0.1
	C14.7,4,17.8,3.9,20.4,5.2z M8.1,9.8c1-1.1,2.4-2,4-2.4c0.7-0.2,1.4-0.3,2.1-0.3c2,0,3.6,0.7,4.4,1.8c-0.4,0.4-0.7,1-0.9,1.5l0,0
	c-0.6,0-1.4-0.1-2.1-0.1c-2-0.2-4.2-0.3-5.6,0c-0.2,0.1-0.4,0.1-0.6,0.2H7.6C7.7,10.3,7.9,10.1,8.1,9.8z M2.3,13.5
	c-0.4,0-0.6-0.3-0.6-0.7c0-0.4,0.3-0.7,0.6-0.7h74.4c0.4,0,0.6,0.3,0.6,0.7c0,0.4-0.3,0.7-0.6,0.7H2.3z M32,45c-1.5,0-3-0.2-4.4-0.7
	C14.4,39.8,5.2,28.1,4.6,15h69.9c-0.5,10-6,19.2-14.5,25c0,0,0,0,0,0c-1.1-0.4-2.3-0.7-3.5-0.8c-0.1,0-0.2,0-0.2,0
	c-2.6-0.2-5.2,0.4-7.4,1.7c-1.2,0.7-2.3,1.6-3.2,2.6H35.5c-0.3,0-0.5,0.1-0.6,0.4L34.1,45L32,45L32,45z M35.9,44.9h8.6
	c-0.8,1.2-1.4,2.5-1.8,3.8c-0.9,3.4-0.4,6.9,1.3,9.9c2.3,4,6.6,6.5,11.3,6.5c2.3,0,4.5-0.6,6.5-1.7c2.3-1.3,4.1-3.3,5.3-5.7
	c1-2.2,1.4-4.6,1.2-7c0,0,0,0,0,0c0,0,0,0,0,0c-0.2-1.8-0.8-3.5-1.7-5.1c-0.1-0.2-0.3-0.5-0.5-0.7h48.4L130.7,72h-111L35.9,44.9z
	 M131.3,76.1H19.1v-2.7h112.1L131.3,76.1L131.3,76.1z"/>
<path id="XMLID_1690_" class="st2" d="M193.4,57.6c0-6.8,6-16.6,7.6-9.3c0,0,8.1,3,7.8,12.1c0,0,11.1-1.3,12.8,3
	c1.8,4.3,0,10.6,0,10.6s10.1,0,7.8,4.8c-2.3,4.8-0.5,5.5,2.5,10.6c3,5,5,1.5,5,6.6c0,5,5.5,4.5,5.5,9.8c0,5.3,0.8,7.6,2,11.1
	c1.3,3.5,1.3,2.8-0.5,8.1c-1.8,5.3-10.6,10.6-14.9,10.6c-4.3,0-16.4-4.3-10.8-23.4c0,0-5,8.3-2.5,18.4c0,0-11.6-11.1-7.3-23.9
	c4.3-12.8,3.8-15.4,3.8-15.4s-8.3,16.9-8.1,23.9c0,0-4.5-17.9,0.5-29.7c0,0-3.8,0.5-3.8,5.3c0,0-2.5-8.1-2.5-10.8
	c0-2.8-0.5,9.3-0.5,13.3c0,4-2.3,8.6-0.5,11.8c1.8,3.3,5.3,14.9,6,19.4c0,0-12.3-12.6-9.1-35.3C197.6,66.4,193.4,64.4,193.4,57.6z
	 M240.5,134.4c12.3,2.5,16.1-5.3,16.1-5.3l0.8,4.3c7.3-8.8,5-23.2,5-23.2l4.3,15.4c0,0,3-0.3,4.3-6.6c1.3-6.3-5.5-26.2-5.5-26.2
	s0,0,2.5,3.8c2.5,3.8,6.8,20.4,6.8,20.4s5-3.5,2.5-12.9c-2.5-9.3-3-24.4-3-24.4c0,4.8,6.3,19.6,6.3,19.6c-0.3-5.7-0.4-19.8-0.5-28.9
	c0.2,3.3,0.7,7,1.7,9.8c2.5,6.5,2.5,15.1,2.5,15.1l2-12.8c0,0,1,16.4-2,21.9c-3,5.5-4.3,10.6-4.3,10.6l3.3-2
	c4.5,3.8-19.9,20.7-19.9,20.7s14.9-6.8,20.4-15.6s7.3-22.7,4.5-36.5c-2.8-13.9-2.3-21.9-1.8-32.5c0.5-10.6-6-6.3-9.8-3
	c-3.8,3.3-2,6.5-6,9.3c-4,2.8-3.8,4.3-4.3,8.3c-0.5,4-5.3,6-11.1,6.6c-5.8,0.5,1.3,6.5-1.3,8.6c-2.5,2-4,3.8-4,5.8
	c0,2,2.8,2.8-3.8,3c-6.6,0.3-4,3.3-2.5,5.3c1.5,2,0,4.8-1.5,6.3c-1.5,1.5,2.8,3.5,2.8,3.5c2.3,2,1,9.3,2.5,11.6
	c1.5,2.3,1.5,4.3,1.5,7.3c0,3-3,6.8-3.8,8.6C244.5,131.9,240.5,134.4,240.5,134.4z M230.8,82.5c-1.7,3,3.9,6,6.2,8.1
	c2.4,2,3.2,7.4,3.2,7.4s1.5-0.7,1-3c-0.5-2.3-1.2-8.1,1.7-10.6c2.8-2.5,5,0.2,4.7-3c-0.3-3.2,4-4,2.3-4.5c-1.7-0.5-6.6-5.2-10.8-8.4
	c-5.2-4-12.3-4.4-12.9-2.2c-0.7,2.2,1.8,7.4,4.7,9.9C233.8,78.6,232.5,79.4,230.8,82.5z M271.4,51.7c0,0-10.1-5.7-16.3-2.2
	c-6.2,3.5-12.3,7.4-14.1,8.2c-1.9,0.8-5.4,5.2-4.2,6.4c1.2,1.2,13.1,10.2,13.1,10.2s1-4.5,5.4-5.9c4.4-1.3,7.6-3.9,7.6-6.5
	c0-2.7,3.4-7.2,6.9-7.7C273.3,53.7,273.3,51.2,271.4,51.7z M262.5,45.3c-0.5-2.4-3.9-5-5.2-9.4c-1.3-4.4-5.9,0.7-7.7-3.4
	c-1.8-4-3.2-0.8-5,2c-1.8,2.9-6.6-0.3-8.9-3.7c-2.4-3.4-3.2,5-5.2,4.5c-2-0.5-2.5,2.5-5.2,4.9c-2.7,2.3-3.5,0.2-6.6,1.7
	c-3,1.5-5.2,5.7-5.2,5.7s8.9-3.9,22.2-6.9c1.6-0.4,3.1-0.6,4.7-0.6c0.1,0.5,0.3,1.4,0.6,2.7c0,0,0.1,0,0.1,0s-0.4-1.7-0.7-2.7
	C252,39.5,262.5,45.3,262.5,45.3z M243.9,42.5c0,0,0,4.2-1.9,7.2c0,0,1.5,3.9,3.9,1.7c2.3-2.2,7.2-4,9.4-4c2.2,0,7.4,0.8,5.2-1
	C260.5,46.4,250.1,42.3,243.9,42.5z M241.1,43.4c0-0.2-0.1-0.3-0.1-0.5c-0.6,0-21.4,0.8-30.6,11.6c0,0,0.1,3.8,2.9,4.2
	c2.8,0.4,6-2.9,7.4-1.6c1.4,1.3,1.9,3.9,3.8,3.3C226.3,59.6,243.1,52.1,241.1,43.4z M242.5,54.6c1-0.8-1.5-3-1.5-3
	c-1.6,5.9-14.2,11.5-14.2,11.5s7.8,0.9,7.9-0.9C234.8,60.4,241.5,55.3,242.5,54.6z"/>
<g id="XMLID_1685_">
	<path id="XMLID_1689_" class="st3" d="M318,75.8c-1,0.9-0.8,0.5-1.2,1.5c-1.2-0.9-5.2-3.2-5.7-6.8c-0.6-3.9,4.2-7,5.5-5.8
		c1.9,1.8-4.2,0.2-3.7,5.7C313.2,73,315.9,74.3,318,75.8z"/>
	<path id="XMLID_1686_" class="st3" d="M360.6,107.4c-0.9,1-5,0-7-0.4c-6.5-1.4-14.8-4-20.4-7.6c-5-3.2-7.6-4.3-12.5-8.3
		c-1.4-1.1-3.6-4.9-3.9-6.1c-0.3-1.3-0.5-1.5-0.2-3.3c0.3-1.4-0.1-3.6,0.7-4.7c1.8-2.4,3.7-2.4,5.7-2c0.2-0.6,1.1-1.4,2.5-1.2
		c4.4,0.7,7.7,5.2,10.4,8.7c2.6,3.4,5.1,6.5,7.8,8.9c3.1,2.7,5.7,6.1,8.6,8.3C355.4,102,362.2,105.6,360.6,107.4z M322.7,89.3
		c4.8,4.2,19,12.5,25.7,13.6c-6.1-2.4-19.6-10.6-23.8-15c-1.3-1.4-3.2-4.9-5.2-3.5C318.5,85.1,321.3,88.1,322.7,89.3z"/>
</g>
<g id="XMLID_1537_">
	<path id="XMLID_1619_" class="st4" d="M84.4,131.5c-2.8,0.5-8.5,0-8.4,3.6c0.1,1.8,6,0.6,8.6-0.1c0.9-0.2,1.9-0.6,3-1l-1.4-2.9
		C85.5,131.3,84.9,131.4,84.4,131.5z"/>
	<path id="XMLID_1618_" class="st4" d="M86.2,131.1l1.4,2.9c3.7-1.3,8.4-3.4,13.2-5.8l-1.3-1.9C94.4,128.4,89.7,130.2,86.2,131.1z"
		/>
	<path id="XMLID_1612_" class="st4" d="M99.4,126.3l1.3,1.9c2.4-1.2,4.8-2.5,7.2-3.9l-1.2-1.5C104.3,124,101.8,125.2,99.4,126.3z"/>
	<path id="XMLID_1611_" class="st4" d="M107.9,124.3c2.5-1.4,4.8-2.9,7-4.3l-0.4-1.1c-2.4,1.3-5,2.7-7.7,4L107.9,124.3z"/>
	<path id="XMLID_1569_" class="st4" d="M121.7,114.3c-1.8,1.3-4.3,2.9-7.3,4.5l0.4,1.1C117.7,118,120.1,116.1,121.7,114.3z"/>
	<path id="XMLID_1568_" class="st3" d="M64.4,130c-3.5,1.4-7.3,3.6-10.6,1.9c-7.1-3.8-0.3-9.9-4-9c-2.6,0.6-2.5,8.9,2.7,11.3
		c4.8,2.2,10.8-0.8,12.9-1.5C64.3,131.3,64.7,132,64.4,130z"/>
	<path id="XMLID_1567_" class="st3" d="M128.2,104.3l-0.2,12.4c2.9-2.5,5.7-5,8.1-7.4c0.3-0.3,0.7-0.6,1-1l-1.9-7
		C132.9,102.3,130.4,103.4,128.2,104.3z"/>
	<path id="XMLID_1566_" class="st3" d="M123.4,97.8c-2.9,1-6.3,1.7-9.8,2.3l3.4,9.5c2.9-1.6,5.4-3.2,7.3-4.5c-1.6,1.7-4,3.6-6.8,5.6
		l1.3,3.7c2.2-1.6,4.4-3.3,6.5-5l0.2-12.4C124.7,97.3,124,97.5,123.4,97.8z"/>
	<path id="XMLID_1565_" class="st3" d="M142.6,98l1.9,7c2.3-2.3,5.5-5.6,5.1-7.2C149.2,95.9,146.2,96.6,142.6,98z"/>
	<g id="XMLID_1548_">
		<path id="XMLID_1564_" class="st3" d="M125.3,125.9l-3.4-9.5c-2.4,0.5-4.9,0.9-7.2,1.6c-1.8,0.5-3.7,0.9-5.7,1.2l8.5,10.6
			C120.3,128.6,122.9,127.2,125.3,125.9z"/>
		<path id="XMLID_1562_" class="st3" d="M118.7,131.4l2.5,3.2c1.9-1.1,3.8-2.4,5.8-3.8l-1.3-3.7
			C123.6,128.5,121.2,129.9,118.7,131.4z"/>
	</g>
	<path id="XMLID_1547_" class="st3" d="M84.6,135c-2.6,0.7-8.5,1.9-8.6,0.1c-0.2-3.5,5.6-3.1,8.4-3.6c0.5-0.1,1.1-0.2,1.8-0.4
		l-7.9-16.6c-4,0.7-7.8,2.1-10.3,4.8c-1.4,1.5-1.1,3.2-0.5,4c-2.1,2.1-3.6,4.4-2.1,8.5c0.7,1.9,3.6,3.1,5.2,4.6
		c1.8,1.8,2.2,1.7,4.1,2.4c1.6,0.6,8.1,0.9,10.5,0.1c1.5-0.5,2.9-1,4.1-1.4l-1.7-3.5C86.5,134.4,85.5,134.7,84.6,135z"/>
	<path id="XMLID_1546_" class="st3" d="M107.1,131.3L98,118.2c-1.1,0.1-2.3,0.2-3.4,0.3c-2.7,0.2-5.7,0.4-8.6,1l7.9,16.6
		C97.4,135.2,102.2,133.5,107.1,131.3z"/>
	<path id="XMLID_1545_" class="st3" d="M95.3,139.1l1.7,3.5c5.3-2,8.6-3.8,13.7-6.2l-2.2-3.1C103.7,135.7,99,137.7,95.3,139.1z"/>
	<g id="XMLID_1538_">
		<path id="XMLID_1542_" class="st3" d="M106.2,111.4l-3.3-13.2c-2.5-0.7-5-1.5-7.7-2.5l2.8,15.7
			C100.7,111.4,103.5,111.4,106.2,111.4z"/>
		<path id="XMLID_1540_" class="st3" d="M98.5,113.7l0.7,3.8c0.8,0,1.6,0,2.5,0c1.9,0,3.8-0.1,5.9-0.3l-1-3.9
			C103.9,113.4,101.2,113.6,98.5,113.7z"/>
	</g>
</g>
<path id="XMLID_1536_" class="st4" d="M411.8,94.7c2,0,6.1-1,6.4,1.5c0.2,1.3-4.2,1.2-6.1,1c-0.7-0.1-1.4-0.2-2.2-0.3l0.6-2.3
	C410.9,94.7,411.4,94.7,411.8,94.7z"/>
<path id="XMLID_1535_" class="st4" d="M410.5,94.6l-0.6,2.3c-2.8-0.5-6.4-1.4-10.1-2.5l0.7-1.5C404.2,93.7,407.8,94.4,410.5,94.6z"
	/>
<path id="XMLID_1534_" class="st4" d="M400.4,92.8l-0.7,1.5c-1.9-0.6-3.8-1.2-5.6-1.9l0.7-1.2C396.6,91.8,398.5,92.4,400.4,92.8z"/>
<path id="XMLID_1533_" class="st4" d="M394.1,92.5c-1.9-0.7-3.8-1.5-5.5-2.2l0.1-0.9c1.9,0.6,3.9,1.3,6,1.9L394.1,92.5z"/>
<path id="XMLID_1532_" class="st4" d="M383,87.1c1.5,0.7,3.5,1.5,5.7,2.3l-0.1,0.9C386.3,89.2,384.3,88.1,383,87.1z"/>
<path id="XMLID_1531_" class="st3" d="M425.9,91.2c2.7,0.5,5.7,1.7,7.8,0c4.6-3.6-1-7.1,1.8-6.9c1.9,0.1,2.9,6.1-0.5,8.4
	c-3.2,2.2-7.8,0.8-9.4,0.5C426.1,92.1,425.9,92.6,425.9,91.2z"/>
<path id="XMLID_1530_" class="st3" d="M363.2,84.8l1.7,8.8c-2.4-1.4-4.7-2.8-6.7-4.2c-0.3-0.2-0.5-0.4-0.9-0.6l0.5-5.2
	C359.6,83.9,361.5,84.4,363.2,84.8z"/>
<path id="XMLID_1528_" class="st3" d="M379.8,75.4c2.2,0.4,4.7,0.4,7.3,0.4l-1.2,7.2c-2.3-0.8-4.3-1.6-5.7-2.3
	c1.3,1,3.3,2.1,5.6,3.2l-0.5,2.8c-1.8-0.9-3.6-1.8-5.3-2.8l-1.7-8.8C378.7,75.3,379.3,75.4,379.8,75.4z"/>
<path id="XMLID_1527_" class="st3" d="M342.8,69.5l-0.5,5.2c-1.9-1.3-4.6-3.3-4.6-4.5C337.8,68.8,340.1,69,342.8,69.5z"/>
<g id="XMLID_1521_">
	<path id="XMLID_1526_" class="st3" d="M381.8,95.8l1.2-7.2c1.8,0,3.6,0.1,5.3,0.3c1.3,0.1,2.8,0.2,4.2,0.2l-4.8,8.6
		C385.8,97.1,383.7,96.4,381.8,95.8z"/>
	<path id="XMLID_1522_" class="st3" d="M387.2,98.9l-1.4,2.6c-1.5-0.6-3-1.3-4.6-2l0.5-2.8C383.4,97.4,385.3,98.2,387.2,98.9z"/>
</g>
<path id="XMLID_1509_" class="st3" d="M412.1,97.2c1.9,0.2,6.3,0.3,6.1-1c-0.3-2.5-4.4-1.5-6.4-1.5c-0.4,0-0.8,0-1.3-0.1l3.6-12.9
	c2.9,0,5.8,0.5,8,2.2c1.2,0.9,1.2,2.2,0.9,2.8c1.8,1.2,3.1,2.7,2.6,5.8c-0.2,1.4-2.2,2.7-3.1,3.9c-1.1,1.5-1.4,1.5-2.6,2.2
	c-1.1,0.6-5.7,1.6-7.5,1.4c-1.2-0.2-2.2-0.3-3.1-0.5l0.8-2.7C410.6,97,411.4,97.1,412.1,97.2z"/>
<path id="XMLID_1494_" class="st3" d="M395.5,97.4l4.9-10.5c0.8-0.1,1.7-0.1,2.5-0.2c1.9-0.2,4.1-0.4,6.2-0.4l-3.6,12.9
	C402.9,99,399.3,98.3,395.5,97.4z"/>
<path id="XMLID_1493_" class="st3" d="M404.9,101.4l-0.8,2.7c-4-0.7-6.6-1.6-10.6-2.7l1.2-2.5C398.5,100.1,402.1,101,404.9,101.4z"
	/>
<g id="XMLID_1454_">
	<path id="XMLID_1489_" class="st3" d="M361.9,76l0.7-9.9c1.7-0.8,3.4-1.7,5.2-2.7L367.7,75C365.8,75.4,363.8,75.7,361.9,76z"/>
	<path id="XMLID_1488_" class="st3" d="M367.7,76.7l0,2.8c-0.6,0.1-1.2,0.2-1.8,0.3c-1.3,0.2-2.8,0.4-4.2,0.5l0.2-2.9
		C363.8,77.2,365.7,77,367.7,76.7z"/>
</g>
</svg>
