<?xml version="1.0" encoding="utf-8"?>
<!-- Generator: Adobe Illustrator 19.0.0, SVG Export Plug-In . SVG Version: 6.00 Build 0)  -->
<svg version="1.1" id="Layer_1" xmlns="http://www.w3.org/2000/svg" xmlns:xlink="http://www.w3.org/1999/xlink" x="0px" y="0px"
	 viewBox="-294 385.9 22.1 22.1" style="enable-background:new -294 385.9 22.1 22.1;" xml:space="preserve">
<metadata><?xpacket begin="﻿" id="W5M0MpCehiHzreSzNTczkc9d"?>
<x:xmpmeta xmlns:x="adobe:ns:meta/" x:xmptk="Adobe XMP Core 5.6-c067 79.157747, 2015/03/30-23:40:42        ">
   <rdf:RDF xmlns:rdf="http://www.w3.org/1999/02/22-rdf-syntax-ns#">
      <rdf:Description rdf:about=""/>
   </rdf:RDF>
</x:xmpmeta>
                                                                                                    
                                                                                                    
                                                                                                    
                                                                                                    
                                                                                                    
                                                                                                    
                                                                                                    
                                                                                                    
                                                                                                    
                                                                                                    
                                                                                                    
                                                                                                    
                                                                                                    
                                                                                                    
                                                                                                    
                                                                                                    
                                                                                                    
                                                                                                    
                                                                                                    
                                                                                                    
                           
<?xpacket end="w"?></metadata>
<style type="text/css">
	.st0{fill:#E90026;}
</style>
<g id="XMLID_1368_">
	<g id="XMLID_46_">
		<g id="XMLID_47_">
			<path id="XMLID_48_" class="st0" d="M-282.9,385.9c-6.1,0-11.1,5-11.1,11.1s5,11.1,11.1,11.1s11.1-5,11.1-11.1
				C-271.9,390.9-276.8,385.9-282.9,385.9z M-283.1,402.9c-0.8,0-1.2-0.5-1.2-1.1c0-0.7,0.4-1.2,1.2-1.2c0.8,0,1.2,0.5,1.2,1.2
				C-281.9,402.4-282.3,402.9-283.1,402.9z M-281.3,396.8c-0.6,0.6-0.8,1.3-0.8,2.2h-2c0-1.7,0.4-2.4,1.5-3.4
				c0.8-0.8,1.5-1.4,1.5-2.4c0-1.1-0.6-1.7-1.6-1.7c-0.8,0-1.7,0.5-1.7,1.6h-2.3c0-2.2,1.7-3.4,3.8-3.4c2.4,0,3.8,1.3,3.8,3.4
				C-279.1,394.7-280.2,395.8-281.3,396.8z"/>
		</g>
	</g>
</g>
</svg>
