<?xml version="1.0" encoding="utf-8"?>
<!-- Generator: Adobe Illustrator 19.0.0, SVG Export Plug-In . SVG Version: 6.00 Build 0)  -->
<svg version="1.1" id="Layer_1" xmlns="http://www.w3.org/2000/svg" xmlns:xlink="http://www.w3.org/1999/xlink" x="0px" y="0px"
	 viewBox="0 0 11.1 11.1" style="enable-background:new 0 0 11.1 11.1;" xml:space="preserve">
<metadata><?xpacket begin="﻿" id="W5M0MpCehiHzreSzNTczkc9d"?>
<x:xmpmeta xmlns:x="adobe:ns:meta/" x:xmptk="Adobe XMP Core 5.6-c067 79.157747, 2015/03/30-23:40:42        ">
   <rdf:RDF xmlns:rdf="http://www.w3.org/1999/02/22-rdf-syntax-ns#">
      <rdf:Description rdf:about=""/>
   </rdf:RDF>
</x:xmpmeta>
                                                                                                    
                                                                                                    
                                                                                                    
                                                                                                    
                                                                                                    
                                                                                                    
                                                                                                    
                                                                                                    
                                                                                                    
                                                                                                    
                                                                                                    
                                                                                                    
                                                                                                    
                                                                                                    
                                                                                                    
                                                                                                    
                                                                                                    
                                                                                                    
                                                                                                    
                                                                                                    
                           
<?xpacket end="w"?></metadata>
<style type="text/css">
	.st0{fill:#E90026;}
</style>
<g id="XMLID_91_">
	<path id="XMLID_96_" class="st0" d="M10.4,0H0.7C0.3,0,0,0.3,0,0.7v9.8c0,0.4,0.3,0.7,0.7,0.7h9.8c0.4,0,0.7-0.3,0.7-0.7V0.7
		C11.1,0.3,10.8,0,10.4,0z M4.1,4.3C4.5,3.9,5,3.6,5.5,3.6c0.6,0,1.1,0.2,1.4,0.6C7.3,4.6,7.4,5,7.4,5.5c0,1-0.8,1.9-1.9,1.9
		c-1,0-1.9-0.8-1.9-1.9C3.7,5,3.8,4.6,4.1,4.3z M9.9,9.9H1.2V4.3h1.6C2.6,4.6,2.5,5.1,2.5,5.5c0,1.7,1.4,3.1,3.1,3.1
		s3.1-1.4,3.1-3.1c0-0.4-0.1-0.9-0.3-1.2h1.6V9.9z M9.9,2.4c0,0.3-0.2,0.5-0.5,0.5H8.7c-0.3,0-0.5-0.2-0.5-0.5V1.7
		c0-0.3,0.2-0.5,0.5-0.5h0.7c0.3,0,0.5,0.2,0.5,0.5V2.4z"/>
</g>
</svg>
