<?xml version="1.0" encoding="utf-8"?>
<!-- Generator: Adobe Illustrator 19.0.0, SVG Export Plug-In . SVG Version: 6.00 Build 0)  -->
<svg version="1.1" id="Layer_1" xmlns="http://www.w3.org/2000/svg" xmlns:xlink="http://www.w3.org/1999/xlink" x="0px" y="0px"
	 viewBox="0 0 1024.3 101.2" style="enable-background:new 0 0 1024.3 101.2;" xml:space="preserve">
<metadata><?xpacket begin="﻿" id="W5M0MpCehiHzreSzNTczkc9d"?>
<x:xmpmeta xmlns:x="adobe:ns:meta/" x:xmptk="Adobe XMP Core 5.6-c067 79.157747, 2015/03/30-23:40:42        ">
   <rdf:RDF xmlns:rdf="http://www.w3.org/1999/02/22-rdf-syntax-ns#">
      <rdf:Description rdf:about=""/>
   </rdf:RDF>
</x:xmpmeta>
                                                                                                    
                                                                                                    
                                                                                                    
                                                                                                    
                                                                                                    
                                                                                                    
                                                                                                    
                                                                                                    
                                                                                                    
                                                                                                    
                                                                                                    
                                                                                                    
                                                                                                    
                                                                                                    
                                                                                                    
                                                                                                    
                                                                                                    
                                                                                                    
                                                                                                    
                                                                                                    
                           
<?xpacket end="w"?></metadata>
<style type="text/css">
	.st0{fill:#E90026;stroke:#FCFAFA;stroke-width:0.5489;stroke-miterlimit:10;}
	.st1{fill:#E90026;stroke:#FCFAFA;stroke-width:0.2745;stroke-miterlimit:10;}
	.st2{fill:none;stroke:#E90026;stroke-width:0.5489;stroke-miterlimit:10;}
	.st3{fill:#E90026;}
	.st4{fill:none;}
</style>
<path id="XMLID_2367_" class="st0" d="M93.9,44.3L93.9,44.3L93.9,44.3z"/>
<path id="XMLID_2346_" class="st1" d="M116.4,41.1c-1.1-1.2-2.4-2.2-3.8-2.8c0,0,0,0,0,0c-0.3-1-0.9-1.9-1.7-2.7
	c-1.8-1.2-3.9-1.9-6.1-1.9c-0.6,0-1.1,0.1-1.7,0.2c-1.1,0.2-2.2,0.5-3.2,0.9c-1.3,0.6-2.6,1.4-3.6,2.5c-1.3,1.5-2.2,3.3-2.6,5.3
	c0,0.6,0.1,1.1,0.2,1.7c0.4,2.6,2.4,4.5,5.2,5.2l0,0c1.6,2,4.3,3.1,7.4,3.1c0.7,0,1.5-0.1,2.2-0.2c3.9-0.6,6.9-2.5,8.1-5.3
	C117.7,45.1,117.6,43,116.4,41.1z M112.8,41.3c0.1-0.4,0.1-0.8,0.1-1.2l0,0c0.6,0.4,1.1,0.8,1.5,1.3c0.8,1.2,0.9,2.6,0.3,3.9
	c-1,2.2-3.5,3.8-6.9,4.3c-1.6,0.2-3.1,0.2-4.4-0.1c1-0.2,2-0.5,2.9-0.9C110,46.9,112.3,44.3,112.8,41.3z M95.9,45.5
	c-0.8-0.8-1.2-1.8-1.1-2.8c0.3-1.7,1.1-3.3,2.3-4.6c0.9-0.9,2.1-1.7,3.3-2.2c1.2-0.5,2.5-0.8,3.8-0.9c1.7,0,3.5,0.5,4.9,1.4
	c1.1,0.9,1.5,2.3,1.3,3.7c-0.4,2.4-2.4,4.6-5.5,6C101.3,47.6,97.7,47.4,95.9,45.5z M99.1,48.2c0.4,0,0.7,0.1,1.1,0.1
	c1.6,0,3.3-0.4,5-1.2c3.5-1.5,5.8-4.1,6.2-6.9c0.1-0.4,0.1-0.8,0-1.2c0.2,0.6,0.2,1.3,0.1,2c-0.4,2.6-2.6,4.9-5.8,6.3
	c-1.6,0.7-3.2,1.1-4.7,1.1C100.5,48.5,99.8,48.4,99.1,48.2z M115.7,46.6c-1.1,2.4-3.8,4.1-7.2,4.6c-2.5,0.4-4.9,0-6.6-1
	c1.2,0.5,2.5,0.7,3.9,0.7c0.7,0,1.5-0.1,2.2-0.2c3.8-0.6,6.7-2.5,7.8-5c0.2-0.4,0.3-0.8,0.4-1.2C116.2,45.3,116,45.9,115.7,46.6z"/>
<path id="XMLID_2342_" class="st0" d="M344.5,43.8l-35.7,17.9c-0.6,0.3-1,0.9-1.1,1.5l-1.6,0.9c-4.1,2.2-8.8,4.7-13.8,7.2
	c-3.2,1.6-31.4,15.8-31.1,20.1c0,0.3,0.1,0.9,1,1.2c6.8,2.3,34.4-8.9,51.8-17.6c0.4-0.2,0.7-0.4,1-0.5c0,0,0.1,0,0.1,0
	c0.1,0,0.2-0.1,0.2-0.2c0,0,0-0.1,0.1-0.1c0,0,0.1-0.1,0.1-0.1c0,0,0,0,0-0.1c0,0,0-0.1,0-0.1l0.3-2.9c2-0.8,11.4-4.7,17.7-7.6
	c5.7-2.6,12.9-8,15.2-9.8l1.2,2.6c0.1,0.2,0.2,0.3,0.4,0.4c0.2,0.1,0.4,0.1,0.6,0c3.5-1.7,4.9-6,3.1-9.5
	C352.2,43.5,348,42.1,344.5,43.8z M262.6,91.3c0.1-1.8,11.7-9.4,30.3-18.8c5-2.5,9.7-5,13.8-7.2l1.3-0.7l4.4,8.9c0,0,0,0,0,0.1
	c0.1,0.1,0.1,0.2,0.2,0.3c0,0,0,0.1,0.1,0.1C293,83.8,268.3,93.2,262.6,91.3z M350.9,54.9l-1.2-2.7c-0.1-0.2-0.3-0.4-0.5-0.4
	c-0.2,0-0.3,0-0.5,0.1c0,0-0.1,0-0.1,0.1c-0.1,0.1-9,7.2-15.6,10.2c-7.1,3.2-18,7.7-18.1,7.7c-0.2,0.1-0.4,0.3-0.4,0.6l-0.3,2.8
	c0,0,0,0,0,0c-0.1,0-0.1,0-0.2-0.1c0,0,0,0,0,0c-0.1-0.1-0.1-0.1-0.2-0.2l-4.5-9.1c-0.1-0.3,0-0.6,0.3-0.8l35.7-17.8
	c2.8-1.4,6.1-0.3,7.6,2.6C354,50.2,353.2,53.3,350.9,54.9z"/>
<path id="XMLID_2317_" class="st1" d="M86.5,47.4L86.5,47.4c0-0.1,0-0.2-0.1-0.2c0,0,0,0,0,0L75.3,28.6c-0.1-0.1-0.2-0.2-0.4-0.2
	H42.4c-0.4-0.4-0.8-0.8-1.3-1.2c-0.3-0.2-0.6-0.4-1-0.6c5.5-4,9-10.1,9.4-16.8H50c0.8,0,1.4-0.6,1.4-1.4c0-0.8-0.6-1.4-1.4-1.4h-1
	c-0.2-1.6-1.7-3.1-3.8-3.6C45.1,3.1,45,3,44.9,2.8c-0.6-1-1.7-1.6-3.1-1.6c-1,0-2.1,0.3-3,0.9c-0.8,0.5-1.5,1.1-2,1.8
	c-0.2,0-0.3,0-0.5,0c-0.4,0-0.7,0.1-1,0.1c0-0.3,0-0.6,0-0.8c-0.1-1.2-0.6-2.2-1.4-2.7c-0.4-0.3-0.6-0.4-0.8-0.4
	c-0.2,0-0.3,0.1-0.4,0.2c-0.2,0.2-0.1,0.5,0,0.7c0.1,0.4,0.4,1.1-0.1,2c0-0.4,0.1-0.7,0.1-0.9c0.1-0.2,0.1-0.5,0-0.7
	c-0.1-0.1-0.3-0.2-0.4-0.2c-0.2,0-0.4,0.1-0.8,0.4c-0.5,0.4-0.9,0.9-1.1,1.5C29.8,3.1,29.4,3,28.9,3c-0.1,0-0.3,0-0.4,0
	c-0.5-0.7-1.2-1.3-2.1-1.7c-0.9-0.5-1.9-0.7-2.8-0.7c-1.1,0-2.1,0.4-2.8,1c-0.2-0.1-0.3-0.2-0.5-0.2c-0.2,0-0.3,0.1-0.4,0.2
	c-0.2,0.2-0.1,0.5,0,0.7c0,0.1,0.1,0.3,0.1,0.4c-1.1,0.3-2,0.9-2.6,1.6c-0.4-0.1-0.7-0.1-1.1-0.1c-0.1,0-0.3,0-0.4,0l0,0
	c-0.5-0.7-1.3-1.3-2.1-1.7c-0.9-0.5-1.9-0.7-2.8-0.7c-1.5,0-2.7,0.6-3.3,1.7C7.4,3.7,7.4,3.9,7.3,4C6.2,4.4,5.2,5,4.6,5.8
	C4.3,6.1,4,6.5,3.9,6.9H1.5c-0.8,0-1.4,0.6-1.4,1.4c0,0.8,0.6,1.4,1.4,1.4H2c0.4,9,6.7,17,15.7,20c1,0.3,2.1,0.5,3.2,0.5h0.8
	L11.6,47.1c0,0,0,0,0,0c0,0.1-0.1,0.1-0.1,0.2v2.7c0,0.3,0.2,0.5,0.5,0.5h74c0.3,0,0.5-0.2,0.5-0.5L86.5,47.4
	C86.5,47.4,86.5,47.4,86.5,47.4z M40.5,27.9c0.8,0.7,1.5,1.5,2,2.4c0.5,0.9,0.9,1.9,1,2.9v0c0.1,1.4-0.1,2.7-0.7,4
	c-0.6,0.9-1.5,1.3-2.6,1.3c-2,0-4-1.4-5.4-3.9c-0.2-0.3-0.3-0.6-0.4-0.9c-0.1-0.1-0.1-0.2-0.1-0.3c-0.1-0.2-0.2-0.4-0.2-0.5
	c0,0,0-0.1,0-0.1c-0.6-1.7-0.6-3.3,0.1-4.6c0.1-0.3,0.3-0.5,0.5-0.7c0.5-0.6,1.3-1,2.1-1.1c0.2,0,0.3,0.1,0.5,0.1
	c0.1,0,0.3,0,0.4,0.1c0,0,0.1,0,0.1,0c0.1,0,0.2,0.1,0.3,0.1C38.9,26.9,39.7,27.3,40.5,27.9z M33.1,33c0,0,0,0.1,0,0.1
	c0.1,0.2,0.2,0.5,0.3,0.7c0,0.1,0.1,0.2,0.1,0.3c0.2,0.3,0.3,0.7,0.5,1c1.6,2.7,3.9,4.3,6.2,4.3c0.4,0,0.7,0,1.1-0.1
	c-0.5,0.5-1,0.9-1.5,1.2c-1.2,0.7-2.5,1-3.8,1c-2.7,0-5.2-1.4-6.5-3.8c-1-1.7-1.3-3.8-0.7-5.7c0.5-1.9,1.8-3.6,3.5-4.6
	c0.6-0.3,1.2-0.6,1.8-0.8c-0.3,0.3-0.6,0.7-0.8,1.1C32.5,29.2,32.5,31.1,33.1,33z M44.6,4.1c1.8,0.4,3.2,1.5,3.4,2.8h-0.2
	c-0.4-0.4-0.9-0.8-1.7-0.9c-0.3-0.1-0.7-0.1-1.1-0.1c-0.8,0-1.7,0.1-2.5,0.2c-0.5,0.1-1,0.1-1.4,0.2c-0.1-0.3-0.3-0.6-0.6-0.8
	c0.4-0.4,0.8-0.8,1.2-1.1C42.2,4.1,42.8,4,43.5,4C43.9,4,44.2,4,44.6,4.1z M45.8,6.9h-1.9C44.6,6.8,45.3,6.8,45.8,6.9z M39.2,2.9
	c0.8-0.5,1.7-0.7,2.6-0.7s1.5,0.3,2,0.7c-0.7-0.1-1.5,0-2.2,0.4c-0.6,0.3-1.2,0.9-1.7,1.5C39.9,4.9,40,4.9,40,5
	c-0.6-0.5-1.4-0.8-2.2-1C38.2,3.6,38.6,3.2,39.2,2.9z M34.9,5.1c0.4-0.1,0.8-0.2,1.3-0.2c1.9-0.1,3.7,0.8,4.1,2h0
	c-0.5-0.3-1.2-0.7-2.2-0.6c-0.8,0-1.6,0.3-2.4,0.6h-1.7c0-0.1,0.1-0.1,0.1-0.2C34.5,6.2,34.8,5.7,34.9,5.1z M31.5,2.8
	c0,0.4,0,0.8,0.2,1.3c-0.2,0.2-0.4,0.5-0.7,0.7c0-0.1,0-0.2,0-0.3C31,3.8,31.1,3.2,31.5,2.8z M30.5,6.4c1-0.8,2-1.6,2.6-2.5
	c0.5-0.8,0.6-1.6,0.5-2.2c0.4,0.4,0.6,1,0.6,1.6c0.1,0.9-0.2,2-0.8,2.9c-0.2,0.2-0.3,0.5-0.5,0.7h-3C30,6.7,30.3,6.5,30.5,6.4z
	 M30,4.1c0,0.1,0,0.2,0,0.4c0,0.3,0,0.7,0.1,1c-0.1,0.1-0.2,0.1-0.2,0.2c-0.1,0.1-0.3,0.2-0.4,0.3c0,0-0.1,0-0.1,0
	c0.1-0.6,0-1.3-0.3-1.9C29.4,4,29.7,4,30,4.1z M25.9,2.1c2,1,3,3,2.3,4.3c0,0.1-0.1,0.1-0.1,0.1c-0.3,0-1.2-0.9-1.8-1.5
	c-0.8-0.9-1.8-1.9-2.7-2.4c-0.5-0.3-1-0.4-1.6-0.4c-0.1,0-0.3,0-0.4,0c0,0-0.1-0.1-0.1-0.1C22.5,1.3,24.3,1.3,25.9,2.1z M26.4,6.5
	c0.2,0.2,0.3,0.3,0.5,0.4h-1.3C25.8,6.7,26.1,6.6,26.4,6.5z M25,6.2c0.1-0.3,0.2-0.5,0.4-0.8c0.1,0.1,0.2,0.2,0.3,0.3c0,0,0,0,0,0
	C25.4,5.8,25.2,6,25,6.2z M23.9,6.9h-1.9c0.1-0.2,0.1-0.4,0.2-0.5c0.2,0,0.3,0,0.4,0c0.4,0,0.8,0.1,1.2,0.1c0,0.1,0,0.1,0,0.2
	C23.9,6.8,23.9,6.8,23.9,6.9z M22.8,5.5c-0.1,0-0.2,0-0.3,0c0-0.2,0-0.4,0-0.6c0-0.5-0.1-1-0.2-1.4c0.4,0,0.8,0.1,1.2,0.2
	c0.4,0.3,0.8,0.6,1.2,1c-0.2,0.3-0.4,0.6-0.5,0.9C23.8,5.5,23.3,5.5,22.8,5.5z M20.4,5.1C21,4.3,21,3.5,21,2.9
	c0.8,0.9,0.8,2.5,0.1,4h-2.3C19.4,6.4,20,5.8,20.4,5.1z M20,3.8c-0.1,0.3-0.2,0.6-0.4,0.9c-0.2,0.3-0.5,0.7-0.9,1
	c-0.7,0.3-1.2,0.7-1.5,1.1C17.3,5.5,18.4,4.3,20,3.8z M16.3,5.2c0.1,0,0.3,0,0.4,0c-0.3,0.5-0.4,1.1-0.4,1.6h-0.7
	c-0.4-0.1-0.8-0.2-1.2-0.2c-0.4,0-0.7,0.1-1,0.2h-0.8C13.2,5.9,14.6,5.2,16.3,5.2z M13.3,3.4c0.5,0.3,1,0.7,1.4,1.1l0,0
	c-0.7,0.2-1.3,0.4-1.8,0.8l0,0c-0.4-0.5-1-0.9-1.6-1.2C11.1,4,11,4,10.9,3.9c-0.5-0.3-1-0.4-1.6-0.4c-0.2,0-0.5,0-0.7,0.1
	C9.6,2.6,11.6,2.5,13.3,3.4z M5.3,6.4c0.6-0.7,1.5-1.3,2.6-1.5c0.4-0.1,0.9-0.2,1.4-0.2c1.3,0,2.3,0.5,2.9,1.2
	c-0.3,0.3-0.5,0.6-0.6,1l0,0c-0.4,0-0.9,0-1.4-0.1c-1.3-0.1-2.7-0.2-3.6,0c-0.1,0-0.2,0.1-0.4,0.1H4.9C5,6.7,5.1,6.6,5.3,6.4z
	 M1.5,8.8c-0.2,0-0.4-0.2-0.4-0.5c0-0.3,0.2-0.5,0.4-0.5H50c0.2,0,0.4,0.2,0.4,0.5c0,0.3-0.2,0.5-0.4,0.5H1.5z M20.9,29.3
	c-1,0-1.9-0.2-2.9-0.5C9.4,25.9,3.4,18.3,3,9.8h45.5c-0.3,6.5-3.9,12.5-9.4,16.3c0,0,0,0,0,0c-0.7-0.3-1.5-0.5-2.3-0.5
	c0,0-0.1,0-0.1,0c-1.7-0.1-3.4,0.3-4.8,1.1c-0.8,0.5-1.5,1-2.1,1.7h-6.6c-0.2,0-0.3,0.1-0.4,0.2l-0.5,0.8L20.9,29.3L20.9,29.3z
	 M23.4,29.3H29c-0.5,0.8-0.9,1.6-1.1,2.5c-0.6,2.2-0.3,4.5,0.8,6.5c1.5,2.6,4.3,4.2,7.4,4.2c1.5,0,3-0.4,4.2-1.1
	c1.5-0.9,2.7-2.1,3.4-3.7c0.7-1.4,0.9-3,0.8-4.6c0,0,0,0,0,0s0,0,0,0c-0.1-1.2-0.5-2.3-1.1-3.3c-0.1-0.2-0.2-0.3-0.3-0.5h31.5
	l10.5,17.6H12.8L23.4,29.3z M85.5,49.6h-73v-1.8h73.1L85.5,49.6L85.5,49.6z"/>
<path id="XMLID_2308_" class="st2" d="M126,37.5c0-4.4,3.9-10.8,4.9-6.1c0,0,5.2,2,5.1,7.9c0,0,7.2-0.8,8.4,2c1.1,2.8,0,6.9,0,6.9
	s6.6,0,5.1,3.1c-1.5,3.1-0.3,3.6,1.6,6.9c2,3.3,3.3,1,3.3,4.3c0,3.3,3.6,3,3.6,6.4c0,3.4,0.5,4.9,1.3,7.2c0.8,2.3,0.8,1.8-0.3,5.3
	c-1.1,3.4-6.9,6.9-9.7,6.9c-2.8,0-10.7-2.8-7.1-15.3c0,0-3.3,5.4-1.6,12c0,0-7.5-7.2-4.8-15.6c2.8-8.4,2.5-10,2.5-10
	s-5.4,11-5.3,15.6c0,0-3-11.7,0.3-19.4c0,0-2.5,0.3-2.5,3.4c0,0-1.6-5.2-1.6-7.1c0-1.8-0.3,6.1-0.3,8.7c0,2.6-1.5,5.6-0.3,7.7
	c1.1,2.1,3.4,9.7,3.9,12.6c0,0-8-8.2-5.9-23C128.7,43.3,126,42,126,37.5z M156.6,87.6c8,1.6,10.5-3.4,10.5-3.4l0.5,2.8
	c4.8-5.7,3.3-15.1,3.3-15.1l2.8,10c0,0,2-0.2,2.8-4.3c0.8-4.1-3.6-17.1-3.6-17.1s0,0,1.6,2.5c1.6,2.5,4.4,13.3,4.4,13.3
	s3.3-2.3,1.6-8.4c-1.6-6.1-2-15.9-2-15.9c0,3.1,4.1,12.8,4.1,12.8c-0.2-3.7-0.3-12.9-0.3-18.8c0.1,2.2,0.4,4.6,1.1,6.4
	c1.6,4.3,1.6,9.8,1.6,9.8l1.3-8.4c0,0,0.7,10.7-1.3,14.3c-2,3.6-2.8,6.9-2.8,6.9l2.1-1.3c3,2.5-13,13.5-13,13.5s9.7-4.4,13.3-10.2
	s4.8-14.8,3-23.8c-1.8-9-1.5-14.3-1.1-21.2c0.3-6.9-3.9-4.1-6.4-2c-2.5,2.1-1.3,4.3-3.9,6.1c-2.6,1.8-2.5,2.8-2.8,5.4
	c-0.3,2.6-3.4,3.9-7.2,4.3c-3.8,0.3,0.8,4.3-0.8,5.6c-1.6,1.3-2.6,2.5-2.6,3.8c0,1.3,1.8,1.8-2.5,2c-4.3,0.2-2.6,2.1-1.6,3.4
	c1,1.3,0,3.1-1,4.1c-1,1,1.8,2.3,1.8,2.3c1.5,1.3,0.7,6.1,1.6,7.5c1,1.5,1,2.8,1,4.8c0,2-2,4.4-2.5,5.6
	C159.3,85.9,156.6,87.6,156.6,87.6z M150.3,53.7c-1.1,2,2.5,3.9,4,5.2c1.5,1.3,2.1,4.8,2.1,4.8s1-0.4,0.7-2
	c-0.3-1.5-0.8-5.3,1.1-6.9c1.9-1.6,3.3,0.1,3.1-2c-0.2-2.1,2.6-2.6,1.5-3c-1.1-0.3-4.3-3.4-7-5.5c-3.4-2.6-8-2.8-8.4-1.4
	c-0.4,1.4,1.2,4.8,3.1,6.5C152.3,51.2,151.4,51.8,150.3,53.7z M176.8,33.7c0,0-6.6-3.7-10.6-1.4c-4,2.3-8,4.8-9.2,5.4
	c-1.2,0.5-3.5,3.4-2.7,4.2c0.8,0.8,8.5,6.7,8.5,6.7s0.7-3,3.5-3.8c2.8-0.9,4.9-2.5,4.9-4.3c0-1.8,2.2-4.7,4.5-5
	C178,35,178,33.4,176.8,33.7z M171,29.5c-0.3-1.5-2.5-3.3-3.4-6.1c-0.9-2.8-3.8,0.4-5-2.2c-1.2-2.6-2.1-0.5-3.3,1.3
	c-1.2,1.9-4.3-0.2-5.8-2.4c-1.5-2.2-2.1,3.3-3.4,3c-1.3-0.3-1.6,1.6-3.4,3.2c-1.8,1.5-2.3,0.1-4.3,1.1c-2,1-3.4,3.7-3.4,3.7
	s5.8-2.5,14.4-4.5c1-0.2,2-0.4,3.1-0.4c0.1,0.3,0.2,0.9,0.4,1.8c0,0,0,0,0,0s-0.3-1.1-0.4-1.8C164.1,25.7,171,29.5,171,29.5z
	 M158.9,27.7c0,0,0,2.7-1.2,4.7c0,0,1,2.5,2.5,1.1c1.5-1.4,4.7-2.6,6.1-2.6c1.4,0,4.8,0.5,3.4-0.7C169.7,30.2,162.9,27.6,158.9,27.7
	z M157.1,28.3c0-0.1-0.1-0.2-0.1-0.3c-0.4,0-14,0.5-19.9,7.5c0,0,0.1,2.5,1.9,2.7c1.8,0.2,3.9-1.9,4.8-1.1c0.9,0.8,1.2,2.5,2.5,2.1
	C147.5,38.8,158.4,33.9,157.1,28.3z M158,35.6c0.7-0.5-1-2-1-2c-1.1,3.9-9.3,7.5-9.3,7.5s5.1,0.6,5.2-0.6
	C153,39.3,157.3,36.1,158,35.6z"/>
<g id="XMLID_2303_">
	<path id="XMLID_2307_" class="st3" d="M207.2,49.4c-0.6,0.6-0.5,0.3-0.8,1c-0.8-0.6-3.4-2.1-3.7-4.4c-0.4-2.5,2.7-4.6,3.6-3.8
		c1.2,1.2-2.7,0.1-2.4,3.7C204,47.5,205.8,48.4,207.2,49.4z"/>
	<path id="XMLID_2304_" class="st3" d="M234.9,69.9c-0.6,0.6-3.3,0-4.6-0.3c-4.2-0.9-9.7-2.6-13.3-4.9c-3.3-2.1-4.9-2.8-8.2-5.4
		c-0.9-0.7-2.4-3.2-2.5-4c-0.2-0.9-0.3-1-0.1-2.1c0.2-0.9-0.1-2.4,0.5-3.1c1.2-1.6,2.4-1.6,3.7-1.3c0.2-0.4,0.7-0.9,1.6-0.8
		c2.9,0.5,5,3.4,6.8,5.6c1.7,2.2,3.3,4.2,5.1,5.8c2,1.7,3.7,4,5.6,5.4C231.5,66.5,236,68.8,234.9,69.9z M210.2,58.1
		c3.1,2.7,12.4,8.2,16.8,8.9c-4-1.6-12.8-6.9-15.5-9.8c-0.9-0.9-2.1-3.2-3.4-2.3C207.5,55.4,209.3,57.4,210.2,58.1z"/>
</g>
<g id="XMLID_2284_">
	<path id="XMLID_2302_" class="st4" d="M55,85.7c-1.8,0.3-5.6,0-5.4,2.3c0.1,1.2,3.9,0.4,5.6,0c0.6-0.2,1.2-0.4,1.9-0.6l-0.9-1.9
		C55.7,85.5,55.3,85.6,55,85.7z"/>
	<path id="XMLID_2301_" class="st4" d="M56.1,85.4l0.9,1.9c2.4-0.9,5.5-2.2,8.6-3.8l-0.9-1.3C61.5,83.7,58.4,84.8,56.1,85.4z"/>
	<path id="XMLID_2300_" class="st4" d="M64.7,82.2l0.9,1.3c1.6-0.8,3.1-1.6,4.7-2.5l-0.8-1C68,80.8,66.3,81.6,64.7,82.2z"/>
	<path id="XMLID_2299_" class="st4" d="M70.3,81c1.6-0.9,3.2-1.9,4.5-2.8l-0.3-0.7c-1.5,0.9-3.3,1.8-5,2.6L70.3,81z"/>
	<path id="XMLID_2298_" class="st4" d="M79.3,74.5c-1.2,0.9-2.8,1.9-4.7,2.9l0.3,0.7C76.7,76.9,78.3,75.6,79.3,74.5z"/>
	<path id="XMLID_2297_" class="st3" d="M41.9,84.7c-2.3,0.9-4.8,2.4-6.9,1.2c-4.6-2.5-0.2-6.5-2.6-5.9c-1.7,0.4-1.6,5.8,1.8,7.4
		c3.1,1.4,7-0.5,8.4-1C41.9,85.5,42.2,86,41.9,84.7z"/>
	<path id="XMLID_2296_" class="st3" d="M83.5,68L83.4,76c1.9-1.6,3.7-3.2,5.3-4.8c0.2-0.2,0.4-0.4,0.7-0.7l-1.2-4.5
		C86.6,66.6,85,67.4,83.5,68z"/>
	<path id="XMLID_2295_" class="st3" d="M80.4,63.7c-1.9,0.7-4.1,1.1-6.4,1.5l2.2,6.2c1.9-1.1,3.5-2.1,4.7-2.9
		c-1,1.1-2.6,2.4-4.5,3.7l0.9,2.4c1.4-1,2.9-2.1,4.2-3.3l0.1-8.1C81.2,63.4,80.8,63.5,80.4,63.7z"/>
	<path id="XMLID_2294_" class="st3" d="M92.9,63.8l1.2,4.5c1.5-1.5,3.6-3.7,3.3-4.7C97.2,62.5,95.2,62.9,92.9,63.8z"/>
	<g id="XMLID_2291_">
		<path id="XMLID_2293_" class="st3" d="M81.6,82l-2.2-6.2c-1.6,0.3-3.2,0.6-4.7,1.1c-1.2,0.3-2.4,0.6-3.7,0.8l5.6,6.9
			C78.4,83.8,80.1,82.9,81.6,82z"/>
		<path id="XMLID_2292_" class="st3" d="M77.4,85.6l1.7,2.1c1.2-0.7,2.5-1.6,3.7-2.5l-0.9-2.4C80.5,83.7,79,84.6,77.4,85.6z"/>
	</g>
	<path id="XMLID_2290_" class="st3" d="M55.1,87.9c-1.7,0.5-5.5,1.2-5.6,0c-0.1-2.3,3.6-2,5.4-2.3c0.4-0.1,0.7-0.2,1.2-0.3L51,74.6
		c-2.6,0.5-5.1,1.3-6.7,3.1c-0.9,1-0.7,2.1-0.4,2.6c-1.4,1.4-2.4,2.8-1.4,5.6c0.4,1.2,2.4,2,3.4,3c1.2,1.2,1.5,1.1,2.7,1.6
		c1.1,0.4,5.3,0.6,6.9,0.1c1-0.3,1.9-0.6,2.7-0.9L57,87.3C56.3,87.6,55.7,87.8,55.1,87.9z"/>
	<path id="XMLID_2289_" class="st3" d="M69.8,85.5l-6-8.5c-0.7,0.1-1.5,0.1-2.2,0.2c-1.7,0.1-3.7,0.3-5.6,0.6l5.2,10.8
		C63.5,88.1,66.6,86.9,69.8,85.5z"/>
	<path id="XMLID_2288_" class="st3" d="M62.1,90.6l1.1,2.3c3.5-1.3,5.6-2.5,8.9-4l-1.4-2C67.5,88.4,64.5,89.7,62.1,90.6z"/>
	<g id="XMLID_2285_">
		<path id="XMLID_2287_" class="st3" d="M69.2,72.6L67,63.9c-1.6-0.4-3.3-1-5-1.6l1.8,10.2C65.6,72.6,67.4,72.6,69.2,72.6z"/>
		<path id="XMLID_2286_" class="st3" d="M64.2,74.1l0.4,2.5c0.5,0,1.1,0,1.7,0c1.2,0,2.5-0.1,3.8-0.2l-0.6-2.6
			C67.7,73.9,65.9,74,64.2,74.1z"/>
	</g>
</g>
<path id="XMLID_2283_" class="st4" d="M268.2,61.7c1.3,0,4-0.7,4.2,1c0.1,0.9-2.7,0.8-4,0.7c-0.4,0-0.9-0.1-1.5-0.2l0.4-1.5
	C267.7,61.7,268,61.7,268.2,61.7z"/>
<path id="XMLID_2282_" class="st4" d="M267.4,61.6l-0.4,1.5c-1.8-0.3-4.2-0.9-6.6-1.7l0.5-1C263.3,61.1,265.7,61.5,267.4,61.6z"/>
<path id="XMLID_2281_" class="st4" d="M260.8,60.5l-0.5,1c-1.2-0.4-2.5-0.8-3.6-1.2l0.4-0.8C258.4,59.8,259.6,60.2,260.8,60.5z"/>
<path id="XMLID_2280_" class="st4" d="M256.7,60.2c-1.3-0.5-2.5-1-3.6-1.5l0.1-0.6c1.2,0.4,2.5,0.8,3.9,1.2L256.7,60.2z"/>
<path id="XMLID_2279_" class="st4" d="M249.5,56.7c1,0.5,2.3,1,3.7,1.5l-0.1,0.6C251.6,58.1,250.4,57.4,249.5,56.7z"/>
<path id="XMLID_2278_" class="st3" d="M277.4,59.4c1.7,0.4,3.7,1.1,5.1,0c3-2.3-0.7-4.6,1.1-4.5c1.2,0.1,1.9,3.9-0.4,5.5
	c-2.1,1.4-5.1,0.5-6.1,0.3C277.6,60,277.4,60.3,277.4,59.4z"/>
<path id="XMLID_2277_" class="st3" d="M236.6,55.2l1.1,5.8c-1.6-0.9-3-1.9-4.3-2.8c-0.2-0.1-0.4-0.2-0.6-0.4l0.3-3.4
	C234.2,54.7,235.5,55,236.6,55.2z"/>
<path id="XMLID_2276_" class="st3" d="M247.4,49.1c1.5,0.2,3.1,0.3,4.7,0.3l-0.8,4.7c-1.5-0.5-2.8-1-3.7-1.5
	c0.9,0.7,2.1,1.4,3.6,2.1l-0.3,1.8c-1.2-0.6-2.3-1.2-3.4-1.8l-1.1-5.8C246.7,49,247.1,49.1,247.4,49.1z"/>
<path id="XMLID_2275_" class="st3" d="M223.3,45.3l-0.3,3.4c-1.2-0.9-3-2.2-3-3C220.1,44.8,221.5,44.9,223.3,45.3z"/>
<g id="XMLID_2272_">
	<path id="XMLID_2274_" class="st3" d="M248.8,62.4l0.8-4.7c1.2,0,2.3,0,3.5,0.2c0.9,0.1,1.8,0.1,2.7,0.1l-3.1,5.6
		C251.3,63.2,250,62.8,248.8,62.4z"/>
	<path id="XMLID_2273_" class="st3" d="M252.3,64.4l-0.9,1.7c-1-0.4-2-0.8-3-1.3l0.3-1.8C249.8,63.4,251,63.9,252.3,64.4z"/>
</g>
<path id="XMLID_2271_" class="st3" d="M268.4,63.3c1.2,0.1,4.1,0.2,4-0.7c-0.2-1.7-2.8-1-4.2-1c-0.3,0-0.5,0-0.9,0l2.3-8.4
	c1.9,0,3.8,0.3,5.2,1.4c0.8,0.6,0.8,1.4,0.6,1.8c1.2,0.8,2,1.7,1.7,3.8c-0.2,0.9-1.4,1.7-2,2.6c-0.7,1-0.9,1-1.7,1.5
	c-0.7,0.4-3.7,1.1-4.9,0.9c-0.7-0.1-1.4-0.2-2-0.3l0.5-1.8C267.5,63.2,268,63.3,268.4,63.3z"/>
<path id="XMLID_2270_" class="st3" d="M257.7,63.4l3.2-6.8c0.5,0,1.1-0.1,1.6-0.1c1.3-0.1,2.7-0.3,4.1-0.2l-2.3,8.4
	C262.5,64.5,260.1,64,257.7,63.4z"/>
<path id="XMLID_2269_" class="st3" d="M263.8,66.1l-0.5,1.8c-2.6-0.5-4.3-1.1-6.9-1.8l0.8-1.6C259.6,65.2,262,65.8,263.8,66.1z"/>
<g id="XMLID_2266_">
	<path id="XMLID_2268_" class="st3" d="M235.8,49.5l0.5-6.4c1.1-0.5,2.2-1.1,3.4-1.8l0,7.5C238.3,49.1,237,49.3,235.8,49.5z"/>
	<path id="XMLID_2267_" class="st3" d="M239.5,50l0,1.8c-0.4,0.1-0.8,0.1-1.2,0.2c-0.9,0.2-1.8,0.3-2.8,0.3l0.1-1.9
		C237,50.3,238.3,50.2,239.5,50z"/>
</g>
<path id="XMLID_1_" class="st0" d="M930.5,52.6L930.5,52.6L930.5,52.6z"/>
<path id="XMLID_2478_" class="st1" d="M907.5,55.5c1.3,2.8,4.2,4.7,8.1,5.3c0.8,0.1,1.5,0.2,2.2,0.2c3.2,0,5.9-1.1,7.4-3.1l0,0
	c2.8-0.7,4.8-2.6,5.2-5.2c0.2-0.5,0.3-1.1,0.2-1.7c-0.4-2-1.3-3.8-2.6-5.3c-1.1-1-2.3-1.9-3.6-2.5c-1-0.5-2.1-0.8-3.2-0.9
	c-0.6-0.1-1.1-0.2-1.7-0.2c-2.1,0.1-4.2,0.7-6.1,1.9c-0.8,0.8-1.4,1.7-1.7,2.7c0,0,0,0,0,0c-1.4,0.7-2.7,1.6-3.8,2.8
	C906.8,51.3,906.6,53.5,907.5,55.5z M918,56.9c1,0.4,2,0.7,2.9,0.9c-1.3,0.3-2.8,0.4-4.4,0.1c-3.4-0.5-5.9-2.1-6.9-4.3
	c-0.6-1.4-0.5-2.8,0.3-3.9c0.4-0.5,1-0.9,1.5-1.3l0,0c0,0.4,0,0.8,0.1,1.2C912,52.7,914.4,55.3,918,56.9z M919.5,54.4
	c-3.1-1.4-5.2-3.6-5.5-6c-0.2-1.5,0.2-2.8,1.3-3.7c1.4-0.9,3.1-1.3,4.9-1.4c1.3,0.1,2.6,0.4,3.8,0.9c1.2,0.5,2.3,1.3,3.3,2.2
	c1.2,1.3,2,2.9,2.3,4.6c0,1-0.4,2-1.1,2.8C926.6,55.7,923.1,56,919.5,54.4z M923.1,56.9c-1.5,0-3.1-0.4-4.7-1.1
	c-3.2-1.4-5.4-3.8-5.8-6.3c-0.1-0.7-0.1-1.4,0.1-2c0,0.4,0,0.8,0,1.2c0.4,2.8,2.8,5.3,6.2,6.9c1.7,0.8,3.4,1.2,5,1.2
	c0.4,0,0.8,0,1.1-0.1C924.6,56.7,923.9,56.9,923.1,56.9z M908.1,53c0.1,0.4,0.2,0.8,0.4,1.2c1.1,2.6,4.1,4.4,7.8,5
	c0.8,0.1,1.5,0.2,2.2,0.2c1.4,0,2.8-0.3,3.9-0.7c-1.7,1-4.1,1.3-6.6,1c-3.5-0.5-6.2-2.3-7.2-4.6C908.3,54.3,908.2,53.6,908.1,53z"/>
<path id="XMLID_2449_" class="st1" d="M937.9,55.7v2.7c0,0.3,0.2,0.5,0.5,0.5h74c0.3,0,0.5-0.2,0.5-0.5v-2.7c0-0.1,0-0.1-0.1-0.2
	c0,0,0,0,0,0l-10.1-16.9h0.8c1.1,0,2.1-0.2,3.2-0.5c9-3,15.2-11.1,15.7-20h0.5c0.8,0,1.4-0.6,1.4-1.4c0-0.8-0.6-1.4-1.4-1.4h-2.4
	c-0.2-0.4-0.4-0.8-0.7-1.1c-0.7-0.8-1.7-1.4-2.8-1.8c-0.1-0.1-0.1-0.3-0.2-0.5c-0.6-1.1-1.8-1.7-3.3-1.7c-1,0-1.9,0.3-2.8,0.7
	c-0.9,0.4-1.6,1-2.1,1.7l0,0c-0.1,0-0.3,0-0.4,0c-0.4,0-0.8,0-1.1,0.1c-0.6-0.7-1.5-1.3-2.6-1.6c0-0.2,0.1-0.3,0.1-0.4
	c0.1-0.2,0.2-0.5,0-0.7c-0.1-0.1-0.3-0.2-0.4-0.2c-0.1,0-0.3,0.1-0.5,0.2c-0.7-0.7-1.6-1-2.8-1c-1,0-1.9,0.2-2.8,0.7
	c-0.9,0.4-1.6,1.1-2.1,1.7c-0.2,0-0.3,0-0.4,0c-0.5,0-0.9,0.1-1.3,0.2c-0.2-0.6-0.6-1.2-1.1-1.5c-0.4-0.3-0.6-0.4-0.8-0.4
	c-0.1,0-0.3,0.1-0.4,0.2c-0.2,0.2-0.1,0.5,0,0.7c0.1,0.2,0.2,0.5,0.1,0.9c-0.4-0.9-0.2-1.6-0.1-2c0.1-0.2,0.2-0.5,0-0.7
	c-0.1-0.1-0.3-0.2-0.4-0.2c-0.2,0-0.4,0.1-0.8,0.4c-0.9,0.6-1.4,1.5-1.4,2.7c0,0.3,0,0.5,0,0.8c-0.3-0.1-0.7-0.1-1-0.1
	c-0.2,0-0.3,0-0.5,0c-0.5-0.7-1.2-1.3-2-1.8c-1-0.6-2-0.9-3-0.9c-1.4,0-2.6,0.6-3.1,1.6c-0.1,0.2-0.2,0.3-0.2,0.5
	c-2.1,0.5-3.6,2-3.8,3.6h-1c-0.8,0-1.4,0.6-1.4,1.4c0,0.8,0.6,1.4,1.4,1.4h0.5c0.3,6.7,3.8,12.8,9.4,16.8c-0.3,0.2-0.7,0.4-1,0.6
	c-0.5,0.4-0.9,0.8-1.3,1.2h-32.5c-0.2,0-0.3,0.1-0.4,0.2l-11.1,18.6c0,0,0,0,0,0C937.9,55.6,937.9,55.7,937.9,55.7L937.9,55.7
	C937.9,55.7,937.9,55.7,937.9,55.7z M986.3,35.1c0.1,0,0.2-0.1,0.3-0.1c0,0,0.1,0,0.1,0c0.1,0,0.3,0,0.4-0.1c0.2,0,0.3-0.1,0.5-0.1
	c0.8,0.1,1.6,0.5,2.1,1.1c0.2,0.2,0.3,0.4,0.5,0.7c0.6,1.2,0.7,2.9,0.1,4.6c0,0,0,0.1,0,0.1c-0.1,0.2-0.1,0.4-0.2,0.5
	c0,0.1-0.1,0.2-0.1,0.3c-0.1,0.3-0.3,0.6-0.4,0.9c-1.4,2.4-3.4,3.9-5.4,3.9c-1.1,0-2-0.5-2.6-1.3c-0.6-1.2-0.8-2.6-0.7-4v0
	c0.2-1,0.5-2,1-2.9c0.5-0.9,1.2-1.7,2-2.4C984.6,35.7,985.5,35.3,986.3,35.1z M991.1,36.2c-0.2-0.4-0.5-0.8-0.8-1.1
	c0.6,0.2,1.3,0.4,1.8,0.8c1.7,1,3,2.6,3.5,4.6c0.5,2,0.3,4-0.7,5.7c-1.3,2.3-3.8,3.8-6.5,3.8c-1.3,0-2.6-0.3-3.8-1
	c-0.6-0.3-1.1-0.7-1.5-1.2c0.3,0.1,0.7,0.1,1.1,0.1c2.3,0,4.6-1.6,6.2-4.3c0.2-0.3,0.4-0.7,0.5-1c0-0.1,0.1-0.2,0.1-0.3
	c0.1-0.2,0.2-0.5,0.3-0.7c0,0,0-0.1,0-0.1C991.9,39.5,991.8,37.6,991.1,36.2z M980.9,12.4c0.7,0,1.3,0.1,1.8,0.3
	c0.4,0.3,0.8,0.7,1.2,1.1c-0.2,0.3-0.4,0.5-0.6,0.8c-0.4,0-0.9-0.1-1.4-0.2c-0.8-0.1-1.7-0.2-2.5-0.2c-0.4,0-0.8,0-1.1,0.1
	c-0.8,0.2-1.4,0.5-1.7,0.9h-0.2c0.2-1.2,1.6-2.4,3.4-2.8C980.1,12.4,980.5,12.4,980.9,12.4z M980.4,15.3h-1.9
	C979.1,15.2,979.7,15.2,980.4,15.3z M986.5,12.4c-0.9,0.2-1.6,0.5-2.2,1c0.1-0.1,0.2-0.1,0.2-0.2c-0.6-0.6-1.1-1.1-1.7-1.5
	c-0.7-0.4-1.6-0.5-2.2-0.4c0.5-0.4,1.2-0.7,2-0.7c0.8,0,1.8,0.3,2.6,0.7C985.7,11.6,986.2,12,986.5,12.4z M990.2,15.1
	c0,0.1,0.1,0.1,0.1,0.2h-1.7c-0.8-0.3-1.7-0.6-2.4-0.6c-1-0.1-1.7,0.3-2.2,0.6h0c0.4-1.3,2.1-2.1,4.1-2c0.5,0,0.9,0.1,1.3,0.2
	C989.6,14,989.8,14.6,990.2,15.1z M993.4,12.8c0,0.1,0,0.2,0,0.3c-0.3-0.2-0.5-0.4-0.7-0.7c0.2-0.5,0.2-0.9,0.2-1.3
	C993.2,11.6,993.4,12.1,993.4,12.8z M994.5,15.3h-3c-0.2-0.2-0.4-0.4-0.5-0.7c-0.6-0.9-0.9-2-0.8-2.9c0-0.7,0.2-1.2,0.6-1.6
	c-0.1,0.6,0,1.4,0.5,2.2c0.6,0.9,1.7,1.8,2.6,2.5C994.1,14.9,994.3,15.1,994.5,15.3z M995.3,12.3c-0.3,0.6-0.4,1.3-0.3,1.9
	c0,0-0.1,0-0.1,0c-0.1-0.1-0.2-0.2-0.4-0.3c-0.1-0.1-0.2-0.1-0.2-0.2c0.1-0.3,0.1-0.7,0.1-1c0-0.1,0-0.2,0-0.4
	C994.6,12.4,995,12.3,995.3,12.3z M1002.8,10.5c0,0-0.1,0.1-0.1,0.1c-0.1,0-0.3,0-0.4,0c-0.5,0-1.1,0.1-1.6,0.4
	c-1,0.5-1.9,1.5-2.7,2.4c-0.6,0.7-1.5,1.5-1.8,1.5c0,0,0,0-0.1-0.1c-0.7-1.4,0.3-3.3,2.3-4.3C1000,9.7,1001.9,9.7,1002.8,10.5z
	 M998.8,15.3h-1.3c0.1-0.1,0.3-0.3,0.5-0.4C998.3,14.9,998.5,15.1,998.8,15.3z M998.6,14.1C998.6,14.1,998.7,14.1,998.6,14.1
	c0.1-0.1,0.2-0.2,0.3-0.3c0.2,0.2,0.4,0.5,0.4,0.8C999.2,14.4,998.9,14.2,998.6,14.1z M1000.4,15c0-0.1,0-0.1,0-0.2
	c0.4,0,0.8,0,1.2-0.1c0.1,0,0.3,0,0.4,0c0.1,0.2,0.1,0.4,0.2,0.5h-1.9C1000.4,15.2,1000.4,15.1,1000.4,15z M1000.2,13.9
	c-0.1-0.3-0.3-0.6-0.5-0.9c0.4-0.4,0.8-0.8,1.2-1c0.4-0.1,0.8-0.2,1.2-0.2c-0.1,0.4-0.2,0.9-0.2,1.4c0,0.2,0,0.4,0,0.6
	c-0.1,0-0.2,0-0.3,0C1001,13.9,1000.6,13.9,1000.2,13.9z M1005.6,15.3h-2.3c-0.7-1.5-0.7-3.1,0.1-4c-0.1,0.6,0,1.4,0.5,2.2
	C1004.3,14.1,1004.9,14.7,1005.6,15.3z M1007.1,15.1c-0.3-0.4-0.8-0.8-1.5-1.1c-0.4-0.3-0.7-0.7-0.9-1c-0.2-0.3-0.3-0.6-0.4-0.9
	C1006,12.7,1007.1,13.9,1007.1,15.1z M1011.8,15.3h-0.8c-0.3-0.1-0.6-0.2-1-0.2c-0.4,0-0.8,0.1-1.2,0.2h-0.7c0-0.6-0.1-1.1-0.4-1.6
	c0.1,0,0.3,0,0.4,0C1009.7,13.6,1011.2,14.3,1011.8,15.3z M1015.6,12c-0.2,0-0.4-0.1-0.7-0.1c-0.5,0-1.1,0.1-1.6,0.4
	c-0.1,0-0.2,0.1-0.3,0.2c-0.7,0.3-1.2,0.7-1.6,1.2l0,0c-0.5-0.4-1.1-0.6-1.8-0.8l0,0c0.4-0.4,0.9-0.8,1.4-1.1
	C1012.8,10.9,1014.7,11,1015.6,12z M1019.4,15.3h-1.2c-0.1,0-0.2-0.1-0.4-0.1c-0.9-0.2-2.3-0.1-3.6,0c-0.5,0-1,0.1-1.4,0.1l0,0
	c-0.1-0.3-0.3-0.7-0.6-1c0.6-0.7,1.6-1.2,2.9-1.2c0.4,0,0.9,0.1,1.4,0.2c1.1,0.3,2,0.8,2.6,1.5C1019.2,14.9,1019.3,15.1,1019.4,15.3
	z M974.4,17.2c-0.2,0-0.4-0.2-0.4-0.5c0-0.3,0.2-0.5,0.4-0.5h48.5c0.2,0,0.4,0.2,0.4,0.5c0,0.3-0.2,0.5-0.4,0.5H974.4z M1003.5,37.7
	h-1.4l-0.5-0.8c-0.1-0.1-0.2-0.2-0.4-0.2h-6.6c-0.6-0.7-1.3-1.2-2.1-1.7c-1.5-0.8-3.2-1.2-4.8-1.1c0,0-0.1,0-0.1,0
	c-0.8,0.1-1.5,0.2-2.3,0.5c0,0,0,0,0,0c-5.5-3.8-9.1-9.8-9.4-16.3h45.5c-0.4,8.5-6.4,16.2-15,19.1
	C1005.4,37.5,1004.4,37.7,1003.5,37.7L1003.5,37.7z M1011.5,55.3h-72.3l10.5-17.6h31.5c-0.1,0.2-0.2,0.3-0.3,0.5
	c-0.6,1-1,2.1-1.1,3.3c0,0,0,0,0,0c0,0,0,0,0,0c-0.2,1.6,0.1,3.1,0.8,4.6c0.8,1.6,1.9,2.8,3.4,3.7c1.3,0.7,2.8,1.1,4.2,1.1
	c3,0,5.9-1.6,7.4-4.2c1.1-2,1.4-4.3,0.8-6.5c-0.2-0.9-0.6-1.7-1.1-2.5h5.6L1011.5,55.3z M938.8,58v-1.8h73.1V58H938.8L938.8,58z"/>
<path id="XMLID_2440_" class="st2" d="M897.7,66.4c2.1,14.8-5.9,23-5.9,23c0.5-3,2.8-10.5,3.9-12.6c1.1-2.1-0.3-5.1-0.3-7.7
	c0-2.6-0.3-10.5-0.3-8.7c0,1.8-1.6,7.1-1.6,7.1c0-3.1-2.5-3.4-2.5-3.4c3.3,7.7,0.3,19.4,0.3,19.4c0.2-4.6-5.3-15.6-5.3-15.6
	s-0.3,1.6,2.5,10c2.8,8.4-4.8,15.6-4.8,15.6c1.6-6.6-1.6-12-1.6-12c3.6,12.5-4.3,15.3-7.1,15.3c-2.8,0-8.5-3.4-9.7-6.9
	c-1.1-3.4-1.1-3-0.3-5.3c0.8-2.3,1.3-3.8,1.3-7.2c0-3.4,3.6-3.1,3.6-6.4c0-3.3,1.3-1,3.3-4.3c2-3.3,3.1-3.8,1.6-6.9
	c-1.5-3.1,5.1-3.1,5.1-3.1s-1.1-4.1,0-6.9c1.1-2.8,8.4-2,8.4-2c-0.2-5.9,5.1-7.9,5.1-7.9c1-4.8,4.9,1.6,4.9,6.1
	C898.4,50.3,895.6,51.6,897.7,66.4z M864.6,93.2c-0.5-1.1-2.5-3.6-2.5-5.6c0-2,0-3.3,1-4.8c1-1.5,0.2-6.2,1.6-7.5
	c0,0,2.8-1.3,1.8-2.3c-1-1-2-2.8-1-4.1c1-1.3,2.6-3.3-1.6-3.4c-4.3-0.2-2.5-0.7-2.5-2c0-1.3-1-2.5-2.6-3.8c-1.6-1.3,3-5.3-0.8-5.6
	c-3.8-0.3-6.9-1.6-7.2-4.3c-0.3-2.6-0.2-3.6-2.8-5.4c-2.6-1.8-1.5-3.9-3.9-6.1c-2.5-2.1-6.7-4.9-6.4,2c0.3,6.9,0.7,12.1-1.1,21.2
	c-1.8,9-0.7,18,3,23.8s13.3,10.2,13.3,10.2s-15.9-11-13-13.5l2.1,1.3c0,0-0.8-3.3-2.8-6.9c-2-3.6-1.3-14.3-1.3-14.3l1.3,8.4
	c0,0,0-5.6,1.6-9.8c0.7-1.8,1-4.2,1.1-6.4c0,5.9-0.1,15.1-0.3,18.8c0,0,4.1-9.7,4.1-12.8c0,0-0.3,9.8-2,15.9
	c-1.6,6.1,1.6,8.4,1.6,8.4s2.8-10.8,4.4-13.3c1.6-2.5,1.6-2.5,1.6-2.5s-4.4,13-3.6,17.1c0.8,4.1,2.8,4.3,2.8,4.3l2.8-10
	c0,0-1.5,9.4,3.3,15.1l0.5-2.8c0,0,2.5,5.1,10.5,3.4C867.7,95.9,865.1,94.3,864.6,93.2z M873.9,57.9c1.9-1.6,3.5-5,3.1-6.5
	c-0.4-1.4-5-1.2-8.4,1.4c-2.7,2.1-5.9,5.1-7,5.5c-1.1,0.3,1.7,0.9,1.5,3c-0.2,2.1,1.2,0.3,3.1,2c1.9,1.6,1.4,5.4,1.1,6.9
	c-0.3,1.5,0.7,2,0.7,2s0.5-3.5,2.1-4.8c1.5-1.3,5.1-3.3,4-5.2C872.9,60.1,872,59.6,873.9,57.9z M848.6,43.7c2.3,0.3,4.5,3.3,4.5,5
	c0,1.8,2.1,3.4,4.9,4.3c2.8,0.9,3.5,3.8,3.5,3.8s7.8-5.9,8.5-6.7c0.8-0.8-1.5-3.6-2.7-4.2c-1.2-0.5-5.1-3.1-9.2-5.4
	c-4.1-2.3-10.6,1.4-10.6,1.4C846.3,41.7,846.3,43.4,848.6,43.7z M867.8,34.5c-0.2,0.7-0.4,1.8-0.4,1.8s0,0,0,0
	C867.6,35.5,867.7,34.9,867.8,34.5c1,0.1,2,0.2,3.1,0.4c8.6,2,14.4,4.5,14.4,4.5s-1.4-2.7-3.4-3.7c-2-1-2.5,0.4-4.3-1.1
	c-1.7-1.5-2.1-3.5-3.4-3.2c-1.3,0.3-1.9-5.1-3.4-3c-1.5,2.2-4.6,4.3-5.8,2.4c-1.2-1.9-2.1-3.9-3.3-1.3c-1.2,2.6-4.2-0.7-5,2.2
	c-0.9,2.8-3.1,4.6-3.4,6.1C853.3,37.9,860.2,34.1,867.8,34.5z M854.6,38.6c-1.4,1.2,2,0.7,3.4,0.7c1.4,0,4.6,1.2,6.1,2.6
	c1.5,1.4,2.5-1.1,2.5-1.1c-1.2-2-1.2-4.7-1.2-4.7C861.4,35.9,854.6,38.6,854.6,38.6z M878.1,47.6c1.2,0.4,1.6-1.3,2.5-2.1
	c0.9-0.8,3,1.3,4.8,1.1c1.8-0.2,1.9-2.7,1.9-2.7c-6-7-19.6-7.5-19.9-7.5c0,0.1,0,0.2-0.1,0.3C866,42.3,876.9,47.2,878.1,47.6z
	 M871.5,48.9c0.1,1.1,5.2,0.6,5.2,0.6s-8.2-3.6-9.3-7.5c0,0-1.6,1.5-1,2C867,44.4,871.4,47.7,871.5,48.9z"/>
<path id="XMLID_2474_" class="st2" d="M470.1,56.3c2.1,14.8-5.9,23-5.9,23c0.5-3,2.8-10.5,3.9-12.6c1.1-2.1-0.3-5.1-0.3-7.7
	c0-2.6-0.3-10.5-0.3-8.7c0,1.8-1.6,7.1-1.6,7.1c0-3.1-2.5-3.4-2.5-3.4c3.3,7.7,0.3,19.4,0.3,19.4c0.2-4.6-5.3-15.6-5.3-15.6
	s-0.3,1.6,2.5,10c2.8,8.4-4.8,15.6-4.8,15.6c1.6-6.6-1.6-12-1.6-12c3.6,12.5-4.3,15.3-7.1,15.3c-2.8,0-8.5-3.4-9.7-6.9
	c-1.1-3.4-1.1-3-0.3-5.3c0.8-2.3,1.3-3.8,1.3-7.2c0-3.4,3.6-3.1,3.6-6.4c0-3.3,1.3-1,3.3-4.3c2-3.3,3.1-3.8,1.6-6.9
	c-1.5-3.1,5.1-3.1,5.1-3.1s-1.1-4.1,0-6.9c1.1-2.8,8.4-2,8.4-2c-0.2-5.9,5.1-7.9,5.1-7.9c1-4.8,4.9,1.6,4.9,6.1
	C470.8,40.2,468,41.5,470.1,56.3z M437,83c-0.5-1.1-2.5-3.6-2.5-5.6c0-2,0-3.3,1-4.8c1-1.5,0.2-6.2,1.6-7.5c0,0,2.8-1.3,1.8-2.3
	c-1-1-2-2.8-1-4.1c1-1.3,2.6-3.3-1.6-3.4c-4.3-0.2-2.5-0.7-2.5-2c0-1.3-1-2.5-2.6-3.8c-1.6-1.3,3-5.3-0.8-5.6
	c-3.8-0.3-6.9-1.6-7.2-4.3c-0.3-2.6-0.2-3.6-2.8-5.4c-2.6-1.8-1.5-3.9-3.9-6.1c-2.5-2.1-6.7-4.9-6.4,2c0.3,6.9,0.7,12.1-1.1,21.2
	c-1.8,9-0.7,18,3,23.8s13.3,10.2,13.3,10.2s-15.9-11-13-13.5l2.1,1.3c0,0-0.8-3.3-2.8-6.9c-2-3.6-1.3-14.3-1.3-14.3l1.3,8.4
	c0,0,0-5.6,1.6-9.8c0.7-1.8,1-4.2,1.1-6.4c0,5.9-0.1,15.1-0.3,18.8c0,0,4.1-9.7,4.1-12.8c0,0-0.3,9.8-2,15.9
	c-1.6,6.1,1.6,8.4,1.6,8.4s2.8-10.8,4.4-13.3c1.6-2.5,1.6-2.5,1.6-2.5s-4.4,13-3.6,17.1c0.8,4.1,2.8,4.3,2.8,4.3l2.8-10
	c0,0-1.5,9.4,3.3,15.1l0.5-2.8c0,0,2.5,5.1,10.5,3.4C440.1,85.8,437.5,84.2,437,83z M446.3,47.8c1.9-1.6,3.5-5,3.1-6.5
	c-0.4-1.4-5-1.2-8.4,1.4c-2.7,2.1-5.9,5.1-7,5.5c-1.1,0.3,1.7,0.9,1.5,3c-0.2,2.1,1.2,0.3,3.1,2c1.9,1.6,1.4,5.4,1.1,6.9
	c-0.3,1.5,0.7,2,0.7,2s0.5-3.5,2.1-4.8c1.5-1.3,5.1-3.3,4-5.2C445.3,50,444.4,49.4,446.3,47.8z M421,33.6c2.3,0.3,4.5,3.3,4.5,5
	c0,1.8,2.1,3.4,4.9,4.3c2.8,0.9,3.5,3.8,3.5,3.8s7.8-5.9,8.5-6.7c0.8-0.8-1.5-3.6-2.7-4.2c-1.2-0.5-5.1-3.1-9.2-5.4
	c-4.1-2.3-10.6,1.4-10.6,1.4C418.7,31.6,418.7,33.2,421,33.6z M440.1,24.4c-0.2,0.7-0.4,1.8-0.4,1.8s0,0,0,0
	C439.9,25.3,440.1,24.7,440.1,24.4c1,0.1,2,0.2,3.1,0.4c8.6,2,14.4,4.5,14.4,4.5s-1.4-2.7-3.4-3.7c-2-1-2.5,0.4-4.3-1.1
	c-1.7-1.5-2.1-3.5-3.4-3.2c-1.3,0.3-1.9-5.1-3.4-3c-1.5,2.2-4.6,4.3-5.8,2.4c-1.2-1.9-2.1-3.9-3.3-1.3c-1.2,2.6-4.2-0.7-5,2.2
	c-0.9,2.8-3.1,4.6-3.4,6.1C425.7,27.8,432.6,23.9,440.1,24.4z M427,28.4c-1.4,1.2,2,0.7,3.4,0.7c1.4,0,4.6,1.2,6.1,2.6
	c1.5,1.4,2.5-1.1,2.5-1.1c-1.2-2-1.2-4.7-1.2-4.7C433.8,25.8,427,28.4,427,28.4z M450.5,37.5c1.2,0.4,1.6-1.3,2.5-2.1
	c0.9-0.8,3,1.3,4.8,1.1c1.8-0.2,1.9-2.7,1.9-2.7c-6-7-19.6-7.5-19.9-7.5c0,0.1,0,0.2-0.1,0.3C438.4,32.1,449.3,37.1,450.5,37.5z
	 M443.9,38.7c0.1,1.1,5.2,0.6,5.2,0.6s-8.2-3.6-9.3-7.5c0,0-1.6,1.5-1,2C439.4,34.3,443.8,37.6,443.9,38.7z"/>
<path id="XMLID_2484_" class="st2" d="M560.4,67.1c2.1,14.8-5.9,23-5.9,23c0.5-3,2.8-10.5,3.9-12.6c1.1-2.1-0.3-5.1-0.3-7.7
	c0-2.6-0.3-10.5-0.3-8.7c0,1.8-1.6,7.1-1.6,7.1c0-3.1-2.5-3.4-2.5-3.4C556.9,72.3,554,84,554,84c0.2-4.6-5.3-15.6-5.3-15.6
	s-0.3,1.6,2.5,10c2.8,8.4-4.8,15.6-4.8,15.6c1.6-6.6-1.6-12-1.6-12c3.6,12.5-4.3,15.3-7.1,15.3c-2.8,0-8.5-3.4-9.7-6.9
	c-1.1-3.4-1.1-3-0.3-5.3c0.8-2.3,1.3-3.8,1.3-7.2c0-3.4,3.6-3.1,3.6-6.4c0-3.3,1.3-1,3.3-4.3c2-3.3,3.1-3.8,1.6-6.9
	c-1.5-3.1,5.1-3.1,5.1-3.1s-1.1-4.1,0-6.9c1.1-2.8,8.4-2,8.4-2c-0.2-5.9,5.1-7.9,5.1-7.9c1-4.8,4.9,1.6,4.9,6.1
	C561,51,558.2,52.3,560.4,67.1z M527.2,93.8c-0.5-1.1-2.5-3.6-2.5-5.6c0-2,0-3.3,1-4.8c1-1.5,0.2-6.2,1.6-7.5c0,0,2.8-1.3,1.8-2.3
	c-1-1-2-2.8-1-4.1c1-1.3,2.6-3.3-1.6-3.4c-4.3-0.2-2.5-0.7-2.5-2c0-1.3-1-2.5-2.6-3.8c-1.6-1.3,3-5.3-0.8-5.6
	c-3.8-0.3-6.9-1.6-7.2-4.3c-0.3-2.6-0.2-3.6-2.8-5.4c-2.6-1.8-1.5-3.9-3.9-6.1c-2.5-2.1-6.7-4.9-6.4,2c0.3,6.9,0.7,12.1-1.1,21.2
	c-1.8,9-0.7,18,3,23.8s13.3,10.2,13.3,10.2s-15.9-11-13-13.5l2.1,1.3c0,0-0.8-3.3-2.8-6.9c-2-3.6-1.3-14.3-1.3-14.3l1.3,8.4
	c0,0,0-5.6,1.6-9.8c0.7-1.8,1-4.2,1.1-6.4c0,5.9-0.1,15.1-0.3,18.8c0,0,4.1-9.7,4.1-12.8c0,0-0.3,9.8-2,15.9
	c-1.6,6.1,1.6,8.4,1.6,8.4s2.8-10.8,4.4-13.3c1.6-2.5,1.6-2.5,1.6-2.5s-4.4,13-3.6,17.1c0.8,4.1,2.8,4.3,2.8,4.3l2.8-10
	c0,0-1.5,9.4,3.3,15.1l0.5-2.8c0,0,2.5,5.1,10.5,3.4C530.3,96.6,527.7,95,527.2,93.8z M536.5,58.6c1.9-1.6,3.5-5,3.1-6.5
	c-0.4-1.4-5-1.2-8.4,1.4c-2.7,2.1-5.9,5.1-7,5.5c-1.1,0.3,1.7,0.9,1.5,3c-0.2,2.1,1.2,0.3,3.1,2c1.9,1.6,1.4,5.4,1.1,6.9
	c-0.3,1.5,0.7,2,0.7,2s0.5-3.5,2.1-4.8c1.5-1.3,5.1-3.3,4-5.2C535.5,60.8,534.7,60.2,536.5,58.6z M511.3,44.4c2.3,0.3,4.5,3.3,4.5,5
	c0,1.8,2.1,3.4,4.9,4.3c2.8,0.9,3.5,3.8,3.5,3.8s7.8-5.9,8.5-6.7c0.8-0.8-1.5-3.6-2.7-4.2c-1.2-0.5-5.1-3.1-9.2-5.4
	c-4.1-2.3-10.6,1.4-10.6,1.4C509,42.4,509,44,511.3,44.4z M530.4,35.2c-0.2,0.7-0.4,1.8-0.4,1.8s0,0,0,0
	C530.2,36.1,530.3,35.5,530.4,35.2c1,0.1,2,0.2,3.1,0.4c8.6,2,14.4,4.5,14.4,4.5s-1.4-2.7-3.4-3.7c-2-1-2.5,0.4-4.3-1.1
	c-1.7-1.5-2.1-3.5-3.4-3.2c-1.3,0.3-1.9-5.1-3.4-3c-1.5,2.2-4.6,4.3-5.8,2.4c-1.2-1.9-2.1-3.9-3.3-1.3c-1.2,2.6-4.2-0.7-5,2.2
	c-0.9,2.8-3.1,4.6-3.4,6.1C516,38.6,522.8,34.7,530.4,35.2z M517.3,39.2c-1.4,1.2,2,0.7,3.4,0.7c1.4,0,4.6,1.2,6.1,2.6
	c1.5,1.4,2.5-1.1,2.5-1.1c-1.2-2-1.2-4.7-1.2-4.7C524.1,36.6,517.3,39.2,517.3,39.2z M540.8,48.3c1.2,0.4,1.6-1.3,2.5-2.1
	c0.9-0.8,3,1.3,4.8,1.1c1.8-0.2,1.9-2.7,1.9-2.7c-6-7-19.6-7.5-19.9-7.5c0,0.1,0,0.2-0.1,0.3C528.6,42.9,539.5,47.9,540.8,48.3z
	 M534.1,49.5c0.1,1.1,5.2,0.6,5.2,0.6s-8.2-3.6-9.3-7.5c0,0-1.6,1.5-1,2C529.7,45.1,534,48.4,534.1,49.5z"/>
<path id="XMLID_2502_" class="st2" d="M685.2,53.8c2.1,14.8-5.9,23-5.9,23c0.5-3,2.8-10.5,3.9-12.6c1.1-2.1-0.3-5.1-0.3-7.7
	c0-2.6-0.3-10.5-0.3-8.7c0,1.8-1.6,7.1-1.6,7.1c0-3.1-2.5-3.4-2.5-3.4c3.3,7.7,0.3,19.4,0.3,19.4c0.2-4.6-5.3-15.6-5.3-15.6
	s-0.3,1.6,2.5,10c2.8,8.4-4.8,15.6-4.8,15.6c1.6-6.6-1.6-12-1.6-12c3.6,12.5-4.3,15.3-7.1,15.3c-2.8,0-8.5-3.4-9.7-6.9
	c-1.1-3.4-1.1-3-0.3-5.3c0.8-2.3,1.3-3.8,1.3-7.2c0-3.4,3.6-3.1,3.6-6.4c0-3.3,1.3-1,3.3-4.3c2-3.3,3.1-3.8,1.6-6.9
	c-1.5-3.1,5.1-3.1,5.1-3.1s-1.1-4.1,0-6.9c1.1-2.8,8.4-2,8.4-2c-0.2-5.9,5.1-7.9,5.1-7.9c1-4.8,4.9,1.6,4.9,6.1
	C685.9,37.7,683.1,39,685.2,53.8z M652.1,80.5c-0.5-1.1-2.5-3.6-2.5-5.6c0-2,0-3.3,1-4.8c1-1.5,0.2-6.2,1.6-7.5c0,0,2.8-1.3,1.8-2.3
	c-1-1-2-2.8-1-4.1c1-1.3,2.6-3.3-1.6-3.4c-4.3-0.2-2.5-0.7-2.5-2c0-1.3-1-2.5-2.6-3.8c-1.6-1.3,3-5.3-0.8-5.6
	c-3.8-0.3-6.9-1.6-7.2-4.3c-0.3-2.6-0.2-3.6-2.8-5.4c-2.6-1.8-1.5-3.9-3.9-6.1c-2.5-2.1-6.7-4.9-6.4,2c0.3,6.9,0.7,12.1-1.1,21.2
	c-1.8,9-0.7,18,3,23.8s13.3,10.2,13.3,10.2s-15.9-11-13-13.5l2.1,1.3c0,0-0.8-3.3-2.8-6.9c-2-3.6-1.3-14.3-1.3-14.3l1.3,8.4
	c0,0,0-5.6,1.6-9.8c0.7-1.8,1-4.2,1.1-6.4c0,5.9-0.1,15.1-0.3,18.8c0,0,4.1-9.7,4.1-12.8c0,0-0.3,9.8-2,15.9
	c-1.6,6.1,1.6,8.4,1.6,8.4s2.8-10.8,4.4-13.3c1.6-2.5,1.6-2.5,1.6-2.5s-4.4,13-3.6,17.1c0.8,4.1,2.8,4.3,2.8,4.3l2.8-10
	c0,0-1.5,9.4,3.3,15.1l0.5-2.8c0,0,2.5,5.1,10.5,3.4C655.2,83.3,652.6,81.7,652.1,80.5z M661.4,45.3c1.9-1.6,3.5-5,3.1-6.5
	c-0.4-1.4-5-1.2-8.4,1.4c-2.7,2.1-5.9,5.1-7,5.5c-1.1,0.3,1.7,0.9,1.5,3c-0.2,2.1,1.2,0.3,3.1,2c1.9,1.6,1.4,5.4,1.1,6.9
	c-0.3,1.5,0.7,2,0.7,2s0.5-3.5,2.1-4.8c1.5-1.3,5.1-3.3,4-5.2C660.4,47.5,659.5,46.9,661.4,45.3z M636.1,31.1c2.3,0.3,4.5,3.3,4.5,5
	c0,1.8,2.1,3.4,4.9,4.3c2.8,0.9,3.5,3.8,3.5,3.8s7.8-5.9,8.5-6.7c0.8-0.8-1.5-3.6-2.7-4.2c-1.2-0.5-5.1-3.1-9.2-5.4
	c-4.1-2.3-10.6,1.4-10.6,1.4C633.8,29.1,633.8,30.7,636.1,31.1z M655.2,21.9c-0.2,0.7-0.4,1.8-0.4,1.8s0,0,0,0
	C655,22.8,655.2,22.2,655.2,21.9c1,0.1,2,0.2,3.1,0.4c8.6,2,14.4,4.5,14.4,4.5s-1.4-2.7-3.4-3.7c-2-1-2.5,0.4-4.3-1.1
	c-1.7-1.5-2.1-3.5-3.4-3.2c-1.3,0.3-1.9-5.1-3.4-3c-1.5,2.2-4.6,4.3-5.8,2.4c-1.2-1.9-2.1-3.9-3.3-1.3c-1.2,2.6-4.2-0.7-5,2.2
	c-0.9,2.8-3.1,4.6-3.4,6.1C640.8,25.3,647.7,21.5,655.2,21.9z M642.1,25.9c-1.4,1.2,2,0.7,3.4,0.7c1.4,0,4.6,1.2,6.1,2.6
	c1.5,1.4,2.5-1.1,2.5-1.1c-1.2-2-1.2-4.7-1.2-4.7C648.9,23.3,642.1,25.9,642.1,25.9z M665.6,35c1.2,0.4,1.6-1.3,2.5-2.1
	c0.9-0.8,3,1.3,4.8,1.1c1.8-0.2,1.9-2.7,1.9-2.7c-6-7-19.6-7.5-19.9-7.5c0,0.1,0,0.2-0.1,0.3C653.5,29.7,664.4,34.6,665.6,35z
	 M659,36.2c0.1,1.1,5.2,0.6,5.2,0.6s-8.2-3.6-9.3-7.5c0,0-1.6,1.5-1,2C654.5,31.8,658.9,35.1,659,36.2z"/>
<g id="XMLID_2435_">
	<path id="XMLID_2439_" class="st3" d="M817.2,57.7c0.6,0.6,0.5,0.3,0.8,1c0.8-0.6,3.4-2.1,3.7-4.4c0.4-2.5-2.7-4.6-3.6-3.8
		c-1.2,1.2,2.7,0.1,2.4,3.7C820.3,55.9,818.6,56.8,817.2,57.7z"/>
	<path id="XMLID_2436_" class="st3" d="M794.8,73.3c1.9-1.4,3.6-3.7,5.6-5.4c1.8-1.5,3.4-3.6,5.1-5.8c1.7-2.2,3.9-5.2,6.8-5.6
		c0.9-0.1,1.5,0.4,1.6,0.8c1.3-0.3,2.5-0.3,3.7,1.3c0.5,0.7,0.3,2.1,0.5,3.1c0.2,1.1,0.1,1.3-0.1,2.1c-0.2,0.8-1.6,3.2-2.5,4
		c-3.3,2.6-4.9,3.4-8.2,5.4c-3.6,2.3-9.1,4-13.3,4.9c-1.3,0.3-4,0.9-4.6,0.3C788.4,77.2,792.8,74.8,794.8,73.3z M816.2,63.3
		c-1.3-0.9-2.5,1.3-3.4,2.3c-2.7,2.9-11.5,8.2-15.5,9.8c4.4-0.7,13.6-6.1,16.8-8.9C815,65.7,816.9,63.8,816.2,63.3z"/>
</g>
<g id="XMLID_2401_">
	<path id="XMLID_2434_" class="st4" d="M969.4,94c1.8,0.3,5.6,0,5.4,2.3c-0.1,1.2-3.9,0.4-5.6,0c-0.6-0.2-1.2-0.4-1.9-0.6l0.9-1.9
		C968.6,93.9,969,94,969.4,94z"/>
	<path id="XMLID_2418_" class="st4" d="M968.2,93.8l-0.9,1.9c-2.4-0.9-5.5-2.2-8.6-3.8l0.9-1.3C962.8,92,965.9,93.2,968.2,93.8z"/>
	<path id="XMLID_2417_" class="st4" d="M959.6,90.6l-0.9,1.3c-1.6-0.8-3.1-1.6-4.7-2.5l0.8-1C956.4,89.2,958,89.9,959.6,90.6z"/>
	<path id="XMLID_2416_" class="st4" d="M954,89.4c-1.6-0.9-3.2-1.9-4.5-2.8l0.3-0.7c1.5,0.9,3.3,1.8,5,2.6L954,89.4z"/>
	<path id="XMLID_2415_" class="st4" d="M945.1,82.9c1.2,0.9,2.8,1.9,4.7,2.9l-0.3,0.7C947.6,85.2,946.1,84,945.1,82.9z"/>
	<path id="XMLID_2414_" class="st3" d="M982.4,93.1c2.3,0.9,4.8,2.4,6.9,1.2c4.6-2.5,0.2-6.5,2.6-5.9c1.7,0.4,1.6,5.8-1.8,7.4
		c-3.1,1.4-7-0.5-8.4-1C982.4,93.9,982.2,94.3,982.4,93.1z"/>
	<path id="XMLID_2413_" class="st3" d="M940.8,76.3l0.1,8.1c-1.9-1.6-3.7-3.2-5.3-4.8c-0.2-0.2-0.4-0.4-0.7-0.7l1.2-4.5
		C937.7,75,939.4,75.7,940.8,76.3z"/>
	<path id="XMLID_2412_" class="st3" d="M944,72.1c1.9,0.7,4.1,1.1,6.4,1.5l-2.2,6.2c-1.9-1.1-3.5-2.1-4.7-2.9c1,1.1,2.6,2.4,4.5,3.7
		l-0.9,2.4c-1.4-1-2.9-2.1-4.2-3.3l-0.1-8.1C943.1,71.7,943.6,71.9,944,72.1z"/>
	<path id="XMLID_2411_" class="st3" d="M931.4,72.2l-1.2,4.5c-1.5-1.5-3.6-3.7-3.3-4.7C927.1,70.8,929.1,71.3,931.4,72.2z"/>
	<g id="XMLID_2408_">
		<path id="XMLID_2410_" class="st3" d="M942.7,90.4l2.2-6.2c1.6,0.3,3.2,0.6,4.7,1.1c1.2,0.3,2.4,0.6,3.7,0.8l-5.6,6.9
			C946,92.1,944.3,91.2,942.7,90.4z"/>
		<path id="XMLID_2409_" class="st3" d="M947,94l-1.7,2.1c-1.2-0.7-2.5-1.6-3.7-2.5l0.9-2.4C943.8,92.1,945.4,93,947,94z"/>
	</g>
	<path id="XMLID_2407_" class="st3" d="M969.2,96.3c1.7,0.5,5.5,1.2,5.6,0c0.1-2.3-3.6-2-5.4-2.3c-0.4-0.1-0.7-0.2-1.2-0.3l5.2-10.8
		c2.6,0.5,5.1,1.3,6.7,3.1c0.9,1,0.7,2.1,0.4,2.6c1.4,1.4,2.4,2.8,1.4,5.6c-0.4,1.2-2.4,2-3.4,3c-1.2,1.2-1.5,1.1-2.7,1.6
		c-1.1,0.4-5.3,0.6-6.9,0.1c-1-0.3-1.9-0.6-2.7-0.9l1.1-2.3C968,95.9,968.7,96.1,969.2,96.3z"/>
	<path id="XMLID_2406_" class="st3" d="M954.5,93.9l6-8.5c0.7,0.1,1.5,0.1,2.2,0.2c1.7,0.1,3.7,0.3,5.6,0.6l-5.2,10.8
		C960.9,96.5,957.8,95.3,954.5,93.9z"/>
	<path id="XMLID_2405_" class="st3" d="M962.3,99l-1.1,2.3c-3.5-1.3-5.6-2.5-8.9-4l1.4-2C956.8,96.7,959.9,98.1,962.3,99z"/>
	<g id="XMLID_2402_">
		<path id="XMLID_2404_" class="st3" d="M955.2,80.9l2.1-8.6c1.6-0.4,3.3-1,5-1.6l-1.8,10.2C958.7,81,956.9,81,955.2,80.9z"/>
		<path id="XMLID_2403_" class="st3" d="M960.2,82.4l-0.4,2.5c-0.5,0-1.1,0-1.7,0c-1.2,0-2.5-0.1-3.8-0.2l0.6-2.6
			C956.6,82.3,958.4,82.4,960.2,82.4z"/>
	</g>
</g>
<path id="XMLID_2400_" class="st4" d="M756.1,70.1c-1.3,0-4-0.7-4.2,1c-0.1,0.9,2.7,0.8,4,0.7c0.4,0,0.9-0.1,1.5-0.2L757,70
	C756.6,70,756.4,70.1,756.1,70.1z"/>
<path id="XMLID_2399_" class="st4" d="M757,70l0.4,1.5c1.8-0.3,4.2-0.9,6.6-1.7l-0.5-1C761,69.4,758.7,69.9,757,70z"/>
<path id="XMLID_2398_" class="st4" d="M763.5,68.8l0.5,1c1.2-0.4,2.5-0.8,3.6-1.2l-0.4-0.8C766,68.2,764.7,68.5,763.5,68.8z"/>
<path id="XMLID_2397_" class="st4" d="M767.6,68.6c1.3-0.5,2.5-1,3.6-1.5l-0.1-0.6c-1.2,0.4-2.5,0.8-3.9,1.2L767.6,68.6z"/>
<path id="XMLID_2396_" class="st4" d="M774.8,65.1c-1,0.5-2.3,1-3.7,1.5l0.1,0.6C772.7,66.5,774,65.8,774.8,65.1z"/>
<path id="XMLID_2395_" class="st3" d="M746.9,67.8c-1.7,0.4-3.7,1.1-5.1,0c-3-2.3,0.7-4.6-1.1-4.5c-1.2,0.1-1.9,3.9,0.4,5.5
	c2.1,1.4,5.1,0.5,6.1,0.3C746.8,68.4,746.9,68.7,746.9,67.8z"/>
<path id="XMLID_2394_" class="st3" d="M787.8,63.6l-1.1,5.8c1.6-0.9,3-1.9,4.3-2.8c0.2-0.1,0.4-0.2,0.6-0.4l-0.3-3.4
	C790.1,63,788.8,63.4,787.8,63.6z"/>
<path id="XMLID_2393_" class="st3" d="M776.9,57.5c-1.5,0.2-3.1,0.3-4.7,0.3l0.8,4.7c1.5-0.5,2.8-1,3.7-1.5
	c-0.9,0.7-2.1,1.4-3.6,2.1l0.3,1.8c1.2-0.6,2.3-1.2,3.4-1.8l1.1-5.8C777.6,57.4,777.3,57.5,776.9,57.5z"/>
<path id="XMLID_2392_" class="st3" d="M801,53.6l0.3,3.4c1.2-0.9,3-2.2,3-3C804.3,53.2,802.8,53.3,801,53.6z"/>
<g id="XMLID_2386_">
	<path id="XMLID_2391_" class="st3" d="M775.6,70.8l-0.8-4.7c-1.2,0-2.3,0-3.5,0.2c-0.9,0.1-1.8,0.1-2.7,0.1l3.1,5.6
		C773,71.6,774.4,71.2,775.6,70.8z"/>
	<path id="XMLID_2390_" class="st3" d="M772.1,72.8l0.9,1.7c1-0.4,2-0.8,3-1.3l-0.3-1.8C774.6,71.8,773.4,72.3,772.1,72.8z"/>
</g>
<path id="XMLID_2385_" class="st3" d="M755.9,71.7c-1.2,0.1-4.1,0.2-4-0.7c0.2-1.7,2.8-1,4.2-1c0.3,0,0.5,0,0.9,0l-2.3-8.4
	c-1.9,0-3.8,0.3-5.2,1.4c-0.8,0.6-0.8,1.4-0.6,1.8c-1.2,0.8-2,1.7-1.7,3.8c0.2,0.9,1.4,1.7,2,2.6c0.7,1,0.9,1,1.7,1.5
	c0.7,0.4,3.7,1.1,4.9,0.9c0.8-0.1,1.4-0.2,2-0.3l-0.5-1.8C756.8,71.6,756.3,71.7,755.9,71.7z"/>
<path id="XMLID_2384_" class="st3" d="M766.7,71.8l-3.2-6.8c-0.5,0-1.1-0.1-1.6-0.1c-1.3-0.1-2.7-0.3-4.1-0.2l2.3,8.4
	C761.9,72.9,764.2,72.4,766.7,71.8z"/>
<path id="XMLID_2383_" class="st3" d="M760.6,74.5l0.5,1.8c2.6-0.5,4.3-1.1,6.9-1.8l-0.8-1.6C764.7,73.5,762.4,74.1,760.6,74.5z"/>
<g id="XMLID_2369_">
	<path id="XMLID_2382_" class="st3" d="M788.6,57.9l-0.5-6.4c-1.1-0.5-2.2-1.1-3.4-1.8l0,7.5C786,57.5,787.3,57.7,788.6,57.9z"/>
	<path id="XMLID_2370_" class="st3" d="M784.8,58.4l0,1.8c0.4,0.1,0.8,0.1,1.2,0.2c0.9,0.2,1.8,0.3,2.8,0.3l-0.1-1.9
		C787.4,58.7,786.1,58.5,784.8,58.4z"/>
</g>
</svg>
