<?xml version="1.0" encoding="utf-8"?>
<!-- Generator: Adobe Illustrator 19.0.0, SVG Export Plug-In . SVG Version: 6.00 Build 0)  -->
<svg version="1.1" id="Layer_1" xmlns="http://www.w3.org/2000/svg" xmlns:xlink="http://www.w3.org/1999/xlink" x="0px" y="0px"
	 viewBox="0 0 21.7 13.4" style="enable-background:new 0 0 21.7 13.4;" xml:space="preserve">
<metadata><?xpacket begin="﻿" id="W5M0MpCehiHzreSzNTczkc9d"?>
<x:xmpmeta xmlns:x="adobe:ns:meta/" x:xmptk="Adobe XMP Core 5.6-c067 79.157747, 2015/03/30-23:40:42        ">
   <rdf:RDF xmlns:rdf="http://www.w3.org/1999/02/22-rdf-syntax-ns#">
      <rdf:Description rdf:about=""/>
   </rdf:RDF>
</x:xmpmeta>
                                                                                                    
                                                                                                    
                                                                                                    
                                                                                                    
                                                                                                    
                                                                                                    
                                                                                                    
                                                                                                    
                                                                                                    
                                                                                                    
                                                                                                    
                                                                                                    
                                                                                                    
                                                                                                    
                                                                                                    
                                                                                                    
                                                                                                    
                                                                                                    
                                                                                                    
                                                                                                    
                           
<?xpacket end="w"?></metadata>
<style type="text/css">
	.st0{fill:none;}
	.st1{fill:#E90026;}
</style>
<g id="XMLID_27_">
	<path id="XMLID_28_" class="st0" d="M6.2,7.4L5.5,7.5C4.8,7.6,4.3,7.8,4,8C3.5,8.3,3.3,8.7,3.3,9.4c0,0.6,0.2,1,0.5,1.2
		C4.1,10.8,4.4,11,4.9,11c0.7,0,1.4-0.2,1.9-0.6C7.4,9.9,7.7,9.2,7.7,8V6.8C7.5,6.9,7.3,7.1,7.1,7.1C6.9,7.2,6.6,7.3,6.2,7.4z"/>
	<path id="XMLID_35_" class="st1" d="M11.2,12.1C11.1,12,11,11.7,11,11.2c0-0.6,0-1.1,0-1.5V3.9c0-1.5-0.5-2.6-1.6-3.1S7.1,0,5.8,0
		C3.7,0,2.2,0.6,1.3,1.7C0.8,2.4,0.5,3.3,0.4,4.4h3.2C3.6,3.9,3.8,3.5,4,3.2c0.3-0.4,0.9-0.6,1.6-0.6c0.7,0,1.2,0.1,1.6,0.3
		C7.6,3.2,7.7,3.5,7.7,4C7.7,4.5,7.5,4.8,7,5C6.8,5.1,6.4,5.2,5.8,5.3L4.6,5.4C3.4,5.6,2.4,5.8,1.8,6.2C0.6,6.9,0,8,0,9.6
		c0,1.2,0.4,2.1,1.1,2.8c0.7,0.7,1.7,1,2.8,1c0.9,0,1.7-0.2,2.4-0.6c0.6-0.3,1.1-0.8,1.6-1.3c0,0.3,0.1,0.5,0.1,0.8
		C8,12.5,8,12.7,8.1,13h3.6v-0.5C11.5,12.4,11.3,12.3,11.2,12.1z M7.7,8c0,1.1-0.3,1.9-0.9,2.3C6.2,10.8,5.6,11,4.9,11
		c-0.4,0-0.8-0.1-1.1-0.4c-0.3-0.3-0.5-0.7-0.5-1.2C3.3,8.7,3.5,8.3,4,8c0.3-0.2,0.8-0.3,1.5-0.5l0.7-0.1c0.4-0.1,0.7-0.1,0.9-0.2
		c0.2-0.1,0.4-0.2,0.6-0.3V8z"/>
	<polygon id="XMLID_36_" class="st1" points="18.4,6.7 18.4,1.7 15,1.7 15,6.7 11.7,6.7 16.7,11.7 21.7,6.7 	"/>
</g>
</svg>
