<?xml version="1.0" encoding="utf-8"?>
<!-- Generator: Adobe Illustrator 19.0.0, SVG Export Plug-In . SVG Version: 6.00 Build 0)  -->
<svg version="1.1" id="Layer_1" xmlns="http://www.w3.org/2000/svg" xmlns:xlink="http://www.w3.org/1999/xlink" x="0px" y="0px"
	 viewBox="0 0 266 200" style="enable-background:new 0 0 266 200;" xml:space="preserve">
<metadata><?xpacket begin="﻿" id="W5M0MpCehiHzreSzNTczkc9d"?>
<x:xmpmeta xmlns:x="adobe:ns:meta/" x:xmptk="Adobe XMP Core 5.6-c067 79.157747, 2015/03/30-23:40:42        ">
   <rdf:RDF xmlns:rdf="http://www.w3.org/1999/02/22-rdf-syntax-ns#">
      <rdf:Description rdf:about=""/>
   </rdf:RDF>
</x:xmpmeta>
                                                                                                    
                                                                                                    
                                                                                                    
                                                                                                    
                                                                                                    
                                                                                                    
                                                                                                    
                                                                                                    
                                                                                                    
                                                                                                    
                                                                                                    
                                                                                                    
                                                                                                    
                                                                                                    
                                                                                                    
                                                                                                    
                                                                                                    
                                                                                                    
                                                                                                    
                                                                                                    
                           
<?xpacket end="w"?></metadata>
<style type="text/css">
	.st0{fill:#E90026;}
	.st1{fill:#FFFFFF;}
</style>
<g id="XMLID_39_">
	<g id="XMLID_63_">
		<path id="XMLID_49_" class="st0" d="M86.7,200c-1.6,0-3-1.3-3-3v-41.4l20.9-25.9v50c0,1.6-1.3,3-3,3s-3-1.3-3-3v-33.2l-9.1,11.2
			V197C89.7,198.7,88.4,200,86.7,200z"/>
	</g>
	<g id="XMLID_66_">
		<path id="XMLID_48_" class="st0" d="M180.4,200c-1.6,0-3-1.3-3-3v-39.3l-9.1-11.2v33.2c0,1.6-1.3,3-3,3s-3-1.3-3-3v-50l20.9,25.9
			V197C183.4,198.7,182.1,200,180.4,200z"/>
	</g>
	<g id="XMLID_3198_">
		<path id="XMLID_42_" class="st1" d="M98,130.4h71.6l16.2,14.2l0.9,11c0,0-3,3.9-11.2,0c0,0-4.5,4.1-11.4,0c0,0-4.5,3.1-12.2,0
			c0,0-4.3,3.1-11.6,0c0,0-4.5,3.5-12.6,0c0,0-3.7,3.5-11.2,0c0,0-4.7,3.1-11.2,0c0,0-5.7,3.7-11.8,0c0,0-5.3,3.3-12.2,0l2-10.5
			L98,130.4z"/>
		<path id="XMLID_44_" class="st0" d="M170,158.9c-1.7,0-3.8-0.4-6-1.6c-1.7,0.8-6,2.2-12.1-0.1c-1.6,0.8-5.7,2.3-11.6,0
			c-1.7,0.9-6,2.6-12.6,0c-1.6,1-5.4,2.6-11.4,0c-1.6,0.8-5.8,2.3-11.2,0c-1.8,0.9-6.6,2.8-11.9,0c-1.9,0.9-6.8,2.5-12.8-0.4l-1-0.5
			l2.2-12L97.4,129H170l17,14.9l1,12.1l-0.3,0.4c-0.1,0.2-3.6,4.5-12.2,0.8C174.6,157.9,172.6,158.9,170,158.9z M163.9,154l0.8,0.5
			c5.9,3.5,9.7,0.2,9.8,0.2l0.7-0.6l0.9,0.4c5.6,2.7,8.3,1.4,9.2,0.7l-0.8-9.8L169,131.8H98.5l-14.3,14l-1.7,8.9
			c5.6,2.2,9.8-0.3,9.9-0.3l0.7-0.5l0.7,0.5c5.2,3.2,10.1,0.2,10.3,0l0.7-0.4l0.7,0.3c5.6,2.7,9.7,0.2,9.8,0.1l0.7-0.4l0.7,0.3
			c6.4,3,9.6,0.3,9.7,0.3l0.7-0.6l0.9,0.4c7.1,3.1,11,0.3,11.2,0.2l0.7-0.5l0.8,0.3c6.4,2.7,10.1,0.3,10.2,0.1l0.6-0.4l0.7,0.3
			c6.9,2.8,10.8,0.2,10.9,0.1L163.9,154z"/>
	</g>
	<g id="XMLID_3201_">
		<rect id="XMLID_43_" x="83.2" y="143.4" class="st0" width="102.5" height="2.8"/>
	</g>
	<g id="XMLID_130_">
		<path id="XMLID_37_" class="st1" d="M122.8,123.3v13.4c0,0,10.6,6.3,22.8,0v-13.4H122.8z"/>
		<path id="XMLID_38_" class="st0" d="M134.3,140c-6.9,0-11.7-2.8-11.8-2.8l-0.3-0.2v-14.4h23.9V137l-0.3,0.2
			C141.7,139.3,137.7,140,134.3,140z M123.4,136.3c1.7,0.9,11.1,5.2,21.6,0v-12.5h-21.6V136.3z"/>
	</g>
	<g id="XMLID_136_">
		<ellipse id="XMLID_32_" class="st1" cx="134.1" cy="123.3" rx="11.4" ry="2.6"/>
		<path id="XMLID_34_" class="st0" d="M134.1,126.5c-4.1,0-12-0.7-12-3.2c0-2.5,7.8-3.2,12-3.2c4.1,0,12,0.7,12,3.2
			C146.1,125.8,138.3,126.5,134.1,126.5z M134.1,121.3c-7.1,0-10.8,1.4-10.8,2s3.7,2,10.8,2s10.8-1.4,10.8-2
			S141.3,121.3,134.1,121.3z"/>
	</g>
	<g id="XMLID_137_">
		<path id="XMLID_33_" class="st0" d="M129,126.1c-0.5,0-0.9-0.3-1.1-0.7l-4.6-10.4c-0.3-0.4-0.7-0.5-0.9-0.6
			c-0.9-0.1-2,0.7-2.3,0.9c-0.5,0.4-1.2,0.3-1.7-0.2c-0.4-0.5-0.3-1.2,0.2-1.7c0.2-0.2,2.1-1.7,4.1-1.4c1,0.1,1.9,0.7,2.6,1.6
			l0.1,0.2l4.6,10.5c0.3,0.6,0,1.3-0.6,1.6C129.3,126.1,129.2,126.1,129,126.1z"/>
	</g>
	<g id="XMLID_141_">
		<path id="XMLID_28_" class="st1" d="M90.7,132.2l3.9,5.1c0,0,10.2,3.3,17.3-0.6l2.6-4.5H90.7z"/>
		<path id="XMLID_29_" class="st0" d="M103.2,139.2c-4.7,0-8.6-1.2-8.9-1.3l-0.2-0.1l-4.7-6.2h26l-3.2,5.5l-0.1,0.1
			C109.3,138.7,106.2,139.2,103.2,139.2z M94.9,136.8c1.4,0.4,10.2,2.8,16.5-0.6l2-3.5H91.8L94.9,136.8z"/>
	</g>
	<g id="XMLID_145_">
		<ellipse id="XMLID_24_" class="st1" cx="102.5" cy="131.4" rx="13.3" ry="3.6"/>
		<path id="XMLID_25_" class="st0" d="M102.5,135.6c-6.9,0-13.9-1.4-13.9-4.2c0-2.8,7-4.2,13.9-4.2s13.9,1.4,13.9,4.2
			C116.4,134.1,109.4,135.6,102.5,135.6z M102.5,128.3c-7.8,0-12.7,1.8-12.7,3s5,3,12.7,3s12.7-1.8,12.7-3S110.3,128.3,102.5,128.3z
			"/>
	</g>
	<g id="XMLID_263_">
		<ellipse id="XMLID_22_" class="st1" cx="102.5" cy="133.9" rx="9.1" ry="0.5"/>
		<path id="XMLID_23_" class="st0" d="M102.5,135c-9.7,0-9.7-0.6-9.7-1.1s0-1.1,9.7-1.1s9.7,0.6,9.7,1.1S112.2,135,102.5,135z"/>
	</g>
</g>
<g id="XMLID_3290_">
	<g id="XMLID_3294_">
		<path id="XMLID_18_" class="st1" d="M166.8,137.2h-9.5c-2.2,0-4-1.8-4-4v-11c0-2.2,1.8-4,4-4h9.5c2.2,0,4,1.8,4,4v11
			C170.8,135.4,169,137.2,166.8,137.2z"/>
		<path id="XMLID_19_" class="st0" d="M166.8,137.8h-9.5c-2.5,0-4.6-2.1-4.6-4.6v-11c0-2.5,2.1-4.6,4.6-4.6h9.5
			c2.5,0,4.6,2.1,4.6,4.6v11C171.4,135.8,169.4,137.8,166.8,137.8z M157.4,118.9c-1.9,0-3.4,1.5-3.4,3.4v11c0,1.9,1.5,3.4,3.4,3.4
			h9.5c1.9,0,3.4-1.5,3.4-3.4v-11c0-1.9-1.5-3.4-3.4-3.4H157.4z"/>
	</g>
	<g id="XMLID_3293_">
		<path id="XMLID_14_" class="st1" d="M168.4,117.9h-12.6c-0.9,0-1.7-0.8-1.7-1.7v0c0-0.9,0.8-1.7,1.7-1.7h12.6
			c0.9,0,1.7,0.8,1.7,1.7v0C170,117.1,169.3,117.9,168.4,117.9z"/>
		<path id="XMLID_15_" class="st0" d="M168.4,118.5h-12.6c-1.3,0-2.3-1-2.3-2.3s1-2.3,2.3-2.3h12.6c1.3,0,2.3,1,2.3,2.3
			S169.6,118.5,168.4,118.5z M155.7,115.1c-0.6,0-1.1,0.5-1.1,1.1s0.5,1.1,1.1,1.1h12.6c0.6,0,1.1-0.5,1.1-1.1s-0.5-1.1-1.1-1.1
			H155.7z"/>
	</g>
	<g id="XMLID_3292_">
		<path id="XMLID_5_" class="st1" d="M155,117.7l-0.9,1.2c0,0-0.7,1.2,0.4,1.3c0.8,0.1,0.9-0.9,0.9-0.9s0.1-0.6,0.7-0.6
			c0.8,0,0.7,0.5,0.7,0.5s0,0.8,0.7,0.9c0,0,0.8,0.1,0.8-0.8c0-0.7,0.7-0.7,0.7-0.7s0.6-0.1,0.8,0.6c0.1,0.3,0.1,0.8,0.7,0.8
			c0,0,0.9,0.1,0.9-0.8c0-0.7,0.7-0.7,0.7-0.7s0.7,0,0.7,0.5c0,0.6,0.2,1,0.8,1c0.8,0,0.7-0.9,0.7-0.9s0-0.6,0.7-0.6
			c0.7,0,0.7,0.5,0.7,0.5s0,0.9,0.7,0.9s0.7-0.6,0.7-0.6s0.1-0.8,0.7-0.8c0.6,0,0.7,0.7,0.7,0.7s0.1,0.8,0.8,0.8
			c0.7,0,0.7-0.4,0.7-0.4s0.2-0.2,0-0.7l-1-1.3L155,117.7z"/>
		<path id="XMLID_6_" class="st0" d="M154.7,120.8c-0.1,0-0.1,0-0.2,0c-0.6-0.1-0.9-0.4-1.1-0.7c-0.3-0.7,0.1-1.4,0.2-1.6l1.1-1.5
			l14.8,0l1.2,1.7c0.2,0.5,0.1,0.9,0,1.1c-0.1,0.3-0.4,0.8-1.3,0.8c-0.9,0-1.3-0.8-1.4-1.3c0,0-0.1-0.1-0.1-0.2
			c-0.1,0-0.2,0.3-0.2,0.3c0,0.4-0.4,1.2-1.3,1.2c-0.8,0-1.3-0.7-1.3-1.4c0,0-0.1,0-0.1,0c-0.1,0-0.1,0-0.1,0c0,0.1,0,0.7-0.4,1.1
			c-0.7,0.7-2.3,0.6-2.3-1.1c0,0-0.1,0-0.1,0c-0.1,0.6-0.3,0.9-0.5,1.1c-0.4,0.4-1,0.4-1.1,0.4c-0.9-0.1-1.1-0.8-1.2-1.2
			c-0.1-0.3-0.1-0.3-0.1-0.3l0,0c-0.1,0-0.1,0-0.2,0c0,0.6-0.2,1-0.4,1.1c-0.4,0.4-1,0.3-1.1,0.3c-0.8-0.1-1.2-0.8-1.2-1.4
			c-0.1,0-0.2,0-0.2,0.1C156,120.1,155.5,120.8,154.7,120.8z M162.7,118.3c0.3,0.2,0.6,0.5,0.6,1c0,0.4,0.1,0.4,0.2,0.4
			c0.1-0.1,0.1-0.2,0.1-0.3c0-0.1,0-0.5,0.3-0.9c0.1-0.1,0.2-0.1,0.3-0.2L162.7,118.3z M154.5,119.6c0,0,0.1,0,0.1,0
			c0.2,0,0.2-0.3,0.2-0.4c0.1-0.4,0.3-0.8,0.8-1l-0.3,0l-0.7,1C154.5,119.3,154.5,119.5,154.5,119.6
			C154.5,119.6,154.5,119.6,154.5,119.6z M157.5,119.3c0,0,0,0.3,0.2,0.3c0,0,0.1,0,0.1,0c0,0,0-0.1,0-0.2c0-0.6,0.3-1,0.7-1.1
			l-1.7,0c0.2,0.1,0.3,0.2,0.4,0.3C157.5,118.9,157.5,119.3,157.5,119.3C157.5,119.3,157.5,119.3,157.5,119.3z M159.7,118.3
			c0.3,0.1,0.6,0.4,0.7,0.9l0,0.1c0,0.1,0.1,0.2,0.1,0.3c0.1,0,0.2,0,0.2-0.1c0,0,0-0.1,0-0.2c0-0.5,0.2-0.8,0.4-0.9
			c0.1-0.1,0.2-0.1,0.2-0.2L159.7,118.3z M165.6,118.3c0.2,0.1,0.4,0.3,0.5,0.4c0.2,0.3,0.2,0.5,0.2,0.6c0,0.1,0.1,0.3,0.1,0.3
			c0.1,0,0.2,0,0.2-0.1c0.1-0.5,0.3-0.9,0.7-1.2L165.6,118.3z M168.6,118.3c0.4,0.3,0.5,0.7,0.6,1c0,0.1,0.1,0.2,0.2,0.2
			c0,0,0,0,0,0c0.1,0,0.1,0,0.2,0v0l0.1-0.1c0,0,0,0,0-0.1l-0.7-1L168.6,118.3z"/>
	</g>
	<g id="XMLID_3291_">
		<path id="XMLID_1_" class="st1" d="M168.1,132.7h-12c-0.6,0-1-0.5-1-1v-7.4c0-0.6,0.4-1,1-1h12c0.6,0,1,0.4,1,1v7.4
			C169.1,132.2,168.6,132.7,168.1,132.7z"/>
		<path id="XMLID_2_" class="st0" d="M168.1,133.3h-12c-0.9,0-1.6-0.7-1.6-1.6v-7.4c0-0.9,0.7-1.6,1.6-1.6h12c0.9,0,1.6,0.7,1.6,1.6
			v7.4C169.7,132.6,169,133.3,168.1,133.3z M156.1,123.9c-0.2,0-0.4,0.2-0.4,0.4v7.4c0,0.2,0.2,0.4,0.4,0.4h12
			c0.2,0,0.4-0.2,0.4-0.4v-7.4c0-0.2-0.2-0.4-0.4-0.4H156.1z"/>
	</g>
</g>
</svg>
