<?xml version="1.0" encoding="utf-8"?>
<!-- Generator: Adobe Illustrator 19.0.0, SVG Export Plug-In . SVG Version: 6.00 Build 0)  -->
<svg version="1.1" id="Layer_1" xmlns="http://www.w3.org/2000/svg" xmlns:xlink="http://www.w3.org/1999/xlink" x="0px" y="0px"
	 viewBox="0 0 266 200" style="enable-background:new 0 0 266 200;" xml:space="preserve">
<metadata><?xpacket begin="﻿" id="W5M0MpCehiHzreSzNTczkc9d"?>
<x:xmpmeta xmlns:x="adobe:ns:meta/" x:xmptk="Adobe XMP Core 5.6-c067 79.157747, 2015/03/30-23:40:42        ">
   <rdf:RDF xmlns:rdf="http://www.w3.org/1999/02/22-rdf-syntax-ns#">
      <rdf:Description rdf:about=""/>
   </rdf:RDF>
</x:xmpmeta>
                                                                                                    
                                                                                                    
                                                                                                    
                                                                                                    
                                                                                                    
                                                                                                    
                                                                                                    
                                                                                                    
                                                                                                    
                                                                                                    
                                                                                                    
                                                                                                    
                                                                                                    
                                                                                                    
                                                                                                    
                                                                                                    
                                                                                                    
                                                                                                    
                                                                                                    
                                                                                                    
                           
<?xpacket end="w"?></metadata>
<style type="text/css">
	.st0{fill:#E90026;}
	.st1{fill:#FFFFFF;}
</style>
<g id="XMLID_249_">
	<g id="XMLID_348_">
		<path id="XMLID_14_" class="st0" d="M255.8,200h-35.1c-5.6,0-10.2-4.6-10.2-10.2v-39.7c0-5.6,4.6-10.2,10.2-10.2h35.1
			c5.6,0,10.2,4.6,10.2,10.2v39.7C266,195.4,261.4,200,255.8,200z M220.7,142.3c-4.3,0-7.8,3.5-7.8,7.8v39.7c0,4.3,3.5,7.8,7.8,7.8
			h35.1c4.3,0,7.8-3.5,7.8-7.8v-39.7c0-4.3-3.5-7.8-7.8-7.8H220.7z"/>
	</g>
	<g id="XMLID_337_">
		<path id="XMLID_9_" class="st1" d="M257.2,139.9h-38.4c-2.8,0-5.1-2.3-5.1-5.1v0c0-2.8,2.3-5.1,5.1-5.1h38.4
			c2.8,0,5.1,2.3,5.1,5.1v0C262.3,137.6,260,139.9,257.2,139.9z"/>
		<path id="XMLID_10_" class="st0" d="M257.2,141.1h-38.4c-3.5,0-6.3-2.8-6.3-6.3s2.8-6.3,6.3-6.3h38.4c3.5,0,6.3,2.8,6.3,6.3
			S260.7,141.1,257.2,141.1z M218.8,130.9c-2.2,0-3.9,1.8-3.9,3.9s1.8,3.9,3.9,3.9h38.4c2.2,0,3.9-1.8,3.9-3.9s-1.8-3.9-3.9-3.9
			H218.8z"/>
	</g>
	<g id="XMLID_303_">
		<path id="XMLID_5_" class="st1" d="M216.5,139.3l-2.7,3.7c0,0-2.2,3.7,1.4,4.1c2.3,0.3,2.8-2.6,2.8-2.6s0.3-1.9,2.1-1.9
			c2.3,0,2.2,1.7,2.2,1.7s0,2.6,2.1,2.8c0,0,2.5,0.4,2.5-2.5c0-2,2.1-2,2.1-2s1.8-0.2,2.3,1.9c0.3,1,0.4,2.4,2,2.5
			c0,0,2.6,0.2,2.6-2.5c0-2.1,2-2,2-2s2.1,0,2.1,1.7c0,1.7,0.6,3,2.5,3c2.3,0,2.3-2.7,2.3-2.7s-0.1-1.9,2.2-1.8s2.2,1.5,2.2,1.5
			s0.1,2.8,2.3,2.8c2.1,0,2.2-1.9,2.2-1.9s0.3-2.4,2.2-2.6c1.9-0.1,2.3,2.2,2.3,2.2s0.2,2.4,2.3,2.3c2.1-0.1,2.2-1.2,2.2-1.2
			s0.5-0.7-0.1-2.1l-2.9-4.1L216.5,139.3z"/>
		<path id="XMLID_6_" class="st0" d="M215.5,148.3c-0.2,0-0.3,0-0.5,0c-1.7-0.2-2.4-1-2.8-1.7c-0.9-1.8,0.4-3.9,0.5-4.2l0.1-0.1
			l3.1-4.2l44.3,0.1l3.4,4.8c0.6,1.5,0.4,2.5,0.1,3c-0.2,0.8-1.1,2-3.3,2c-2.4,0.1-3.4-2-3.6-3.4c0-0.1-0.2-1.1-1-1.1
			c-0.9,0.1-1.1,1.5-1.1,1.5c-0.1,1.1-1,3-3.4,3c-2.6,0-3.4-2.6-3.5-3.9l0-0.1c0-0.1-0.3-0.2-1-0.3c-0.2,0-0.6,0-0.7,0.2
			c-0.1,0.1-0.2,0.4-0.2,0.4c0,0.2,0,1.8-1.1,3c-0.6,0.6-1.4,1-2.4,1c-2.3,0-3.7-1.6-3.7-4.2c0-0.4-0.9-0.5-1-0.5
			c-0.2,0-0.5,0-0.6,0.2c-0.1,0.1-0.2,0.3-0.2,0.6c0,1.4-0.6,2.3-1.1,2.7c-1.1,1.1-2.7,1-2.8,1c-2.3-0.1-2.8-2.1-3-3.1l-0.1-0.3
			c-0.3-1.1-1-1.1-1-1.1l-0.1,0c-0.6,0-0.9,0.3-0.9,0.8c0,1.6-0.6,2.4-1.2,2.9c-1.1,1-2.6,0.8-2.7,0.8c-2.5-0.3-3.1-2.7-3.1-4
			c0-0.4-0.6-0.5-1-0.5c-0.8,0-0.9,0.8-0.9,0.9C218.9,146,217.9,148.3,215.5,148.3z M237.8,141.3
			C237.9,141.3,237.9,141.3,237.8,141.3c1.4,0,3.4,0.8,3.4,2.9c0,1.8,0.8,1.8,1.3,1.8c0.4,0,0.6-0.1,0.7-0.2c0.3-0.3,0.4-1,0.4-1.2
			c0-0.1,0-1.3,0.9-2.2c0.4-0.4,1.2-0.9,2.5-0.9c1.2,0.1,2,0.4,2.6,1.1c0.6,0.6,0.7,1.4,0.7,1.6c0,0.2,0.2,1.6,1.1,1.6
			c0.6,0,1-0.3,1-0.8c0.2-1.2,1-3.5,3.3-3.7c2.4-0.2,3.4,2,3.5,3.2c0,0.4,0.2,1.3,1.1,1.3c0,0,0,0,0,0c0.7,0,1-0.2,1.1-0.3l0-0.2
			l0.1-0.2c0-0.1,0.1-0.4-0.1-0.9l-2.5-3.5l-41.8-0.1l-2.3,3.2c-0.3,0.5-0.6,1.5-0.4,1.9c0.1,0.3,0.7,0.4,0.9,0.4
			c1.1,0.1,1.4-1.4,1.4-1.6c0.2-1,1-2.9,3.3-2.9c1.1,0,2,0.3,2.7,1c0.8,0.8,0.7,1.8,0.7,2c0,0.1,0.1,1.4,1,1.5c0,0,0.6,0.1,0.8-0.2
			c0.3-0.2,0.3-0.7,0.3-1.1c0-2.3,1.9-3.2,3.2-3.2c1-0.1,2.9,0.4,3.6,2.8l0.1,0.3c0.3,1.1,0.4,1.2,0.8,1.3c0.2,0,0.7,0,1-0.3
			c0.1-0.1,0.3-0.3,0.3-1c0-1.2,0.5-1.9,0.9-2.3C236.4,141.4,237.5,141.3,237.8,141.3z"/>
	</g>
	<g id="XMLID_301_">
		<path id="XMLID_1_" class="st1" d="M258.5,185h-40.6c-0.6,0-1-0.5-1-1v-26.5c0-0.6,0.4-1,1-1h40.6c0.5,0,1,0.4,1,1V184
			C259.5,184.6,259,185,258.5,185z"/>
		<path id="XMLID_2_" class="st0" d="M258.5,186.2h-40.6c-1.2,0-2.2-1-2.2-2.2v-26.5c0-1.2,1-2.2,2.2-2.2h40.6c1.2,0,2.2,1,2.2,2.2
			V184C260.7,185.2,259.7,186.2,258.5,186.2z M218.1,183.8h40.2v-26.1h-40.2V183.8z"/>
	</g>
</g>
<g id="XMLID_17_">
	<g id="XMLID_33_">
		<path id="XMLID_34_" class="st0" d="M194.3,200h-35.1c-5.6,0-10.2-4.6-10.2-10.2v-39.7c0-5.6,4.6-10.2,10.2-10.2h35.1
			c5.6,0,10.2,4.6,10.2,10.2v39.7C204.5,195.4,199.9,200,194.3,200z M159.1,142.3c-4.3,0-7.8,3.5-7.8,7.8v39.7
			c0,4.3,3.5,7.8,7.8,7.8h35.1c4.3,0,7.8-3.5,7.8-7.8v-39.7c0-4.3-3.5-7.8-7.8-7.8H159.1z"/>
	</g>
	<g id="XMLID_28_">
		<path id="XMLID_32_" class="st1" d="M195.7,139.9h-38.4c-2.8,0-5.1-2.3-5.1-5.1v0c0-2.8,2.3-5.1,5.1-5.1h38.4
			c2.8,0,5.1,2.3,5.1,5.1v0C200.8,137.6,198.5,139.9,195.7,139.9z"/>
		<path id="XMLID_29_" class="st0" d="M195.7,141.1h-38.4c-3.5,0-6.3-2.8-6.3-6.3s2.8-6.3,6.3-6.3h38.4c3.5,0,6.3,2.8,6.3,6.3
			S199.2,141.1,195.7,141.1z M157.2,130.9c-2.2,0-3.9,1.8-3.9,3.9s1.8,3.9,3.9,3.9h38.4c2.2,0,3.9-1.8,3.9-3.9s-1.8-3.9-3.9-3.9
			H157.2z"/>
	</g>
	<g id="XMLID_23_">
		<path id="XMLID_27_" class="st1" d="M155,139.3l-2.7,3.7c0,0-2.2,3.7,1.4,4.1c2.3,0.3,2.8-2.6,2.8-2.6s0.3-1.9,2.1-1.9
			c2.3,0,2.2,1.7,2.2,1.7s0,2.6,2.1,2.8c0,0,2.5,0.4,2.5-2.5c0-2,2.1-2,2.1-2s1.8-0.2,2.3,1.9c0.3,1,0.4,2.4,2,2.5
			c0,0,2.6,0.2,2.6-2.5c0-2.1,2-2,2-2s2.1,0,2.1,1.7c0,1.7,0.6,3,2.5,3c2.3,0,2.3-2.7,2.3-2.7s-0.1-1.9,2.2-1.8s2.2,1.5,2.2,1.5
			s0.1,2.8,2.3,2.8c2.1,0,2.2-1.9,2.2-1.9s0.3-2.4,2.2-2.6c1.9-0.1,2.3,2.2,2.3,2.2s0.2,2.4,2.3,2.3c2.1-0.1,2.2-1.2,2.2-1.2
			s0.5-0.7-0.1-2.1l-2.9-4.1L155,139.3z"/>
		<path id="XMLID_24_" class="st0" d="M154,148.3c-0.2,0-0.3,0-0.5,0c-1.7-0.2-2.4-1-2.8-1.7c-0.9-1.8,0.4-3.9,0.5-4.2l0.1-0.1
			l3.1-4.2l44.3,0.1l3.4,4.8c0.6,1.5,0.4,2.5,0.1,3c-0.2,0.8-1.1,2-3.3,2c-2.4,0.1-3.4-2-3.6-3.4c0-0.1-0.2-1.1-1-1.1
			c-0.9,0.1-1.1,1.5-1.1,1.5c-0.1,1.1-1,3-3.4,3c-2.6,0-3.4-2.6-3.5-3.9l0-0.1c0-0.1-0.3-0.2-1-0.3c-0.2,0-0.6,0-0.7,0.2
			c-0.1,0.1-0.2,0.4-0.2,0.4c0,0.2,0,1.8-1.1,3c-0.6,0.6-1.4,1-2.4,1c-2.3,0-3.7-1.6-3.7-4.2c0-0.4-0.9-0.5-1-0.5
			c-0.2,0-0.5,0-0.6,0.2c-0.1,0.1-0.2,0.3-0.2,0.6c0,1.4-0.6,2.3-1.1,2.7c-1.1,1.1-2.7,1-2.8,1c-2.3-0.1-2.8-2.1-3-3.1l-0.1-0.3
			c-0.3-1.1-1-1.1-1-1.1l-0.1,0c-0.6,0-0.9,0.3-0.9,0.8c0,1.6-0.6,2.4-1.2,2.9c-1.1,1-2.6,0.8-2.7,0.8c-2.5-0.3-3.1-2.7-3.1-4
			c0-0.4-0.6-0.5-1-0.5c-0.8,0-0.9,0.8-0.9,0.9C157.4,146,156.4,148.3,154,148.3z M176.3,141.3C176.3,141.3,176.4,141.3,176.3,141.3
			c1.4,0,3.4,0.8,3.4,2.9c0,1.8,0.8,1.8,1.3,1.8c0.4,0,0.6-0.1,0.7-0.2c0.3-0.3,0.4-1,0.4-1.2c0-0.1,0-1.3,0.9-2.2
			c0.4-0.4,1.2-0.9,2.5-0.9c1.2,0.1,2,0.4,2.6,1.1c0.6,0.6,0.7,1.4,0.7,1.6c0,0.2,0.2,1.6,1.1,1.6c0.6,0,1-0.3,1-0.8
			c0.2-1.2,1-3.5,3.3-3.7c2.4-0.2,3.4,2,3.5,3.2c0,0.4,0.2,1.3,1.1,1.3c0,0,0,0,0,0c0.7,0,1-0.2,1.1-0.3l0-0.2l0.1-0.2
			c0-0.1,0.1-0.4-0.1-0.9l-2.5-3.5l-41.8-0.1l-2.3,3.2c-0.3,0.5-0.6,1.5-0.4,1.9c0.1,0.3,0.7,0.4,0.9,0.4c1.1,0.1,1.4-1.4,1.4-1.6
			c0.2-1,1-2.9,3.3-2.9c1.1,0,2,0.3,2.7,1c0.8,0.8,0.7,1.8,0.7,2c0,0.1,0.1,1.4,1,1.5c0,0,0.6,0.1,0.8-0.2c0.3-0.2,0.3-0.7,0.3-1.1
			c0-2.3,1.9-3.2,3.2-3.2c1-0.1,2.9,0.4,3.6,2.8l0.1,0.3c0.3,1.1,0.4,1.2,0.8,1.3c0.2,0,0.7,0,1-0.3c0.1-0.1,0.3-0.3,0.3-1
			c0-1.2,0.5-1.9,0.9-2.3C174.9,141.4,176,141.3,176.3,141.3z"/>
	</g>
	<g id="XMLID_18_">
		<path id="XMLID_22_" class="st1" d="M196.9,185h-40.6c-0.5,0-1-0.5-1-1v-26.5c0-0.6,0.5-1,1-1h40.6c0.6,0,1,0.4,1,1V184
			C197.9,184.6,197.5,185,196.9,185z"/>
		<path id="XMLID_19_" class="st0" d="M196.9,186.2h-40.6c-1.2,0-2.2-1-2.2-2.2v-26.5c0-1.2,1-2.2,2.2-2.2h40.6c1.2,0,2.2,1,2.2,2.2
			V184C199.1,185.2,198.1,186.2,196.9,186.2z M156.5,183.8h40.2v-26.1h-40.2V183.8z"/>
	</g>
</g>
<g id="XMLID_37_">
	<g id="XMLID_53_">
		<path id="XMLID_54_" class="st0" d="M132.7,200H97.6c-5.6,0-10.2-4.6-10.2-10.2v-39.7c0-5.6,4.6-10.2,10.2-10.2h35.1
			c5.6,0,10.2,4.6,10.2,10.2v39.7C142.9,195.4,138.3,200,132.7,200z M97.6,142.3c-4.3,0-7.8,3.5-7.8,7.8v39.7c0,4.3,3.5,7.8,7.8,7.8
			h35.1c4.3,0,7.8-3.5,7.8-7.8v-39.7c0-4.3-3.5-7.8-7.8-7.8H97.6z"/>
	</g>
	<g id="XMLID_48_">
		<path id="XMLID_52_" class="st1" d="M134.1,139.9H95.7c-2.8,0-5.1-2.3-5.1-5.1v0c0-2.8,2.3-5.1,5.1-5.1h38.4
			c2.8,0,5.1,2.3,5.1,5.1v0C139.2,137.6,136.9,139.9,134.1,139.9z"/>
		<path id="XMLID_49_" class="st0" d="M134.1,141.1H95.7c-3.5,0-6.3-2.8-6.3-6.3s2.8-6.3,6.3-6.3h38.4c3.5,0,6.3,2.8,6.3,6.3
			S137.6,141.1,134.1,141.1z M95.7,130.9c-2.2,0-3.9,1.8-3.9,3.9s1.8,3.9,3.9,3.9h38.4c2.2,0,3.9-1.8,3.9-3.9s-1.8-3.9-3.9-3.9H95.7
			z"/>
	</g>
	<g id="XMLID_43_">
		<path id="XMLID_47_" class="st1" d="M93.4,139.3l-2.7,3.7c0,0-2.2,3.7,1.4,4.1c2.3,0.3,2.8-2.6,2.8-2.6s0.3-1.9,2.1-1.9
			c2.3,0,2.2,1.7,2.2,1.7s0,2.6,2.1,2.8c0,0,2.5,0.4,2.5-2.5c0-2,2.1-2,2.1-2s1.8-0.2,2.3,1.9c0.3,1,0.4,2.4,2,2.5
			c0,0,2.6,0.2,2.6-2.5c0-2.1,2-2,2-2s2.1,0,2.1,1.7c0,1.7,0.6,3,2.5,3c2.3,0,2.3-2.7,2.3-2.7s-0.1-1.9,2.2-1.8s2.2,1.5,2.2,1.5
			s0.1,2.8,2.3,2.8c2.1,0,2.2-1.9,2.2-1.9s0.3-2.4,2.2-2.6c1.9-0.1,2.3,2.2,2.3,2.2s0.2,2.4,2.3,2.3c2.1-0.1,2.2-1.2,2.2-1.2
			s0.5-0.7-0.1-2.1l-2.9-4.1L93.4,139.3z"/>
		<path id="XMLID_44_" class="st0" d="M92.4,148.3c-0.2,0-0.3,0-0.5,0c-1.7-0.2-2.4-1-2.8-1.7c-0.9-1.8,0.4-3.9,0.5-4.2l0.1-0.1
			l3.1-4.2l44.3,0.1l3.4,4.8c0.6,1.5,0.4,2.5,0.1,3c-0.2,0.8-1.1,2-3.3,2c-2.4,0.1-3.4-2-3.6-3.4c0-0.1-0.2-1.1-1-1.1
			c-0.9,0.1-1.1,1.5-1.1,1.5c-0.1,1.1-1,3-3.4,3c-2.6,0-3.4-2.6-3.5-3.9l0-0.1c0-0.1-0.3-0.2-1-0.3c-0.2,0-0.6,0-0.7,0.2
			c-0.1,0.1-0.2,0.4-0.2,0.4c0,0.2,0,1.8-1.1,3c-0.6,0.6-1.4,1-2.4,1c-2.3,0-3.7-1.6-3.7-4.2c0-0.4-0.9-0.5-1-0.5
			c-0.2,0-0.5,0-0.6,0.2c-0.1,0.1-0.2,0.3-0.2,0.6c0,1.4-0.6,2.3-1.1,2.7c-1.1,1.1-2.7,1-2.8,1c-2.3-0.1-2.8-2.1-3-3.1l-0.1-0.3
			c-0.3-1.1-1-1.1-1-1.1l-0.1,0c-0.6,0-0.9,0.3-0.9,0.8c0,1.6-0.6,2.4-1.2,2.9c-1.1,1-2.6,0.8-2.7,0.8c-2.5-0.3-3.1-2.7-3.1-4
			c0-0.4-0.6-0.5-1-0.5c-0.8,0-0.9,0.8-0.9,0.9C95.8,146,94.8,148.3,92.4,148.3z M114.8,141.3C114.8,141.3,114.8,141.3,114.8,141.3
			c1.4,0,3.4,0.8,3.4,2.9c0,1.8,0.8,1.8,1.3,1.8c0.4,0,0.6-0.1,0.7-0.2c0.3-0.3,0.4-1,0.4-1.2c0-0.1,0-1.3,0.9-2.2
			c0.4-0.4,1.2-0.9,2.5-0.9c1.2,0.1,2,0.4,2.6,1.1c0.6,0.6,0.7,1.4,0.7,1.6c0,0.2,0.2,1.6,1.1,1.6c0.6,0,1-0.3,1-0.8
			c0.2-1.2,1-3.5,3.3-3.7c2.4-0.2,3.4,2,3.5,3.2c0,0.4,0.2,1.3,1.1,1.3c0,0,0,0,0,0c0.7,0,1-0.2,1.1-0.3l0-0.2l0.1-0.2
			c0-0.1,0.1-0.4-0.1-0.9l-2.5-3.5L94,140.5l-2.3,3.2c-0.3,0.5-0.6,1.5-0.4,1.9c0.1,0.3,0.7,0.4,0.9,0.4c1.1,0.1,1.4-1.4,1.4-1.6
			c0.2-1,1-2.9,3.3-2.9c1.1,0,2,0.3,2.7,1c0.8,0.8,0.7,1.8,0.7,2c0,0.1,0.1,1.4,1,1.5c0,0,0.6,0.1,0.8-0.2c0.3-0.2,0.3-0.7,0.3-1.1
			c0-2.3,1.9-3.2,3.2-3.2c1-0.1,2.9,0.4,3.6,2.8l0.1,0.3c0.3,1.1,0.4,1.2,0.8,1.3c0.2,0,0.7,0,1-0.3c0.1-0.1,0.3-0.3,0.3-1
			c0-1.2,0.5-1.9,0.9-2.3C113.3,141.4,114.4,141.3,114.8,141.3z"/>
	</g>
	<g id="XMLID_38_">
		<path id="XMLID_42_" class="st1" d="M135.4,185H94.8c-0.6,0-1-0.5-1-1v-26.5c0-0.6,0.4-1,1-1h40.6c0.6,0,1,0.4,1,1V184
			C136.4,184.6,135.9,185,135.4,185z"/>
		<path id="XMLID_39_" class="st0" d="M135.4,186.2H94.8c-1.2,0-2.2-1-2.2-2.2v-26.5c0-1.2,1-2.2,2.2-2.2h40.6c1.2,0,2.2,1,2.2,2.2
			V184C137.6,185.2,136.6,186.2,135.4,186.2z M95,183.8h40.2v-26.1H95V183.8z"/>
	</g>
</g>
</svg>
