<?xml version="1.0" encoding="utf-8"?>
<!-- Generator: Adobe Illustrator 19.0.0, SVG Export Plug-In . SVG Version: 6.00 Build 0)  -->
<svg version="1.1" id="Layer_1" xmlns="http://www.w3.org/2000/svg" xmlns:xlink="http://www.w3.org/1999/xlink" x="0px" y="0px"
	 viewBox="0 0 266 200" style="enable-background:new 0 0 266 200;" xml:space="preserve">
<metadata><?xpacket begin="﻿" id="W5M0MpCehiHzreSzNTczkc9d"?>
<x:xmpmeta xmlns:x="adobe:ns:meta/" x:xmptk="Adobe XMP Core 5.6-c067 79.157747, 2015/03/30-23:40:42        ">
   <rdf:RDF xmlns:rdf="http://www.w3.org/1999/02/22-rdf-syntax-ns#">
      <rdf:Description rdf:about=""/>
   </rdf:RDF>
</x:xmpmeta>
                                                                                                    
                                                                                                    
                                                                                                    
                                                                                                    
                                                                                                    
                                                                                                    
                                                                                                    
                                                                                                    
                                                                                                    
                                                                                                    
                                                                                                    
                                                                                                    
                                                                                                    
                                                                                                    
                                                                                                    
                                                                                                    
                                                                                                    
                                                                                                    
                                                                                                    
                                                                                                    
                           
<?xpacket end="w"?></metadata>
<style type="text/css">
	.st0{fill:#FFFFFF;}
	.st1{fill:#E90026;}
	.st2{fill:none;}
</style>
<g id="XMLID_714_">
	<g id="XMLID_1278_">
		<path id="XMLID_135_" class="st0" d="M179.3,151.6c0,0-7.2-7.6-7-20.1c0,0,0-3.3,0.9-9.4c0,0,1.1-9.3-0.3-14
			c-1.4-4.7-2-6.7,2-13.2c0,0,1.8-2.3,2.6,1.1c0,0,5.8,2.4,5.7,8.8c0,0,6.6-1,9.1,1.7c2.5,2.8,0.3,8.2,0.3,8.2s4.5-0.4,5.9,2
			c0,0,0.3,1-0.5,2.3c0,0-1,1.8,0,3.4c1,1.6,2.5,4.1,2.5,4.1s0.8,1.3,2,1.7c1.1,0.4,1.3,1,1.4,2.1c0.1,1.2,0,1.4,0.5,2.3
			c0.4,0.9,1.3,1.2,1.5,1.6c0.3,0.4,1.9,1,2,3.7c0,0-0.1,4.2,0.8,6.2l1,2.8c0,0,0.8,1.5,0,3.2c0,0-0.3,3.8-4.9,6.8
			c-4.6,3.1-6.2,2.8-6.2,2.8s-3.8,0.7-7.6-4.1c-3.8-4.8-0.5-13.4-0.5-13.4s-4,7.4-2.1,13.5c0,0-5.1-3.4-6-12.4c0,0-0.2-2.6,1.6-7.7
			c1.8-5.2,1.8-8.3,1.8-8.3s-2.6,5.7-3.3,7.5c0,0-2.2,5.6-2.7,9.6c0,0-3.2-12.6,0.5-21.4c0,0-2,0.3-2.9,3.3c0,0-1.5-3.5-1.7-7.4
			l-0.4,8.8c0,0,0.1,3.1-0.5,4.4c0,0-0.5,3-0.3,3.8c0,0,1.2,2.9,1.5,3.9C176,140,179.2,150.1,179.3,151.6z"/>
		<path id="XMLID_136_" class="st1" d="M198,160.5c-1.4,0-4.5-0.5-7.7-4.4c-0.9-1.2-1.5-2.6-1.8-4c0,1.2,0.1,2.3,0.5,3.5l0.6,2
			l-1.8-1.2c-0.2-0.1-5.4-3.7-6.3-13c0-0.1-0.2-2.8,1.7-8.1c0.3-0.7,0.5-1.4,0.7-2.1c-0.3,0.7-0.6,1.4-0.7,1.8
			c0,0.1-2.2,5.6-2.6,9.5l-0.5,4l-1-3.9c-0.1-0.5-2.7-11-0.3-19.6c-0.3,0.4-0.5,0.9-0.7,1.6l-0.6,2l-0.8-1.9c0-0.1-0.2-0.5-0.5-1.3
			l-0.1,2.5c0,0.3,0.1,3.2-0.5,4.6c-0.2,1.3-0.4,2.9-0.3,3.4c0.2,0.4,1.2,2.9,1.5,3.9c0.3,1.1,3.2,10.2,3.4,11.8l0.2,2.2l-1.5-1.6
			c-0.3-0.3-7.4-8-7.2-20.7c0-0.1,0-3.4,0.9-9.5c0-0.1,1.1-9.1-0.3-13.7c-1.5-5-2-7.2,2.1-13.9c0.1-0.2,1.1-1.3,2.2-1.1
			c1,0.2,1.5,1.4,1.7,2.1c1.3,0.6,5.5,3.2,5.8,8.5c2-0.2,6.8-0.4,9,2.1c2.1,2.3,1.3,6.1,0.8,7.9c1.6,0.1,4.3,0.4,5.5,2.4l0.1,0.2
			c0,0.1,0.3,1.4-0.6,2.9l0,0c0,0-0.7,1.4,0,2.6c1,1.6,2.5,4.1,2.5,4.1c0.2,0.3,0.9,1.2,1.6,1.4c1.6,0.5,1.8,1.6,1.9,2.8l0,0.3
			c0.1,0.9,0.1,1,0.4,1.7c0.2,0.4,0.5,0.7,0.9,0.9c0.2,0.2,0.5,0.4,0.6,0.6c0,0,0.1,0.1,0.2,0.1c0.6,0.5,1.9,1.5,2,3.9
			c0,0.1,0,4.1,0.8,5.9l1,2.8c0.1,0.3,0.8,1.9,0,3.7c-0.1,0.8-0.8,4.3-5.2,7.3c-4.1,2.8-6.1,2.9-6.6,2.9
			C198.4,160.5,198.2,160.5,198,160.5z M189.7,141.9l1.4,0.6c0,0.1-3.1,8.2,0.4,12.6c3.5,4.4,6.9,3.8,6.9,3.8l0.1,0l0.1,0
			c0,0,1.6,0.1,5.7-2.7c4.2-2.8,4.5-6.1,4.5-6.3l0.1-0.3c0.6-1.3,0.1-2.5,0.1-2.5l0-0.1l-1-2.8c-0.9-2.1-0.9-6.3-0.9-6.5
			c-0.1-1.7-0.9-2.3-1.4-2.8c-0.2-0.2-0.4-0.3-0.5-0.5c0,0-0.2-0.2-0.3-0.3c-0.4-0.3-0.9-0.7-1.3-1.5c-0.5-0.9-0.5-1.3-0.5-2.3
			l0-0.3c-0.1-1.1-0.2-1.3-0.8-1.5c-1.3-0.4-2.3-1.9-2.4-2c0,0-1.6-2.5-2.6-4.1c-1.2-1.9-0.1-4.1,0-4.1c0.5-0.8,0.5-1.4,0.4-1.7
			c-1-1.5-4-1.6-5.1-1.5l-1.2,0.1l0.5-1.1c0-0.1,2-5-0.1-7.4c-1.8-2-6.7-1.8-8.5-1.5l-0.9,0.1l0-0.9c0.1-5.9-5.2-8.1-5.2-8.1
			l-0.4-0.1l-0.1-0.4c-0.2-1-0.5-1.3-0.6-1.3c-0.1,0-0.5,0.2-0.7,0.5c-3.8,6.2-3.2,8.1-1.9,12.6c1.5,4.8,0.4,13.9,0.3,14.3
			c-0.9,6-0.9,9.3-0.9,9.3c-0.1,7.5,2.6,13.3,4.6,16.6c-0.7-2.4-1.6-5.5-2.4-7.8c-0.3-1-1.5-3.8-1.5-3.9l0-0.1
			c-0.2-0.9,0.2-3.4,0.3-4.1l0.1-0.2c0.4-0.9,0.4-3.3,0.4-4.1l0.4-8.9l1.5,0c0.1,2.1,0.6,4.1,1,5.4c1.1-1.8,2.7-2.1,2.7-2.1l1.3-0.2
			l-0.5,1.2c-2.3,5.6-1.8,12.9-1.1,17.2c0.8-3.1,1.9-5.8,2-6c0.7-1.8,3.2-7.3,3.3-7.6l1.4-3.1l0,3.4c0,0.1,0,3.4-1.9,8.6
			c-1.8,4.9-1.6,7.4-1.6,7.4c0.5,5.3,2.5,8.6,4,10.3C186.5,147.9,189.6,142.2,189.7,141.9z"/>
	</g>
	<g id="XMLID_1065_">
		<path id="XMLID_128_" class="st0" d="M206.4,159c0,0,2.9-1.6,3.8-3.6l1.7-3.1c0,0,1.4-2.3,0.4-6.5c0,0-0.9-1.7-1.3-3.4l-0.3-3.5
			c0,0-0.1-2.9-1.7-3.5c0,0-0.9-0.5-1.4-1.1c0,0-0.7-0.7,0.5-1.7c0,0,1.4-1.4,1-3.4c0,0-0.1-0.4-1.2-1.9c0,0-1.7-2.3,1.6-2.5
			l3.1-0.2c0,0,1.8-0.2,1-1c0,0-1.1-0.7,0.5-3.1c0,0,0.7-0.9,1.8-1.8c0,0,1.2-0.6,0.7-1.9l-1-2.6c0,0-0.7-1.8,1.1-2c0,0,3.2-0.1,5-1
			c0,0,1.7-0.4,2.4-1.5c0,0,1.2-1,1.3-3.3c0-2.3,0.9-3.2,1.2-3.5s2.6-2.2,2.6-2.2s1.3-1.1,1.8-3.3c0.4-2.2,4.1-4.5,4.1-4.5
			s4.8-3.5,5.1,2.3c0,0-0.4,8.7-0.3,11.4c0.1,2.7,0.6,10.3,1.6,14.2c1.1,3.9,3.2,20.8-6.3,29.9c0,0-6.9,5.9-10.2,7.1
			c0,0,11.2-8.3,12.5-11.5c1.3-3.2,0.3-2.7,0.3-2.7l-2.4,1.5c0,0,0.4-2.1,1.8-5c0,0,3.9-4.8,2.8-18.8l-1.5,8.5c0,0-0.1-4.9-1.1-7.9
			c0,0-1.9-5-2-8.6s-0.7,16.9,0.1,19.8c0,0-4.3-7.1-4.4-13.5s-1.6,8.6,1.1,15.3c2.6,6.7-0.7,11.6-0.7,11.6s-1.8-11.7-6.8-18.1
			c0,0,3.9,9.6,4.1,16.5c0.1,6.8-3.1,7.9-3.1,7.9l-3.1-11.2c0,0,1.6,11.2-3.7,17l-0.6-3.1C218.2,155.1,216.1,160.3,206.4,159z"/>
		<path id="XMLID_129_" class="st1" d="M209.5,160c-1,0-2-0.1-3.2-0.2l-2.3-0.3l2-1.1c0,0,2.7-1.5,3.4-3.3l1.8-3.2
			c0,0,1.2-2.1,0.4-5.8c-0.2-0.4-0.9-1.9-1.3-3.5l0-0.1L210,139c0-0.7-0.3-2.5-1.2-2.9l-0.1-0.1c-0.1-0.1-1-0.6-1.6-1.3
			c0,0-0.4-0.4-0.4-1.1c0-0.6,0.4-1.1,1-1.6l0,0c0,0,1.1-1.1,0.7-2.6c0,0,0,0,0,0c0,0-0.2-0.4-1.1-1.6c-0.1-0.1-0.9-1.3-0.4-2.4
			c0.4-0.8,1.2-1.2,2.6-1.3l3.1-0.2c0.1,0,0.2,0,0.3-0.1c-0.4-0.6-0.6-1.7,0.6-3.8c0.1-0.1,0.8-1.1,2-2l0.1-0.1
			c0.2-0.1,0.5-0.4,0.3-1l-1-2.6c0-0.1-0.4-1.2,0.1-2c0.2-0.4,0.7-0.8,1.6-0.9c0.1,0,3.2-0.1,4.7-1l0.2-0.1c0.4-0.1,1.5-0.5,2-1.2
			l0.1-0.1c0,0,1-0.9,1-2.7c0-2.5,1-3.7,1.4-4c0.3-0.3,2.1-1.8,2.7-2.2c0,0,1.1-1,1.5-2.9c0.5-2.4,4-4.8,4.4-5
			c0.2-0.2,2.6-1.8,4.4-0.9c1.1,0.5,1.7,1.8,1.8,3.8c0,0.1-0.4,8.7-0.3,11.4c0.1,2.6,0.5,10.2,1.6,14.1c1.1,4.1,3.3,21.3-6.5,30.7
			c-0.3,0.3-7.1,6-10.5,7.2l-4.7,1.7l4-3c3.1-2.3,11.2-8.7,12.2-11.2c0.2-0.5,0.4-0.9,0.4-1.2l-2.9,1.8l0.3-1.6
			c0-0.1,0.4-2.2,1.9-5.2l0.1-0.1c0,0,0.4-0.5,0.9-1.7l-2.6-4.4c-0.1-0.2-2.1-3.6-3.4-7.7c0.1,3.1,0.5,6.5,1.5,8.9
			c2.7,7-0.6,12.1-0.8,12.3l-1.1,1.6l-0.3-1.9c0-0.1-0.7-4.5-2.4-9.4c0.6,2.5,1.1,5.2,1.2,7.6c0.1,7.3-3.5,8.5-3.7,8.6l-0.7,0.2
			l-1.7-6.1c-0.2,3.7-1.2,8.3-4.1,11.4l-1,1.1l-0.5-2.8C216.5,158.3,214.1,160,209.5,160z M208.6,158.4c7.3,0.3,8.9-3.6,8.9-3.6
			l1-2.5l0.7,4.1c3.8-5.7,2.5-15,2.5-15.1l1.5-0.3l2.9,10.3c0.8-0.7,2-2.5,1.9-6.7c-0.1-6.6-4-16.1-4-16.2l-2.1-5.1l3.4,4.3
			c3.7,4.8,5.7,12.4,6.5,16.2c0.7-1.9,1.2-5.1-0.3-9c-2-5-1.9-16.7-1-17.6l0.4-0.3l0.5,0.2c0.5,0.2,0.6,0.7,0.6,2.2
			c0,3.4,1.4,7.1,2.5,9.7c-0.1-2.2-0.1-4.9-0.1-7.2c0.1-9.3,0.3-9.5,0.5-9.7l0.4-0.3l0.4,0.2c0.5,0.2,0.5,0.6,0.5,1.1
			c0.1,3.5,1.9,8.3,1.9,8.4c0.3,0.8,0.5,1.7,0.6,2.6l1.3-7.4c-0.5-3.9-0.8-8.4-0.9-10.3c-0.1-2.7,0.3-11.1,0.3-11.4
			c0-0.9-0.2-2.1-0.9-2.4c-0.9-0.4-2.4,0.5-2.9,0.8c-1,0.6-3.5,2.5-3.8,4.1c-0.5,2.4-2,3.7-2,3.8c-1.1,0.9-2.3,1.9-2.5,2.1
			c-0.2,0.3-1,1.1-1,3c0,2.3-1.1,3.5-1.5,3.8c-0.8,1.1-2.3,1.6-2.7,1.7c-1.9,1-5.1,1.1-5.2,1.1c-0.1,0-0.4,0.1-0.4,0.2
			c-0.1,0.2,0,0.6,0,0.7l1,2.6c0.6,1.5-0.3,2.5-1,2.8c-1,0.8-1.6,1.6-1.6,1.7c-0.8,1.3-0.7,2-0.6,2.1l0.1,0.1c0.5,0.5,0.4,1,0.3,1.3
			c-0.3,0.8-1.4,1-1.8,1l-3.2,0.2c-0.8,0.1-1.2,0.3-1.3,0.5c-0.1,0.2,0.1,0.7,0.3,0.9c1,1.4,1.3,2,1.3,2.1c0.6,2.4-1.1,4.1-1.1,4.1
			c-0.4,0.3-0.5,0.6-0.5,0.6c0.3,0.4,0.9,0.8,1.2,1c2,0.8,2.1,3.8,2.1,4.2l0.3,3.4c0.4,1.5,1.2,3.2,1.2,3.2l0.1,0.2
			c1,4.4-0.4,6.9-0.5,7l-1.7,3.1C210.4,156.8,209.4,157.7,208.6,158.4z M237.9,142.6c0.2,0,0.5,0.1,0.6,0.3c0.3,0.3,0.4,0.7,0.3,1.3
			c4.3-8.9,2.8-20.2,1.9-23.4c0-0.1-0.1-0.3-0.1-0.4l0.1,0.6c1.1,13.3-2.4,18.5-2.9,19.2c-0.6,1.2-1,2.2-1.2,3l0.8-0.5
			C237.5,142.6,237.7,142.6,237.9,142.6z M235.8,119.4c-0.1,5.2,0,11.8,0.4,13.2l1.4,4.7c0.1-0.3,0.2-0.6,0.3-0.9l-0.2-6.9
			c0,0-0.2-4.9-1.1-7.7C236.6,121.8,236.2,120.8,235.8,119.4z M239.3,129.1l-1.2,6.8C238.6,134.3,239.1,132.1,239.3,129.1z"/>
	</g>
	<g id="XMLID_1031_">
		<path id="XMLID_124_" class="st0" d="M212,116c0,0-2-1.6-6.1-5c0,0-5.5-4.7-9.9-1.9c0,0-0.7,0.5,0.3,2.6c1,2.1,1.8,3.4,2.5,4.1
			c0,0,2.5,1.9,1.5,3.6c-1,1.7-1.5,2-1.2,2.8c0.3,0.8,0.2,1.4,2.5,3.1c2.3,1.7,3.1,2.3,3.7,3.9c0.5,1.6,0.8,1.9,0.9,3.3
			c0,0,1.2-0.4,0.7-2.6c0,0-1-5.4,1.3-7.3c0,0,0.4-0.6,2.1-0.9c0,0,1.8,0.3,1.4-1.3c0,0-0.5-1.1,1.4-2.5c0,0,1.5-0.9,0.1-0.8
			C213.1,116.7,212.5,116.4,212,116z"/>
		<path id="XMLID_125_" class="st1" d="M205.6,133.3l-0.1-0.9c-0.1-0.9-0.2-1.3-0.5-2.1c-0.1-0.3-0.2-0.6-0.4-1
			c-0.4-1.3-1.1-1.8-3-3.2l-0.4-0.3c-2.1-1.6-2.4-2.3-2.7-3.2l-0.1-0.2c-0.3-0.9,0.1-1.5,0.6-2.3c0.2-0.3,0.4-0.6,0.7-1.1
			c0.6-1.1-1.3-2.6-1.3-2.6c-0.8-0.8-1.7-2.2-2.7-4.3c-1.2-2.5-0.4-3.3-0.1-3.5c4.8-3.1,10.5,1.7,10.8,2c4.1,3.4,6.1,5,6.1,5l0,0
			c0.3,0.3,0.7,0.5,0.9,0.6c0.6,0,1,0.3,1.1,0.7c0.1,0.5-0.2,1-1,1.5c-1.3,0.9-1.1,1.7-1.1,1.7c0.3,0.9,0,1.5-0.3,1.8
			c-0.5,0.6-1.4,0.6-1.8,0.5c-1.2,0.3-1.5,0.6-1.5,0.6l-0.1,0.1c-1.6,1.4-1.3,5.2-1.1,6.6c0.7,2.9-1.1,3.5-1.2,3.5L205.6,133.3z
			 M196.6,109.6c0,0.2,0,0.6,0.5,1.7c1.3,2.6,2,3.5,2.3,3.9c1,0.8,2.7,2.7,1.6,4.5c-0.3,0.5-0.5,0.8-0.7,1.1c-0.5,0.8-0.5,0.8-0.4,1
			l0.1,0.3c0.2,0.6,0.3,1.1,2.2,2.5l0.4,0.3c2,1.5,3,2.3,3.5,3.9c-0.2-1.8-0.3-5.3,1.7-7c0.2-0.3,0.9-0.8,2.5-1.1l0.1,0l0.1,0
			c0.2,0,0.5,0,0.6-0.1c0,0,0-0.1,0-0.3c0-0.1-0.5-1.5,1.5-3.2c-0.2-0.1-0.6-0.3-0.9-0.6l0,0c0,0-2-1.6-6.1-5
			C205.3,111.5,200.3,107.3,196.6,109.6z"/>
	</g>
	<g id="XMLID_771_">
		<path id="XMLID_120_" class="st0" d="M207.1,102.8c0,0-4.4,2.8-3.4,4.8l2.2,1.8l7.4,5.7c0,0-0.7-1.4,1.2-3.1c0,0,0.9-0.7,3.1-1.8
			c0,0,1.6-0.6,2.7-1.5c0,0,1.5-0.9,1.7-2.8c0,0,0.3-2.4,1.4-3.8c0,0,0.7-1,3.1-2.3c0,0,1.7-0.7,1.9-1.3c0,0,0.9-0.7-2.7-1.3
			c0,0-4.9-2.5-9.7,0.4C216.1,97.5,208.6,102.4,207.1,102.8z"/>
		<path id="XMLID_121_" class="st1" d="M215.3,117.5l-9.8-7.5l-2.3-1.9l-0.1-0.1c-1.3-2.6,3.1-5.5,3.6-5.8l0.2-0.1
			c1-0.3,5.9-3.3,8.8-5.2c4.8-2.9,9.6-0.9,10.4-0.5c2.2,0.4,3.1,0.9,3.3,1.6c0.1,0.4,0,0.7-0.2,0.9c-0.4,0.8-1.7,1.4-2.3,1.6
			c-2.1,1.1-2.8,2-2.8,2c-0.9,1-1.2,2.8-1.3,3.4c-0.2,2.1-1.7,3.2-2,3.4c-1.1,0.9-2.7,1.5-2.8,1.6c-2.1,1-2.9,1.7-2.9,1.7
			c-1.4,1.3-1,2.2-1,2.2L215.3,117.5z M204.4,107.1l2,1.7l6.1,4.7c0.2-0.6,0.6-1.4,1.5-2.1c0,0,1-0.8,3.3-1.9c0.1,0,1.6-0.6,2.5-1.4
			l0.1-0.1c0,0,1.2-0.7,1.3-2.2c0-0.1,0.3-2.7,1.6-4.2c0-0.1,0.8-1.2,3.4-2.5c0.6-0.2,1.1-0.5,1.4-0.8c-0.3-0.1-0.9-0.3-2-0.5
			l-0.2-0.1c0,0-4.6-2.2-9,0.4c-0.7,0.5-7.3,4.7-9.1,5.3C206,104.4,204.1,106.1,204.4,107.1z"/>
	</g>
	<g id="XMLID_770_">
		<path id="XMLID_116_" class="st0" d="M184.4,100.5c0,0,5.1-7.5,22.4-8.5c0,0,1.6,4.1-4.6,8.5c0,0-3.6,2.7-6.3,3.7
			c0,0-1.9,1.4-2.9-0.4c0,0-0.6-1.9-2.3-1.5c0,0-3.4,2.3-5.4,0.7C183.3,101.3,184.4,100.5,184.4,100.5z"/>
		<path id="XMLID_117_" class="st1" d="M194.5,105.5c-0.2,0-0.3,0-0.5,0c-0.5-0.1-1.2-0.4-1.7-1.3l-0.1-0.2c-0.1-0.2-0.4-1.1-1.3-1
			c-0.7,0.5-4,2.3-6.1,0.5c-1-0.8-1.5-1.6-1.5-2.4c0-0.5,0.3-0.9,0.5-1.1c0.7-0.9,6.3-7.8,22.9-8.7l0.5,0l0.2,0.5
			c0.1,0.2,1.7,4.7-4.8,9.4c-0.1,0.1-3.6,2.7-6.4,3.8C196,105,195.3,105.5,194.5,105.5z M193.7,103.4c0.2,0.3,0.4,0.5,0.6,0.5
			c0.5,0.1,1-0.2,1.2-0.3l0.2-0.1c2.5-0.9,6-3.6,6.1-3.6c4.4-3.1,4.6-6,4.4-7.1c-16.1,1.1-21.1,8-21.2,8.1l-0.2,0.2
			c0,0.2,0,0.6,0.9,1.2c1.6,1.2,4.5-0.7,4.5-0.7l0.1-0.1l0.2,0C192.4,101.1,193.4,102.6,193.7,103.4z"/>
	</g>
	<g id="XMLID_720_">
		<path id="XMLID_112_" class="st0" d="M208.9,91.7c0,0,0.4,2.1-1.4,5.3c0,0,0.1,0.8,0.9,1.3c0,0,0.8,1.2,2.3-0.4c0,0,2.4-2,6.4-2.7
			c0,0,1.2-0.1,3.1-0.1c0,0,3.2-0.1-1.9-1.5C218.3,93.6,211.9,91.5,208.9,91.7z"/>
		<path id="XMLID_113_" class="st1" d="M209.3,99.5c0,0-0.1,0-0.1,0c-0.6,0-1-0.4-1.2-0.6c-0.9-0.7-1.1-1.7-1.1-1.8l0-0.3l0.1-0.2
			c1.6-2.9,1.3-4.8,1.3-4.8L208,91l0.8-0.1c3-0.2,9.4,1.8,9.7,1.9c2.7,0.7,3.5,1.2,3.4,2c-0.1,0.6-0.6,0.9-1.7,1
			c-1.9,0-3.1,0.1-3.1,0.1c-3.6,0.6-5.9,2.5-6,2.5C210.6,99.2,210,99.5,209.3,99.5z M209.1,97.9c0,0,0.1,0.1,0.2,0.1
			c0.1,0,0.4,0,0.9-0.6c0.2-0.2,2.7-2.2,6.8-2.9c0.1,0,0.6,0,1.5-0.1c-0.1,0-0.2-0.1-0.3-0.1c-0.1,0-5.4-1.7-8.4-1.8
			c0,0.9-0.3,2.6-1.3,4.6c0.1,0.2,0.2,0.4,0.5,0.6L209.1,97.9C209.1,97.9,209.1,97.9,209.1,97.9z"/>
	</g>
	<g id="XMLID_716_">
		<path id="XMLID_108_" class="st0" d="M206.4,97.8c0,0,0.9,0.8,1.2,1.6c0,0,1.2,1-0.7,1.9c0,0-4,2.9-4.6,4.3c0,0-0.3,1.7-4.5,1.3
			c0,0-2.1-0.2-2.9-0.5C195,106.4,202.9,105.4,206.4,97.8z"/>
		<path id="XMLID_109_" class="st1" d="M199.1,107.7c-0.4,0-0.8,0-1.3-0.1c-0.2,0-2.2-0.2-3-0.5l-3.1-1l3.3-0.4
			c0.1,0,7.5-1,10.8-8.2l0.4-0.9l0.8,0.7c0.1,0.1,0.9,0.8,1.3,1.7c0.2,0.2,0.6,0.7,0.5,1.4c-0.1,0.7-0.6,1.2-1.4,1.6
			c-1.6,1.1-3.9,3.1-4.3,3.9C203,106.2,202.3,107.7,199.1,107.7z M198.6,106.2c2.7,0.2,3.1-0.8,3.1-0.8c0.6-1.6,4.2-4.2,4.9-4.7
			l0.1-0.1c0.5-0.2,0.6-0.5,0.6-0.5c0,0-0.1-0.2-0.1-0.2l-0.1-0.1l-0.1-0.1c-0.1-0.2-0.2-0.4-0.4-0.6
			C204.4,103.1,201.1,105.1,198.6,106.2z"/>
	</g>
	<g id="XMLID_715_">
		<path id="XMLID_104_" class="st0" d="M186.7,95.5c0,0,21.7-11.1,35.9-1.7c0,0,0.2-0.5-1.6-2.8c0,0-1.2-1.3-2-3.5
			c0,0-0.4-2.7-3.1-1.9c-2.7,0.8-2.9-1.4-2.9-1.4s-0.8-2.5-2.1-0.5c-1.3,2-1.4,2.8-2.5,3c-1.2,0.1-2.3-0.2-4.4-2.3
			c-2.1-2-1.3-2.2-2.7-0.9l-1.1,2.2c0,0-0.3,1.1-1.5,0.8c0,0-0.5-0.5-2,1.9c0,0-1.7,2.4-3.6,2.5C193.1,91,190.1,89.6,186.7,95.5z"/>
		<path id="XMLID_105_" class="st1" d="M184.7,97.4l1.3-2.2c3.3-5.6,6.4-5.2,7.2-4.9c1.2-0.1,2.5-1.6,2.9-2.2
			c1.2-1.9,1.9-2.2,2.3-2.3c0.2,0,0.3,0,0.5,0.1c0.1,0,0.4,0,0.5-0.4l1.2-2.5c0.2-0.2,0.3-0.3,0.4-0.4c0.3-0.3,0.6-0.6,1-0.6
			c0,0,0,0,0,0c0.5,0,0.7,0.3,1.1,0.7c0.3,0.3,0.6,0.7,1.2,1.2c2.2,2.1,3.1,2.2,3.8,2.1c0.4-0.1,0.5-0.2,1.1-1.2
			c0.2-0.4,0.5-0.9,0.9-1.5c0.5-0.8,1.2-1.2,1.8-1.1c1.1,0.1,1.6,1.5,1.7,1.8l0,0.2l0,0c0,0,0,0.5,0.4,0.7c0.4,0.3,1,0.1,1.5,0
			c1-0.3,2-0.2,2.7,0.2c1,0.7,1.3,1.8,1.4,2.2c0.7,1.9,1.8,3.1,1.8,3.1c2,2.4,1.9,3.2,1.7,3.6l-0.4,0.8l-0.7-0.5
			c-13.7-9-34.9,1.7-35.1,1.8L184.7,97.4z M192.4,91.6c-0.7,0-2,0.3-3.5,2.1c2.3-1,5.9-2.3,10.3-3.3c8.4-1.9,15.8-1.4,21.5,1.4
			c-0.1-0.1-0.2-0.2-0.3-0.4c0,0-1.3-1.4-2.1-3.7l0-0.2c0,0-0.1-0.9-0.7-1.2c-0.3-0.2-0.8-0.2-1.4-0.1c-1.2,0.4-2.1,0.3-2.8-0.2
			c-0.8-0.5-1-1.4-1-1.7c-0.1-0.3-0.3-0.6-0.4-0.7c0,0-0.1,0.1-0.3,0.4c-0.4,0.5-0.6,1-0.8,1.4c-0.6,1.1-1,1.8-2.2,1.9
			c-1.6,0.2-3-0.5-5-2.5c-0.6-0.6-1-1-1.3-1.3c-0.1,0.1-0.2,0.2-0.3,0.3l-1,2c-0.2,0.7-1,1.5-2.2,1.3c-0.2,0.1-0.6,0.5-1.2,1.6
			c-0.2,0.3-2,2.8-4.2,2.9l-0.2,0l-0.2-0.1C192.8,91.7,192.7,91.6,192.4,91.6z"/>
	</g>
</g>
<g id="XMLID_3064_">
	<g id="XMLID_3141_">
		<path id="XMLID_102_" class="st0" d="M65.2,115c0,0-0.6,16,17.4,22.5c0,0,2.1,0.6,3.6,0.6h4.9h0.4h4.9c1.4-0.1,3.6-0.6,3.6-0.6
			c18-6.5,17.4-22.5,17.4-22.5"/>
		<path id="XMLID_103_" class="st1" d="M91.5,139.3h-5.3c-1.6-0.1-3.8-0.6-3.9-0.6c0,0-0.1,0-0.1,0C63.6,131.9,64,115.1,64,114.9
			c0-0.7,0.6-1.2,1.2-1.2c0.7,0,1.2,0.6,1.2,1.2l0,0c0,0.6-0.3,15.2,16.6,21.3c0.3,0.1,2.1,0.5,3.3,0.6h10.2c1,0,2.6-0.4,3.2-0.6
			c16.9-6.2,16.6-21.2,16.6-21.3c0-0.7,0.5-1.2,1.2-1.2c0.7,0,1.2,0.5,1.2,1.2c0,0.2,0.4,16.9-18.2,23.7c0,0-0.1,0-0.1,0
			c-0.1,0-2.3,0.6-3.8,0.6H91.5z"/>
	</g>
	<g id="XMLID_3140_">
		<path id="XMLID_98_" class="st0" d="M81.1,112.8c0,0,4.7-1.3,4.2-5.8c0,0,2.8,1.2,1.2,5.8H81.1z"/>
		<path id="XMLID_99_" class="st1" d="M86.5,113.6h-5.4c-0.4,0-0.7-0.3-0.7-0.6s0.2-0.7,0.5-0.8l0,0c0.2,0,4.1-1.2,3.7-5
			c0-0.3,0.1-0.5,0.3-0.7c0.2-0.2,0.5-0.2,0.7-0.1c0,0,3.4,1.5,1.6,6.8C87.1,113.4,86.9,113.6,86.5,113.6z M84,112.1h2
			c0.5-1.6,0.3-2.7,0-3.3C85.7,110.2,84.9,111.3,84,112.1z"/>
	</g>
	<g id="XMLID_3139_">
		<path id="XMLID_94_" class="st0" d="M94.3,112.8c0,0,4.5-2.8,5-5c0,0,0.4-1.5,0-2.6c0,0,2.5,1.3,2,3.8c0,0-0.2,2.2-1.8,3.8H94.3z"
			/>
		<path id="XMLID_95_" class="st1" d="M99.6,113.6h-5.3c-0.3,0-0.6-0.2-0.7-0.5c-0.1-0.3,0-0.7,0.3-0.8c1.6-1,4.3-3.2,4.7-4.6
			c0.1-0.3,0.3-1.5,0-2.2c-0.1-0.3,0-0.6,0.2-0.8c0.2-0.2,0.6-0.2,0.8-0.1c1,0.5,2.9,2.2,2.4,4.6c0,0.4-0.3,2.6-2,4.3
			C100,113.5,99.8,113.6,99.6,113.6z M96.7,112.1h2.6c1.2-1.4,1.3-3.1,1.3-3.2c0,0,0-0.1,0-0.1c0.2-0.7,0-1.3-0.4-1.8
			c0,0.5-0.1,0.9-0.2,1C99.7,109.4,98,111,96.7,112.1z"/>
	</g>
	<g id="XMLID_3138_">
		<path id="XMLID_90_" class="st0" d="M71.1,109.1c0,0,1.5-2.5,4.1-1.8c0,0,3.5,0.4,4.5,2.7C79.7,110,76,113.2,71.1,109.1z"/>
		<path id="XMLID_91_" class="st1" d="M76.1,111.9c-1.5,0-3.4-0.5-5.5-2.3c-0.3-0.2-0.4-0.6-0.2-1c0.6-1,2.5-2.8,4.9-2.1
			c0.5,0.1,3.9,0.6,5.1,3.1c0.1,0.3,0.1,0.7-0.2,0.9C80.1,110.6,78.6,111.9,76.1,111.9z M72.1,108.9c3.1,2.3,5.5,1.4,6.5,0.8
			c-1.1-1.4-3.6-1.7-3.6-1.8c0,0-0.1,0-0.1,0C73.6,107.6,72.6,108.4,72.1,108.9z"/>
	</g>
	<g id="XMLID_3137_">
		<path id="XMLID_86_" class="st0" d="M67,112.8c0,0,1-3.4,6-3.7c0,0,3,0.4,3.4,2l-1,1.6c0,0-3.6-1-6,0H67z"/>
		<path id="XMLID_87_" class="st1" d="M69.5,113.6H67c-0.2,0-0.5-0.1-0.6-0.3c-0.1-0.2-0.2-0.4-0.1-0.7c0-0.2,1.2-3.9,6.7-4.2
			c0,0,0.1,0,0.1,0c0.4,0.1,3.6,0.6,4.1,2.6c0,0.2,0,0.4-0.1,0.6l-1,1.6c-0.2,0.3-0.5,0.4-0.8,0.3c0,0-3.4-0.9-5.5,0
			C69.7,113.5,69.6,113.6,69.5,113.6z M68.3,112.1h1.1c2.1-0.8,4.7-0.4,5.8-0.1l0.5-0.8c-0.4-0.7-1.9-1.1-2.6-1.2
			C70.3,110.1,68.9,111.2,68.3,112.1z"/>
	</g>
	<g id="XMLID_3136_">
		<path id="XMLID_82_" class="st0" d="M82.3,109.9c0,0-4.8-1-6.8,2.9c0,0,3.2-0.9,5.6,0L82.3,109.9z"/>
		<path id="XMLID_83_" class="st1" d="M81.1,113.6c-0.1,0-0.2,0-0.3,0c-2.2-0.8-5.1,0-5.2,0c-0.3,0.1-0.6,0-0.8-0.2
			s-0.2-0.5-0.1-0.8c1.7-3.6,5.7-3.7,7.6-3.3c0.2,0,0.4,0.2,0.5,0.4c0.1,0.2,0.1,0.4,0,0.6l-1.1,2.9
			C81.7,113.4,81.4,113.6,81.1,113.6z M78.6,111.7c0.7,0,1.4,0.1,2.1,0.2l0.5-1.4c-1,0-2.7,0.1-4,1.2
			C77.6,111.7,78.1,111.7,78.6,111.7z"/>
	</g>
	<g id="XMLID_3135_">
		<path id="XMLID_78_" class="st0" d="M88.8,108.1c0,0-7.2-1.7-7.6,4.7c0,0,2.2-2.7,5.3-1.5c0,0,3,1.2,4,0.2c0,0,2.1-1-0.6-2.7
			C89.8,108.8,89.3,108.3,88.8,108.1z"/>
		<path id="XMLID_79_" class="st1" d="M81.1,113.6c-0.1,0-0.2,0-0.3-0.1c-0.3-0.1-0.5-0.4-0.5-0.7c0.1-2,0.9-3.5,2.2-4.4
			c2.5-1.9,6.2-1,6.3-1c0,0,0.1,0,0.1,0c0.6,0.2,1.1,0.6,1.2,0.8c1.2,0.8,1.7,1.5,1.7,2.4c-0.1,0.9-0.8,1.4-1.1,1.5
			c-1.3,1.2-4.2,0.1-4.7-0.1c-2.5-1-4.3,1.2-4.4,1.3C81.6,113.5,81.4,113.6,81.1,113.6z M84.9,110.2c0.6,0,1.2,0.1,1.8,0.4
			c1.2,0.5,2.8,0.7,3.2,0.3c0.1-0.1,0.1-0.1,0.2-0.2c0.1-0.1,0.3-0.2,0.3-0.4c0,0,0-0.4-1-1c0,0-0.1-0.1-0.1-0.1
			c-0.1-0.1-0.4-0.4-0.7-0.5c-0.4-0.1-3.3-0.6-5.1,0.7c-0.5,0.3-0.8,0.8-1.1,1.3C83.1,110.5,83.9,110.2,84.9,110.2z"/>
	</g>
	<g id="XMLID_3134_">
		<path id="XMLID_74_" class="st0" d="M98.3,106.4c0,0-3,2.2-0.8,5.7l2.9-0.4C100.4,111.7,97.9,110.3,98.3,106.4z"/>
		<path id="XMLID_75_" class="st1" d="M97.5,112.8c-0.3,0-0.5-0.1-0.6-0.3c-2-3.2-0.2-5.8,1-6.7c0.2-0.2,0.6-0.2,0.8,0
			c0.3,0.2,0.4,0.4,0.4,0.7c-0.4,3.4,1.7,4.5,1.7,4.6c0.3,0.2,0.4,0.5,0.4,0.8s-0.3,0.6-0.6,0.6L97.5,112.8
			C97.6,112.8,97.6,112.8,97.5,112.8z M97.6,108.6c-0.2,0.7-0.3,1.6,0.3,2.7l0.8-0.1C98.3,110.5,97.8,109.7,97.6,108.6z"/>
	</g>
	<g id="XMLID_3133_">
		<path id="XMLID_70_" class="st0" d="M85.7,107.1c0,0,2-3.4,7.2,0c0,0,2.8,2.1,1.7,4.8c0,0-0.6,1.2-1.7-0.1c0,0-2.4-3.6-5.8-4.5
			C87.1,107.4,86.7,107.1,85.7,107.1z"/>
		<path id="XMLID_71_" class="st1" d="M93.8,113.3c-0.5,0-1-0.3-1.5-0.9c-0.1-0.1-2.3-3.4-5.5-4.3c-0.1,0-0.2-0.1-0.2-0.1
			c0,0-0.2-0.1-0.8-0.1c0,0-0.1,0-0.1,0c-0.3,0-0.5-0.1-0.7-0.4c-0.1-0.2-0.1-0.5,0-0.8c0-0.1,0.8-1.4,2.6-1.8
			c1.7-0.4,3.6,0.1,5.7,1.5c0.2,0.1,3.3,2.5,2,5.8c-0.1,0.1-0.4,0.9-1.2,1C93.9,113.3,93.9,113.3,93.8,113.3z M87.3,106.7
			c3.6,1.1,6.1,4.6,6.2,4.8c0.2,0.2,0.3,0.3,0.3,0.3c0,0,0-0.1,0-0.1c0.9-2.1-1.5-3.9-1.5-3.9c-1.7-1.1-3.2-1.6-4.5-1.3
			C87.7,106.5,87.5,106.6,87.3,106.7C87.3,106.7,87.3,106.7,87.3,106.7z"/>
	</g>
	<g id="XMLID_3132_">
		<path id="XMLID_66_" class="st0" d="M96.7,108.7c0,0-4.9-1.6-7,3.1c0,0-1,2,1.1,0c0,0,2.7-1.9,4.7,0.2c0,0,2.3-1.1,1.2-3"/>
		<path id="XMLID_67_" class="st1" d="M89.6,113.4c-0.2,0-0.3,0-0.5-0.2c-0.5-0.3-0.5-0.9-0.1-1.8c1.9-4.2,6-4.1,7.9-3.4
			c0.3,0.1,0.5,0.4,0.5,0.7c0.3,0.6,0.4,1.3,0.2,1.9c-0.4,1.2-1.7,1.9-1.8,2c-0.3,0.1-0.6,0.1-0.9-0.1c-1.5-1.5-3.4-0.3-3.7-0.1
			C90.8,112.9,90.2,113.4,89.6,113.4z M93.3,110.3c0.8,0,1.6,0.2,2.3,0.8c0.3-0.2,0.5-0.5,0.6-0.8c0.1-0.3,0-0.6-0.1-0.9
			c-0.9-0.2-3.1-0.4-4.7,1.3C91.9,110.4,92.6,110.3,93.3,110.3z"/>
	</g>
	<g id="XMLID_3131_">
		<path id="XMLID_62_" class="st0" d="M108.4,112.8c0,0,0.1-4-7.1-3.1l-1.6,3.1h2.4C102,112.8,104.7,111.2,108.4,112.8z"/>
		<path id="XMLID_63_" class="st1" d="M108.4,113.6c-0.1,0-0.2,0-0.3-0.1c-3.2-1.4-5.7-0.1-5.7,0c-0.1,0.1-0.2,0.1-0.4,0.1h-2.4
			c-0.3,0-0.5-0.1-0.6-0.4s-0.1-0.5,0-0.7l1.6-3.1c0.1-0.2,0.3-0.4,0.6-0.4c3.1-0.4,5.4,0.1,6.7,1.3c1.2,1.1,1.2,2.5,1.2,2.6
			c0,0.3-0.1,0.5-0.3,0.6C108.6,113.5,108.5,113.6,108.4,113.6z M100.8,112.1h1c0.6-0.3,2.7-1.1,5.3-0.5c-0.1-0.1-0.2-0.2-0.3-0.3
			c-0.7-0.6-2.1-1.2-5.1-1L100.8,112.1z"/>
	</g>
	<g id="XMLID_3130_">
		<path id="XMLID_60_" class="st0" d="M107.2,110.7c0,0,2.1-3.3,6.2-1.7c0,0,2.7,0.6,3.5,3.8l-1.4,0.1c0,0-0.4-0.8-2.6-1.3
			c0,0-1.9-0.3-4.6,1.3"/>
		<path id="XMLID_61_" class="st1" d="M108.4,113.6c-0.3,0-0.5-0.1-0.6-0.4c-0.2-0.4-0.1-0.8,0.3-1c2.9-1.7,5-1.5,5-1.4
			c1.6,0.4,2.4,0.9,2.8,1.3l0,0c-0.8-1.9-2.5-2.4-2.6-2.4c0,0-0.1,0-0.1,0c-3.4-1.4-5.2,1.3-5.3,1.4c-0.2,0.4-0.7,0.5-1,0.2
			c-0.3-0.2-0.5-0.7-0.2-1c0.8-1.3,3.4-3.4,7-2c0.5,0.1,3.2,1,4,4.3c0,0.2,0,0.4-0.1,0.6c-0.1,0.2-0.3,0.3-0.5,0.3l-1.4,0.1
			c-0.3,0-0.6-0.1-0.8-0.4c0,0,0,0,0,0c0,0-0.4-0.6-2-0.9c0,0,0,0-0.1,0c-0.4,0-1.9,0.1-3.9,1.3
			C108.6,113.5,108.5,113.6,108.4,113.6z"/>
	</g>
	<g id="XMLID_3071_">
		<path id="XMLID_56_" class="st0" d="M112.7,108.5c0,0-1.6-3-4.9-1.8c0,0-2.7,0.9-4,2.9l3,1.9c0,0,1-2.3,3.2-3
			C110,108.5,111,108.2,112.7,108.5z"/>
		<path id="XMLID_57_" class="st1" d="M106.9,112.2c-0.1,0-0.3,0-0.4-0.1l-3-1.9c-0.3-0.2-0.5-0.7-0.2-1c1.4-2.3,4.3-3.2,4.4-3.3
			c3-1.1,5.1,1,5.8,2.2c0.1,0.3,0.1,0.6-0.1,0.8c-0.2,0.2-0.4,0.4-0.7,0.3c-1.5-0.2-2.4,0-2.4,0c-1.8,0.6-2.7,2.5-2.7,2.6
			c-0.1,0.2-0.3,0.4-0.5,0.4C107,112.2,106.9,112.2,106.9,112.2z M104.9,109.4l1.7,1c0.5-0.8,1.6-2.1,3.2-2.7c0.1,0,0.5-0.1,1.1-0.2
			c-0.6-0.4-1.6-0.7-2.8-0.3C108.1,107.4,106.2,108,104.9,109.4z"/>
	</g>
	<g id="XMLID_3070_">
		<polygon id="XMLID_52_" class="st0" points="88.3,136.9 146.4,136.9 159,157.7 75.8,157.8 		"/>
		<path id="XMLID_53_" class="st1" d="M75.8,159c-0.4,0-0.8-0.2-1-0.6c-0.2-0.4-0.2-0.8,0-1.2l12.5-20.9c0.2-0.4,0.6-0.6,1-0.6h58
			c0.4,0,0.8,0.2,1,0.6l12.7,20.8c0.2,0.4,0.2,0.8,0,1.2c-0.2,0.4-0.6,0.6-1,0.6L75.8,159C75.8,159,75.8,159,75.8,159z M89,138.1
			l-11.1,18.5l79-0.1l-11.2-18.4H89z"/>
	</g>
	<g id="XMLID_3069_">
		<polyline id="XMLID_50_" class="st0" points="159,157.7 159,160.8 75.9,160.8 75.9,157.8 		"/>
		<path id="XMLID_51_" class="st1" d="M159,162H75.9c-0.7,0-1.2-0.5-1.2-1.2v-3c0-0.7,0.5-1.2,1.2-1.2s1.2,0.5,1.2,1.2v1.8h80.7
			v-1.9c0-0.7,0.5-1.2,1.2-1.2s1.2,0.5,1.2,1.2v3.1C160.2,161.4,159.7,162,159,162z"/>
	</g>
	<g id="XMLID_3068_">
		<circle id="XMLID_46_" class="st0" cx="102.8" cy="142.6" r="9"/>
		<path id="XMLID_47_" class="st1" d="M102.8,152.8c-5.6,0-10.2-4.6-10.2-10.2c0-5.6,4.6-10.2,10.2-10.2s10.2,4.6,10.2,10.2
			C113,148.2,108.4,152.8,102.8,152.8z M102.8,134.7c-4.3,0-7.8,3.5-7.8,7.8c0,4.3,3.5,7.8,7.8,7.8s7.8-3.5,7.8-7.8
			C110.6,138.2,107.1,134.7,102.8,134.7z"/>
	</g>
	<g id="XMLID_3067_">
		
			<ellipse id="XMLID_42_" transform="matrix(0.9047 -0.426 0.426 0.9047 -50.0236 58.5198)" class="st0" cx="105.8" cy="141.1" rx="5.5" ry="7.9"/>
		<path id="XMLID_43_" class="st1" d="M107.5,149.9c-2.9,0-6-2.3-7.7-5.9c-2.2-4.6-1.2-9.5,2.1-11.1c3.4-1.6,7.8,0.8,9.9,5.4l0,0
			c1,2.1,1.4,4.4,1,6.5c-0.4,2.2-1.5,3.9-3.2,4.6C109,149.7,108.2,149.9,107.5,149.9z M104.1,134.7c-0.4,0-0.8,0.1-1.2,0.3
			c-2.1,1-2.6,4.6-1,7.9c1.6,3.3,4.7,5.3,6.8,4.3c1-0.5,1.6-1.5,1.8-2.9c0.3-1.6,0-3.4-0.8-5.1l0,0
			C108.4,136.5,106.1,134.7,104.1,134.7z"/>
	</g>
	<g id="XMLID_3142_">
		<path id="XMLID_38_" class="st0" d="M117.4,118.1H65.1c-1.4,0-2.5-1.1-2.5-2.5v0c0-1.4,1.1-2.5,2.5-2.5h52.4
			c1.4,0,2.5,1.1,2.5,2.5v0C119.9,116.9,118.8,118.1,117.4,118.1z"/>
		<path id="XMLID_39_" class="st1" d="M117.4,119.3H65.1c-2.1,0-3.7-1.7-3.7-3.7s1.7-3.7,3.7-3.7h52.4c2.1,0,3.7,1.7,3.7,3.7
			S119.5,119.3,117.4,119.3z M65.1,114.2c-0.7,0-1.3,0.6-1.3,1.3s0.6,1.3,1.3,1.3h52.4c0.7,0,1.3-0.6,1.3-1.3s-0.6-1.3-1.3-1.3H65.1
			z"/>
	</g>
</g>
<g id="XMLID_1279_">
	<g id="XMLID_1852_">
		<g id="XMLID_3063_">
			
				<ellipse id="XMLID_34_" transform="matrix(0.9701 -0.2427 0.2427 0.9701 -39.3771 41.8175)" class="st0" cx="150" cy="180.7" rx="10.1" ry="7"/>
			<path id="XMLID_35_" class="st1" d="M148.3,188.7c-4.4,0-8-2.1-8.9-5.4c-0.5-2.1,0.1-4.3,1.8-6.2c1.6-1.9,4.1-3.3,6.8-4
				c5.8-1.5,11.4,0.7,12.4,4.9l0,0l0,0c0.5,2.1-0.1,4.3-1.8,6.2c-1.6,1.9-4.1,3.3-6.8,4C150.7,188.6,149.5,188.7,148.3,188.7z
				 M151.8,174.2c-1.1,0-2.2,0.1-3.3,0.4c-2.5,0.6-4.6,1.9-6.1,3.5c-1.4,1.6-1.9,3.3-1.5,4.9c0.8,3.4,5.6,5.1,10.6,3.8
				c2.5-0.6,4.6-1.9,6.1-3.5c1.4-1.6,1.9-3.3,1.5-4.9l0,0C158.5,175.8,155.5,174.2,151.8,174.2z"/>
		</g>
		<g id="XMLID_3062_">
			
				<ellipse id="XMLID_30_" transform="matrix(0.9701 -0.2427 0.2427 0.9701 -39.0599 41.6148)" class="st0" cx="149.4" cy="179.3" rx="10.1" ry="7"/>
			<path id="XMLID_31_" class="st1" d="M147.7,187.3c-4.4,0-8-2.1-8.9-5.4c-0.5-2.1,0.1-4.3,1.8-6.2c1.6-1.9,4.1-3.3,6.8-4
				c5.8-1.5,11.4,0.7,12.4,4.9l0,0l0,0c0.5,2.1-0.1,4.3-1.8,6.2c-1.6,1.9-4.1,3.3-6.8,4C150,187.2,148.8,187.3,147.7,187.3z
				 M151.1,172.8c-1.1,0-2.2,0.1-3.3,0.4c-2.5,0.6-4.6,1.9-6.1,3.5c-1.4,1.6-1.9,3.3-1.5,4.9c0.8,3.4,5.6,5.1,10.6,3.8
				c2.5-0.6,4.6-1.9,6.1-3.5c1.4-1.6,1.9-3.3,1.5-4.9l0,0C157.8,174.5,154.8,172.8,151.1,172.8z"/>
		</g>
	</g>
	<g id="XMLID_1391_">
		<g id="XMLID_1851_">
			
				<ellipse id="XMLID_26_" transform="matrix(0.8787 -0.4774 0.4774 0.8787 -66.7733 90.5814)" class="st0" cx="144.9" cy="176.7" rx="10.1" ry="7"/>
			<path id="XMLID_27_" class="st1" d="M142,185.3c-3,0-5.5-1.2-6.7-3.4c-1-1.9-0.9-4.2,0.2-6.5c1.1-2.2,3.1-4.2,5.6-5.5
				c5.3-2.9,11.2-2.1,13.3,1.6l0,0c1,1.9,0.9,4.2-0.2,6.5c-1.1,2.2-3.1,4.2-5.6,5.5C146.4,184.7,144.1,185.3,142,185.3z
				 M147.7,169.6c-1.8,0-3.9,0.5-5.8,1.6c-2.2,1.2-4,3-5,4.9c-0.9,1.9-1,3.7-0.2,5.1c1.6,3,6.7,3.5,11.2,1c2.2-1.2,4-3,5-4.9
				c0.9-1.9,1-3.7,0.2-5.1C152.2,170.5,150.1,169.6,147.7,169.6z"/>
		</g>
		<g id="XMLID_1392_">
			
				<ellipse id="XMLID_22_" transform="matrix(0.8787 -0.4774 0.4774 0.8787 -66.3307 89.9658)" class="st0" cx="143.9" cy="175.5" rx="10.1" ry="7"/>
			<path id="XMLID_23_" class="st1" d="M141.1,184.1c-3,0-5.5-1.2-6.7-3.4c-1-1.9-0.9-4.2,0.2-6.5c1.1-2.2,3.1-4.2,5.6-5.5
				s5.2-2,7.7-1.7c2.6,0.3,4.5,1.5,5.6,3.3c1,1.9,0.9,4.2-0.2,6.5c-1.1,2.2-3.1,4.2-5.6,5.5C145.4,183.5,143.1,184.1,141.1,184.1z
				 M146.7,168.4c-1.9,0-3.9,0.5-5.8,1.6c-2.2,1.2-4,3-5,4.9c-0.9,1.9-1,3.7-0.2,5.1c1.7,3,6.7,3.5,11.2,1c2.2-1.2,4-3,5-4.9
				c0.9-1.9,1-3.7,0.2-5.1v0c-0.8-1.4-2.3-2.3-4.4-2.6C147.4,168.4,147,168.4,146.7,168.4z"/>
		</g>
	</g>
</g>
<g id="XMLID_454_">
	<g id="XMLID_494_">
		<path id="XMLID_18_" class="st0" d="M230.3,177.2c0,0-25.7,12.5-32.4,18.1s3.6,2.9,3.6,2.9S223,193,235,185L230.3,177.2z"/>
		<path id="XMLID_19_" class="st1" d="M197.5,200c-1.4,0-2.3-0.4-2.7-1.1c-0.8-1.5,0.8-3.1,2.5-4.4c6.7-5.6,31.5-17.7,32.6-18.2
			l0.9-0.5l5.8,9.6l-0.9,0.6c-12,8-32.9,13.1-33.8,13.3C200,199.8,198.6,200,197.5,200z M197.1,197.7c0.9,0,2.6-0.2,4.1-0.6
			c0.2-0.1,20.4-5,32.2-12.4l-3.6-5.9c-4.7,2.3-25.5,12.6-31.2,17.5C197.8,196.9,197.4,197.4,197.1,197.7z"/>
	</g>
	<g id="XMLID_493_">
		<path id="XMLID_14_" class="st0" d="M256.6,162.9l-23.9,12c0,0-3.1,1.2-1.9,3.1c1.1,1.9,3.6,6,3.6,6l0.6,1h0.6l0.2-2.7
			c0,0,15.8-5,25.2-13.3l1.2,2.5c0,0,4-1.6,2.1-6.7C262.5,159.6,256.6,162.9,256.6,162.9z"/>
		<path id="XMLID_15_" class="st1" d="M236.6,186.1h-2.3l-4.6-7.6c-0.4-0.7-0.5-1.5-0.3-2.2c0.5-1.6,2.4-2.4,2.8-2.5l23.8-11.9
			c0.3-0.2,3.6-1.9,6.4-0.8c1.4,0.5,2.4,1.6,3,3.3c1.8,4.9-1.1,7.5-2.8,8.2l-1,0.4l-1-2.1c-8.4,6.9-20.6,11.3-23.8,12.3L236.6,186.1
			z M260.4,163c-1.6,0-3.3,0.9-3.3,0.9l0,0l-23.9,12c-0.6,0.3-1.4,0.8-1.5,1.2c0,0,0,0.1,0.1,0.3l3,4.9l0.1-0.8l0.7-0.2
			c0.2,0,15.7-5,24.8-13.1l1.1-1l1.3,2.7c0.7-0.7,1.5-2.1,0.6-4.6c-0.4-1-0.9-1.6-1.7-1.9C261.2,163.1,260.8,163,260.4,163z"/>
	</g>
</g>
<g id="XMLID_3220_">
	<g id="XMLID_3224_">
		<path id="XMLID_13_" class="st1" d="M171.6,166.4c-0.5,0.5-0.4,0.3-0.7,0.9c-0.7-0.5-2.9-1.8-3.2-3.8c-0.3-2.2,2.3-3.9,3.1-3.3
			c1.1,1-2.3,0.1-2.1,3.2C168.9,164.8,170.4,165.5,171.6,166.4z"/>
	</g>
	<g id="XMLID_3221_">
		<path id="XMLID_12_" class="st1" d="M195.6,184.1c-0.5,0.5-2.8,0-4-0.2c-3.6-0.8-8.3-2.3-11.5-4.3c-2.8-1.8-4.2-2.4-7-4.7
			c-0.8-0.6-2-2.8-2.2-3.4c-0.2-0.7-0.3-0.9-0.1-1.8c0.2-0.8-0.1-2,0.4-2.6c1-1.4,2.1-1.4,3.2-1.1c0.1-0.3,0.6-0.8,1.4-0.7
			c2.5,0.4,4.3,2.9,5.8,4.9c1.5,1.9,2.9,3.7,4.4,5c1.7,1.5,3.2,3.4,4.8,4.6C192.6,181.1,196.5,183.1,195.6,184.1z M174.3,173.9
			c2.7,2.4,10.7,7,14.5,7.6c-3.4-1.3-11-5.9-13.4-8.4c-0.7-0.8-1.8-2.7-2.9-1.9C171.9,171.6,173.5,173.3,174.3,173.9z"/>
	</g>
</g>
<g id="XMLID_3169_">
	<g id="XMLID_3219_">
		<path id="XMLID_143_" class="st2" d="M139.6,149.7c0.6,0,1.9-0.3,2,0.5c0.1,0.4-1.3,0.4-1.9,0.3c-0.2,0-0.4-0.1-0.7-0.1l0.2-0.7
			C139.3,149.7,139.4,149.7,139.6,149.7z"/>
	</g>
	<g id="XMLID_3218_">
		<path id="XMLID_142_" class="st2" d="M139.1,149.7l-0.2,0.7c-0.9-0.2-2-0.4-3.2-0.8l0.2-0.5C137.1,149.4,138.3,149.6,139.1,149.7z
			"/>
	</g>
	<g id="XMLID_3217_">
		<path id="XMLID_141_" class="st2" d="M135.9,149.1l-0.2,0.5c-0.6-0.2-1.2-0.4-1.8-0.6l0.2-0.4
			C134.7,148.8,135.3,148.9,135.9,149.1z"/>
	</g>
	<g id="XMLID_3216_">
		<path id="XMLID_140_" class="st2" d="M133.9,149c-0.6-0.2-1.2-0.5-1.8-0.7l0-0.3c0.6,0.2,1.2,0.4,1.9,0.6L133.9,149z"/>
	</g>
	<g id="XMLID_3215_">
		<path id="XMLID_139_" class="st2" d="M130.4,147.3c0.5,0.2,1.1,0.5,1.8,0.7l0,0.3C131.4,147.9,130.8,147.6,130.4,147.3z"/>
	</g>
	<g id="XMLID_3214_">
		<path id="XMLID_11_" class="st1" d="M144.1,148.6c0.9,0.2,1.8,0.5,2.5,0c1.5-1.1-0.3-2.3,0.6-2.2c0.6,0,0.9,1.9-0.2,2.7
			c-1,0.7-2.5,0.2-3,0.2C144.1,148.9,144,149,144.1,148.6z"/>
	</g>
	<g id="XMLID_3213_">
		<path id="XMLID_10_" class="st1" d="M124.1,146.5l0.5,2.8c-0.8-0.4-1.5-0.9-2.1-1.4c-0.1-0.1-0.2-0.1-0.3-0.2l0.2-1.7
			C122.9,146.3,123.5,146.4,124.1,146.5z"/>
	</g>
	<g id="XMLID_3212_">
		<path id="XMLID_9_" class="st1" d="M129.4,143.6c0.7,0.1,1.5,0.1,2.3,0.1l-0.4,2.3c-0.7-0.3-1.4-0.5-1.8-0.7c0.4,0.3,1,0.7,1.8,1
			l-0.2,0.9c-0.6-0.3-1.1-0.6-1.7-0.9l-0.5-2.8C129,143.5,129.2,143.5,129.4,143.6z"/>
	</g>
	<g id="XMLID_3211_">
		<path id="XMLID_8_" class="st1" d="M117.6,141.7l-0.2,1.7c-0.6-0.4-1.5-1.1-1.5-1.4C116,141.4,116.7,141.5,117.6,141.7z"/>
	</g>
	<g id="XMLID_3208_">
		<g id="XMLID_3210_">
			<path id="XMLID_7_" class="st1" d="M130,150l0.4-2.3c0.6,0,1.1,0,1.7,0.1c0.4,0,0.9,0.1,1.3,0.1l-1.5,2.8
				C131.3,150.4,130.6,150.2,130,150z"/>
		</g>
		<g id="XMLID_3209_">
			<path id="XMLID_6_" class="st1" d="M131.7,151l-0.5,0.8c-0.5-0.2-1-0.4-1.5-0.6l0.2-0.9C130.5,150.6,131.1,150.8,131.7,151z"/>
		</g>
	</g>
	<g id="XMLID_3204_">
		<path id="XMLID_5_" class="st1" d="M139.6,150.5c0.6,0.1,2,0.1,1.9-0.3c-0.1-0.8-1.4-0.5-2-0.5c-0.1,0-0.3,0-0.4,0l1.1-4.1
			c0.9,0,1.9,0.2,2.5,0.7c0.4,0.3,0.4,0.7,0.3,0.9c0.6,0.4,1,0.9,0.8,1.9c-0.1,0.5-0.7,0.9-1,1.3c-0.3,0.5-0.4,0.5-0.8,0.7
			c-0.3,0.2-1.8,0.5-2.4,0.4c-0.4-0.1-0.7-0.1-1-0.2l0.2-0.9C139.2,150.4,139.4,150.5,139.6,150.5z"/>
	</g>
	<g id="XMLID_3188_">
		<path id="XMLID_4_" class="st1" d="M134.4,150.5l1.6-3.3c0.3,0,0.5,0,0.8-0.1c0.6-0.1,1.3-0.1,2-0.1l-1.1,4.1
			C136.7,151.1,135.6,150.8,134.4,150.5z"/>
	</g>
	<g id="XMLID_3187_">
		<path id="XMLID_3_" class="st1" d="M137.4,151.8l-0.2,0.9c-1.3-0.2-2.1-0.5-3.4-0.9l0.4-0.8C135.3,151.4,136.5,151.7,137.4,151.8z
			"/>
	</g>
	<g id="XMLID_3184_">
		<g id="XMLID_3186_">
			<path id="XMLID_2_" class="st1" d="M123.7,143.7l0.2-3.1c0.5-0.3,1.1-0.5,1.6-0.9l0,3.7C124.9,143.5,124.3,143.6,123.7,143.7z"/>
		</g>
		<g id="XMLID_3185_">
			<path id="XMLID_1_" class="st1" d="M125.5,144l0,0.9c-0.2,0-0.4,0.1-0.6,0.1c-0.4,0.1-0.9,0.1-1.4,0.2l0.1-0.9
				C124.3,144.1,124.9,144.1,125.5,144z"/>
		</g>
	</g>
</g>
</svg>
